  0
SECTION
  2
HEADER
  9
$ANGBASE
  50
0.0
  9
$ANGDIR
  70
1
  9
$MEASUREMENT
  70
1
  0
ENDSEC
  0
SECTION
  2
TABLES
  0
TABLE
  2
LTYPE
  70
4
  0
LTYPE
  5
40F
  2
CONTINUOUS
  70
0
  3
Solid line
  72
65
  73
0
  40
0.0
  0
LTYPE
  5
410
  2
DASHDOT
 70
0
  3
Dash Dot ____ _ ____ _
 72
65
 73
4
 40
2.0
 49
1.25
 49
-0.25
 49
0.25
 49
-0.25
  0
LTYPE
  5
411
  2
DASHED
 70
0
  3
Dashed __ __ __ __ __
 72
65
 73
2
 40
0.75
 49
0.5
 49
-0.25
  0
LTYPE
  5
43B
  2
DOTTED
 70
0
  3
Dotted .  .  .  .
 72
65
 73
2
 40
0.2
 49
0.0
 49
-0.2
  0
ENDTAB
  0
TABLE
  2
STYLE
  70
4
  0
STYLE
  2
KICAD
  70
0
  40
0
  41
1
  42
1
  50
0
  71
0
  3
isocp.shx
  0
STYLE
  2
KICADB
  70
0
  40
0
  41
1
  42
1
  50
0
  71
0
  3
isocp.shx
  0
STYLE
  2
KICADI
  70
0
  40
0
  41
1
  42
1
  50
15
  71
0
  3
isocp.shx
  0
STYLE
  2
KICADBI
  70
0
  40
0
  41
1
  42
1
  50
15
  71
0
  3
isocp.shx
  0
ENDTAB
  0
TABLE
  2
LAYER
  70
1
  0
LAYER
  2
BLACK
  70
0
  62
7
  6
CONTINUOUS
  0
ENDTAB
  0
ENDSEC
  0
SECTION
  2
ENTITIES
0
LINE
8
BLACK
6
CONTINUOUS
10
72.8
20
-74.0225
11
72.43
21
-74.0225
0
LINE
8
BLACK
6
CONTINUOUS
10
72.43
20
-74.0225
11
72.43
21
-76.6364
0
LINE
8
BLACK
6
CONTINUOUS
10
72.43
20
-76.6364
11
72.5084
21
-76.6963
0
LINE
8
BLACK
6
CONTINUOUS
10
72.5084
20
-76.6963
11
72.6304
21
-76.8407
0
LINE
8
BLACK
6
CONTINUOUS
10
72.6304
20
-76.8407
11
72.7186
21
-77.0079
0
LINE
8
BLACK
6
CONTINUOUS
10
72.7186
20
-77.0079
11
72.7687
21
-77.1901
0
LINE
8
BLACK
6
CONTINUOUS
10
72.7687
20
-77.1901
11
72.7786
21
-77.3788
0
LINE
8
BLACK
6
CONTINUOUS
10
72.7786
20
-77.3788
11
72.7478
21
-77.5653
0
LINE
8
BLACK
6
CONTINUOUS
10
72.7478
20
-77.5653
11
72.6776
21
-77.7408
0
LINE
8
BLACK
6
CONTINUOUS
10
72.6776
20
-77.7408
11
72.5713
21
-77.8971
0
LINE
8
BLACK
6
CONTINUOUS
10
72.5713
20
-77.8971
11
72.434
21
-78.027
0
LINE
8
BLACK
6
CONTINUOUS
10
72.434
20
-78.027
11
72.43
21
-78.0294
0
LINE
8
BLACK
6
CONTINUOUS
10
72.43
20
-78.0294
11
72.43
21
-84.1564
0
LINE
8
BLACK
6
CONTINUOUS
10
72.43
20
-84.1564
11
72.5084
21
-84.2163
0
LINE
8
BLACK
6
CONTINUOUS
10
72.5084
20
-84.2163
11
72.6304
21
-84.3607
0
LINE
8
BLACK
6
CONTINUOUS
10
72.6304
20
-84.3607
11
72.7186
21
-84.5279
0
LINE
8
BLACK
6
CONTINUOUS
10
72.7186
20
-84.5279
11
72.7687
21
-84.7101
0
LINE
8
BLACK
6
CONTINUOUS
10
72.7687
20
-84.7101
11
72.7786
21
-84.8988
0
LINE
8
BLACK
6
CONTINUOUS
10
72.7786
20
-84.8988
11
72.7478
21
-85.0853
0
LINE
8
BLACK
6
CONTINUOUS
10
72.7478
20
-85.0853
11
72.6776
21
-85.2608
0
LINE
8
BLACK
6
CONTINUOUS
10
72.6776
20
-85.2608
11
72.5713
21
-85.4171
0
LINE
8
BLACK
6
CONTINUOUS
10
72.5713
20
-85.4171
11
72.434
21
-85.547
0
LINE
8
BLACK
6
CONTINUOUS
10
72.434
20
-85.547
11
72.272
21
-85.6443
0
LINE
8
BLACK
6
CONTINUOUS
10
72.272
20
-85.6443
11
72.0929
21
-85.7046
0
LINE
8
BLACK
6
CONTINUOUS
10
72.0929
20
-85.7046
11
71.905
21
-85.725
0
LINE
8
BLACK
6
CONTINUOUS
10
71.905
20
-85.725
11
71.655
21
-85.725
0
LINE
8
BLACK
6
CONTINUOUS
10
71.655
20
-85.725
11
71.5575
21
-85.7195
0
LINE
8
BLACK
6
CONTINUOUS
10
71.5575
20
-85.7195
11
71.373
21
-85.6783
0
LINE
8
BLACK
6
CONTINUOUS
10
71.373
20
-85.6783
11
71.2017
21
-85.5984
0
LINE
8
BLACK
6
CONTINUOUS
10
71.2017
20
-85.5984
11
71.0516
21
-85.4836
0
LINE
8
BLACK
6
CONTINUOUS
10
71.0516
20
-85.4836
11
70.9296
21
-85.3393
0
LINE
8
BLACK
6
CONTINUOUS
10
70.9296
20
-85.3393
11
70.8414
21
-85.1721
0
LINE
8
BLACK
6
CONTINUOUS
10
70.8414
20
-85.1721
11
70.7913
21
-84.9899
0
LINE
8
BLACK
6
CONTINUOUS
10
70.7913
20
-84.9899
11
70.7814
21
-84.8012
0
LINE
8
BLACK
6
CONTINUOUS
10
70.7814
20
-84.8012
11
70.8122
21
-84.6147
0
LINE
8
BLACK
6
CONTINUOUS
10
70.8122
20
-84.6147
11
70.8824
21
-84.4392
0
LINE
8
BLACK
6
CONTINUOUS
10
70.8824
20
-84.4392
11
70.9887
21
-84.2829
0
LINE
8
BLACK
6
CONTINUOUS
10
70.9887
20
-84.2829
11
71.126
21
-84.153
0
LINE
8
BLACK
6
CONTINUOUS
10
71.126
20
-84.153
11
71.13
21
-84.1506
0
LINE
8
BLACK
6
CONTINUOUS
10
71.13
20
-84.1506
11
71.13
21
-78.0236
0
LINE
8
BLACK
6
CONTINUOUS
10
71.13
20
-78.0236
11
71.0516
21
-77.9637
0
LINE
8
BLACK
6
CONTINUOUS
10
71.0516
20
-77.9637
11
70.9296
21
-77.8193
0
LINE
8
BLACK
6
CONTINUOUS
10
70.9296
20
-77.8193
11
70.8414
21
-77.6521
0
LINE
8
BLACK
6
CONTINUOUS
10
70.8414
20
-77.6521
11
70.7913
21
-77.4699
0
LINE
8
BLACK
6
CONTINUOUS
10
70.7913
20
-77.4699
11
70.7814
21
-77.2812
0
LINE
8
BLACK
6
CONTINUOUS
10
70.7814
20
-77.2812
11
70.8122
21
-77.0947
0
LINE
8
BLACK
6
CONTINUOUS
10
70.8122
20
-77.0947
11
70.8824
21
-76.9192
0
LINE
8
BLACK
6
CONTINUOUS
10
70.8824
20
-76.9192
11
70.9887
21
-76.7629
0
LINE
8
BLACK
6
CONTINUOUS
10
70.9887
20
-76.7629
11
71.126
21
-76.633
0
LINE
8
BLACK
6
CONTINUOUS
10
71.126
20
-76.633
11
71.13
21
-76.6306
0
LINE
8
BLACK
6
CONTINUOUS
10
71.13
20
-76.6306
11
71.13
21
-74.0225
0
LINE
8
BLACK
6
CONTINUOUS
10
71.13
20
-74.0225
11
70.8
21
-74.0225
0
LINE
8
BLACK
6
CONTINUOUS
10
70.8
20
-74.0225
11
70.8
21
-71.7225
0
LINE
8
BLACK
6
CONTINUOUS
10
70.8
20
-71.7225
11
72.8
21
-71.7225
0
LINE
8
BLACK
6
CONTINUOUS
10
72.8
20
-71.7225
11
72.8
21
-74.0225
0
LINE
8
BLACK
6
CONTINUOUS
10
76.9202
20
-71.7288
11
77.1266
21
-71.7699
0
LINE
8
BLACK
6
CONTINUOUS
10
77.1266
20
-71.7699
11
77.3221
21
-71.8478
0
LINE
8
BLACK
6
CONTINUOUS
10
77.3221
20
-71.8478
11
77.5001
21
-71.9601
0
LINE
8
BLACK
6
CONTINUOUS
10
77.5001
20
-71.9601
11
77.6546
21
-72.103
0
LINE
8
BLACK
6
CONTINUOUS
10
77.6546
20
-72.103
11
77.7805
21
-72.2716
0
LINE
8
BLACK
6
CONTINUOUS
10
77.7805
20
-72.2716
11
77.8736
21
-72.4604
0
LINE
8
BLACK
6
CONTINUOUS
10
77.8736
20
-72.4604
11
77.9307
21
-72.6629
0
LINE
8
BLACK
6
CONTINUOUS
10
77.9307
20
-72.6629
11
77.95
21
-72.8725
0
LINE
8
BLACK
6
CONTINUOUS
10
77.95
20
-72.8725
11
77.9484
21
-72.9327
0
LINE
8
BLACK
6
CONTINUOUS
10
77.9484
20
-72.9327
11
77.9182
21
-73.141
0
LINE
8
BLACK
6
CONTINUOUS
10
77.9182
20
-73.141
11
77.8506
21
-73.3402
0
LINE
8
BLACK
6
CONTINUOUS
10
77.8506
20
-73.3402
11
77.7477
21
-73.5239
0
LINE
8
BLACK
6
CONTINUOUS
10
77.7477
20
-73.5239
11
77.6132
21
-73.6857
0
LINE
8
BLACK
6
CONTINUOUS
10
77.6132
20
-73.6857
11
77.4514
21
-73.8202
0
LINE
8
BLACK
6
CONTINUOUS
10
77.4514
20
-73.8202
11
77.45
21
-73.821
0
LINE
8
BLACK
6
CONTINUOUS
10
77.45
20
-73.821
11
77.45
21
-76.6517
0
LINE
8
BLACK
6
CONTINUOUS
10
77.45
20
-76.6517
11
77.5084
21
-76.6963
0
LINE
8
BLACK
6
CONTINUOUS
10
77.5084
20
-76.6963
11
77.6304
21
-76.8407
0
LINE
8
BLACK
6
CONTINUOUS
10
77.6304
20
-76.8407
11
77.7186
21
-77.0079
0
LINE
8
BLACK
6
CONTINUOUS
10
77.7186
20
-77.0079
11
77.7687
21
-77.1901
0
LINE
8
BLACK
6
CONTINUOUS
10
77.7687
20
-77.1901
11
77.7786
21
-77.3788
0
LINE
8
BLACK
6
CONTINUOUS
10
77.7786
20
-77.3788
11
77.7478
21
-77.5653
0
LINE
8
BLACK
6
CONTINUOUS
10
77.7478
20
-77.5653
11
77.6776
21
-77.7408
0
LINE
8
BLACK
6
CONTINUOUS
10
77.6776
20
-77.7408
11
77.5713
21
-77.8971
0
LINE
8
BLACK
6
CONTINUOUS
10
77.5713
20
-77.8971
11
77.434
21
-78.027
0
LINE
8
BLACK
6
CONTINUOUS
10
77.434
20
-78.027
11
77.43
21
-78.0294
0
LINE
8
BLACK
6
CONTINUOUS
10
77.43
20
-78.0294
11
77.43
21
-84.1564
0
LINE
8
BLACK
6
CONTINUOUS
10
77.43
20
-84.1564
11
77.5084
21
-84.2163
0
LINE
8
BLACK
6
CONTINUOUS
10
77.5084
20
-84.2163
11
77.6304
21
-84.3607
0
LINE
8
BLACK
6
CONTINUOUS
10
77.6304
20
-84.3607
11
77.7186
21
-84.5279
0
LINE
8
BLACK
6
CONTINUOUS
10
77.7186
20
-84.5279
11
77.7687
21
-84.7101
0
LINE
8
BLACK
6
CONTINUOUS
10
77.7687
20
-84.7101
11
77.7786
21
-84.8988
0
LINE
8
BLACK
6
CONTINUOUS
10
77.7786
20
-84.8988
11
77.7478
21
-85.0853
0
LINE
8
BLACK
6
CONTINUOUS
10
77.7478
20
-85.0853
11
77.6776
21
-85.2608
0
LINE
8
BLACK
6
CONTINUOUS
10
77.6776
20
-85.2608
11
77.5713
21
-85.4171
0
LINE
8
BLACK
6
CONTINUOUS
10
77.5713
20
-85.4171
11
77.434
21
-85.547
0
LINE
8
BLACK
6
CONTINUOUS
10
77.434
20
-85.547
11
77.272
21
-85.6443
0
LINE
8
BLACK
6
CONTINUOUS
10
77.272
20
-85.6443
11
77.0929
21
-85.7046
0
LINE
8
BLACK
6
CONTINUOUS
10
77.0929
20
-85.7046
11
76.905
21
-85.725
0
LINE
8
BLACK
6
CONTINUOUS
10
76.905
20
-85.725
11
76.655
21
-85.725
0
LINE
8
BLACK
6
CONTINUOUS
10
76.655
20
-85.725
11
76.5575
21
-85.7195
0
LINE
8
BLACK
6
CONTINUOUS
10
76.5575
20
-85.7195
11
76.373
21
-85.6783
0
LINE
8
BLACK
6
CONTINUOUS
10
76.373
20
-85.6783
11
76.2017
21
-85.5984
0
LINE
8
BLACK
6
CONTINUOUS
10
76.2017
20
-85.5984
11
76.0516
21
-85.4836
0
LINE
8
BLACK
6
CONTINUOUS
10
76.0516
20
-85.4836
11
75.9296
21
-85.3393
0
LINE
8
BLACK
6
CONTINUOUS
10
75.9296
20
-85.3393
11
75.8414
21
-85.1721
0
LINE
8
BLACK
6
CONTINUOUS
10
75.8414
20
-85.1721
11
75.7913
21
-84.9899
0
LINE
8
BLACK
6
CONTINUOUS
10
75.7913
20
-84.9899
11
75.7814
21
-84.8012
0
LINE
8
BLACK
6
CONTINUOUS
10
75.7814
20
-84.8012
11
75.8122
21
-84.6147
0
LINE
8
BLACK
6
CONTINUOUS
10
75.8122
20
-84.6147
11
75.8824
21
-84.4392
0
LINE
8
BLACK
6
CONTINUOUS
10
75.8824
20
-84.4392
11
75.9887
21
-84.2829
0
LINE
8
BLACK
6
CONTINUOUS
10
75.9887
20
-84.2829
11
76.126
21
-84.153
0
LINE
8
BLACK
6
CONTINUOUS
10
76.126
20
-84.153
11
76.13
21
-84.1506
0
LINE
8
BLACK
6
CONTINUOUS
10
76.13
20
-84.1506
11
76.13
21
-78.0236
0
LINE
8
BLACK
6
CONTINUOUS
10
76.13
20
-78.0236
11
76.0516
21
-77.9637
0
LINE
8
BLACK
6
CONTINUOUS
10
76.0516
20
-77.9637
11
75.9296
21
-77.8193
0
LINE
8
BLACK
6
CONTINUOUS
10
75.9296
20
-77.8193
11
75.8414
21
-77.6521
0
LINE
8
BLACK
6
CONTINUOUS
10
75.8414
20
-77.6521
11
75.7913
21
-77.4699
0
LINE
8
BLACK
6
CONTINUOUS
10
75.7913
20
-77.4699
11
75.7814
21
-77.2812
0
LINE
8
BLACK
6
CONTINUOUS
10
75.7814
20
-77.2812
11
75.8122
21
-77.0947
0
LINE
8
BLACK
6
CONTINUOUS
10
75.8122
20
-77.0947
11
75.8824
21
-76.9192
0
LINE
8
BLACK
6
CONTINUOUS
10
75.8824
20
-76.9192
11
75.9887
21
-76.7629
0
LINE
8
BLACK
6
CONTINUOUS
10
75.9887
20
-76.7629
11
76.126
21
-76.633
0
LINE
8
BLACK
6
CONTINUOUS
10
76.126
20
-76.633
11
76.15
21
-76.6186
0
LINE
8
BLACK
6
CONTINUOUS
10
76.15
20
-76.6186
11
76.15
21
-73.8155
0
LINE
8
BLACK
6
CONTINUOUS
10
76.15
20
-73.8155
11
76.0763
21
-73.7662
0
LINE
8
BLACK
6
CONTINUOUS
10
76.0763
20
-73.7662
11
75.9255
21
-73.6194
0
LINE
8
BLACK
6
CONTINUOUS
10
75.9255
20
-73.6194
11
75.8041
21
-73.4475
0
LINE
8
BLACK
6
CONTINUOUS
10
75.8041
20
-73.4475
11
75.716
21
-73.2564
0
LINE
8
BLACK
6
CONTINUOUS
10
75.716
20
-73.2564
11
75.6642
21
-73.0524
0
LINE
8
BLACK
6
CONTINUOUS
10
75.6642
20
-73.0524
11
75.6504
21
-72.8424
0
LINE
8
BLACK
6
CONTINUOUS
10
75.6504
20
-72.8424
11
75.6751
21
-72.6334
0
LINE
8
BLACK
6
CONTINUOUS
10
75.6751
20
-72.6334
11
75.7375
21
-72.4324
0
LINE
8
BLACK
6
CONTINUOUS
10
75.7375
20
-72.4324
11
75.8355
21
-72.2462
0
LINE
8
BLACK
6
CONTINUOUS
10
75.8355
20
-72.2462
11
75.9658
21
-72.0809
0
LINE
8
BLACK
6
CONTINUOUS
10
75.9658
20
-72.0809
11
76.124
21
-71.9421
0
LINE
8
BLACK
6
CONTINUOUS
10
76.124
20
-71.9421
11
76.3049
21
-71.8345
0
LINE
8
BLACK
6
CONTINUOUS
10
76.3049
20
-71.8345
11
76.5024
21
-71.7617
0
LINE
8
BLACK
6
CONTINUOUS
10
76.5024
20
-71.7617
11
76.7098
21
-71.726
0
LINE
8
BLACK
6
CONTINUOUS
10
76.7098
20
-71.726
11
76.9202
21
-71.7288
0
LINE
8
BLACK
6
CONTINUOUS
10
36.7053
20
-83.797
11
36.85
21
-83.8569
0
LINE
8
BLACK
6
CONTINUOUS
10
36.85
20
-83.8569
11
36.9743
21
-83.9523
0
LINE
8
BLACK
6
CONTINUOUS
10
36.9743
20
-83.9523
11
37.0696
21
-84.0766
0
LINE
8
BLACK
6
CONTINUOUS
10
37.0696
20
-84.0766
11
37.1296
21
-84.2213
0
LINE
8
BLACK
6
CONTINUOUS
10
37.1296
20
-84.2213
11
37.15
21
-84.3766
0
LINE
8
BLACK
6
CONTINUOUS
10
37.15
20
-84.3766
11
37.1296
21
-84.5319
0
LINE
8
BLACK
6
CONTINUOUS
10
37.1296
20
-84.5319
11
37.0696
21
-84.6766
0
LINE
8
BLACK
6
CONTINUOUS
10
37.0696
20
-84.6766
11
36.9743
21
-84.8008
0
LINE
8
BLACK
6
CONTINUOUS
10
36.9743
20
-84.8008
11
36.85
21
-84.8962
0
LINE
8
BLACK
6
CONTINUOUS
10
36.85
20
-84.8962
11
36.7053
21
-84.9561
0
LINE
8
BLACK
6
CONTINUOUS
10
36.7053
20
-84.9561
11
36.55
21
-84.9766
0
LINE
8
BLACK
6
CONTINUOUS
10
36.55
20
-84.9766
11
35.75
21
-84.9766
0
LINE
8
BLACK
6
CONTINUOUS
10
35.75
20
-84.9766
11
35.5947
21
-84.9561
0
LINE
8
BLACK
6
CONTINUOUS
10
35.5947
20
-84.9561
11
35.45
21
-84.8962
0
LINE
8
BLACK
6
CONTINUOUS
10
35.45
20
-84.8962
11
35.3257
21
-84.8008
0
LINE
8
BLACK
6
CONTINUOUS
10
35.3257
20
-84.8008
11
35.2304
21
-84.6766
0
LINE
8
BLACK
6
CONTINUOUS
10
35.2304
20
-84.6766
11
35.1704
21
-84.5319
0
LINE
8
BLACK
6
CONTINUOUS
10
35.1704
20
-84.5319
11
35.15
21
-84.3766
0
LINE
8
BLACK
6
CONTINUOUS
10
35.15
20
-84.3766
11
35.1704
21
-84.2213
0
LINE
8
BLACK
6
CONTINUOUS
10
35.1704
20
-84.2213
11
35.2304
21
-84.0766
0
LINE
8
BLACK
6
CONTINUOUS
10
35.2304
20
-84.0766
11
35.3257
21
-83.9523
0
LINE
8
BLACK
6
CONTINUOUS
10
35.3257
20
-83.9523
11
35.45
21
-83.8569
0
LINE
8
BLACK
6
CONTINUOUS
10
35.45
20
-83.8569
11
35.5947
21
-83.797
0
LINE
8
BLACK
6
CONTINUOUS
10
35.5947
20
-83.797
11
35.75
21
-83.7766
0
LINE
8
BLACK
6
CONTINUOUS
10
35.75
20
-83.7766
11
36.55
21
-83.7766
0
LINE
8
BLACK
6
CONTINUOUS
10
36.55
20
-83.7766
11
36.7053
21
-83.797
0
LINE
8
BLACK
6
CONTINUOUS
10
62.1016
20
-83.7943
11
62.2463
21
-83.8542
0
LINE
8
BLACK
6
CONTINUOUS
10
62.2463
20
-83.8542
11
62.3706
21
-83.9496
0
LINE
8
BLACK
6
CONTINUOUS
10
62.3706
20
-83.9496
11
62.4659
21
-84.0738
0
LINE
8
BLACK
6
CONTINUOUS
10
62.4659
20
-84.0738
11
62.5259
21
-84.2185
0
LINE
8
BLACK
6
CONTINUOUS
10
62.5259
20
-84.2185
11
62.5463
21
-84.3738
0
LINE
8
BLACK
6
CONTINUOUS
10
62.5463
20
-84.3738
11
62.5259
21
-84.5291
0
LINE
8
BLACK
6
CONTINUOUS
10
62.5259
20
-84.5291
11
62.4659
21
-84.6738
0
LINE
8
BLACK
6
CONTINUOUS
10
62.4659
20
-84.6738
11
62.3706
21
-84.7981
0
LINE
8
BLACK
6
CONTINUOUS
10
62.3706
20
-84.7981
11
62.2463
21
-84.8935
0
LINE
8
BLACK
6
CONTINUOUS
10
62.2463
20
-84.8935
11
62.1016
21
-84.9534
0
LINE
8
BLACK
6
CONTINUOUS
10
62.1016
20
-84.9534
11
61.9463
21
-84.9738
0
LINE
8
BLACK
6
CONTINUOUS
10
61.9463
20
-84.9738
11
61.1463
21
-84.9738
0
LINE
8
BLACK
6
CONTINUOUS
10
61.1463
20
-84.9738
11
60.991
21
-84.9534
0
LINE
8
BLACK
6
CONTINUOUS
10
60.991
20
-84.9534
11
60.8463
21
-84.8935
0
LINE
8
BLACK
6
CONTINUOUS
10
60.8463
20
-84.8935
11
60.7221
21
-84.7981
0
LINE
8
BLACK
6
CONTINUOUS
10
60.7221
20
-84.7981
11
60.6267
21
-84.6738
0
LINE
8
BLACK
6
CONTINUOUS
10
60.6267
20
-84.6738
11
60.5668
21
-84.5291
0
LINE
8
BLACK
6
CONTINUOUS
10
60.5668
20
-84.5291
11
60.5463
21
-84.3738
0
LINE
8
BLACK
6
CONTINUOUS
10
60.5463
20
-84.3738
11
60.5668
21
-84.2185
0
LINE
8
BLACK
6
CONTINUOUS
10
60.5668
20
-84.2185
11
60.6267
21
-84.0738
0
LINE
8
BLACK
6
CONTINUOUS
10
60.6267
20
-84.0738
11
60.7221
21
-83.9496
0
LINE
8
BLACK
6
CONTINUOUS
10
60.7221
20
-83.9496
11
60.8463
21
-83.8542
0
LINE
8
BLACK
6
CONTINUOUS
10
60.8463
20
-83.8542
11
60.991
21
-83.7943
0
LINE
8
BLACK
6
CONTINUOUS
10
60.991
20
-83.7943
11
61.1463
21
-83.7738
0
LINE
8
BLACK
6
CONTINUOUS
10
61.1463
20
-83.7738
11
61.9463
21
-83.7738
0
LINE
8
BLACK
6
CONTINUOUS
10
61.9463
20
-83.7738
11
62.1016
21
-83.7943
0
LINE
8
BLACK
6
CONTINUOUS
10
36.7053
20
-81.257
11
36.85
21
-81.3169
0
LINE
8
BLACK
6
CONTINUOUS
10
36.85
20
-81.3169
11
36.9743
21
-81.4123
0
LINE
8
BLACK
6
CONTINUOUS
10
36.9743
20
-81.4123
11
37.0696
21
-81.5366
0
LINE
8
BLACK
6
CONTINUOUS
10
37.0696
20
-81.5366
11
37.1296
21
-81.6813
0
LINE
8
BLACK
6
CONTINUOUS
10
37.1296
20
-81.6813
11
37.15
21
-81.8366
0
LINE
8
BLACK
6
CONTINUOUS
10
37.15
20
-81.8366
11
37.1296
21
-81.9919
0
LINE
8
BLACK
6
CONTINUOUS
10
37.1296
20
-81.9919
11
37.0696
21
-82.1366
0
LINE
8
BLACK
6
CONTINUOUS
10
37.0696
20
-82.1366
11
36.9743
21
-82.2608
0
LINE
8
BLACK
6
CONTINUOUS
10
36.9743
20
-82.2608
11
36.85
21
-82.3562
0
LINE
8
BLACK
6
CONTINUOUS
10
36.85
20
-82.3562
11
36.7053
21
-82.4161
0
LINE
8
BLACK
6
CONTINUOUS
10
36.7053
20
-82.4161
11
36.55
21
-82.4366
0
LINE
8
BLACK
6
CONTINUOUS
10
36.55
20
-82.4366
11
35.75
21
-82.4366
0
LINE
8
BLACK
6
CONTINUOUS
10
35.75
20
-82.4366
11
35.5947
21
-82.4161
0
LINE
8
BLACK
6
CONTINUOUS
10
35.5947
20
-82.4161
11
35.45
21
-82.3562
0
LINE
8
BLACK
6
CONTINUOUS
10
35.45
20
-82.3562
11
35.3257
21
-82.2608
0
LINE
8
BLACK
6
CONTINUOUS
10
35.3257
20
-82.2608
11
35.2304
21
-82.1366
0
LINE
8
BLACK
6
CONTINUOUS
10
35.2304
20
-82.1366
11
35.1704
21
-81.9919
0
LINE
8
BLACK
6
CONTINUOUS
10
35.1704
20
-81.9919
11
35.15
21
-81.8366
0
LINE
8
BLACK
6
CONTINUOUS
10
35.15
20
-81.8366
11
35.1704
21
-81.6813
0
LINE
8
BLACK
6
CONTINUOUS
10
35.1704
20
-81.6813
11
35.2304
21
-81.5366
0
LINE
8
BLACK
6
CONTINUOUS
10
35.2304
20
-81.5366
11
35.3257
21
-81.4123
0
LINE
8
BLACK
6
CONTINUOUS
10
35.3257
20
-81.4123
11
35.45
21
-81.3169
0
LINE
8
BLACK
6
CONTINUOUS
10
35.45
20
-81.3169
11
35.5947
21
-81.257
0
LINE
8
BLACK
6
CONTINUOUS
10
35.5947
20
-81.257
11
35.75
21
-81.2366
0
LINE
8
BLACK
6
CONTINUOUS
10
35.75
20
-81.2366
11
36.55
21
-81.2366
0
LINE
8
BLACK
6
CONTINUOUS
10
36.55
20
-81.2366
11
36.7053
21
-81.257
0
LINE
8
BLACK
6
CONTINUOUS
10
62.1016
20
-81.2543
11
62.2463
21
-81.3142
0
LINE
8
BLACK
6
CONTINUOUS
10
62.2463
20
-81.3142
11
62.3706
21
-81.4096
0
LINE
8
BLACK
6
CONTINUOUS
10
62.3706
20
-81.4096
11
62.4659
21
-81.5338
0
LINE
8
BLACK
6
CONTINUOUS
10
62.4659
20
-81.5338
11
62.5259
21
-81.6785
0
LINE
8
BLACK
6
CONTINUOUS
10
62.5259
20
-81.6785
11
62.5463
21
-81.8338
0
LINE
8
BLACK
6
CONTINUOUS
10
62.5463
20
-81.8338
11
62.5259
21
-81.9891
0
LINE
8
BLACK
6
CONTINUOUS
10
62.5259
20
-81.9891
11
62.4659
21
-82.1338
0
LINE
8
BLACK
6
CONTINUOUS
10
62.4659
20
-82.1338
11
62.3706
21
-82.2581
0
LINE
8
BLACK
6
CONTINUOUS
10
62.3706
20
-82.2581
11
62.2463
21
-82.3535
0
LINE
8
BLACK
6
CONTINUOUS
10
62.2463
20
-82.3535
11
62.1016
21
-82.4134
0
LINE
8
BLACK
6
CONTINUOUS
10
62.1016
20
-82.4134
11
61.9463
21
-82.4338
0
LINE
8
BLACK
6
CONTINUOUS
10
61.9463
20
-82.4338
11
61.1463
21
-82.4338
0
LINE
8
BLACK
6
CONTINUOUS
10
61.1463
20
-82.4338
11
60.991
21
-82.4134
0
LINE
8
BLACK
6
CONTINUOUS
10
60.991
20
-82.4134
11
60.8463
21
-82.3535
0
LINE
8
BLACK
6
CONTINUOUS
10
60.8463
20
-82.3535
11
60.7221
21
-82.2581
0
LINE
8
BLACK
6
CONTINUOUS
10
60.7221
20
-82.2581
11
60.6267
21
-82.1338
0
LINE
8
BLACK
6
CONTINUOUS
10
60.6267
20
-82.1338
11
60.5668
21
-81.9891
0
LINE
8
BLACK
6
CONTINUOUS
10
60.5668
20
-81.9891
11
60.5463
21
-81.8338
0
LINE
8
BLACK
6
CONTINUOUS
10
60.5463
20
-81.8338
11
60.5668
21
-81.6785
0
LINE
8
BLACK
6
CONTINUOUS
10
60.5668
20
-81.6785
11
60.6267
21
-81.5338
0
LINE
8
BLACK
6
CONTINUOUS
10
60.6267
20
-81.5338
11
60.7221
21
-81.4096
0
LINE
8
BLACK
6
CONTINUOUS
10
60.7221
20
-81.4096
11
60.8463
21
-81.3142
0
LINE
8
BLACK
6
CONTINUOUS
10
60.8463
20
-81.3142
11
60.991
21
-81.2543
0
LINE
8
BLACK
6
CONTINUOUS
10
60.991
20
-81.2543
11
61.1463
21
-81.2338
0
LINE
8
BLACK
6
CONTINUOUS
10
61.1463
20
-81.2338
11
61.9463
21
-81.2338
0
LINE
8
BLACK
6
CONTINUOUS
10
61.9463
20
-81.2338
11
62.1016
21
-81.2543
0
LINE
8
BLACK
6
CONTINUOUS
10
62.1053
20
-78.717
11
62.25
21
-78.7769
0
LINE
8
BLACK
6
CONTINUOUS
10
62.25
20
-78.7769
11
62.3743
21
-78.8723
0
LINE
8
BLACK
6
CONTINUOUS
10
62.3743
20
-78.8723
11
62.4696
21
-78.9966
0
LINE
8
BLACK
6
CONTINUOUS
10
62.4696
20
-78.9966
11
62.5296
21
-79.1413
0
LINE
8
BLACK
6
CONTINUOUS
10
62.5296
20
-79.1413
11
62.55
21
-79.2966
0
LINE
8
BLACK
6
CONTINUOUS
10
62.55
20
-79.2966
11
62.5296
21
-79.4519
0
LINE
8
BLACK
6
CONTINUOUS
10
62.5296
20
-79.4519
11
62.4696
21
-79.5966
0
LINE
8
BLACK
6
CONTINUOUS
10
62.4696
20
-79.5966
11
62.3743
21
-79.7208
0
LINE
8
BLACK
6
CONTINUOUS
10
62.3743
20
-79.7208
11
62.25
21
-79.8162
0
LINE
8
BLACK
6
CONTINUOUS
10
62.25
20
-79.8162
11
62.1053
21
-79.8761
0
LINE
8
BLACK
6
CONTINUOUS
10
62.1053
20
-79.8761
11
61.95
21
-79.8966
0
LINE
8
BLACK
6
CONTINUOUS
10
61.95
20
-79.8966
11
61.15
21
-79.8966
0
LINE
8
BLACK
6
CONTINUOUS
10
61.15
20
-79.8966
11
60.9947
21
-79.8761
0
LINE
8
BLACK
6
CONTINUOUS
10
60.9947
20
-79.8761
11
60.85
21
-79.8162
0
LINE
8
BLACK
6
CONTINUOUS
10
60.85
20
-79.8162
11
60.7257
21
-79.7208
0
LINE
8
BLACK
6
CONTINUOUS
10
60.7257
20
-79.7208
11
60.6304
21
-79.5966
0
LINE
8
BLACK
6
CONTINUOUS
10
60.6304
20
-79.5966
11
60.5704
21
-79.4519
0
LINE
8
BLACK
6
CONTINUOUS
10
60.5704
20
-79.4519
11
60.55
21
-79.2966
0
LINE
8
BLACK
6
CONTINUOUS
10
60.55
20
-79.2966
11
60.5704
21
-79.1413
0
LINE
8
BLACK
6
CONTINUOUS
10
60.5704
20
-79.1413
11
60.6304
21
-78.9966
0
LINE
8
BLACK
6
CONTINUOUS
10
60.6304
20
-78.9966
11
60.7257
21
-78.8723
0
LINE
8
BLACK
6
CONTINUOUS
10
60.7257
20
-78.8723
11
60.85
21
-78.7769
0
LINE
8
BLACK
6
CONTINUOUS
10
60.85
20
-78.7769
11
60.9947
21
-78.717
0
LINE
8
BLACK
6
CONTINUOUS
10
60.9947
20
-78.717
11
61.15
21
-78.6966
0
LINE
8
BLACK
6
CONTINUOUS
10
61.15
20
-78.6966
11
61.95
21
-78.6966
0
LINE
8
BLACK
6
CONTINUOUS
10
61.95
20
-78.6966
11
62.1053
21
-78.717
0
LINE
8
BLACK
6
CONTINUOUS
10
36.7053
20
-78.717
11
36.85
21
-78.7769
0
LINE
8
BLACK
6
CONTINUOUS
10
36.85
20
-78.7769
11
36.9743
21
-78.8723
0
LINE
8
BLACK
6
CONTINUOUS
10
36.9743
20
-78.8723
11
37.0696
21
-78.9966
0
LINE
8
BLACK
6
CONTINUOUS
10
37.0696
20
-78.9966
11
37.1296
21
-79.1413
0
LINE
8
BLACK
6
CONTINUOUS
10
37.1296
20
-79.1413
11
37.15
21
-79.2966
0
LINE
8
BLACK
6
CONTINUOUS
10
37.15
20
-79.2966
11
37.1296
21
-79.4519
0
LINE
8
BLACK
6
CONTINUOUS
10
37.1296
20
-79.4519
11
37.0696
21
-79.5966
0
LINE
8
BLACK
6
CONTINUOUS
10
37.0696
20
-79.5966
11
36.9743
21
-79.7208
0
LINE
8
BLACK
6
CONTINUOUS
10
36.9743
20
-79.7208
11
36.85
21
-79.8162
0
LINE
8
BLACK
6
CONTINUOUS
10
36.85
20
-79.8162
11
36.7053
21
-79.8761
0
LINE
8
BLACK
6
CONTINUOUS
10
36.7053
20
-79.8761
11
36.55
21
-79.8966
0
LINE
8
BLACK
6
CONTINUOUS
10
36.55
20
-79.8966
11
35.75
21
-79.8966
0
LINE
8
BLACK
6
CONTINUOUS
10
35.75
20
-79.8966
11
35.5947
21
-79.8761
0
LINE
8
BLACK
6
CONTINUOUS
10
35.5947
20
-79.8761
11
35.45
21
-79.8162
0
LINE
8
BLACK
6
CONTINUOUS
10
35.45
20
-79.8162
11
35.3257
21
-79.7208
0
LINE
8
BLACK
6
CONTINUOUS
10
35.3257
20
-79.7208
11
35.2304
21
-79.5966
0
LINE
8
BLACK
6
CONTINUOUS
10
35.2304
20
-79.5966
11
35.1704
21
-79.4519
0
LINE
8
BLACK
6
CONTINUOUS
10
35.1704
20
-79.4519
11
35.15
21
-79.2966
0
LINE
8
BLACK
6
CONTINUOUS
10
35.15
20
-79.2966
11
35.1704
21
-79.1413
0
LINE
8
BLACK
6
CONTINUOUS
10
35.1704
20
-79.1413
11
35.2304
21
-78.9966
0
LINE
8
BLACK
6
CONTINUOUS
10
35.2304
20
-78.9966
11
35.3257
21
-78.8723
0
LINE
8
BLACK
6
CONTINUOUS
10
35.3257
20
-78.8723
11
35.45
21
-78.7769
0
LINE
8
BLACK
6
CONTINUOUS
10
35.45
20
-78.7769
11
35.5947
21
-78.717
0
LINE
8
BLACK
6
CONTINUOUS
10
35.5947
20
-78.717
11
35.75
21
-78.6966
0
LINE
8
BLACK
6
CONTINUOUS
10
35.75
20
-78.6966
11
36.55
21
-78.6966
0
LINE
8
BLACK
6
CONTINUOUS
10
36.55
20
-78.6966
11
36.7053
21
-78.717
0
LINE
8
BLACK
6
CONTINUOUS
10
36.7053
20
-76.177
11
36.85
21
-76.2369
0
LINE
8
BLACK
6
CONTINUOUS
10
36.85
20
-76.2369
11
36.9743
21
-76.3323
0
LINE
8
BLACK
6
CONTINUOUS
10
36.9743
20
-76.3323
11
37.0696
21
-76.4566
0
LINE
8
BLACK
6
CONTINUOUS
10
37.0696
20
-76.4566
11
37.1296
21
-76.6013
0
LINE
8
BLACK
6
CONTINUOUS
10
37.1296
20
-76.6013
11
37.15
21
-76.7566
0
LINE
8
BLACK
6
CONTINUOUS
10
37.15
20
-76.7566
11
37.1296
21
-76.9119
0
LINE
8
BLACK
6
CONTINUOUS
10
37.1296
20
-76.9119
11
37.0696
21
-77.0566
0
LINE
8
BLACK
6
CONTINUOUS
10
37.0696
20
-77.0566
11
36.9743
21
-77.1808
0
LINE
8
BLACK
6
CONTINUOUS
10
36.9743
20
-77.1808
11
36.85
21
-77.2762
0
LINE
8
BLACK
6
CONTINUOUS
10
36.85
20
-77.2762
11
36.7053
21
-77.3361
0
LINE
8
BLACK
6
CONTINUOUS
10
36.7053
20
-77.3361
11
36.55
21
-77.3566
0
LINE
8
BLACK
6
CONTINUOUS
10
36.55
20
-77.3566
11
35.75
21
-77.3566
0
LINE
8
BLACK
6
CONTINUOUS
10
35.75
20
-77.3566
11
35.5947
21
-77.3361
0
LINE
8
BLACK
6
CONTINUOUS
10
35.5947
20
-77.3361
11
35.45
21
-77.2762
0
LINE
8
BLACK
6
CONTINUOUS
10
35.45
20
-77.2762
11
35.3257
21
-77.1808
0
LINE
8
BLACK
6
CONTINUOUS
10
35.3257
20
-77.1808
11
35.2304
21
-77.0566
0
LINE
8
BLACK
6
CONTINUOUS
10
35.2304
20
-77.0566
11
35.1704
21
-76.9119
0
LINE
8
BLACK
6
CONTINUOUS
10
35.1704
20
-76.9119
11
35.15
21
-76.7566
0
LINE
8
BLACK
6
CONTINUOUS
10
35.15
20
-76.7566
11
35.1704
21
-76.6013
0
LINE
8
BLACK
6
CONTINUOUS
10
35.1704
20
-76.6013
11
35.2304
21
-76.4566
0
LINE
8
BLACK
6
CONTINUOUS
10
35.2304
20
-76.4566
11
35.3257
21
-76.3323
0
LINE
8
BLACK
6
CONTINUOUS
10
35.3257
20
-76.3323
11
35.45
21
-76.2369
0
LINE
8
BLACK
6
CONTINUOUS
10
35.45
20
-76.2369
11
35.5947
21
-76.177
0
LINE
8
BLACK
6
CONTINUOUS
10
35.5947
20
-76.177
11
35.75
21
-76.1566
0
LINE
8
BLACK
6
CONTINUOUS
10
35.75
20
-76.1566
11
36.55
21
-76.1566
0
LINE
8
BLACK
6
CONTINUOUS
10
36.55
20
-76.1566
11
36.7053
21
-76.177
0
LINE
8
BLACK
6
CONTINUOUS
10
62.1053
20
-76.177
11
62.25
21
-76.2369
0
LINE
8
BLACK
6
CONTINUOUS
10
62.25
20
-76.2369
11
62.3743
21
-76.3323
0
LINE
8
BLACK
6
CONTINUOUS
10
62.3743
20
-76.3323
11
62.4696
21
-76.4566
0
LINE
8
BLACK
6
CONTINUOUS
10
62.4696
20
-76.4566
11
62.5296
21
-76.6013
0
LINE
8
BLACK
6
CONTINUOUS
10
62.5296
20
-76.6013
11
62.55
21
-76.7566
0
LINE
8
BLACK
6
CONTINUOUS
10
62.55
20
-76.7566
11
62.5296
21
-76.9119
0
LINE
8
BLACK
6
CONTINUOUS
10
62.5296
20
-76.9119
11
62.4696
21
-77.0566
0
LINE
8
BLACK
6
CONTINUOUS
10
62.4696
20
-77.0566
11
62.3743
21
-77.1808
0
LINE
8
BLACK
6
CONTINUOUS
10
62.3743
20
-77.1808
11
62.25
21
-77.2762
0
LINE
8
BLACK
6
CONTINUOUS
10
62.25
20
-77.2762
11
62.1053
21
-77.3361
0
LINE
8
BLACK
6
CONTINUOUS
10
62.1053
20
-77.3361
11
61.95
21
-77.3566
0
LINE
8
BLACK
6
CONTINUOUS
10
61.95
20
-77.3566
11
61.15
21
-77.3566
0
LINE
8
BLACK
6
CONTINUOUS
10
61.15
20
-77.3566
11
60.9947
21
-77.3361
0
LINE
8
BLACK
6
CONTINUOUS
10
60.9947
20
-77.3361
11
60.85
21
-77.2762
0
LINE
8
BLACK
6
CONTINUOUS
10
60.85
20
-77.2762
11
60.7257
21
-77.1808
0
LINE
8
BLACK
6
CONTINUOUS
10
60.7257
20
-77.1808
11
60.6304
21
-77.0566
0
LINE
8
BLACK
6
CONTINUOUS
10
60.6304
20
-77.0566
11
60.5704
21
-76.9119
0
LINE
8
BLACK
6
CONTINUOUS
10
60.5704
20
-76.9119
11
60.55
21
-76.7566
0
LINE
8
BLACK
6
CONTINUOUS
10
60.55
20
-76.7566
11
60.5704
21
-76.6013
0
LINE
8
BLACK
6
CONTINUOUS
10
60.5704
20
-76.6013
11
60.6304
21
-76.4566
0
LINE
8
BLACK
6
CONTINUOUS
10
60.6304
20
-76.4566
11
60.7257
21
-76.3323
0
LINE
8
BLACK
6
CONTINUOUS
10
60.7257
20
-76.3323
11
60.85
21
-76.2369
0
LINE
8
BLACK
6
CONTINUOUS
10
60.85
20
-76.2369
11
60.9947
21
-76.177
0
LINE
8
BLACK
6
CONTINUOUS
10
60.9947
20
-76.177
11
61.15
21
-76.1566
0
LINE
8
BLACK
6
CONTINUOUS
10
61.15
20
-76.1566
11
61.95
21
-76.1566
0
LINE
8
BLACK
6
CONTINUOUS
10
61.95
20
-76.1566
11
62.1053
21
-76.177
0
LINE
8
BLACK
6
CONTINUOUS
10
36.7053
20
-73.637
11
36.85
21
-73.6969
0
LINE
8
BLACK
6
CONTINUOUS
10
36.85
20
-73.6969
11
36.9743
21
-73.7923
0
LINE
8
BLACK
6
CONTINUOUS
10
36.9743
20
-73.7923
11
37.0696
21
-73.9166
0
LINE
8
BLACK
6
CONTINUOUS
10
37.0696
20
-73.9166
11
37.1296
21
-74.0613
0
LINE
8
BLACK
6
CONTINUOUS
10
37.1296
20
-74.0613
11
37.15
21
-74.2166
0
LINE
8
BLACK
6
CONTINUOUS
10
37.15
20
-74.2166
11
37.1296
21
-74.3719
0
LINE
8
BLACK
6
CONTINUOUS
10
37.1296
20
-74.3719
11
37.0696
21
-74.5166
0
LINE
8
BLACK
6
CONTINUOUS
10
37.0696
20
-74.5166
11
36.9743
21
-74.6408
0
LINE
8
BLACK
6
CONTINUOUS
10
36.9743
20
-74.6408
11
36.85
21
-74.7362
0
LINE
8
BLACK
6
CONTINUOUS
10
36.85
20
-74.7362
11
36.7053
21
-74.7961
0
LINE
8
BLACK
6
CONTINUOUS
10
36.7053
20
-74.7961
11
36.55
21
-74.8166
0
LINE
8
BLACK
6
CONTINUOUS
10
36.55
20
-74.8166
11
35.75
21
-74.8166
0
LINE
8
BLACK
6
CONTINUOUS
10
35.75
20
-74.8166
11
35.5947
21
-74.7961
0
LINE
8
BLACK
6
CONTINUOUS
10
35.5947
20
-74.7961
11
35.45
21
-74.7362
0
LINE
8
BLACK
6
CONTINUOUS
10
35.45
20
-74.7362
11
35.3257
21
-74.6408
0
LINE
8
BLACK
6
CONTINUOUS
10
35.3257
20
-74.6408
11
35.2304
21
-74.5166
0
LINE
8
BLACK
6
CONTINUOUS
10
35.2304
20
-74.5166
11
35.1704
21
-74.3719
0
LINE
8
BLACK
6
CONTINUOUS
10
35.1704
20
-74.3719
11
35.15
21
-74.2166
0
LINE
8
BLACK
6
CONTINUOUS
10
35.15
20
-74.2166
11
35.1704
21
-74.0613
0
LINE
8
BLACK
6
CONTINUOUS
10
35.1704
20
-74.0613
11
35.2304
21
-73.9166
0
LINE
8
BLACK
6
CONTINUOUS
10
35.2304
20
-73.9166
11
35.3257
21
-73.7923
0
LINE
8
BLACK
6
CONTINUOUS
10
35.3257
20
-73.7923
11
35.45
21
-73.6969
0
LINE
8
BLACK
6
CONTINUOUS
10
35.45
20
-73.6969
11
35.5947
21
-73.637
0
LINE
8
BLACK
6
CONTINUOUS
10
35.5947
20
-73.637
11
35.75
21
-73.6166
0
LINE
8
BLACK
6
CONTINUOUS
10
35.75
20
-73.6166
11
36.55
21
-73.6166
0
LINE
8
BLACK
6
CONTINUOUS
10
36.55
20
-73.6166
11
36.7053
21
-73.637
0
LINE
8
BLACK
6
CONTINUOUS
10
62.1053
20
-73.637
11
62.25
21
-73.6969
0
LINE
8
BLACK
6
CONTINUOUS
10
62.25
20
-73.6969
11
62.3743
21
-73.7923
0
LINE
8
BLACK
6
CONTINUOUS
10
62.3743
20
-73.7923
11
62.4696
21
-73.9166
0
LINE
8
BLACK
6
CONTINUOUS
10
62.4696
20
-73.9166
11
62.5296
21
-74.0613
0
LINE
8
BLACK
6
CONTINUOUS
10
62.5296
20
-74.0613
11
62.55
21
-74.2166
0
LINE
8
BLACK
6
CONTINUOUS
10
62.55
20
-74.2166
11
62.5296
21
-74.3719
0
LINE
8
BLACK
6
CONTINUOUS
10
62.5296
20
-74.3719
11
62.4696
21
-74.5166
0
LINE
8
BLACK
6
CONTINUOUS
10
62.4696
20
-74.5166
11
62.3743
21
-74.6408
0
LINE
8
BLACK
6
CONTINUOUS
10
62.3743
20
-74.6408
11
62.25
21
-74.7362
0
LINE
8
BLACK
6
CONTINUOUS
10
62.25
20
-74.7362
11
62.1053
21
-74.7961
0
LINE
8
BLACK
6
CONTINUOUS
10
62.1053
20
-74.7961
11
61.95
21
-74.8166
0
LINE
8
BLACK
6
CONTINUOUS
10
61.95
20
-74.8166
11
61.15
21
-74.8166
0
LINE
8
BLACK
6
CONTINUOUS
10
61.15
20
-74.8166
11
60.9947
21
-74.7961
0
LINE
8
BLACK
6
CONTINUOUS
10
60.9947
20
-74.7961
11
60.85
21
-74.7362
0
LINE
8
BLACK
6
CONTINUOUS
10
60.85
20
-74.7362
11
60.7257
21
-74.6408
0
LINE
8
BLACK
6
CONTINUOUS
10
60.7257
20
-74.6408
11
60.6304
21
-74.5166
0
LINE
8
BLACK
6
CONTINUOUS
10
60.6304
20
-74.5166
11
60.5704
21
-74.3719
0
LINE
8
BLACK
6
CONTINUOUS
10
60.5704
20
-74.3719
11
60.55
21
-74.2166
0
LINE
8
BLACK
6
CONTINUOUS
10
60.55
20
-74.2166
11
60.5704
21
-74.0613
0
LINE
8
BLACK
6
CONTINUOUS
10
60.5704
20
-74.0613
11
60.6304
21
-73.9166
0
LINE
8
BLACK
6
CONTINUOUS
10
60.6304
20
-73.9166
11
60.7257
21
-73.7923
0
LINE
8
BLACK
6
CONTINUOUS
10
60.7257
20
-73.7923
11
60.85
21
-73.6969
0
LINE
8
BLACK
6
CONTINUOUS
10
60.85
20
-73.6969
11
60.9947
21
-73.637
0
LINE
8
BLACK
6
CONTINUOUS
10
60.9947
20
-73.637
11
61.15
21
-73.6166
0
LINE
8
BLACK
6
CONTINUOUS
10
61.15
20
-73.6166
11
61.95
21
-73.6166
0
LINE
8
BLACK
6
CONTINUOUS
10
61.95
20
-73.6166
11
62.1053
21
-73.637
0
LINE
8
BLACK
6
CONTINUOUS
10
36.919
20
-71.0846
11
37.0195
21
-71.129
0
LINE
8
BLACK
6
CONTINUOUS
10
37.0195
20
-71.129
11
37.0972
21
-71.2066
0
LINE
8
BLACK
6
CONTINUOUS
10
37.0972
20
-71.2066
11
37.1418
21
-71.307
0
LINE
8
BLACK
6
CONTINUOUS
10
37.1418
20
-71.307
11
37.15
21
-71.3766
0
LINE
8
BLACK
6
CONTINUOUS
10
37.15
20
-71.3766
11
37.15
21
-71.9766
0
LINE
8
BLACK
6
CONTINUOUS
10
37.15
20
-71.9766
11
37.142
21
-72.0456
0
LINE
8
BLACK
6
CONTINUOUS
10
37.142
20
-72.0456
11
37.0975
21
-72.1461
0
LINE
8
BLACK
6
CONTINUOUS
10
37.0975
20
-72.1461
11
37.0199
21
-72.2238
0
LINE
8
BLACK
6
CONTINUOUS
10
37.0199
20
-72.2238
11
36.9195
21
-72.2684
0
LINE
8
BLACK
6
CONTINUOUS
10
36.9195
20
-72.2684
11
36.85
21
-72.2766
0
LINE
8
BLACK
6
CONTINUOUS
10
36.85
20
-72.2766
11
35.45
21
-72.2766
0
LINE
8
BLACK
6
CONTINUOUS
10
35.45
20
-72.2766
11
35.381
21
-72.2685
0
LINE
8
BLACK
6
CONTINUOUS
10
35.381
20
-72.2685
11
35.2805
21
-72.2241
0
LINE
8
BLACK
6
CONTINUOUS
10
35.2805
20
-72.2241
11
35.2028
21
-72.1465
0
LINE
8
BLACK
6
CONTINUOUS
10
35.2028
20
-72.1465
11
35.1582
21
-72.0461
0
LINE
8
BLACK
6
CONTINUOUS
10
35.1582
20
-72.0461
11
35.15
21
-71.9766
0
LINE
8
BLACK
6
CONTINUOUS
10
35.15
20
-71.9766
11
35.15
21
-71.3766
0
LINE
8
BLACK
6
CONTINUOUS
10
35.15
20
-71.3766
11
35.158
21
-71.3075
0
LINE
8
BLACK
6
CONTINUOUS
10
35.158
20
-71.3075
11
35.2025
21
-71.2071
0
LINE
8
BLACK
6
CONTINUOUS
10
35.2025
20
-71.2071
11
35.2801
21
-71.1293
0
LINE
8
BLACK
6
CONTINUOUS
10
35.2801
20
-71.1293
11
35.3805
21
-71.0847
0
LINE
8
BLACK
6
CONTINUOUS
10
35.3805
20
-71.0847
11
35.45
21
-71.0766
0
LINE
8
BLACK
6
CONTINUOUS
10
35.45
20
-71.0766
11
36.85
21
-71.0766
0
LINE
8
BLACK
6
CONTINUOUS
10
36.85
20
-71.0766
11
36.919
21
-71.0846
0
LINE
8
BLACK
6
CONTINUOUS
10
62.1053
20
-71.097
11
62.25
21
-71.1569
0
LINE
8
BLACK
6
CONTINUOUS
10
62.25
20
-71.1569
11
62.3743
21
-71.2523
0
LINE
8
BLACK
6
CONTINUOUS
10
62.3743
20
-71.2523
11
62.4696
21
-71.3766
0
LINE
8
BLACK
6
CONTINUOUS
10
62.4696
20
-71.3766
11
62.5296
21
-71.5213
0
LINE
8
BLACK
6
CONTINUOUS
10
62.5296
20
-71.5213
11
62.55
21
-71.6766
0
LINE
8
BLACK
6
CONTINUOUS
10
62.55
20
-71.6766
11
62.5296
21
-71.8319
0
LINE
8
BLACK
6
CONTINUOUS
10
62.5296
20
-71.8319
11
62.4696
21
-71.9766
0
LINE
8
BLACK
6
CONTINUOUS
10
62.4696
20
-71.9766
11
62.3743
21
-72.1008
0
LINE
8
BLACK
6
CONTINUOUS
10
62.3743
20
-72.1008
11
62.25
21
-72.1962
0
LINE
8
BLACK
6
CONTINUOUS
10
62.25
20
-72.1962
11
62.1053
21
-72.2561
0
LINE
8
BLACK
6
CONTINUOUS
10
62.1053
20
-72.2561
11
61.95
21
-72.2766
0
LINE
8
BLACK
6
CONTINUOUS
10
61.95
20
-72.2766
11
61.15
21
-72.2766
0
LINE
8
BLACK
6
CONTINUOUS
10
61.15
20
-72.2766
11
60.9947
21
-72.2561
0
LINE
8
BLACK
6
CONTINUOUS
10
60.9947
20
-72.2561
11
60.85
21
-72.1962
0
LINE
8
BLACK
6
CONTINUOUS
10
60.85
20
-72.1962
11
60.7257
21
-72.1008
0
LINE
8
BLACK
6
CONTINUOUS
10
60.7257
20
-72.1008
11
60.6304
21
-71.9766
0
LINE
8
BLACK
6
CONTINUOUS
10
60.6304
20
-71.9766
11
60.5704
21
-71.8319
0
LINE
8
BLACK
6
CONTINUOUS
10
60.5704
20
-71.8319
11
60.55
21
-71.6766
0
LINE
8
BLACK
6
CONTINUOUS
10
60.55
20
-71.6766
11
60.5704
21
-71.5213
0
LINE
8
BLACK
6
CONTINUOUS
10
60.5704
20
-71.5213
11
60.6304
21
-71.3766
0
LINE
8
BLACK
6
CONTINUOUS
10
60.6304
20
-71.3766
11
60.7257
21
-71.2523
0
LINE
8
BLACK
6
CONTINUOUS
10
60.7257
20
-71.2523
11
60.85
21
-71.1569
0
LINE
8
BLACK
6
CONTINUOUS
10
60.85
20
-71.1569
11
60.9947
21
-71.097
0
LINE
8
BLACK
6
CONTINUOUS
10
60.9947
20
-71.097
11
61.15
21
-71.0766
0
LINE
8
BLACK
6
CONTINUOUS
10
61.15
20
-71.0766
11
61.95
21
-71.0766
0
LINE
8
BLACK
6
CONTINUOUS
10
61.95
20
-71.0766
11
62.1053
21
-71.097
0
LINE
8
BLACK
6
CONTINUOUS
10
36.7053
20
-68.557
11
36.85
21
-68.6169
0
LINE
8
BLACK
6
CONTINUOUS
10
36.85
20
-68.6169
11
36.9743
21
-68.7123
0
LINE
8
BLACK
6
CONTINUOUS
10
36.9743
20
-68.7123
11
37.0696
21
-68.8366
0
LINE
8
BLACK
6
CONTINUOUS
10
37.0696
20
-68.8366
11
37.1296
21
-68.9813
0
LINE
8
BLACK
6
CONTINUOUS
10
37.1296
20
-68.9813
11
37.15
21
-69.1366
0
LINE
8
BLACK
6
CONTINUOUS
10
37.15
20
-69.1366
11
37.1296
21
-69.2919
0
LINE
8
BLACK
6
CONTINUOUS
10
37.1296
20
-69.2919
11
37.0696
21
-69.4366
0
LINE
8
BLACK
6
CONTINUOUS
10
37.0696
20
-69.4366
11
36.9743
21
-69.5608
0
LINE
8
BLACK
6
CONTINUOUS
10
36.9743
20
-69.5608
11
36.85
21
-69.6562
0
LINE
8
BLACK
6
CONTINUOUS
10
36.85
20
-69.6562
11
36.7053
21
-69.7161
0
LINE
8
BLACK
6
CONTINUOUS
10
36.7053
20
-69.7161
11
36.55
21
-69.7366
0
LINE
8
BLACK
6
CONTINUOUS
10
36.55
20
-69.7366
11
35.75
21
-69.7366
0
LINE
8
BLACK
6
CONTINUOUS
10
35.75
20
-69.7366
11
35.5947
21
-69.7161
0
LINE
8
BLACK
6
CONTINUOUS
10
35.5947
20
-69.7161
11
35.45
21
-69.6562
0
LINE
8
BLACK
6
CONTINUOUS
10
35.45
20
-69.6562
11
35.3257
21
-69.5608
0
LINE
8
BLACK
6
CONTINUOUS
10
35.3257
20
-69.5608
11
35.2304
21
-69.4366
0
LINE
8
BLACK
6
CONTINUOUS
10
35.2304
20
-69.4366
11
35.1704
21
-69.2919
0
LINE
8
BLACK
6
CONTINUOUS
10
35.1704
20
-69.2919
11
35.15
21
-69.1366
0
LINE
8
BLACK
6
CONTINUOUS
10
35.15
20
-69.1366
11
35.1704
21
-68.9813
0
LINE
8
BLACK
6
CONTINUOUS
10
35.1704
20
-68.9813
11
35.2304
21
-68.8366
0
LINE
8
BLACK
6
CONTINUOUS
10
35.2304
20
-68.8366
11
35.3257
21
-68.7123
0
LINE
8
BLACK
6
CONTINUOUS
10
35.3257
20
-68.7123
11
35.45
21
-68.6169
0
LINE
8
BLACK
6
CONTINUOUS
10
35.45
20
-68.6169
11
35.5947
21
-68.557
0
LINE
8
BLACK
6
CONTINUOUS
10
35.5947
20
-68.557
11
35.75
21
-68.5366
0
LINE
8
BLACK
6
CONTINUOUS
10
35.75
20
-68.5366
11
36.55
21
-68.5366
0
LINE
8
BLACK
6
CONTINUOUS
10
36.55
20
-68.5366
11
36.7053
21
-68.557
0
LINE
8
BLACK
6
CONTINUOUS
10
62.1053
20
-68.557
11
62.25
21
-68.6169
0
LINE
8
BLACK
6
CONTINUOUS
10
62.25
20
-68.6169
11
62.3743
21
-68.7123
0
LINE
8
BLACK
6
CONTINUOUS
10
62.3743
20
-68.7123
11
62.4696
21
-68.8366
0
LINE
8
BLACK
6
CONTINUOUS
10
62.4696
20
-68.8366
11
62.5296
21
-68.9813
0
LINE
8
BLACK
6
CONTINUOUS
10
62.5296
20
-68.9813
11
62.55
21
-69.1366
0
LINE
8
BLACK
6
CONTINUOUS
10
62.55
20
-69.1366
11
62.5296
21
-69.2919
0
LINE
8
BLACK
6
CONTINUOUS
10
62.5296
20
-69.2919
11
62.4696
21
-69.4366
0
LINE
8
BLACK
6
CONTINUOUS
10
62.4696
20
-69.4366
11
62.3743
21
-69.5608
0
LINE
8
BLACK
6
CONTINUOUS
10
62.3743
20
-69.5608
11
62.25
21
-69.6562
0
LINE
8
BLACK
6
CONTINUOUS
10
62.25
20
-69.6562
11
62.1053
21
-69.7161
0
LINE
8
BLACK
6
CONTINUOUS
10
62.1053
20
-69.7161
11
61.95
21
-69.7366
0
LINE
8
BLACK
6
CONTINUOUS
10
61.95
20
-69.7366
11
61.15
21
-69.7366
0
LINE
8
BLACK
6
CONTINUOUS
10
61.15
20
-69.7366
11
60.9947
21
-69.7161
0
LINE
8
BLACK
6
CONTINUOUS
10
60.9947
20
-69.7161
11
60.85
21
-69.6562
0
LINE
8
BLACK
6
CONTINUOUS
10
60.85
20
-69.6562
11
60.7257
21
-69.5608
0
LINE
8
BLACK
6
CONTINUOUS
10
60.7257
20
-69.5608
11
60.6304
21
-69.4366
0
LINE
8
BLACK
6
CONTINUOUS
10
60.6304
20
-69.4366
11
60.5704
21
-69.2919
0
LINE
8
BLACK
6
CONTINUOUS
10
60.5704
20
-69.2919
11
60.55
21
-69.1366
0
LINE
8
BLACK
6
CONTINUOUS
10
60.55
20
-69.1366
11
60.5704
21
-68.9813
0
LINE
8
BLACK
6
CONTINUOUS
10
60.5704
20
-68.9813
11
60.6304
21
-68.8366
0
LINE
8
BLACK
6
CONTINUOUS
10
60.6304
20
-68.8366
11
60.7257
21
-68.7123
0
LINE
8
BLACK
6
CONTINUOUS
10
60.7257
20
-68.7123
11
60.85
21
-68.6169
0
LINE
8
BLACK
6
CONTINUOUS
10
60.85
20
-68.6169
11
60.9947
21
-68.557
0
LINE
8
BLACK
6
CONTINUOUS
10
60.9947
20
-68.557
11
61.15
21
-68.5366
0
LINE
8
BLACK
6
CONTINUOUS
10
61.15
20
-68.5366
11
61.95
21
-68.5366
0
LINE
8
BLACK
6
CONTINUOUS
10
61.95
20
-68.5366
11
62.1053
21
-68.557
0
LINE
8
BLACK
6
CONTINUOUS
10
36.7053
20
-66.017
11
36.85
21
-66.0769
0
LINE
8
BLACK
6
CONTINUOUS
10
36.85
20
-66.0769
11
36.9743
21
-66.1723
0
LINE
8
BLACK
6
CONTINUOUS
10
36.9743
20
-66.1723
11
37.0696
21
-66.2966
0
LINE
8
BLACK
6
CONTINUOUS
10
37.0696
20
-66.2966
11
37.1296
21
-66.4413
0
LINE
8
BLACK
6
CONTINUOUS
10
37.1296
20
-66.4413
11
37.15
21
-66.5966
0
LINE
8
BLACK
6
CONTINUOUS
10
37.15
20
-66.5966
11
37.1296
21
-66.7519
0
LINE
8
BLACK
6
CONTINUOUS
10
37.1296
20
-66.7519
11
37.0696
21
-66.8966
0
LINE
8
BLACK
6
CONTINUOUS
10
37.0696
20
-66.8966
11
36.9743
21
-67.0208
0
LINE
8
BLACK
6
CONTINUOUS
10
36.9743
20
-67.0208
11
36.85
21
-67.1162
0
LINE
8
BLACK
6
CONTINUOUS
10
36.85
20
-67.1162
11
36.7053
21
-67.1761
0
LINE
8
BLACK
6
CONTINUOUS
10
36.7053
20
-67.1761
11
36.55
21
-67.1966
0
LINE
8
BLACK
6
CONTINUOUS
10
36.55
20
-67.1966
11
35.75
21
-67.1966
0
LINE
8
BLACK
6
CONTINUOUS
10
35.75
20
-67.1966
11
35.5947
21
-67.1761
0
LINE
8
BLACK
6
CONTINUOUS
10
35.5947
20
-67.1761
11
35.45
21
-67.1162
0
LINE
8
BLACK
6
CONTINUOUS
10
35.45
20
-67.1162
11
35.3257
21
-67.0208
0
LINE
8
BLACK
6
CONTINUOUS
10
35.3257
20
-67.0208
11
35.2304
21
-66.8966
0
LINE
8
BLACK
6
CONTINUOUS
10
35.2304
20
-66.8966
11
35.1704
21
-66.7519
0
LINE
8
BLACK
6
CONTINUOUS
10
35.1704
20
-66.7519
11
35.15
21
-66.5966
0
LINE
8
BLACK
6
CONTINUOUS
10
35.15
20
-66.5966
11
35.1704
21
-66.4413
0
LINE
8
BLACK
6
CONTINUOUS
10
35.1704
20
-66.4413
11
35.2304
21
-66.2966
0
LINE
8
BLACK
6
CONTINUOUS
10
35.2304
20
-66.2966
11
35.3257
21
-66.1723
0
LINE
8
BLACK
6
CONTINUOUS
10
35.3257
20
-66.1723
11
35.45
21
-66.0769
0
LINE
8
BLACK
6
CONTINUOUS
10
35.45
20
-66.0769
11
35.5947
21
-66.017
0
LINE
8
BLACK
6
CONTINUOUS
10
35.5947
20
-66.017
11
35.75
21
-65.9966
0
LINE
8
BLACK
6
CONTINUOUS
10
35.75
20
-65.9966
11
36.55
21
-65.9966
0
LINE
8
BLACK
6
CONTINUOUS
10
36.55
20
-65.9966
11
36.7053
21
-66.017
0
LINE
8
BLACK
6
CONTINUOUS
10
62.1053
20
-66.017
11
62.25
21
-66.0769
0
LINE
8
BLACK
6
CONTINUOUS
10
62.25
20
-66.0769
11
62.3743
21
-66.1723
0
LINE
8
BLACK
6
CONTINUOUS
10
62.3743
20
-66.1723
11
62.4696
21
-66.2966
0
LINE
8
BLACK
6
CONTINUOUS
10
62.4696
20
-66.2966
11
62.5296
21
-66.4413
0
LINE
8
BLACK
6
CONTINUOUS
10
62.5296
20
-66.4413
11
62.55
21
-66.5966
0
LINE
8
BLACK
6
CONTINUOUS
10
62.55
20
-66.5966
11
62.5296
21
-66.7519
0
LINE
8
BLACK
6
CONTINUOUS
10
62.5296
20
-66.7519
11
62.4696
21
-66.8966
0
LINE
8
BLACK
6
CONTINUOUS
10
62.4696
20
-66.8966
11
62.3743
21
-67.0208
0
LINE
8
BLACK
6
CONTINUOUS
10
62.3743
20
-67.0208
11
62.25
21
-67.1162
0
LINE
8
BLACK
6
CONTINUOUS
10
62.25
20
-67.1162
11
62.1053
21
-67.1761
0
LINE
8
BLACK
6
CONTINUOUS
10
62.1053
20
-67.1761
11
61.95
21
-67.1966
0
LINE
8
BLACK
6
CONTINUOUS
10
61.95
20
-67.1966
11
61.15
21
-67.1966
0
LINE
8
BLACK
6
CONTINUOUS
10
61.15
20
-67.1966
11
60.9947
21
-67.1761
0
LINE
8
BLACK
6
CONTINUOUS
10
60.9947
20
-67.1761
11
60.85
21
-67.1162
0
LINE
8
BLACK
6
CONTINUOUS
10
60.85
20
-67.1162
11
60.7257
21
-67.0208
0
LINE
8
BLACK
6
CONTINUOUS
10
60.7257
20
-67.0208
11
60.6304
21
-66.8966
0
LINE
8
BLACK
6
CONTINUOUS
10
60.6304
20
-66.8966
11
60.5704
21
-66.7519
0
LINE
8
BLACK
6
CONTINUOUS
10
60.5704
20
-66.7519
11
60.55
21
-66.5966
0
LINE
8
BLACK
6
CONTINUOUS
10
60.55
20
-66.5966
11
60.5704
21
-66.4413
0
LINE
8
BLACK
6
CONTINUOUS
10
60.5704
20
-66.4413
11
60.6304
21
-66.2966
0
LINE
8
BLACK
6
CONTINUOUS
10
60.6304
20
-66.2966
11
60.7257
21
-66.1723
0
LINE
8
BLACK
6
CONTINUOUS
10
60.7257
20
-66.1723
11
60.85
21
-66.0769
0
LINE
8
BLACK
6
CONTINUOUS
10
60.85
20
-66.0769
11
60.9947
21
-66.017
0
LINE
8
BLACK
6
CONTINUOUS
10
60.9947
20
-66.017
11
61.15
21
-65.9966
0
LINE
8
BLACK
6
CONTINUOUS
10
61.15
20
-65.9966
11
61.95
21
-65.9966
0
LINE
8
BLACK
6
CONTINUOUS
10
61.95
20
-65.9966
11
62.1053
21
-66.017
0
LINE
8
BLACK
6
CONTINUOUS
10
62.1053
20
-63.477
11
62.25
21
-63.5369
0
LINE
8
BLACK
6
CONTINUOUS
10
62.25
20
-63.5369
11
62.3743
21
-63.6323
0
LINE
8
BLACK
6
CONTINUOUS
10
62.3743
20
-63.6323
11
62.4696
21
-63.7566
0
LINE
8
BLACK
6
CONTINUOUS
10
62.4696
20
-63.7566
11
62.5296
21
-63.9013
0
LINE
8
BLACK
6
CONTINUOUS
10
62.5296
20
-63.9013
11
62.55
21
-64.0566
0
LINE
8
BLACK
6
CONTINUOUS
10
62.55
20
-64.0566
11
62.5296
21
-64.2119
0
LINE
8
BLACK
6
CONTINUOUS
10
62.5296
20
-64.2119
11
62.4696
21
-64.3566
0
LINE
8
BLACK
6
CONTINUOUS
10
62.4696
20
-64.3566
11
62.3743
21
-64.4808
0
LINE
8
BLACK
6
CONTINUOUS
10
62.3743
20
-64.4808
11
62.25
21
-64.5762
0
LINE
8
BLACK
6
CONTINUOUS
10
62.25
20
-64.5762
11
62.1053
21
-64.6361
0
LINE
8
BLACK
6
CONTINUOUS
10
62.1053
20
-64.6361
11
61.95
21
-64.6566
0
LINE
8
BLACK
6
CONTINUOUS
10
61.95
20
-64.6566
11
61.15
21
-64.6566
0
LINE
8
BLACK
6
CONTINUOUS
10
61.15
20
-64.6566
11
60.9947
21
-64.6361
0
LINE
8
BLACK
6
CONTINUOUS
10
60.9947
20
-64.6361
11
60.85
21
-64.5762
0
LINE
8
BLACK
6
CONTINUOUS
10
60.85
20
-64.5762
11
60.7257
21
-64.4808
0
LINE
8
BLACK
6
CONTINUOUS
10
60.7257
20
-64.4808
11
60.6304
21
-64.3566
0
LINE
8
BLACK
6
CONTINUOUS
10
60.6304
20
-64.3566
11
60.5704
21
-64.2119
0
LINE
8
BLACK
6
CONTINUOUS
10
60.5704
20
-64.2119
11
60.55
21
-64.0566
0
LINE
8
BLACK
6
CONTINUOUS
10
60.55
20
-64.0566
11
60.5704
21
-63.9013
0
LINE
8
BLACK
6
CONTINUOUS
10
60.5704
20
-63.9013
11
60.6304
21
-63.7566
0
LINE
8
BLACK
6
CONTINUOUS
10
60.6304
20
-63.7566
11
60.7257
21
-63.6323
0
LINE
8
BLACK
6
CONTINUOUS
10
60.7257
20
-63.6323
11
60.85
21
-63.5369
0
LINE
8
BLACK
6
CONTINUOUS
10
60.85
20
-63.5369
11
60.9947
21
-63.477
0
LINE
8
BLACK
6
CONTINUOUS
10
60.9947
20
-63.477
11
61.15
21
-63.4566
0
LINE
8
BLACK
6
CONTINUOUS
10
61.15
20
-63.4566
11
61.95
21
-63.4566
0
LINE
8
BLACK
6
CONTINUOUS
10
61.95
20
-63.4566
11
62.1053
21
-63.477
0
LINE
8
BLACK
6
CONTINUOUS
10
36.7053
20
-63.477
11
36.85
21
-63.5369
0
LINE
8
BLACK
6
CONTINUOUS
10
36.85
20
-63.5369
11
36.9743
21
-63.6323
0
LINE
8
BLACK
6
CONTINUOUS
10
36.9743
20
-63.6323
11
37.0696
21
-63.7566
0
LINE
8
BLACK
6
CONTINUOUS
10
37.0696
20
-63.7566
11
37.1296
21
-63.9013
0
LINE
8
BLACK
6
CONTINUOUS
10
37.1296
20
-63.9013
11
37.15
21
-64.0566
0
LINE
8
BLACK
6
CONTINUOUS
10
37.15
20
-64.0566
11
37.1296
21
-64.2119
0
LINE
8
BLACK
6
CONTINUOUS
10
37.1296
20
-64.2119
11
37.0696
21
-64.3566
0
LINE
8
BLACK
6
CONTINUOUS
10
37.0696
20
-64.3566
11
36.9743
21
-64.4808
0
LINE
8
BLACK
6
CONTINUOUS
10
36.9743
20
-64.4808
11
36.85
21
-64.5762
0
LINE
8
BLACK
6
CONTINUOUS
10
36.85
20
-64.5762
11
36.7053
21
-64.6361
0
LINE
8
BLACK
6
CONTINUOUS
10
36.7053
20
-64.6361
11
36.55
21
-64.6566
0
LINE
8
BLACK
6
CONTINUOUS
10
36.55
20
-64.6566
11
35.75
21
-64.6566
0
LINE
8
BLACK
6
CONTINUOUS
10
35.75
20
-64.6566
11
35.5947
21
-64.6361
0
LINE
8
BLACK
6
CONTINUOUS
10
35.5947
20
-64.6361
11
35.45
21
-64.5762
0
LINE
8
BLACK
6
CONTINUOUS
10
35.45
20
-64.5762
11
35.3257
21
-64.4808
0
LINE
8
BLACK
6
CONTINUOUS
10
35.3257
20
-64.4808
11
35.2304
21
-64.3566
0
LINE
8
BLACK
6
CONTINUOUS
10
35.2304
20
-64.3566
11
35.1704
21
-64.2119
0
LINE
8
BLACK
6
CONTINUOUS
10
35.1704
20
-64.2119
11
35.15
21
-64.0566
0
LINE
8
BLACK
6
CONTINUOUS
10
35.15
20
-64.0566
11
35.1704
21
-63.9013
0
LINE
8
BLACK
6
CONTINUOUS
10
35.1704
20
-63.9013
11
35.2304
21
-63.7566
0
LINE
8
BLACK
6
CONTINUOUS
10
35.2304
20
-63.7566
11
35.3257
21
-63.6323
0
LINE
8
BLACK
6
CONTINUOUS
10
35.3257
20
-63.6323
11
35.45
21
-63.5369
0
LINE
8
BLACK
6
CONTINUOUS
10
35.45
20
-63.5369
11
35.5947
21
-63.477
0
LINE
8
BLACK
6
CONTINUOUS
10
35.5947
20
-63.477
11
35.75
21
-63.4566
0
LINE
8
BLACK
6
CONTINUOUS
10
35.75
20
-63.4566
11
36.55
21
-63.4566
0
LINE
8
BLACK
6
CONTINUOUS
10
36.55
20
-63.4566
11
36.7053
21
-63.477
0
LINE
8
BLACK
6
CONTINUOUS
10
62.1053
20
-60.937
11
62.25
21
-60.9969
0
LINE
8
BLACK
6
CONTINUOUS
10
62.25
20
-60.9969
11
62.3743
21
-61.0923
0
LINE
8
BLACK
6
CONTINUOUS
10
62.3743
20
-61.0923
11
62.4696
21
-61.2166
0
LINE
8
BLACK
6
CONTINUOUS
10
62.4696
20
-61.2166
11
62.5296
21
-61.3613
0
LINE
8
BLACK
6
CONTINUOUS
10
62.5296
20
-61.3613
11
62.55
21
-61.5166
0
LINE
8
BLACK
6
CONTINUOUS
10
62.55
20
-61.5166
11
62.5296
21
-61.6719
0
LINE
8
BLACK
6
CONTINUOUS
10
62.5296
20
-61.6719
11
62.4696
21
-61.8166
0
LINE
8
BLACK
6
CONTINUOUS
10
62.4696
20
-61.8166
11
62.3743
21
-61.9408
0
LINE
8
BLACK
6
CONTINUOUS
10
62.3743
20
-61.9408
11
62.25
21
-62.0362
0
LINE
8
BLACK
6
CONTINUOUS
10
62.25
20
-62.0362
11
62.1053
21
-62.0961
0
LINE
8
BLACK
6
CONTINUOUS
10
62.1053
20
-62.0961
11
61.95
21
-62.1166
0
LINE
8
BLACK
6
CONTINUOUS
10
61.95
20
-62.1166
11
61.15
21
-62.1166
0
LINE
8
BLACK
6
CONTINUOUS
10
61.15
20
-62.1166
11
60.9947
21
-62.0961
0
LINE
8
BLACK
6
CONTINUOUS
10
60.9947
20
-62.0961
11
60.85
21
-62.0362
0
LINE
8
BLACK
6
CONTINUOUS
10
60.85
20
-62.0362
11
60.7257
21
-61.9408
0
LINE
8
BLACK
6
CONTINUOUS
10
60.7257
20
-61.9408
11
60.6304
21
-61.8166
0
LINE
8
BLACK
6
CONTINUOUS
10
60.6304
20
-61.8166
11
60.5704
21
-61.6719
0
LINE
8
BLACK
6
CONTINUOUS
10
60.5704
20
-61.6719
11
60.55
21
-61.5166
0
LINE
8
BLACK
6
CONTINUOUS
10
60.55
20
-61.5166
11
60.5704
21
-61.3613
0
LINE
8
BLACK
6
CONTINUOUS
10
60.5704
20
-61.3613
11
60.6304
21
-61.2166
0
LINE
8
BLACK
6
CONTINUOUS
10
60.6304
20
-61.2166
11
60.7257
21
-61.0923
0
LINE
8
BLACK
6
CONTINUOUS
10
60.7257
20
-61.0923
11
60.85
21
-60.9969
0
LINE
8
BLACK
6
CONTINUOUS
10
60.85
20
-60.9969
11
60.9947
21
-60.937
0
LINE
8
BLACK
6
CONTINUOUS
10
60.9947
20
-60.937
11
61.15
21
-60.9166
0
LINE
8
BLACK
6
CONTINUOUS
10
61.15
20
-60.9166
11
61.95
21
-60.9166
0
LINE
8
BLACK
6
CONTINUOUS
10
61.95
20
-60.9166
11
62.1053
21
-60.937
0
LINE
8
BLACK
6
CONTINUOUS
10
36.7053
20
-60.937
11
36.85
21
-60.9969
0
LINE
8
BLACK
6
CONTINUOUS
10
36.85
20
-60.9969
11
36.9743
21
-61.0923
0
LINE
8
BLACK
6
CONTINUOUS
10
36.9743
20
-61.0923
11
37.0696
21
-61.2166
0
LINE
8
BLACK
6
CONTINUOUS
10
37.0696
20
-61.2166
11
37.1296
21
-61.3613
0
LINE
8
BLACK
6
CONTINUOUS
10
37.1296
20
-61.3613
11
37.15
21
-61.5166
0
LINE
8
BLACK
6
CONTINUOUS
10
37.15
20
-61.5166
11
37.1296
21
-61.6719
0
LINE
8
BLACK
6
CONTINUOUS
10
37.1296
20
-61.6719
11
37.0696
21
-61.8166
0
LINE
8
BLACK
6
CONTINUOUS
10
37.0696
20
-61.8166
11
36.9743
21
-61.9408
0
LINE
8
BLACK
6
CONTINUOUS
10
36.9743
20
-61.9408
11
36.85
21
-62.0362
0
LINE
8
BLACK
6
CONTINUOUS
10
36.85
20
-62.0362
11
36.7053
21
-62.0961
0
LINE
8
BLACK
6
CONTINUOUS
10
36.7053
20
-62.0961
11
36.55
21
-62.1166
0
LINE
8
BLACK
6
CONTINUOUS
10
36.55
20
-62.1166
11
35.75
21
-62.1166
0
LINE
8
BLACK
6
CONTINUOUS
10
35.75
20
-62.1166
11
35.5947
21
-62.0961
0
LINE
8
BLACK
6
CONTINUOUS
10
35.5947
20
-62.0961
11
35.45
21
-62.0362
0
LINE
8
BLACK
6
CONTINUOUS
10
35.45
20
-62.0362
11
35.3257
21
-61.9408
0
LINE
8
BLACK
6
CONTINUOUS
10
35.3257
20
-61.9408
11
35.2304
21
-61.8166
0
LINE
8
BLACK
6
CONTINUOUS
10
35.2304
20
-61.8166
11
35.1704
21
-61.6719
0
LINE
8
BLACK
6
CONTINUOUS
10
35.1704
20
-61.6719
11
35.15
21
-61.5166
0
LINE
8
BLACK
6
CONTINUOUS
10
35.15
20
-61.5166
11
35.1704
21
-61.3613
0
LINE
8
BLACK
6
CONTINUOUS
10
35.1704
20
-61.3613
11
35.2304
21
-61.2166
0
LINE
8
BLACK
6
CONTINUOUS
10
35.2304
20
-61.2166
11
35.3257
21
-61.0923
0
LINE
8
BLACK
6
CONTINUOUS
10
35.3257
20
-61.0923
11
35.45
21
-60.9969
0
LINE
8
BLACK
6
CONTINUOUS
10
35.45
20
-60.9969
11
35.5947
21
-60.937
0
LINE
8
BLACK
6
CONTINUOUS
10
35.5947
20
-60.937
11
35.75
21
-60.9166
0
LINE
8
BLACK
6
CONTINUOUS
10
35.75
20
-60.9166
11
36.55
21
-60.9166
0
LINE
8
BLACK
6
CONTINUOUS
10
36.55
20
-60.9166
11
36.7053
21
-60.937
0
LINE
8
BLACK
6
CONTINUOUS
10
36.7053
20
-58.397
11
36.85
21
-58.4569
0
LINE
8
BLACK
6
CONTINUOUS
10
36.85
20
-58.4569
11
36.9743
21
-58.5523
0
LINE
8
BLACK
6
CONTINUOUS
10
36.9743
20
-58.5523
11
37.0696
21
-58.6766
0
LINE
8
BLACK
6
CONTINUOUS
10
37.0696
20
-58.6766
11
37.1296
21
-58.8213
0
LINE
8
BLACK
6
CONTINUOUS
10
37.1296
20
-58.8213
11
37.15
21
-58.9766
0
LINE
8
BLACK
6
CONTINUOUS
10
37.15
20
-58.9766
11
37.1296
21
-59.1319
0
LINE
8
BLACK
6
CONTINUOUS
10
37.1296
20
-59.1319
11
37.0696
21
-59.2766
0
LINE
8
BLACK
6
CONTINUOUS
10
37.0696
20
-59.2766
11
36.9743
21
-59.4008
0
LINE
8
BLACK
6
CONTINUOUS
10
36.9743
20
-59.4008
11
36.85
21
-59.4962
0
LINE
8
BLACK
6
CONTINUOUS
10
36.85
20
-59.4962
11
36.7053
21
-59.5561
0
LINE
8
BLACK
6
CONTINUOUS
10
36.7053
20
-59.5561
11
36.55
21
-59.5766
0
LINE
8
BLACK
6
CONTINUOUS
10
36.55
20
-59.5766
11
35.75
21
-59.5766
0
LINE
8
BLACK
6
CONTINUOUS
10
35.75
20
-59.5766
11
35.5947
21
-59.5561
0
LINE
8
BLACK
6
CONTINUOUS
10
35.5947
20
-59.5561
11
35.45
21
-59.4962
0
LINE
8
BLACK
6
CONTINUOUS
10
35.45
20
-59.4962
11
35.3257
21
-59.4008
0
LINE
8
BLACK
6
CONTINUOUS
10
35.3257
20
-59.4008
11
35.2304
21
-59.2766
0
LINE
8
BLACK
6
CONTINUOUS
10
35.2304
20
-59.2766
11
35.1704
21
-59.1319
0
LINE
8
BLACK
6
CONTINUOUS
10
35.1704
20
-59.1319
11
35.15
21
-58.9766
0
LINE
8
BLACK
6
CONTINUOUS
10
35.15
20
-58.9766
11
35.1704
21
-58.8213
0
LINE
8
BLACK
6
CONTINUOUS
10
35.1704
20
-58.8213
11
35.2304
21
-58.6766
0
LINE
8
BLACK
6
CONTINUOUS
10
35.2304
20
-58.6766
11
35.3257
21
-58.5523
0
LINE
8
BLACK
6
CONTINUOUS
10
35.3257
20
-58.5523
11
35.45
21
-58.4569
0
LINE
8
BLACK
6
CONTINUOUS
10
35.45
20
-58.4569
11
35.5947
21
-58.397
0
LINE
8
BLACK
6
CONTINUOUS
10
35.5947
20
-58.397
11
35.75
21
-58.3766
0
LINE
8
BLACK
6
CONTINUOUS
10
35.75
20
-58.3766
11
36.55
21
-58.3766
0
LINE
8
BLACK
6
CONTINUOUS
10
36.55
20
-58.3766
11
36.7053
21
-58.397
0
LINE
8
BLACK
6
CONTINUOUS
10
77.2472
20
-34.2253
11
77.4264
21
-34.2653
0
LINE
8
BLACK
6
CONTINUOUS
10
77.4264
20
-34.2653
11
77.5928
21
-34.3429
0
LINE
8
BLACK
6
CONTINUOUS
10
77.5928
20
-34.3429
11
77.7387
21
-34.4545
0
LINE
8
BLACK
6
CONTINUOUS
10
77.7387
20
-34.4545
11
77.8572
21
-34.5947
0
LINE
8
BLACK
6
CONTINUOUS
10
77.8572
20
-34.5947
11
77.9428
21
-34.7571
0
LINE
8
BLACK
6
CONTINUOUS
10
77.9428
20
-34.7571
11
77.9464
21
-34.77
0
LINE
8
BLACK
6
CONTINUOUS
10
77.9464
20
-34.77
11
78.65
21
-34.77
0
LINE
8
BLACK
6
CONTINUOUS
10
78.65
20
-34.77
11
78.6601
21
-34.771
0
LINE
8
BLACK
6
CONTINUOUS
10
78.6601
20
-34.771
11
78.6647
21
-34.7704
0
LINE
8
BLACK
6
CONTINUOUS
10
78.6647
20
-34.7704
11
78.6724
21
-34.7722
0
LINE
8
BLACK
6
CONTINUOUS
10
78.6724
20
-34.7722
11
78.7083
21
-34.7757
0
LINE
8
BLACK
6
CONTINUOUS
10
78.7083
20
-34.7757
11
78.7392
21
-34.788
0
LINE
8
BLACK
6
CONTINUOUS
10
78.7392
20
-34.788
11
78.7715
21
-34.7957
0
LINE
8
BLACK
6
CONTINUOUS
10
78.7715
20
-34.7957
11
78.7898
21
-34.8082
0
LINE
8
BLACK
6
CONTINUOUS
10
78.7898
20
-34.8082
11
78.8103
21
-34.8164
0
LINE
8
BLACK
6
CONTINUOUS
10
78.8103
20
-34.8164
11
78.8347
21
-34.839
0
LINE
8
BLACK
6
CONTINUOUS
10
78.8347
20
-34.839
11
78.8621
21
-34.8579
0
LINE
8
BLACK
6
CONTINUOUS
10
78.8621
20
-34.8579
11
80.1121
21
-36.1079
0
LINE
8
BLACK
6
CONTINUOUS
10
80.1121
20
-36.1079
11
80.1185
21
-36.1157
0
LINE
8
BLACK
6
CONTINUOUS
10
80.1185
20
-36.1157
11
80.1222
21
-36.1185
0
LINE
8
BLACK
6
CONTINUOUS
10
80.1222
20
-36.1185
11
80.1264
21
-36.1253
0
LINE
8
BLACK
6
CONTINUOUS
10
80.1264
20
-36.1253
11
80.1493
21
-36.1531
0
LINE
8
BLACK
6
CONTINUOUS
10
80.1493
20
-36.1531
11
80.1624
21
-36.1837
0
LINE
8
BLACK
6
CONTINUOUS
10
80.1624
20
-36.1837
11
80.1799
21
-36.212
0
LINE
8
BLACK
6
CONTINUOUS
10
80.1799
20
-36.212
11
80.1839
21
-36.2337
0
LINE
8
BLACK
6
CONTINUOUS
10
80.1839
20
-36.2337
11
80.1927
21
-36.254
0
LINE
8
BLACK
6
CONTINUOUS
10
80.1927
20
-36.254
11
80.1939
21
-36.2873
0
LINE
8
BLACK
6
CONTINUOUS
10
80.1939
20
-36.2873
11
80.2
21
-36.32
0
LINE
8
BLACK
6
CONTINUOUS
10
80.2
20
-36.32
11
80.2
21
-39.7
0
LINE
8
BLACK
6
CONTINUOUS
10
80.2
20
-39.7
11
80.199
21
-39.7101
0
LINE
8
BLACK
6
CONTINUOUS
10
80.199
20
-39.7101
11
80.1996
21
-39.7147
0
LINE
8
BLACK
6
CONTINUOUS
10
80.1996
20
-39.7147
11
80.1978
21
-39.7224
0
LINE
8
BLACK
6
CONTINUOUS
10
80.1978
20
-39.7224
11
80.1943
21
-39.7583
0
LINE
8
BLACK
6
CONTINUOUS
10
80.1943
20
-39.7583
11
80.182
21
-39.7892
0
LINE
8
BLACK
6
CONTINUOUS
10
80.182
20
-39.7892
11
80.1743
21
-39.8215
0
LINE
8
BLACK
6
CONTINUOUS
10
80.1743
20
-39.8215
11
80.1618
21
-39.8398
0
LINE
8
BLACK
6
CONTINUOUS
10
80.1618
20
-39.8398
11
80.1536
21
-39.8603
0
LINE
8
BLACK
6
CONTINUOUS
10
80.1536
20
-39.8603
11
80.131
21
-39.8847
0
LINE
8
BLACK
6
CONTINUOUS
10
80.131
20
-39.8847
11
80.1121
21
-39.9121
0
LINE
8
BLACK
6
CONTINUOUS
10
80.1121
20
-39.9121
11
74.2
21
-45.8243
0
LINE
8
BLACK
6
CONTINUOUS
10
74.2
20
-45.8243
11
74.2
21
-50.64
0
LINE
8
BLACK
6
CONTINUOUS
10
74.2
20
-50.64
11
74.199
21
-50.6501
0
LINE
8
BLACK
6
CONTINUOUS
10
74.199
20
-50.6501
11
74.1996
21
-50.6547
0
LINE
8
BLACK
6
CONTINUOUS
10
74.1996
20
-50.6547
11
74.1978
21
-50.6624
0
LINE
8
BLACK
6
CONTINUOUS
10
74.1978
20
-50.6624
11
74.1943
21
-50.6983
0
LINE
8
BLACK
6
CONTINUOUS
10
74.1943
20
-50.6983
11
74.182
21
-50.7292
0
LINE
8
BLACK
6
CONTINUOUS
10
74.182
20
-50.7292
11
74.1743
21
-50.7615
0
LINE
8
BLACK
6
CONTINUOUS
10
74.1743
20
-50.7615
11
74.1618
21
-50.7798
0
LINE
8
BLACK
6
CONTINUOUS
10
74.1618
20
-50.7798
11
74.1536
21
-50.8003
0
LINE
8
BLACK
6
CONTINUOUS
10
74.1536
20
-50.8003
11
74.131
21
-50.8247
0
LINE
8
BLACK
6
CONTINUOUS
10
74.131
20
-50.8247
11
74.1121
21
-50.8521
0
LINE
8
BLACK
6
CONTINUOUS
10
74.1121
20
-50.8521
11
65.7756
21
-59.1887
0
LINE
8
BLACK
6
CONTINUOUS
10
65.7756
20
-59.1887
11
65.7678
21
-59.1951
0
LINE
8
BLACK
6
CONTINUOUS
10
65.7678
20
-59.1951
11
65.765
21
-59.1988
0
LINE
8
BLACK
6
CONTINUOUS
10
65.765
20
-59.1988
11
65.7582
21
-59.203
0
LINE
8
BLACK
6
CONTINUOUS
10
65.7582
20
-59.203
11
65.7303
21
-59.2259
0
LINE
8
BLACK
6
CONTINUOUS
10
65.7303
20
-59.2259
11
65.6998
21
-59.239
0
LINE
8
BLACK
6
CONTINUOUS
10
65.6998
20
-59.239
11
65.6714
21
-59.2564
0
LINE
8
BLACK
6
CONTINUOUS
10
65.6714
20
-59.2564
11
65.6497
21
-59.2605
0
LINE
8
BLACK
6
CONTINUOUS
10
65.6497
20
-59.2605
11
65.6294
21
-59.2692
0
LINE
8
BLACK
6
CONTINUOUS
10
65.6294
20
-59.2692
11
65.5961
21
-59.2705
0
LINE
8
BLACK
6
CONTINUOUS
10
65.5961
20
-59.2705
11
65.5634
21
-59.2766
0
LINE
8
BLACK
6
CONTINUOUS
10
65.5634
20
-59.2766
11
62.4696
21
-59.2766
0
LINE
8
BLACK
6
CONTINUOUS
10
62.4696
20
-59.2766
11
62.3743
21
-59.4008
0
LINE
8
BLACK
6
CONTINUOUS
10
62.3743
20
-59.4008
11
62.25
21
-59.4962
0
LINE
8
BLACK
6
CONTINUOUS
10
62.25
20
-59.4962
11
62.1053
21
-59.5561
0
LINE
8
BLACK
6
CONTINUOUS
10
62.1053
20
-59.5561
11
61.95
21
-59.5766
0
LINE
8
BLACK
6
CONTINUOUS
10
61.95
20
-59.5766
11
61.15
21
-59.5766
0
LINE
8
BLACK
6
CONTINUOUS
10
61.15
20
-59.5766
11
60.9947
21
-59.5561
0
LINE
8
BLACK
6
CONTINUOUS
10
60.9947
20
-59.5561
11
60.85
21
-59.4962
0
LINE
8
BLACK
6
CONTINUOUS
10
60.85
20
-59.4962
11
60.7257
21
-59.4008
0
LINE
8
BLACK
6
CONTINUOUS
10
60.7257
20
-59.4008
11
60.6304
21
-59.2766
0
LINE
8
BLACK
6
CONTINUOUS
10
60.6304
20
-59.2766
11
60.5704
21
-59.1319
0
LINE
8
BLACK
6
CONTINUOUS
10
60.5704
20
-59.1319
11
60.55
21
-58.9766
0
LINE
8
BLACK
6
CONTINUOUS
10
60.55
20
-58.9766
11
60.5704
21
-58.8213
0
LINE
8
BLACK
6
CONTINUOUS
10
60.5704
20
-58.8213
11
60.6304
21
-58.6766
0
LINE
8
BLACK
6
CONTINUOUS
10
60.6304
20
-58.6766
11
60.7257
21
-58.5523
0
LINE
8
BLACK
6
CONTINUOUS
10
60.7257
20
-58.5523
11
60.85
21
-58.4569
0
LINE
8
BLACK
6
CONTINUOUS
10
60.85
20
-58.4569
11
60.9947
21
-58.397
0
LINE
8
BLACK
6
CONTINUOUS
10
60.9947
20
-58.397
11
61.15
21
-58.3766
0
LINE
8
BLACK
6
CONTINUOUS
10
61.15
20
-58.3766
11
61.95
21
-58.3766
0
LINE
8
BLACK
6
CONTINUOUS
10
61.95
20
-58.3766
11
62.1053
21
-58.397
0
LINE
8
BLACK
6
CONTINUOUS
10
62.1053
20
-58.397
11
62.25
21
-58.4569
0
LINE
8
BLACK
6
CONTINUOUS
10
62.25
20
-58.4569
11
62.3743
21
-58.5523
0
LINE
8
BLACK
6
CONTINUOUS
10
62.3743
20
-58.5523
11
62.4696
21
-58.6766
0
LINE
8
BLACK
6
CONTINUOUS
10
62.4696
20
-58.6766
11
65.4392
21
-58.6766
0
LINE
8
BLACK
6
CONTINUOUS
10
65.4392
20
-58.6766
11
73.6
21
-50.5157
0
LINE
8
BLACK
6
CONTINUOUS
10
73.6
20
-50.5157
11
73.6
21
-45.7
0
LINE
8
BLACK
6
CONTINUOUS
10
73.6
20
-45.7
11
73.601
21
-45.6899
0
LINE
8
BLACK
6
CONTINUOUS
10
73.601
20
-45.6899
11
73.6004
21
-45.6853
0
LINE
8
BLACK
6
CONTINUOUS
10
73.6004
20
-45.6853
11
73.6022
21
-45.6776
0
LINE
8
BLACK
6
CONTINUOUS
10
73.6022
20
-45.6776
11
73.6057
21
-45.6417
0
LINE
8
BLACK
6
CONTINUOUS
10
73.6057
20
-45.6417
11
73.618
21
-45.6108
0
LINE
8
BLACK
6
CONTINUOUS
10
73.618
20
-45.6108
11
73.6257
21
-45.5785
0
LINE
8
BLACK
6
CONTINUOUS
10
73.6257
20
-45.5785
11
73.6382
21
-45.5602
0
LINE
8
BLACK
6
CONTINUOUS
10
73.6382
20
-45.5602
11
73.6464
21
-45.5397
0
LINE
8
BLACK
6
CONTINUOUS
10
73.6464
20
-45.5397
11
73.669
21
-45.5153
0
LINE
8
BLACK
6
CONTINUOUS
10
73.669
20
-45.5153
11
73.6879
21
-45.4879
0
LINE
8
BLACK
6
CONTINUOUS
10
73.6879
20
-45.4879
11
79.6
21
-39.5757
0
LINE
8
BLACK
6
CONTINUOUS
10
79.6
20
-39.5757
11
79.6
21
-36.4443
0
LINE
8
BLACK
6
CONTINUOUS
10
79.6
20
-36.4443
11
78.5257
21
-35.37
0
LINE
8
BLACK
6
CONTINUOUS
10
78.5257
20
-35.37
11
77.9426
21
-35.37
0
LINE
8
BLACK
6
CONTINUOUS
10
77.9426
20
-35.37
11
77.903
21
-35.4691
0
LINE
8
BLACK
6
CONTINUOUS
10
77.903
20
-35.4691
11
77.7998
21
-35.6209
0
LINE
8
BLACK
6
CONTINUOUS
10
77.7998
20
-35.6209
11
77.6664
21
-35.7471
0
LINE
8
BLACK
6
CONTINUOUS
10
77.6664
20
-35.7471
11
77.509
21
-35.8416
0
LINE
8
BLACK
6
CONTINUOUS
10
77.509
20
-35.8416
11
77.335
21
-35.9002
0
LINE
8
BLACK
6
CONTINUOUS
10
77.335
20
-35.9002
11
77.1525
21
-35.92
0
LINE
8
BLACK
6
CONTINUOUS
10
77.1525
20
-35.92
11
76.9025
21
-35.92
0
LINE
8
BLACK
6
CONTINUOUS
10
76.9025
20
-35.92
11
76.8078
21
-35.9147
0
LINE
8
BLACK
6
CONTINUOUS
10
76.8078
20
-35.9147
11
76.6286
21
-35.8747
0
LINE
8
BLACK
6
CONTINUOUS
10
76.6286
20
-35.8747
11
76.4622
21
-35.7971
0
LINE
8
BLACK
6
CONTINUOUS
10
76.4622
20
-35.7971
11
76.3163
21
-35.6855
0
LINE
8
BLACK
6
CONTINUOUS
10
76.3163
20
-35.6855
11
76.1978
21
-35.5453
0
LINE
8
BLACK
6
CONTINUOUS
10
76.1978
20
-35.5453
11
76.1122
21
-35.3829
0
LINE
8
BLACK
6
CONTINUOUS
10
76.1122
20
-35.3829
11
76.1086
21
-35.37
0
LINE
8
BLACK
6
CONTINUOUS
10
76.1086
20
-35.37
11
72.8443
21
-35.37
0
LINE
8
BLACK
6
CONTINUOUS
10
72.8443
20
-35.37
11
71.63
21
-36.5843
0
LINE
8
BLACK
6
CONTINUOUS
10
71.63
20
-36.5843
11
71.63
21
-38.1629
0
LINE
8
BLACK
6
CONTINUOUS
10
71.63
20
-38.1629
11
71.6807
21
-38.181
0
LINE
8
BLACK
6
CONTINUOUS
10
71.6807
20
-38.181
11
71.8313
21
-38.2765
0
LINE
8
BLACK
6
CONTINUOUS
10
71.8313
20
-38.2765
11
71.957
21
-38.4031
0
LINE
8
BLACK
6
CONTINUOUS
10
71.957
20
-38.4031
11
72.0515
21
-38.5543
0
LINE
8
BLACK
6
CONTINUOUS
10
72.0515
20
-38.5543
11
72.1101
21
-38.7228
0
LINE
8
BLACK
6
CONTINUOUS
10
72.1101
20
-38.7228
11
72.13
21
-38.9
0
LINE
8
BLACK
6
CONTINUOUS
10
72.13
20
-38.9
11
72.1297
21
-38.9223
0
LINE
8
BLACK
6
CONTINUOUS
10
72.1297
20
-38.9223
11
72.1049
21
-39.099
0
LINE
8
BLACK
6
CONTINUOUS
10
72.1049
20
-39.099
11
72.0415
21
-39.2657
0
LINE
8
BLACK
6
CONTINUOUS
10
72.0415
20
-39.2657
11
71.9428
21
-39.4142
0
LINE
8
BLACK
6
CONTINUOUS
10
71.9428
20
-39.4142
11
71.8137
21
-39.5372
0
LINE
8
BLACK
6
CONTINUOUS
10
71.8137
20
-39.5372
11
71.6605
21
-39.6285
0
LINE
8
BLACK
6
CONTINUOUS
10
71.6605
20
-39.6285
11
71.4909
21
-39.6837
0
LINE
8
BLACK
6
CONTINUOUS
10
71.4909
20
-39.6837
11
71.3132
21
-39.6998
0
LINE
8
BLACK
6
CONTINUOUS
10
71.3132
20
-39.6998
11
71.1365
21
-39.6762
0
LINE
8
BLACK
6
CONTINUOUS
10
71.1365
20
-39.6762
11
70.9693
21
-39.6141
0
LINE
8
BLACK
6
CONTINUOUS
10
70.9693
20
-39.6141
11
70.8201
21
-39.5164
0
LINE
8
BLACK
6
CONTINUOUS
10
70.8201
20
-39.5164
11
70.6962
21
-39.3881
0
LINE
8
BLACK
6
CONTINUOUS
10
70.6962
20
-39.3881
11
70.6038
21
-39.2356
0
LINE
8
BLACK
6
CONTINUOUS
10
70.6038
20
-39.2356
11
70.5475
21
-39.0663
0
LINE
8
BLACK
6
CONTINUOUS
10
70.5475
20
-39.0663
11
70.5301
21
-38.8888
0
LINE
8
BLACK
6
CONTINUOUS
10
70.5301
20
-38.8888
11
70.5524
21
-38.7119
0
LINE
8
BLACK
6
CONTINUOUS
10
70.5524
20
-38.7119
11
70.6134
21
-38.5443
0
LINE
8
BLACK
6
CONTINUOUS
10
70.6134
20
-38.5443
11
70.71
21
-38.3944
0
LINE
8
BLACK
6
CONTINUOUS
10
70.71
20
-38.3944
11
70.8375
21
-38.2696
0
LINE
8
BLACK
6
CONTINUOUS
10
70.8375
20
-38.2696
11
70.9894
21
-38.1761
0
LINE
8
BLACK
6
CONTINUOUS
10
70.9894
20
-38.1761
11
71.03
21
-38.1623
0
LINE
8
BLACK
6
CONTINUOUS
10
71.03
20
-38.1623
11
71.03
21
-36.46
0
LINE
8
BLACK
6
CONTINUOUS
10
71.03
20
-36.46
11
71.031
21
-36.4499
0
LINE
8
BLACK
6
CONTINUOUS
10
71.031
20
-36.4499
11
71.0304
21
-36.4453
0
LINE
8
BLACK
6
CONTINUOUS
10
71.0304
20
-36.4453
11
71.0322
21
-36.4376
0
LINE
8
BLACK
6
CONTINUOUS
10
71.0322
20
-36.4376
11
71.0357
21
-36.4017
0
LINE
8
BLACK
6
CONTINUOUS
10
71.0357
20
-36.4017
11
71.048
21
-36.3708
0
LINE
8
BLACK
6
CONTINUOUS
10
71.048
20
-36.3708
11
71.0557
21
-36.3385
0
LINE
8
BLACK
6
CONTINUOUS
10
71.0557
20
-36.3385
11
71.0682
21
-36.3202
0
LINE
8
BLACK
6
CONTINUOUS
10
71.0682
20
-36.3202
11
71.0764
21
-36.2997
0
LINE
8
BLACK
6
CONTINUOUS
10
71.0764
20
-36.2997
11
71.099
21
-36.2753
0
LINE
8
BLACK
6
CONTINUOUS
10
71.099
20
-36.2753
11
71.1179
21
-36.2479
0
LINE
8
BLACK
6
CONTINUOUS
10
71.1179
20
-36.2479
11
72.5079
21
-34.8579
0
LINE
8
BLACK
6
CONTINUOUS
10
72.5079
20
-34.8579
11
72.5157
21
-34.8515
0
LINE
8
BLACK
6
CONTINUOUS
10
72.5157
20
-34.8515
11
72.5185
21
-34.8478
0
LINE
8
BLACK
6
CONTINUOUS
10
72.5185
20
-34.8478
11
72.5253
21
-34.8436
0
LINE
8
BLACK
6
CONTINUOUS
10
72.5253
20
-34.8436
11
72.5531
21
-34.8207
0
LINE
8
BLACK
6
CONTINUOUS
10
72.5531
20
-34.8207
11
72.5837
21
-34.8076
0
LINE
8
BLACK
6
CONTINUOUS
10
72.5837
20
-34.8076
11
72.612
21
-34.7901
0
LINE
8
BLACK
6
CONTINUOUS
10
72.612
20
-34.7901
11
72.6337
21
-34.7861
0
LINE
8
BLACK
6
CONTINUOUS
10
72.6337
20
-34.7861
11
72.654
21
-34.7773
0
LINE
8
BLACK
6
CONTINUOUS
10
72.654
20
-34.7773
11
72.6873
21
-34.7761
0
LINE
8
BLACK
6
CONTINUOUS
10
72.6873
20
-34.7761
11
72.72
21
-34.77
0
LINE
8
BLACK
6
CONTINUOUS
10
72.72
20
-34.77
11
76.1124
21
-34.77
0
LINE
8
BLACK
6
CONTINUOUS
10
76.1124
20
-34.77
11
76.152
21
-34.6709
0
LINE
8
BLACK
6
CONTINUOUS
10
76.152
20
-34.6709
11
76.2552
21
-34.5191
0
LINE
8
BLACK
6
CONTINUOUS
10
76.2552
20
-34.5191
11
76.3886
21
-34.3929
0
LINE
8
BLACK
6
CONTINUOUS
10
76.3886
20
-34.3929
11
76.546
21
-34.2984
0
LINE
8
BLACK
6
CONTINUOUS
10
76.546
20
-34.2984
11
76.72
21
-34.2398
0
LINE
8
BLACK
6
CONTINUOUS
10
76.72
20
-34.2398
11
76.9025
21
-34.22
0
LINE
8
BLACK
6
CONTINUOUS
10
76.9025
20
-34.22
11
77.1525
21
-34.22
0
LINE
8
BLACK
6
CONTINUOUS
10
77.1525
20
-34.22
11
77.2472
21
-34.2253
0
LINE
8
BLACK
6
CONTINUOUS
10
57.8465
20
-56.7356
11
57.8419
21
-56.7362
0
LINE
8
BLACK
6
CONTINUOUS
10
57.8419
20
-56.7362
11
57.8342
21
-56.7344
0
LINE
8
BLACK
6
CONTINUOUS
10
57.8342
20
-56.7344
11
57.7983
21
-56.7308
0
LINE
8
BLACK
6
CONTINUOUS
10
57.7983
20
-56.7308
11
57.7674
21
-56.7185
0
LINE
8
BLACK
6
CONTINUOUS
10
57.7674
20
-56.7185
11
57.735
21
-56.7108
0
LINE
8
BLACK
6
CONTINUOUS
10
57.735
20
-56.7108
11
57.7168
21
-56.6983
0
LINE
8
BLACK
6
CONTINUOUS
10
57.7168
20
-56.6983
11
57.6963
21
-56.6901
0
LINE
8
BLACK
6
CONTINUOUS
10
57.6963
20
-56.6901
11
57.6719
21
-56.6675
0
LINE
8
BLACK
6
CONTINUOUS
10
57.6719
20
-56.6675
11
57.6444
21
-56.6487
0
LINE
8
BLACK
6
CONTINUOUS
10
57.6444
20
-56.6487
11
54.7379
21
-53.7421
0
LINE
8
BLACK
6
CONTINUOUS
10
54.7379
20
-53.7421
11
54.7315
21
-53.7343
0
LINE
8
BLACK
6
CONTINUOUS
10
54.7315
20
-53.7343
11
54.7278
21
-53.7315
0
LINE
8
BLACK
6
CONTINUOUS
10
54.7278
20
-53.7315
11
54.7236
21
-53.7247
0
LINE
8
BLACK
6
CONTINUOUS
10
54.7236
20
-53.7247
11
54.7007
21
-53.6969
0
LINE
8
BLACK
6
CONTINUOUS
10
54.7007
20
-53.6969
11
54.6876
21
-53.6663
0
LINE
8
BLACK
6
CONTINUOUS
10
54.6876
20
-53.6663
11
54.6701
21
-53.638
0
LINE
8
BLACK
6
CONTINUOUS
10
54.6701
20
-53.638
11
54.6661
21
-53.6163
0
LINE
8
BLACK
6
CONTINUOUS
10
54.6661
20
-53.6163
11
54.6573
21
-53.596
0
LINE
8
BLACK
6
CONTINUOUS
10
54.6573
20
-53.596
11
54.6561
21
-53.5627
0
LINE
8
BLACK
6
CONTINUOUS
10
54.6561
20
-53.5627
11
54.65
21
-53.53
0
LINE
8
BLACK
6
CONTINUOUS
10
54.65
20
-53.53
11
54.65
21
-35.28
0
LINE
8
BLACK
6
CONTINUOUS
10
54.65
20
-35.28
11
54.651
21
-35.2699
0
LINE
8
BLACK
6
CONTINUOUS
10
54.651
20
-35.2699
11
54.6504
21
-35.2653
0
LINE
8
BLACK
6
CONTINUOUS
10
54.6504
20
-35.2653
11
54.6522
21
-35.2576
0
LINE
8
BLACK
6
CONTINUOUS
10
54.6522
20
-35.2576
11
54.6557
21
-35.2217
0
LINE
8
BLACK
6
CONTINUOUS
10
54.6557
20
-35.2217
11
54.668
21
-35.1908
0
LINE
8
BLACK
6
CONTINUOUS
10
54.668
20
-35.1908
11
54.6757
21
-35.1585
0
LINE
8
BLACK
6
CONTINUOUS
10
54.6757
20
-35.1585
11
54.6882
21
-35.1402
0
LINE
8
BLACK
6
CONTINUOUS
10
54.6882
20
-35.1402
11
54.6964
21
-35.1197
0
LINE
8
BLACK
6
CONTINUOUS
10
54.6964
20
-35.1197
11
54.719
21
-35.0953
0
LINE
8
BLACK
6
CONTINUOUS
10
54.719
20
-35.0953
11
54.7379
21
-35.0679
0
LINE
8
BLACK
6
CONTINUOUS
10
54.7379
20
-35.0679
11
58.5679
21
-31.2379
0
LINE
8
BLACK
6
CONTINUOUS
10
58.5679
20
-31.2379
11
58.5757
21
-31.2315
0
LINE
8
BLACK
6
CONTINUOUS
10
58.5757
20
-31.2315
11
58.5785
21
-31.2278
0
LINE
8
BLACK
6
CONTINUOUS
10
58.5785
20
-31.2278
11
58.5853
21
-31.2236
0
LINE
8
BLACK
6
CONTINUOUS
10
58.5853
20
-31.2236
11
58.6131
21
-31.2007
0
LINE
8
BLACK
6
CONTINUOUS
10
58.6131
20
-31.2007
11
58.6437
21
-31.1876
0
LINE
8
BLACK
6
CONTINUOUS
10
58.6437
20
-31.1876
11
58.672
21
-31.1701
0
LINE
8
BLACK
6
CONTINUOUS
10
58.672
20
-31.1701
11
58.6937
21
-31.1661
0
LINE
8
BLACK
6
CONTINUOUS
10
58.6937
20
-31.1661
11
58.714
21
-31.1573
0
LINE
8
BLACK
6
CONTINUOUS
10
58.714
20
-31.1573
11
58.7473
21
-31.1561
0
LINE
8
BLACK
6
CONTINUOUS
10
58.7473
20
-31.1561
11
58.78
21
-31.15
0
LINE
8
BLACK
6
CONTINUOUS
10
58.78
20
-31.15
11
62.56
21
-31.15
0
LINE
8
BLACK
6
CONTINUOUS
10
62.56
20
-31.15
11
62.5701
21
-31.151
0
LINE
8
BLACK
6
CONTINUOUS
10
62.5701
20
-31.151
11
62.5747
21
-31.1504
0
LINE
8
BLACK
6
CONTINUOUS
10
62.5747
20
-31.1504
11
62.5824
21
-31.1522
0
LINE
8
BLACK
6
CONTINUOUS
10
62.5824
20
-31.1522
11
62.6183
21
-31.1557
0
LINE
8
BLACK
6
CONTINUOUS
10
62.6183
20
-31.1557
11
62.6492
21
-31.168
0
LINE
8
BLACK
6
CONTINUOUS
10
62.6492
20
-31.168
11
62.6815
21
-31.1757
0
LINE
8
BLACK
6
CONTINUOUS
10
62.6815
20
-31.1757
11
62.6998
21
-31.1882
0
LINE
8
BLACK
6
CONTINUOUS
10
62.6998
20
-31.1882
11
62.7203
21
-31.1964
0
LINE
8
BLACK
6
CONTINUOUS
10
62.7203
20
-31.1964
11
62.7447
21
-31.219
0
LINE
8
BLACK
6
CONTINUOUS
10
62.7447
20
-31.219
11
62.7721
21
-31.2379
0
LINE
8
BLACK
6
CONTINUOUS
10
62.7721
20
-31.2379
11
66.62
21
-35.0857
0
LINE
8
BLACK
6
CONTINUOUS
10
66.62
20
-35.0857
11
69.3479
21
-32.3579
0
LINE
8
BLACK
6
CONTINUOUS
10
69.3479
20
-32.3579
11
69.3557
21
-32.3515
0
LINE
8
BLACK
6
CONTINUOUS
10
69.3557
20
-32.3515
11
69.3585
21
-32.3478
0
LINE
8
BLACK
6
CONTINUOUS
10
69.3585
20
-32.3478
11
69.3653
21
-32.3436
0
LINE
8
BLACK
6
CONTINUOUS
10
69.3653
20
-32.3436
11
69.3931
21
-32.3207
0
LINE
8
BLACK
6
CONTINUOUS
10
69.3931
20
-32.3207
11
69.4237
21
-32.3076
0
LINE
8
BLACK
6
CONTINUOUS
10
69.4237
20
-32.3076
11
69.452
21
-32.2901
0
LINE
8
BLACK
6
CONTINUOUS
10
69.452
20
-32.2901
11
69.4737
21
-32.2861
0
LINE
8
BLACK
6
CONTINUOUS
10
69.4737
20
-32.2861
11
69.494
21
-32.2773
0
LINE
8
BLACK
6
CONTINUOUS
10
69.494
20
-32.2773
11
69.5273
21
-32.2761
0
LINE
8
BLACK
6
CONTINUOUS
10
69.5273
20
-32.2761
11
69.56
21
-32.27
0
LINE
8
BLACK
6
CONTINUOUS
10
69.56
20
-32.27
11
76.1124
21
-32.27
0
LINE
8
BLACK
6
CONTINUOUS
10
76.1124
20
-32.27
11
76.152
21
-32.1709
0
LINE
8
BLACK
6
CONTINUOUS
10
76.152
20
-32.1709
11
76.2552
21
-32.0191
0
LINE
8
BLACK
6
CONTINUOUS
10
76.2552
20
-32.0191
11
76.3886
21
-31.8929
0
LINE
8
BLACK
6
CONTINUOUS
10
76.3886
20
-31.8929
11
76.546
21
-31.7984
0
LINE
8
BLACK
6
CONTINUOUS
10
76.546
20
-31.7984
11
76.72
21
-31.7398
0
LINE
8
BLACK
6
CONTINUOUS
10
76.72
20
-31.7398
11
76.9025
21
-31.72
0
LINE
8
BLACK
6
CONTINUOUS
10
76.9025
20
-31.72
11
77.1525
21
-31.72
0
LINE
8
BLACK
6
CONTINUOUS
10
77.1525
20
-31.72
11
77.2472
21
-31.7253
0
LINE
8
BLACK
6
CONTINUOUS
10
77.2472
20
-31.7253
11
77.4264
21
-31.7653
0
LINE
8
BLACK
6
CONTINUOUS
10
77.4264
20
-31.7653
11
77.5928
21
-31.8429
0
LINE
8
BLACK
6
CONTINUOUS
10
77.5928
20
-31.8429
11
77.7387
21
-31.9545
0
LINE
8
BLACK
6
CONTINUOUS
10
77.7387
20
-31.9545
11
77.8572
21
-32.0947
0
LINE
8
BLACK
6
CONTINUOUS
10
77.8572
20
-32.0947
11
77.9428
21
-32.2571
0
LINE
8
BLACK
6
CONTINUOUS
10
77.9428
20
-32.2571
11
77.9916
21
-32.4341
0
LINE
8
BLACK
6
CONTINUOUS
10
77.9916
20
-32.4341
11
78.0012
21
-32.6174
0
LINE
8
BLACK
6
CONTINUOUS
10
78.0012
20
-32.6174
11
77.9712
21
-32.7986
0
LINE
8
BLACK
6
CONTINUOUS
10
77.9712
20
-32.7986
11
77.903
21
-32.9691
0
LINE
8
BLACK
6
CONTINUOUS
10
77.903
20
-32.9691
11
77.7998
21
-33.1209
0
LINE
8
BLACK
6
CONTINUOUS
10
77.7998
20
-33.1209
11
77.6664
21
-33.2471
0
LINE
8
BLACK
6
CONTINUOUS
10
77.6664
20
-33.2471
11
77.509
21
-33.3416
0
LINE
8
BLACK
6
CONTINUOUS
10
77.509
20
-33.3416
11
77.335
21
-33.4002
0
LINE
8
BLACK
6
CONTINUOUS
10
77.335
20
-33.4002
11
77.1525
21
-33.42
0
LINE
8
BLACK
6
CONTINUOUS
10
77.1525
20
-33.42
11
76.9025
21
-33.42
0
LINE
8
BLACK
6
CONTINUOUS
10
76.9025
20
-33.42
11
76.8078
21
-33.4147
0
LINE
8
BLACK
6
CONTINUOUS
10
76.8078
20
-33.4147
11
76.6286
21
-33.3747
0
LINE
8
BLACK
6
CONTINUOUS
10
76.6286
20
-33.3747
11
76.4622
21
-33.2971
0
LINE
8
BLACK
6
CONTINUOUS
10
76.4622
20
-33.2971
11
76.3163
21
-33.1855
0
LINE
8
BLACK
6
CONTINUOUS
10
76.3163
20
-33.1855
11
76.1978
21
-33.0453
0
LINE
8
BLACK
6
CONTINUOUS
10
76.1978
20
-33.0453
11
76.1122
21
-32.8829
0
LINE
8
BLACK
6
CONTINUOUS
10
76.1122
20
-32.8829
11
76.1086
21
-32.87
0
LINE
8
BLACK
6
CONTINUOUS
10
76.1086
20
-32.87
11
69.6843
21
-32.87
0
LINE
8
BLACK
6
CONTINUOUS
10
69.6843
20
-32.87
11
66.92
21
-35.6343
0
LINE
8
BLACK
6
CONTINUOUS
10
66.92
20
-35.6343
11
66.92
21
-38.0929
0
LINE
8
BLACK
6
CONTINUOUS
10
66.92
20
-38.0929
11
66.9707
21
-38.111
0
LINE
8
BLACK
6
CONTINUOUS
10
66.9707
20
-38.111
11
67.1213
21
-38.2065
0
LINE
8
BLACK
6
CONTINUOUS
10
67.1213
20
-38.2065
11
67.247
21
-38.3331
0
LINE
8
BLACK
6
CONTINUOUS
10
67.247
20
-38.3331
11
67.3415
21
-38.4843
0
LINE
8
BLACK
6
CONTINUOUS
10
67.3415
20
-38.4843
11
67.4001
21
-38.6528
0
LINE
8
BLACK
6
CONTINUOUS
10
67.4001
20
-38.6528
11
67.42
21
-38.83
0
LINE
8
BLACK
6
CONTINUOUS
10
67.42
20
-38.83
11
67.4197
21
-38.8523
0
LINE
8
BLACK
6
CONTINUOUS
10
67.4197
20
-38.8523
11
67.3949
21
-39.029
0
LINE
8
BLACK
6
CONTINUOUS
10
67.3949
20
-39.029
11
67.3315
21
-39.1957
0
LINE
8
BLACK
6
CONTINUOUS
10
67.3315
20
-39.1957
11
67.2328
21
-39.3442
0
LINE
8
BLACK
6
CONTINUOUS
10
67.2328
20
-39.3442
11
67.1037
21
-39.4672
0
LINE
8
BLACK
6
CONTINUOUS
10
67.1037
20
-39.4672
11
66.9505
21
-39.5585
0
LINE
8
BLACK
6
CONTINUOUS
10
66.9505
20
-39.5585
11
66.7809
21
-39.6137
0
LINE
8
BLACK
6
CONTINUOUS
10
66.7809
20
-39.6137
11
66.6032
21
-39.6298
0
LINE
8
BLACK
6
CONTINUOUS
10
66.6032
20
-39.6298
11
66.4265
21
-39.6062
0
LINE
8
BLACK
6
CONTINUOUS
10
66.4265
20
-39.6062
11
66.2593
21
-39.5441
0
LINE
8
BLACK
6
CONTINUOUS
10
66.2593
20
-39.5441
11
66.1101
21
-39.4464
0
LINE
8
BLACK
6
CONTINUOUS
10
66.1101
20
-39.4464
11
65.9862
21
-39.3181
0
LINE
8
BLACK
6
CONTINUOUS
10
65.9862
20
-39.3181
11
65.8938
21
-39.1656
0
LINE
8
BLACK
6
CONTINUOUS
10
65.8938
20
-39.1656
11
65.8375
21
-38.9963
0
LINE
8
BLACK
6
CONTINUOUS
10
65.8375
20
-38.9963
11
65.8201
21
-38.8188
0
LINE
8
BLACK
6
CONTINUOUS
10
65.8201
20
-38.8188
11
65.8424
21
-38.6419
0
LINE
8
BLACK
6
CONTINUOUS
10
65.8424
20
-38.6419
11
65.9034
21
-38.4743
0
LINE
8
BLACK
6
CONTINUOUS
10
65.9034
20
-38.4743
11
66
21
-38.3244
0
LINE
8
BLACK
6
CONTINUOUS
10
66
20
-38.3244
11
66.1275
21
-38.1996
0
LINE
8
BLACK
6
CONTINUOUS
10
66.1275
20
-38.1996
11
66.2794
21
-38.1061
0
LINE
8
BLACK
6
CONTINUOUS
10
66.2794
20
-38.1061
11
66.32
21
-38.0923
0
LINE
8
BLACK
6
CONTINUOUS
10
66.32
20
-38.0923
11
66.32
21
-35.6343
0
LINE
8
BLACK
6
CONTINUOUS
10
66.32
20
-35.6343
11
62.4357
21
-31.75
0
LINE
8
BLACK
6
CONTINUOUS
10
62.4357
20
-31.75
11
58.9043
21
-31.75
0
LINE
8
BLACK
6
CONTINUOUS
10
58.9043
20
-31.75
11
55.25
21
-35.4043
0
LINE
8
BLACK
6
CONTINUOUS
10
55.25
20
-35.4043
11
55.25
21
-53.4057
0
LINE
8
BLACK
6
CONTINUOUS
10
55.25
20
-53.4057
11
57.9808
21
-56.1366
0
LINE
8
BLACK
6
CONTINUOUS
10
57.9808
20
-56.1366
11
60.6304
21
-56.1366
0
LINE
8
BLACK
6
CONTINUOUS
10
60.6304
20
-56.1366
11
60.7257
21
-56.0123
0
LINE
8
BLACK
6
CONTINUOUS
10
60.7257
20
-56.0123
11
60.85
21
-55.9169
0
LINE
8
BLACK
6
CONTINUOUS
10
60.85
20
-55.9169
11
60.9947
21
-55.857
0
LINE
8
BLACK
6
CONTINUOUS
10
60.9947
20
-55.857
11
61.15
21
-55.8366
0
LINE
8
BLACK
6
CONTINUOUS
10
61.15
20
-55.8366
11
61.95
21
-55.8366
0
LINE
8
BLACK
6
CONTINUOUS
10
61.95
20
-55.8366
11
62.1053
21
-55.857
0
LINE
8
BLACK
6
CONTINUOUS
10
62.1053
20
-55.857
11
62.25
21
-55.9169
0
LINE
8
BLACK
6
CONTINUOUS
10
62.25
20
-55.9169
11
62.3743
21
-56.0123
0
LINE
8
BLACK
6
CONTINUOUS
10
62.3743
20
-56.0123
11
62.4696
21
-56.1366
0
LINE
8
BLACK
6
CONTINUOUS
10
62.4696
20
-56.1366
11
62.5296
21
-56.2813
0
LINE
8
BLACK
6
CONTINUOUS
10
62.5296
20
-56.2813
11
62.55
21
-56.4366
0
LINE
8
BLACK
6
CONTINUOUS
10
62.55
20
-56.4366
11
62.5296
21
-56.5919
0
LINE
8
BLACK
6
CONTINUOUS
10
62.5296
20
-56.5919
11
62.4696
21
-56.7366
0
LINE
8
BLACK
6
CONTINUOUS
10
62.4696
20
-56.7366
11
62.3743
21
-56.8608
0
LINE
8
BLACK
6
CONTINUOUS
10
62.3743
20
-56.8608
11
62.25
21
-56.9562
0
LINE
8
BLACK
6
CONTINUOUS
10
62.25
20
-56.9562
11
62.1053
21
-57.0161
0
LINE
8
BLACK
6
CONTINUOUS
10
62.1053
20
-57.0161
11
61.95
21
-57.0366
0
LINE
8
BLACK
6
CONTINUOUS
10
61.95
20
-57.0366
11
61.15
21
-57.0366
0
LINE
8
BLACK
6
CONTINUOUS
10
61.15
20
-57.0366
11
60.9947
21
-57.0161
0
LINE
8
BLACK
6
CONTINUOUS
10
60.9947
20
-57.0161
11
60.85
21
-56.9562
0
LINE
8
BLACK
6
CONTINUOUS
10
60.85
20
-56.9562
11
60.7257
21
-56.8608
0
LINE
8
BLACK
6
CONTINUOUS
10
60.7257
20
-56.8608
11
60.6304
21
-56.7366
0
LINE
8
BLACK
6
CONTINUOUS
10
60.6304
20
-56.7366
11
57.8566
21
-56.7366
0
LINE
8
BLACK
6
CONTINUOUS
10
57.8566
20
-56.7366
11
57.8465
21
-56.7356
0
LINE
8
BLACK
6
CONTINUOUS
10
36.7053
20
-55.857
11
36.85
21
-55.9169
0
LINE
8
BLACK
6
CONTINUOUS
10
36.85
20
-55.9169
11
36.9743
21
-56.0123
0
LINE
8
BLACK
6
CONTINUOUS
10
36.9743
20
-56.0123
11
37.0696
21
-56.1366
0
LINE
8
BLACK
6
CONTINUOUS
10
37.0696
20
-56.1366
11
37.1296
21
-56.2813
0
LINE
8
BLACK
6
CONTINUOUS
10
37.1296
20
-56.2813
11
37.15
21
-56.4366
0
LINE
8
BLACK
6
CONTINUOUS
10
37.15
20
-56.4366
11
37.1296
21
-56.5919
0
LINE
8
BLACK
6
CONTINUOUS
10
37.1296
20
-56.5919
11
37.0696
21
-56.7366
0
LINE
8
BLACK
6
CONTINUOUS
10
37.0696
20
-56.7366
11
36.9743
21
-56.8608
0
LINE
8
BLACK
6
CONTINUOUS
10
36.9743
20
-56.8608
11
36.85
21
-56.9562
0
LINE
8
BLACK
6
CONTINUOUS
10
36.85
20
-56.9562
11
36.7053
21
-57.0161
0
LINE
8
BLACK
6
CONTINUOUS
10
36.7053
20
-57.0161
11
36.55
21
-57.0366
0
LINE
8
BLACK
6
CONTINUOUS
10
36.55
20
-57.0366
11
35.75
21
-57.0366
0
LINE
8
BLACK
6
CONTINUOUS
10
35.75
20
-57.0366
11
35.5947
21
-57.0161
0
LINE
8
BLACK
6
CONTINUOUS
10
35.5947
20
-57.0161
11
35.45
21
-56.9562
0
LINE
8
BLACK
6
CONTINUOUS
10
35.45
20
-56.9562
11
35.3257
21
-56.8608
0
LINE
8
BLACK
6
CONTINUOUS
10
35.3257
20
-56.8608
11
35.2304
21
-56.7366
0
LINE
8
BLACK
6
CONTINUOUS
10
35.2304
20
-56.7366
11
35.1704
21
-56.5919
0
LINE
8
BLACK
6
CONTINUOUS
10
35.1704
20
-56.5919
11
35.15
21
-56.4366
0
LINE
8
BLACK
6
CONTINUOUS
10
35.15
20
-56.4366
11
35.1704
21
-56.2813
0
LINE
8
BLACK
6
CONTINUOUS
10
35.1704
20
-56.2813
11
35.2304
21
-56.1366
0
LINE
8
BLACK
6
CONTINUOUS
10
35.2304
20
-56.1366
11
35.3257
21
-56.0123
0
LINE
8
BLACK
6
CONTINUOUS
10
35.3257
20
-56.0123
11
35.45
21
-55.9169
0
LINE
8
BLACK
6
CONTINUOUS
10
35.45
20
-55.9169
11
35.5947
21
-55.857
0
LINE
8
BLACK
6
CONTINUOUS
10
35.5947
20
-55.857
11
35.75
21
-55.8366
0
LINE
8
BLACK
6
CONTINUOUS
10
35.75
20
-55.8366
11
36.55
21
-55.8366
0
LINE
8
BLACK
6
CONTINUOUS
10
36.55
20
-55.8366
11
36.7053
21
-55.857
0
LINE
8
BLACK
6
CONTINUOUS
10
77.2472
20
-36.7253
11
77.4264
21
-36.7653
0
LINE
8
BLACK
6
CONTINUOUS
10
77.4264
20
-36.7653
11
77.5928
21
-36.8429
0
LINE
8
BLACK
6
CONTINUOUS
10
77.5928
20
-36.8429
11
77.7387
21
-36.9545
0
LINE
8
BLACK
6
CONTINUOUS
10
77.7387
20
-36.9545
11
77.8572
21
-37.0947
0
LINE
8
BLACK
6
CONTINUOUS
10
77.8572
20
-37.0947
11
77.9428
21
-37.2571
0
LINE
8
BLACK
6
CONTINUOUS
10
77.9428
20
-37.2571
11
77.9916
21
-37.4341
0
LINE
8
BLACK
6
CONTINUOUS
10
77.9916
20
-37.4341
11
78.0012
21
-37.6174
0
LINE
8
BLACK
6
CONTINUOUS
10
78.0012
20
-37.6174
11
77.9712
21
-37.7986
0
LINE
8
BLACK
6
CONTINUOUS
10
77.9712
20
-37.7986
11
77.903
21
-37.9691
0
LINE
8
BLACK
6
CONTINUOUS
10
77.903
20
-37.9691
11
77.7998
21
-38.1209
0
LINE
8
BLACK
6
CONTINUOUS
10
77.7998
20
-38.1209
11
77.6664
21
-38.2471
0
LINE
8
BLACK
6
CONTINUOUS
10
77.6664
20
-38.2471
11
77.509
21
-38.3416
0
LINE
8
BLACK
6
CONTINUOUS
10
77.509
20
-38.3416
11
77.335
21
-38.4002
0
LINE
8
BLACK
6
CONTINUOUS
10
77.335
20
-38.4002
11
77.1525
21
-38.42
0
LINE
8
BLACK
6
CONTINUOUS
10
77.1525
20
-38.42
11
76.9025
21
-38.42
0
LINE
8
BLACK
6
CONTINUOUS
10
76.9025
20
-38.42
11
76.8078
21
-38.4147
0
LINE
8
BLACK
6
CONTINUOUS
10
76.8078
20
-38.4147
11
76.6437
21
-38.378
0
LINE
8
BLACK
6
CONTINUOUS
10
76.6437
20
-38.378
11
71.3371
21
-43.6846
0
LINE
8
BLACK
6
CONTINUOUS
10
71.3371
20
-43.6846
11
71.3293
21
-43.691
0
LINE
8
BLACK
6
CONTINUOUS
10
71.3293
20
-43.691
11
71.3265
21
-43.6947
0
LINE
8
BLACK
6
CONTINUOUS
10
71.3265
20
-43.6947
11
71.3197
21
-43.6989
0
LINE
8
BLACK
6
CONTINUOUS
10
71.3197
20
-43.6989
11
71.2919
21
-43.7218
0
LINE
8
BLACK
6
CONTINUOUS
10
71.2919
20
-43.7218
11
71.2613
21
-43.7349
0
LINE
8
BLACK
6
CONTINUOUS
10
71.2613
20
-43.7349
11
71.233
21
-43.7524
0
LINE
8
BLACK
6
CONTINUOUS
10
71.233
20
-43.7524
11
71.2113
21
-43.7564
0
LINE
8
BLACK
6
CONTINUOUS
10
71.2113
20
-43.7564
11
71.191
21
-43.7652
0
LINE
8
BLACK
6
CONTINUOUS
10
71.191
20
-43.7652
11
71.1577
21
-43.7664
0
LINE
8
BLACK
6
CONTINUOUS
10
71.1577
20
-43.7664
11
71.125
21
-43.7725
0
LINE
8
BLACK
6
CONTINUOUS
10
71.125
20
-43.7725
11
67.7075
21
-43.7725
0
LINE
8
BLACK
6
CONTINUOUS
10
67.7075
20
-43.7725
11
67.6506
21
-43.9402
0
LINE
8
BLACK
6
CONTINUOUS
10
67.6506
20
-43.9402
11
67.5477
21
-44.1239
0
LINE
8
BLACK
6
CONTINUOUS
10
67.5477
20
-44.1239
11
67.4132
21
-44.2857
0
LINE
8
BLACK
6
CONTINUOUS
10
67.4132
20
-44.2857
11
67.2514
21
-44.4202
0
LINE
8
BLACK
6
CONTINUOUS
10
67.2514
20
-44.4202
11
67.0677
21
-44.5231
0
LINE
8
BLACK
6
CONTINUOUS
10
67.0677
20
-44.5231
11
66.9
21
-44.58
0
LINE
8
BLACK
6
CONTINUOUS
10
66.9
20
-44.58
11
66.9
21
-51.49
0
LINE
8
BLACK
6
CONTINUOUS
10
66.9
20
-51.49
11
66.899
21
-51.5
0
LINE
8
BLACK
6
CONTINUOUS
10
66.899
20
-51.5
11
66.8996
21
-51.5047
0
LINE
8
BLACK
6
CONTINUOUS
10
66.8996
20
-51.5047
11
66.8978
21
-51.5124
0
LINE
8
BLACK
6
CONTINUOUS
10
66.8978
20
-51.5124
11
66.8943
21
-51.5483
0
LINE
8
BLACK
6
CONTINUOUS
10
66.8943
20
-51.5483
11
66.882
21
-51.5792
0
LINE
8
BLACK
6
CONTINUOUS
10
66.882
20
-51.5792
11
66.8743
21
-51.6115
0
LINE
8
BLACK
6
CONTINUOUS
10
66.8743
20
-51.6115
11
66.8618
21
-51.6298
0
LINE
8
BLACK
6
CONTINUOUS
10
66.8618
20
-51.6298
11
66.8536
21
-51.6503
0
LINE
8
BLACK
6
CONTINUOUS
10
66.8536
20
-51.6503
11
66.831
21
-51.6747
0
LINE
8
BLACK
6
CONTINUOUS
10
66.831
20
-51.6747
11
66.8121
21
-51.7021
0
LINE
8
BLACK
6
CONTINUOUS
10
66.8121
20
-51.7021
11
64.4056
21
-54.1087
0
LINE
8
BLACK
6
CONTINUOUS
10
64.4056
20
-54.1087
11
64.3978
21
-54.1151
0
LINE
8
BLACK
6
CONTINUOUS
10
64.3978
20
-54.1151
11
64.395
21
-54.1188
0
LINE
8
BLACK
6
CONTINUOUS
10
64.395
20
-54.1188
11
64.3882
21
-54.123
0
LINE
8
BLACK
6
CONTINUOUS
10
64.3882
20
-54.123
11
64.3603
21
-54.1459
0
LINE
8
BLACK
6
CONTINUOUS
10
64.3603
20
-54.1459
11
64.3298
21
-54.159
0
LINE
8
BLACK
6
CONTINUOUS
10
64.3298
20
-54.159
11
64.3014
21
-54.1764
0
LINE
8
BLACK
6
CONTINUOUS
10
64.3014
20
-54.1764
11
64.2797
21
-54.1805
0
LINE
8
BLACK
6
CONTINUOUS
10
64.2797
20
-54.1805
11
64.2594
21
-54.1892
0
LINE
8
BLACK
6
CONTINUOUS
10
64.2594
20
-54.1892
11
64.2261
21
-54.1905
0
LINE
8
BLACK
6
CONTINUOUS
10
64.2261
20
-54.1905
11
64.1934
21
-54.1966
0
LINE
8
BLACK
6
CONTINUOUS
10
64.1934
20
-54.1966
11
62.4696
21
-54.1966
0
LINE
8
BLACK
6
CONTINUOUS
10
62.4696
20
-54.1966
11
62.3743
21
-54.3208
0
LINE
8
BLACK
6
CONTINUOUS
10
62.3743
20
-54.3208
11
62.25
21
-54.4162
0
LINE
8
BLACK
6
CONTINUOUS
10
62.25
20
-54.4162
11
62.1053
21
-54.4761
0
LINE
8
BLACK
6
CONTINUOUS
10
62.1053
20
-54.4761
11
61.95
21
-54.4966
0
LINE
8
BLACK
6
CONTINUOUS
10
61.95
20
-54.4966
11
61.15
21
-54.4966
0
LINE
8
BLACK
6
CONTINUOUS
10
61.15
20
-54.4966
11
60.9947
21
-54.4761
0
LINE
8
BLACK
6
CONTINUOUS
10
60.9947
20
-54.4761
11
60.85
21
-54.4162
0
LINE
8
BLACK
6
CONTINUOUS
10
60.85
20
-54.4162
11
60.7257
21
-54.3208
0
LINE
8
BLACK
6
CONTINUOUS
10
60.7257
20
-54.3208
11
60.6304
21
-54.1966
0
LINE
8
BLACK
6
CONTINUOUS
10
60.6304
20
-54.1966
11
60.5704
21
-54.0519
0
LINE
8
BLACK
6
CONTINUOUS
10
60.5704
20
-54.0519
11
60.55
21
-53.8966
0
LINE
8
BLACK
6
CONTINUOUS
10
60.55
20
-53.8966
11
60.5704
21
-53.7413
0
LINE
8
BLACK
6
CONTINUOUS
10
60.5704
20
-53.7413
11
60.6304
21
-53.5966
0
LINE
8
BLACK
6
CONTINUOUS
10
60.6304
20
-53.5966
11
60.7257
21
-53.4723
0
LINE
8
BLACK
6
CONTINUOUS
10
60.7257
20
-53.4723
11
60.85
21
-53.3769
0
LINE
8
BLACK
6
CONTINUOUS
10
60.85
20
-53.3769
11
60.9947
21
-53.317
0
LINE
8
BLACK
6
CONTINUOUS
10
60.9947
20
-53.317
11
61.15
21
-53.2966
0
LINE
8
BLACK
6
CONTINUOUS
10
61.15
20
-53.2966
11
61.95
21
-53.2966
0
LINE
8
BLACK
6
CONTINUOUS
10
61.95
20
-53.2966
11
62.1053
21
-53.317
0
LINE
8
BLACK
6
CONTINUOUS
10
62.1053
20
-53.317
11
62.25
21
-53.3769
0
LINE
8
BLACK
6
CONTINUOUS
10
62.25
20
-53.3769
11
62.3743
21
-53.4723
0
LINE
8
BLACK
6
CONTINUOUS
10
62.3743
20
-53.4723
11
62.4696
21
-53.5966
0
LINE
8
BLACK
6
CONTINUOUS
10
62.4696
20
-53.5966
11
64.0692
21
-53.5966
0
LINE
8
BLACK
6
CONTINUOUS
10
64.0692
20
-53.5966
11
66.3
21
-51.3657
0
LINE
8
BLACK
6
CONTINUOUS
10
66.3
20
-51.3657
11
66.3
21
-44.5787
0
LINE
8
BLACK
6
CONTINUOUS
10
66.3
20
-44.5787
11
66.2446
21
-44.5662
0
LINE
8
BLACK
6
CONTINUOUS
10
66.2446
20
-44.5662
11
66.0513
21
-44.4831
0
LINE
8
BLACK
6
CONTINUOUS
10
66.0513
20
-44.4831
11
65.8763
21
-44.3662
0
LINE
8
BLACK
6
CONTINUOUS
10
65.8763
20
-44.3662
11
65.7255
21
-44.2194
0
LINE
8
BLACK
6
CONTINUOUS
10
65.7255
20
-44.2194
11
65.6041
21
-44.0475
0
LINE
8
BLACK
6
CONTINUOUS
10
65.6041
20
-44.0475
11
65.516
21
-43.8564
0
LINE
8
BLACK
6
CONTINUOUS
10
65.516
20
-43.8564
11
65.4642
21
-43.6524
0
LINE
8
BLACK
6
CONTINUOUS
10
65.4642
20
-43.6524
11
65.4504
21
-43.4424
0
LINE
8
BLACK
6
CONTINUOUS
10
65.4504
20
-43.4424
11
65.4751
21
-43.2334
0
LINE
8
BLACK
6
CONTINUOUS
10
65.4751
20
-43.2334
11
65.5375
21
-43.0324
0
LINE
8
BLACK
6
CONTINUOUS
10
65.5375
20
-43.0324
11
65.6355
21
-42.8462
0
LINE
8
BLACK
6
CONTINUOUS
10
65.6355
20
-42.8462
11
65.7658
21
-42.6809
0
LINE
8
BLACK
6
CONTINUOUS
10
65.7658
20
-42.6809
11
65.924
21
-42.5421
0
LINE
8
BLACK
6
CONTINUOUS
10
65.924
20
-42.5421
11
66.1049
21
-42.4345
0
LINE
8
BLACK
6
CONTINUOUS
10
66.1049
20
-42.4345
11
66.3024
21
-42.3617
0
LINE
8
BLACK
6
CONTINUOUS
10
66.3024
20
-42.3617
11
66.5098
21
-42.326
0
LINE
8
BLACK
6
CONTINUOUS
10
66.5098
20
-42.326
11
66.7202
21
-42.3288
0
LINE
8
BLACK
6
CONTINUOUS
10
66.7202
20
-42.3288
11
66.9266
21
-42.3699
0
LINE
8
BLACK
6
CONTINUOUS
10
66.9266
20
-42.3699
11
67.1221
21
-42.4478
0
LINE
8
BLACK
6
CONTINUOUS
10
67.1221
20
-42.4478
11
67.3001
21
-42.5601
0
LINE
8
BLACK
6
CONTINUOUS
10
67.3001
20
-42.5601
11
67.4546
21
-42.703
0
LINE
8
BLACK
6
CONTINUOUS
10
67.4546
20
-42.703
11
67.5805
21
-42.8716
0
LINE
8
BLACK
6
CONTINUOUS
10
67.5805
20
-42.8716
11
67.6736
21
-43.0604
0
LINE
8
BLACK
6
CONTINUOUS
10
67.6736
20
-43.0604
11
67.7052
21
-43.1725
0
LINE
8
BLACK
6
CONTINUOUS
10
67.7052
20
-43.1725
11
71.0007
21
-43.1725
0
LINE
8
BLACK
6
CONTINUOUS
10
71.0007
20
-43.1725
11
76.1737
21
-37.9995
0
LINE
8
BLACK
6
CONTINUOUS
10
76.1737
20
-37.9995
11
76.1122
21
-37.8829
0
LINE
8
BLACK
6
CONTINUOUS
10
76.1122
20
-37.8829
11
76.0634
21
-37.7059
0
LINE
8
BLACK
6
CONTINUOUS
10
76.0634
20
-37.7059
11
76.0538
21
-37.5226
0
LINE
8
BLACK
6
CONTINUOUS
10
76.0538
20
-37.5226
11
76.0838
21
-37.3414
0
LINE
8
BLACK
6
CONTINUOUS
10
76.0838
20
-37.3414
11
76.152
21
-37.1709
0
LINE
8
BLACK
6
CONTINUOUS
10
76.152
20
-37.1709
11
76.2552
21
-37.0191
0
LINE
8
BLACK
6
CONTINUOUS
10
76.2552
20
-37.0191
11
76.3886
21
-36.8929
0
LINE
8
BLACK
6
CONTINUOUS
10
76.3886
20
-36.8929
11
76.546
21
-36.7984
0
LINE
8
BLACK
6
CONTINUOUS
10
76.546
20
-36.7984
11
76.72
21
-36.7398
0
LINE
8
BLACK
6
CONTINUOUS
10
76.72
20
-36.7398
11
76.9025
21
-36.72
0
LINE
8
BLACK
6
CONTINUOUS
10
76.9025
20
-36.72
11
77.1525
21
-36.72
0
LINE
8
BLACK
6
CONTINUOUS
10
77.1525
20
-36.72
11
77.2472
21
-36.7253
0
LINE
8
BLACK
6
CONTINUOUS
10
36.7053
20
-53.317
11
36.85
21
-53.3769
0
LINE
8
BLACK
6
CONTINUOUS
10
36.85
20
-53.3769
11
36.9743
21
-53.4723
0
LINE
8
BLACK
6
CONTINUOUS
10
36.9743
20
-53.4723
11
37.0696
21
-53.5966
0
LINE
8
BLACK
6
CONTINUOUS
10
37.0696
20
-53.5966
11
37.1296
21
-53.7413
0
LINE
8
BLACK
6
CONTINUOUS
10
37.1296
20
-53.7413
11
37.15
21
-53.8966
0
LINE
8
BLACK
6
CONTINUOUS
10
37.15
20
-53.8966
11
37.1296
21
-54.0519
0
LINE
8
BLACK
6
CONTINUOUS
10
37.1296
20
-54.0519
11
37.0696
21
-54.1966
0
LINE
8
BLACK
6
CONTINUOUS
10
37.0696
20
-54.1966
11
36.9743
21
-54.3208
0
LINE
8
BLACK
6
CONTINUOUS
10
36.9743
20
-54.3208
11
36.85
21
-54.4162
0
LINE
8
BLACK
6
CONTINUOUS
10
36.85
20
-54.4162
11
36.7053
21
-54.4761
0
LINE
8
BLACK
6
CONTINUOUS
10
36.7053
20
-54.4761
11
36.55
21
-54.4966
0
LINE
8
BLACK
6
CONTINUOUS
10
36.55
20
-54.4966
11
35.75
21
-54.4966
0
LINE
8
BLACK
6
CONTINUOUS
10
35.75
20
-54.4966
11
35.5947
21
-54.4761
0
LINE
8
BLACK
6
CONTINUOUS
10
35.5947
20
-54.4761
11
35.45
21
-54.4162
0
LINE
8
BLACK
6
CONTINUOUS
10
35.45
20
-54.4162
11
35.3257
21
-54.3208
0
LINE
8
BLACK
6
CONTINUOUS
10
35.3257
20
-54.3208
11
35.2304
21
-54.1966
0
LINE
8
BLACK
6
CONTINUOUS
10
35.2304
20
-54.1966
11
35.1704
21
-54.0519
0
LINE
8
BLACK
6
CONTINUOUS
10
35.1704
20
-54.0519
11
35.15
21
-53.8966
0
LINE
8
BLACK
6
CONTINUOUS
10
35.15
20
-53.8966
11
35.1704
21
-53.7413
0
LINE
8
BLACK
6
CONTINUOUS
10
35.1704
20
-53.7413
11
35.2304
21
-53.5966
0
LINE
8
BLACK
6
CONTINUOUS
10
35.2304
20
-53.5966
11
35.3257
21
-53.4723
0
LINE
8
BLACK
6
CONTINUOUS
10
35.3257
20
-53.4723
11
35.45
21
-53.3769
0
LINE
8
BLACK
6
CONTINUOUS
10
35.45
20
-53.3769
11
35.5947
21
-53.317
0
LINE
8
BLACK
6
CONTINUOUS
10
35.5947
20
-53.317
11
35.75
21
-53.2966
0
LINE
8
BLACK
6
CONTINUOUS
10
35.75
20
-53.2966
11
36.55
21
-53.2966
0
LINE
8
BLACK
6
CONTINUOUS
10
36.55
20
-53.2966
11
36.7053
21
-53.317
0
LINE
8
BLACK
6
CONTINUOUS
10
62.1053
20
-50.777
11
62.25
21
-50.8369
0
LINE
8
BLACK
6
CONTINUOUS
10
62.25
20
-50.8369
11
62.3743
21
-50.9323
0
LINE
8
BLACK
6
CONTINUOUS
10
62.3743
20
-50.9323
11
62.4696
21
-51.0566
0
LINE
8
BLACK
6
CONTINUOUS
10
62.4696
20
-51.0566
11
62.5296
21
-51.2013
0
LINE
8
BLACK
6
CONTINUOUS
10
62.5296
20
-51.2013
11
62.55
21
-51.3566
0
LINE
8
BLACK
6
CONTINUOUS
10
62.55
20
-51.3566
11
62.5296
21
-51.5119
0
LINE
8
BLACK
6
CONTINUOUS
10
62.5296
20
-51.5119
11
62.4696
21
-51.6566
0
LINE
8
BLACK
6
CONTINUOUS
10
62.4696
20
-51.6566
11
62.3743
21
-51.7808
0
LINE
8
BLACK
6
CONTINUOUS
10
62.3743
20
-51.7808
11
62.25
21
-51.8762
0
LINE
8
BLACK
6
CONTINUOUS
10
62.25
20
-51.8762
11
62.1053
21
-51.9361
0
LINE
8
BLACK
6
CONTINUOUS
10
62.1053
20
-51.9361
11
61.95
21
-51.9566
0
LINE
8
BLACK
6
CONTINUOUS
10
61.95
20
-51.9566
11
61.15
21
-51.9566
0
LINE
8
BLACK
6
CONTINUOUS
10
61.15
20
-51.9566
11
60.9947
21
-51.9361
0
LINE
8
BLACK
6
CONTINUOUS
10
60.9947
20
-51.9361
11
60.85
21
-51.8762
0
LINE
8
BLACK
6
CONTINUOUS
10
60.85
20
-51.8762
11
60.7257
21
-51.7808
0
LINE
8
BLACK
6
CONTINUOUS
10
60.7257
20
-51.7808
11
60.6304
21
-51.6566
0
LINE
8
BLACK
6
CONTINUOUS
10
60.6304
20
-51.6566
11
60.5704
21
-51.5119
0
LINE
8
BLACK
6
CONTINUOUS
10
60.5704
20
-51.5119
11
60.55
21
-51.3566
0
LINE
8
BLACK
6
CONTINUOUS
10
60.55
20
-51.3566
11
60.5704
21
-51.2013
0
LINE
8
BLACK
6
CONTINUOUS
10
60.5704
20
-51.2013
11
60.6304
21
-51.0566
0
LINE
8
BLACK
6
CONTINUOUS
10
60.6304
20
-51.0566
11
60.7257
21
-50.9323
0
LINE
8
BLACK
6
CONTINUOUS
10
60.7257
20
-50.9323
11
60.85
21
-50.8369
0
LINE
8
BLACK
6
CONTINUOUS
10
60.85
20
-50.8369
11
60.9947
21
-50.777
0
LINE
8
BLACK
6
CONTINUOUS
10
60.9947
20
-50.777
11
61.15
21
-50.7566
0
LINE
8
BLACK
6
CONTINUOUS
10
61.15
20
-50.7566
11
61.95
21
-50.7566
0
LINE
8
BLACK
6
CONTINUOUS
10
61.95
20
-50.7566
11
62.1053
21
-50.777
0
LINE
8
BLACK
6
CONTINUOUS
10
36.7053
20
-50.777
11
36.85
21
-50.8369
0
LINE
8
BLACK
6
CONTINUOUS
10
36.85
20
-50.8369
11
36.9743
21
-50.9323
0
LINE
8
BLACK
6
CONTINUOUS
10
36.9743
20
-50.9323
11
37.0696
21
-51.0566
0
LINE
8
BLACK
6
CONTINUOUS
10
37.0696
20
-51.0566
11
37.1296
21
-51.2013
0
LINE
8
BLACK
6
CONTINUOUS
10
37.1296
20
-51.2013
11
37.15
21
-51.3566
0
LINE
8
BLACK
6
CONTINUOUS
10
37.15
20
-51.3566
11
37.1296
21
-51.5119
0
LINE
8
BLACK
6
CONTINUOUS
10
37.1296
20
-51.5119
11
37.0696
21
-51.6566
0
LINE
8
BLACK
6
CONTINUOUS
10
37.0696
20
-51.6566
11
36.9743
21
-51.7808
0
LINE
8
BLACK
6
CONTINUOUS
10
36.9743
20
-51.7808
11
36.85
21
-51.8762
0
LINE
8
BLACK
6
CONTINUOUS
10
36.85
20
-51.8762
11
36.7053
21
-51.9361
0
LINE
8
BLACK
6
CONTINUOUS
10
36.7053
20
-51.9361
11
36.55
21
-51.9566
0
LINE
8
BLACK
6
CONTINUOUS
10
36.55
20
-51.9566
11
35.75
21
-51.9566
0
LINE
8
BLACK
6
CONTINUOUS
10
35.75
20
-51.9566
11
35.5947
21
-51.9361
0
LINE
8
BLACK
6
CONTINUOUS
10
35.5947
20
-51.9361
11
35.45
21
-51.8762
0
LINE
8
BLACK
6
CONTINUOUS
10
35.45
20
-51.8762
11
35.3257
21
-51.7808
0
LINE
8
BLACK
6
CONTINUOUS
10
35.3257
20
-51.7808
11
35.2304
21
-51.6566
0
LINE
8
BLACK
6
CONTINUOUS
10
35.2304
20
-51.6566
11
35.1704
21
-51.5119
0
LINE
8
BLACK
6
CONTINUOUS
10
35.1704
20
-51.5119
11
35.15
21
-51.3566
0
LINE
8
BLACK
6
CONTINUOUS
10
35.15
20
-51.3566
11
35.1704
21
-51.2013
0
LINE
8
BLACK
6
CONTINUOUS
10
35.1704
20
-51.2013
11
35.2304
21
-51.0566
0
LINE
8
BLACK
6
CONTINUOUS
10
35.2304
20
-51.0566
11
35.3257
21
-50.9323
0
LINE
8
BLACK
6
CONTINUOUS
10
35.3257
20
-50.9323
11
35.45
21
-50.8369
0
LINE
8
BLACK
6
CONTINUOUS
10
35.45
20
-50.8369
11
35.5947
21
-50.777
0
LINE
8
BLACK
6
CONTINUOUS
10
35.5947
20
-50.777
11
35.75
21
-50.7566
0
LINE
8
BLACK
6
CONTINUOUS
10
35.75
20
-50.7566
11
36.55
21
-50.7566
0
LINE
8
BLACK
6
CONTINUOUS
10
36.55
20
-50.7566
11
36.7053
21
-50.777
0
LINE
8
BLACK
6
CONTINUOUS
10
62.1053
20
-48.237
11
62.25
21
-48.2969
0
LINE
8
BLACK
6
CONTINUOUS
10
62.25
20
-48.2969
11
62.3743
21
-48.3923
0
LINE
8
BLACK
6
CONTINUOUS
10
62.3743
20
-48.3923
11
62.4696
21
-48.5166
0
LINE
8
BLACK
6
CONTINUOUS
10
62.4696
20
-48.5166
11
62.5296
21
-48.6613
0
LINE
8
BLACK
6
CONTINUOUS
10
62.5296
20
-48.6613
11
62.55
21
-48.8166
0
LINE
8
BLACK
6
CONTINUOUS
10
62.55
20
-48.8166
11
62.5296
21
-48.9719
0
LINE
8
BLACK
6
CONTINUOUS
10
62.5296
20
-48.9719
11
62.4696
21
-49.1166
0
LINE
8
BLACK
6
CONTINUOUS
10
62.4696
20
-49.1166
11
62.3743
21
-49.2408
0
LINE
8
BLACK
6
CONTINUOUS
10
62.3743
20
-49.2408
11
62.25
21
-49.3362
0
LINE
8
BLACK
6
CONTINUOUS
10
62.25
20
-49.3362
11
62.1053
21
-49.3961
0
LINE
8
BLACK
6
CONTINUOUS
10
62.1053
20
-49.3961
11
61.95
21
-49.4166
0
LINE
8
BLACK
6
CONTINUOUS
10
61.95
20
-49.4166
11
61.15
21
-49.4166
0
LINE
8
BLACK
6
CONTINUOUS
10
61.15
20
-49.4166
11
60.9947
21
-49.3961
0
LINE
8
BLACK
6
CONTINUOUS
10
60.9947
20
-49.3961
11
60.85
21
-49.3362
0
LINE
8
BLACK
6
CONTINUOUS
10
60.85
20
-49.3362
11
60.7257
21
-49.2408
0
LINE
8
BLACK
6
CONTINUOUS
10
60.7257
20
-49.2408
11
60.6304
21
-49.1166
0
LINE
8
BLACK
6
CONTINUOUS
10
60.6304
20
-49.1166
11
60.5704
21
-48.9719
0
LINE
8
BLACK
6
CONTINUOUS
10
60.5704
20
-48.9719
11
60.55
21
-48.8166
0
LINE
8
BLACK
6
CONTINUOUS
10
60.55
20
-48.8166
11
60.5704
21
-48.6613
0
LINE
8
BLACK
6
CONTINUOUS
10
60.5704
20
-48.6613
11
60.6304
21
-48.5166
0
LINE
8
BLACK
6
CONTINUOUS
10
60.6304
20
-48.5166
11
60.7257
21
-48.3923
0
LINE
8
BLACK
6
CONTINUOUS
10
60.7257
20
-48.3923
11
60.85
21
-48.2969
0
LINE
8
BLACK
6
CONTINUOUS
10
60.85
20
-48.2969
11
60.9947
21
-48.237
0
LINE
8
BLACK
6
CONTINUOUS
10
60.9947
20
-48.237
11
61.15
21
-48.2166
0
LINE
8
BLACK
6
CONTINUOUS
10
61.15
20
-48.2166
11
61.95
21
-48.2166
0
LINE
8
BLACK
6
CONTINUOUS
10
61.95
20
-48.2166
11
62.1053
21
-48.237
0
LINE
8
BLACK
6
CONTINUOUS
10
36.7053
20
-48.237
11
36.85
21
-48.2969
0
LINE
8
BLACK
6
CONTINUOUS
10
36.85
20
-48.2969
11
36.9743
21
-48.3923
0
LINE
8
BLACK
6
CONTINUOUS
10
36.9743
20
-48.3923
11
37.0696
21
-48.5166
0
LINE
8
BLACK
6
CONTINUOUS
10
37.0696
20
-48.5166
11
37.1296
21
-48.6613
0
LINE
8
BLACK
6
CONTINUOUS
10
37.1296
20
-48.6613
11
37.15
21
-48.8166
0
LINE
8
BLACK
6
CONTINUOUS
10
37.15
20
-48.8166
11
37.1296
21
-48.9719
0
LINE
8
BLACK
6
CONTINUOUS
10
37.1296
20
-48.9719
11
37.0696
21
-49.1166
0
LINE
8
BLACK
6
CONTINUOUS
10
37.0696
20
-49.1166
11
36.9743
21
-49.2408
0
LINE
8
BLACK
6
CONTINUOUS
10
36.9743
20
-49.2408
11
36.85
21
-49.3362
0
LINE
8
BLACK
6
CONTINUOUS
10
36.85
20
-49.3362
11
36.7053
21
-49.3961
0
LINE
8
BLACK
6
CONTINUOUS
10
36.7053
20
-49.3961
11
36.55
21
-49.4166
0
LINE
8
BLACK
6
CONTINUOUS
10
36.55
20
-49.4166
11
35.75
21
-49.4166
0
LINE
8
BLACK
6
CONTINUOUS
10
35.75
20
-49.4166
11
35.5947
21
-49.3961
0
LINE
8
BLACK
6
CONTINUOUS
10
35.5947
20
-49.3961
11
35.45
21
-49.3362
0
LINE
8
BLACK
6
CONTINUOUS
10
35.45
20
-49.3362
11
35.3257
21
-49.2408
0
LINE
8
BLACK
6
CONTINUOUS
10
35.3257
20
-49.2408
11
35.2304
21
-49.1166
0
LINE
8
BLACK
6
CONTINUOUS
10
35.2304
20
-49.1166
11
35.1704
21
-48.9719
0
LINE
8
BLACK
6
CONTINUOUS
10
35.1704
20
-48.9719
11
35.15
21
-48.8166
0
LINE
8
BLACK
6
CONTINUOUS
10
35.15
20
-48.8166
11
35.1704
21
-48.6613
0
LINE
8
BLACK
6
CONTINUOUS
10
35.1704
20
-48.6613
11
35.2304
21
-48.5166
0
LINE
8
BLACK
6
CONTINUOUS
10
35.2304
20
-48.5166
11
35.3257
21
-48.3923
0
LINE
8
BLACK
6
CONTINUOUS
10
35.3257
20
-48.3923
11
35.45
21
-48.2969
0
LINE
8
BLACK
6
CONTINUOUS
10
35.45
20
-48.2969
11
35.5947
21
-48.237
0
LINE
8
BLACK
6
CONTINUOUS
10
35.5947
20
-48.237
11
35.75
21
-48.2166
0
LINE
8
BLACK
6
CONTINUOUS
10
35.75
20
-48.2166
11
36.55
21
-48.2166
0
LINE
8
BLACK
6
CONTINUOUS
10
36.55
20
-48.2166
11
36.7053
21
-48.237
0
LINE
8
BLACK
6
CONTINUOUS
10
36.7053
20
-45.697
11
36.85
21
-45.7569
0
LINE
8
BLACK
6
CONTINUOUS
10
36.85
20
-45.7569
11
36.9743
21
-45.8523
0
LINE
8
BLACK
6
CONTINUOUS
10
36.9743
20
-45.8523
11
37.0696
21
-45.9766
0
LINE
8
BLACK
6
CONTINUOUS
10
37.0696
20
-45.9766
11
37.1296
21
-46.1213
0
LINE
8
BLACK
6
CONTINUOUS
10
37.1296
20
-46.1213
11
37.15
21
-46.2766
0
LINE
8
BLACK
6
CONTINUOUS
10
37.15
20
-46.2766
11
37.1296
21
-46.4319
0
LINE
8
BLACK
6
CONTINUOUS
10
37.1296
20
-46.4319
11
37.0696
21
-46.5766
0
LINE
8
BLACK
6
CONTINUOUS
10
37.0696
20
-46.5766
11
36.9743
21
-46.7008
0
LINE
8
BLACK
6
CONTINUOUS
10
36.9743
20
-46.7008
11
36.85
21
-46.7962
0
LINE
8
BLACK
6
CONTINUOUS
10
36.85
20
-46.7962
11
36.7053
21
-46.8561
0
LINE
8
BLACK
6
CONTINUOUS
10
36.7053
20
-46.8561
11
36.55
21
-46.8766
0
LINE
8
BLACK
6
CONTINUOUS
10
36.55
20
-46.8766
11
35.75
21
-46.8766
0
LINE
8
BLACK
6
CONTINUOUS
10
35.75
20
-46.8766
11
35.5947
21
-46.8561
0
LINE
8
BLACK
6
CONTINUOUS
10
35.5947
20
-46.8561
11
35.45
21
-46.7962
0
LINE
8
BLACK
6
CONTINUOUS
10
35.45
20
-46.7962
11
35.3257
21
-46.7008
0
LINE
8
BLACK
6
CONTINUOUS
10
35.3257
20
-46.7008
11
35.2304
21
-46.5766
0
LINE
8
BLACK
6
CONTINUOUS
10
35.2304
20
-46.5766
11
35.1704
21
-46.4319
0
LINE
8
BLACK
6
CONTINUOUS
10
35.1704
20
-46.4319
11
35.15
21
-46.2766
0
LINE
8
BLACK
6
CONTINUOUS
10
35.15
20
-46.2766
11
35.1704
21
-46.1213
0
LINE
8
BLACK
6
CONTINUOUS
10
35.1704
20
-46.1213
11
35.2304
21
-45.9766
0
LINE
8
BLACK
6
CONTINUOUS
10
35.2304
20
-45.9766
11
35.3257
21
-45.8523
0
LINE
8
BLACK
6
CONTINUOUS
10
35.3257
20
-45.8523
11
35.45
21
-45.7569
0
LINE
8
BLACK
6
CONTINUOUS
10
35.45
20
-45.7569
11
35.5947
21
-45.697
0
LINE
8
BLACK
6
CONTINUOUS
10
35.5947
20
-45.697
11
35.75
21
-45.6766
0
LINE
8
BLACK
6
CONTINUOUS
10
35.75
20
-45.6766
11
36.55
21
-45.6766
0
LINE
8
BLACK
6
CONTINUOUS
10
36.55
20
-45.6766
11
36.7053
21
-45.697
0
LINE
8
BLACK
6
CONTINUOUS
10
62.1053
20
-45.697
11
62.25
21
-45.7569
0
LINE
8
BLACK
6
CONTINUOUS
10
62.25
20
-45.7569
11
62.3743
21
-45.8523
0
LINE
8
BLACK
6
CONTINUOUS
10
62.3743
20
-45.8523
11
62.4696
21
-45.9766
0
LINE
8
BLACK
6
CONTINUOUS
10
62.4696
20
-45.9766
11
62.5296
21
-46.1213
0
LINE
8
BLACK
6
CONTINUOUS
10
62.5296
20
-46.1213
11
62.55
21
-46.2766
0
LINE
8
BLACK
6
CONTINUOUS
10
62.55
20
-46.2766
11
62.5296
21
-46.4319
0
LINE
8
BLACK
6
CONTINUOUS
10
62.5296
20
-46.4319
11
62.4696
21
-46.5766
0
LINE
8
BLACK
6
CONTINUOUS
10
62.4696
20
-46.5766
11
62.3743
21
-46.7008
0
LINE
8
BLACK
6
CONTINUOUS
10
62.3743
20
-46.7008
11
62.25
21
-46.7962
0
LINE
8
BLACK
6
CONTINUOUS
10
62.25
20
-46.7962
11
62.1053
21
-46.8561
0
LINE
8
BLACK
6
CONTINUOUS
10
62.1053
20
-46.8561
11
61.95
21
-46.8766
0
LINE
8
BLACK
6
CONTINUOUS
10
61.95
20
-46.8766
11
61.15
21
-46.8766
0
LINE
8
BLACK
6
CONTINUOUS
10
61.15
20
-46.8766
11
60.9947
21
-46.8561
0
LINE
8
BLACK
6
CONTINUOUS
10
60.9947
20
-46.8561
11
60.85
21
-46.7962
0
LINE
8
BLACK
6
CONTINUOUS
10
60.85
20
-46.7962
11
60.7257
21
-46.7008
0
LINE
8
BLACK
6
CONTINUOUS
10
60.7257
20
-46.7008
11
60.6304
21
-46.5766
0
LINE
8
BLACK
6
CONTINUOUS
10
60.6304
20
-46.5766
11
60.5704
21
-46.4319
0
LINE
8
BLACK
6
CONTINUOUS
10
60.5704
20
-46.4319
11
60.55
21
-46.2766
0
LINE
8
BLACK
6
CONTINUOUS
10
60.55
20
-46.2766
11
60.5704
21
-46.1213
0
LINE
8
BLACK
6
CONTINUOUS
10
60.5704
20
-46.1213
11
60.6304
21
-45.9766
0
LINE
8
BLACK
6
CONTINUOUS
10
60.6304
20
-45.9766
11
60.7257
21
-45.8523
0
LINE
8
BLACK
6
CONTINUOUS
10
60.7257
20
-45.8523
11
60.85
21
-45.7569
0
LINE
8
BLACK
6
CONTINUOUS
10
60.85
20
-45.7569
11
60.9947
21
-45.697
0
LINE
8
BLACK
6
CONTINUOUS
10
60.9947
20
-45.697
11
61.15
21
-45.6766
0
LINE
8
BLACK
6
CONTINUOUS
10
61.15
20
-45.6766
11
61.95
21
-45.6766
0
LINE
8
BLACK
6
CONTINUOUS
10
61.95
20
-45.6766
11
62.1053
21
-45.697
0
LINE
8
BLACK
6
CONTINUOUS
10
66.8027
20
-27.8911
11
66.9707
21
-27.951
0
LINE
8
BLACK
6
CONTINUOUS
10
66.9707
20
-27.951
11
67.1213
21
-28.0465
0
LINE
8
BLACK
6
CONTINUOUS
10
67.1213
20
-28.0465
11
67.247
21
-28.1731
0
LINE
8
BLACK
6
CONTINUOUS
10
67.247
20
-28.1731
11
67.3415
21
-28.3243
0
LINE
8
BLACK
6
CONTINUOUS
10
67.3415
20
-28.3243
11
67.3817
21
-28.44
0
LINE
8
BLACK
6
CONTINUOUS
10
67.3817
20
-28.44
11
70.5932
21
-28.44
0
LINE
8
BLACK
6
CONTINUOUS
10
70.5932
20
-28.44
11
70.6134
21
-28.3843
0
LINE
8
BLACK
6
CONTINUOUS
10
70.6134
20
-28.3843
11
70.71
21
-28.2344
0
LINE
8
BLACK
6
CONTINUOUS
10
70.71
20
-28.2344
11
70.8375
21
-28.1096
0
LINE
8
BLACK
6
CONTINUOUS
10
70.8375
20
-28.1096
11
70.9894
21
-28.0161
0
LINE
8
BLACK
6
CONTINUOUS
10
70.9894
20
-28.0161
11
71.1582
21
-27.9587
0
LINE
8
BLACK
6
CONTINUOUS
10
71.1582
20
-27.9587
11
71.3356
21
-27.94
0
LINE
8
BLACK
6
CONTINUOUS
10
71.3356
20
-27.94
11
71.5127
21
-27.9611
0
LINE
8
BLACK
6
CONTINUOUS
10
71.5127
20
-27.9611
11
71.6807
21
-28.021
0
LINE
8
BLACK
6
CONTINUOUS
10
71.6807
20
-28.021
11
71.8313
21
-28.1165
0
LINE
8
BLACK
6
CONTINUOUS
10
71.8313
20
-28.1165
11
71.957
21
-28.2431
0
LINE
8
BLACK
6
CONTINUOUS
10
71.957
20
-28.2431
11
72.0515
21
-28.3943
0
LINE
8
BLACK
6
CONTINUOUS
10
72.0515
20
-28.3943
11
72.0674
21
-28.44
0
LINE
8
BLACK
6
CONTINUOUS
10
72.0674
20
-28.44
11
75.6975
21
-28.44
0
LINE
8
BLACK
6
CONTINUOUS
10
75.6975
20
-28.44
11
75.7076
21
-28.441
0
LINE
8
BLACK
6
CONTINUOUS
10
75.7076
20
-28.441
11
75.7122
21
-28.4404
0
LINE
8
BLACK
6
CONTINUOUS
10
75.7122
20
-28.4404
11
75.7199
21
-28.4422
0
LINE
8
BLACK
6
CONTINUOUS
10
75.7199
20
-28.4422
11
75.7558
21
-28.4457
0
LINE
8
BLACK
6
CONTINUOUS
10
75.7558
20
-28.4457
11
75.7867
21
-28.458
0
LINE
8
BLACK
6
CONTINUOUS
10
75.7867
20
-28.458
11
75.819
21
-28.4657
0
LINE
8
BLACK
6
CONTINUOUS
10
75.819
20
-28.4657
11
75.8373
21
-28.4782
0
LINE
8
BLACK
6
CONTINUOUS
10
75.8373
20
-28.4782
11
75.8578
21
-28.4864
0
LINE
8
BLACK
6
CONTINUOUS
10
75.8578
20
-28.4864
11
75.8822
21
-28.509
0
LINE
8
BLACK
6
CONTINUOUS
10
75.8822
20
-28.509
11
75.9096
21
-28.5279
0
LINE
8
BLACK
6
CONTINUOUS
10
75.9096
20
-28.5279
11
76.6018
21
-29.22
0
LINE
8
BLACK
6
CONTINUOUS
10
76.6018
20
-29.22
11
77.7525
21
-29.22
0
LINE
8
BLACK
6
CONTINUOUS
10
77.7525
20
-29.22
11
77.8482
21
-29.239
0
LINE
8
BLACK
6
CONTINUOUS
10
77.8482
20
-29.239
11
77.9293
21
-29.2932
0
LINE
8
BLACK
6
CONTINUOUS
10
77.9293
20
-29.2932
11
77.9835
21
-29.3743
0
LINE
8
BLACK
6
CONTINUOUS
10
77.9835
20
-29.3743
11
78.0025
21
-29.47
0
LINE
8
BLACK
6
CONTINUOUS
10
78.0025
20
-29.47
11
78.0025
21
-29.77
0
LINE
8
BLACK
6
CONTINUOUS
10
78.0025
20
-29.77
11
79.61
21
-29.77
0
LINE
8
BLACK
6
CONTINUOUS
10
79.61
20
-29.77
11
79.6201
21
-29.771
0
LINE
8
BLACK
6
CONTINUOUS
10
79.6201
20
-29.771
11
79.6247
21
-29.7704
0
LINE
8
BLACK
6
CONTINUOUS
10
79.6247
20
-29.7704
11
79.6324
21
-29.7722
0
LINE
8
BLACK
6
CONTINUOUS
10
79.6324
20
-29.7722
11
79.6683
21
-29.7757
0
LINE
8
BLACK
6
CONTINUOUS
10
79.6683
20
-29.7757
11
79.6992
21
-29.788
0
LINE
8
BLACK
6
CONTINUOUS
10
79.6992
20
-29.788
11
79.7315
21
-29.7957
0
LINE
8
BLACK
6
CONTINUOUS
10
79.7315
20
-29.7957
11
79.7498
21
-29.8082
0
LINE
8
BLACK
6
CONTINUOUS
10
79.7498
20
-29.8082
11
79.7703
21
-29.8164
0
LINE
8
BLACK
6
CONTINUOUS
10
79.7703
20
-29.8164
11
79.7947
21
-29.839
0
LINE
8
BLACK
6
CONTINUOUS
10
79.7947
20
-29.839
11
79.8221
21
-29.8579
0
LINE
8
BLACK
6
CONTINUOUS
10
79.8221
20
-29.8579
11
82.2121
21
-32.2479
0
LINE
8
BLACK
6
CONTINUOUS
10
82.2121
20
-32.2479
11
82.2185
21
-32.2557
0
LINE
8
BLACK
6
CONTINUOUS
10
82.2185
20
-32.2557
11
82.2222
21
-32.2585
0
LINE
8
BLACK
6
CONTINUOUS
10
82.2222
20
-32.2585
11
82.2264
21
-32.2653
0
LINE
8
BLACK
6
CONTINUOUS
10
82.2264
20
-32.2653
11
82.2493
21
-32.2931
0
LINE
8
BLACK
6
CONTINUOUS
10
82.2493
20
-32.2931
11
82.2624
21
-32.3237
0
LINE
8
BLACK
6
CONTINUOUS
10
82.2624
20
-32.3237
11
82.2799
21
-32.352
0
LINE
8
BLACK
6
CONTINUOUS
10
82.2799
20
-32.352
11
82.2839
21
-32.3737
0
LINE
8
BLACK
6
CONTINUOUS
10
82.2839
20
-32.3737
11
82.2927
21
-32.394
0
LINE
8
BLACK
6
CONTINUOUS
10
82.2927
20
-32.394
11
82.2939
21
-32.4273
0
LINE
8
BLACK
6
CONTINUOUS
10
82.2939
20
-32.4273
11
82.3
21
-32.46
0
LINE
8
BLACK
6
CONTINUOUS
10
82.3
20
-32.46
11
82.3
21
-42.3646
0
LINE
8
BLACK
6
CONTINUOUS
10
82.3
20
-42.3646
11
82.3266
21
-42.3699
0
LINE
8
BLACK
6
CONTINUOUS
10
82.3266
20
-42.3699
11
82.5221
21
-42.4478
0
LINE
8
BLACK
6
CONTINUOUS
10
82.5221
20
-42.4478
11
82.7001
21
-42.5601
0
LINE
8
BLACK
6
CONTINUOUS
10
82.7001
20
-42.5601
11
82.8546
21
-42.703
0
LINE
8
BLACK
6
CONTINUOUS
10
82.8546
20
-42.703
11
82.9805
21
-42.8716
0
LINE
8
BLACK
6
CONTINUOUS
10
82.9805
20
-42.8716
11
83.0736
21
-43.0604
0
LINE
8
BLACK
6
CONTINUOUS
10
83.0736
20
-43.0604
11
83.1307
21
-43.2629
0
LINE
8
BLACK
6
CONTINUOUS
10
83.1307
20
-43.2629
11
83.15
21
-43.4725
0
LINE
8
BLACK
6
CONTINUOUS
10
83.15
20
-43.4725
11
83.1484
21
-43.5327
0
LINE
8
BLACK
6
CONTINUOUS
10
83.1484
20
-43.5327
11
83.1182
21
-43.741
0
LINE
8
BLACK
6
CONTINUOUS
10
83.1182
20
-43.741
11
83.0506
21
-43.9402
0
LINE
8
BLACK
6
CONTINUOUS
10
83.0506
20
-43.9402
11
82.9477
21
-44.1239
0
LINE
8
BLACK
6
CONTINUOUS
10
82.9477
20
-44.1239
11
82.8132
21
-44.2857
0
LINE
8
BLACK
6
CONTINUOUS
10
82.8132
20
-44.2857
11
82.6514
21
-44.4202
0
LINE
8
BLACK
6
CONTINUOUS
10
82.6514
20
-44.4202
11
82.4677
21
-44.5231
0
LINE
8
BLACK
6
CONTINUOUS
10
82.4677
20
-44.5231
11
82.2685
21
-44.5907
0
LINE
8
BLACK
6
CONTINUOUS
10
82.2685
20
-44.5907
11
82.0602
21
-44.6209
0
LINE
8
BLACK
6
CONTINUOUS
10
82.0602
20
-44.6209
11
81.8499
21
-44.6127
0
LINE
8
BLACK
6
CONTINUOUS
10
81.8499
20
-44.6127
11
81.6446
21
-44.5662
0
LINE
8
BLACK
6
CONTINUOUS
10
81.6446
20
-44.5662
11
81.4513
21
-44.4831
0
LINE
8
BLACK
6
CONTINUOUS
10
81.4513
20
-44.4831
11
81.2763
21
-44.3662
0
LINE
8
BLACK
6
CONTINUOUS
10
81.2763
20
-44.3662
11
81.1255
21
-44.2194
0
LINE
8
BLACK
6
CONTINUOUS
10
81.1255
20
-44.2194
11
81.0041
21
-44.0475
0
LINE
8
BLACK
6
CONTINUOUS
10
81.0041
20
-44.0475
11
80.916
21
-43.8564
0
LINE
8
BLACK
6
CONTINUOUS
10
80.916
20
-43.8564
11
80.8642
21
-43.6524
0
LINE
8
BLACK
6
CONTINUOUS
10
80.8642
20
-43.6524
11
80.8504
21
-43.4424
0
LINE
8
BLACK
6
CONTINUOUS
10
80.8504
20
-43.4424
11
80.8751
21
-43.2334
0
LINE
8
BLACK
6
CONTINUOUS
10
80.8751
20
-43.2334
11
80.9375
21
-43.0324
0
LINE
8
BLACK
6
CONTINUOUS
10
80.9375
20
-43.0324
11
81.0355
21
-42.8462
0
LINE
8
BLACK
6
CONTINUOUS
10
81.0355
20
-42.8462
11
81.1658
21
-42.6809
0
LINE
8
BLACK
6
CONTINUOUS
10
81.1658
20
-42.6809
11
81.324
21
-42.5421
0
LINE
8
BLACK
6
CONTINUOUS
10
81.324
20
-42.5421
11
81.5049
21
-42.4345
0
LINE
8
BLACK
6
CONTINUOUS
10
81.5049
20
-42.4345
11
81.7
21
-42.3626
0
LINE
8
BLACK
6
CONTINUOUS
10
81.7
20
-42.3626
11
81.7
21
-32.5843
0
LINE
8
BLACK
6
CONTINUOUS
10
81.7
20
-32.5843
11
79.4857
21
-30.37
0
LINE
8
BLACK
6
CONTINUOUS
10
79.4857
20
-30.37
11
78.0025
21
-30.37
0
LINE
8
BLACK
6
CONTINUOUS
10
78.0025
20
-30.37
11
78.0025
21
-30.67
0
LINE
8
BLACK
6
CONTINUOUS
10
78.0025
20
-30.67
11
77.9835
21
-30.7657
0
LINE
8
BLACK
6
CONTINUOUS
10
77.9835
20
-30.7657
11
77.9293
21
-30.8468
0
LINE
8
BLACK
6
CONTINUOUS
10
77.9293
20
-30.8468
11
77.8482
21
-30.901
0
LINE
8
BLACK
6
CONTINUOUS
10
77.8482
20
-30.901
11
77.7525
21
-30.92
0
LINE
8
BLACK
6
CONTINUOUS
10
77.7525
20
-30.92
11
76.3025
21
-30.92
0
LINE
8
BLACK
6
CONTINUOUS
10
76.3025
20
-30.92
11
76.2068
21
-30.901
0
LINE
8
BLACK
6
CONTINUOUS
10
76.2068
20
-30.901
11
76.1257
21
-30.8468
0
LINE
8
BLACK
6
CONTINUOUS
10
76.1257
20
-30.8468
11
76.0715
21
-30.7657
0
LINE
8
BLACK
6
CONTINUOUS
10
76.0715
20
-30.7657
11
76.0525
21
-30.67
0
LINE
8
BLACK
6
CONTINUOUS
10
76.0525
20
-30.67
11
76.0525
21
-29.5193
0
LINE
8
BLACK
6
CONTINUOUS
10
76.0525
20
-29.5193
11
75.5732
21
-29.04
0
LINE
8
BLACK
6
CONTINUOUS
10
75.5732
20
-29.04
11
72.0665
21
-29.04
0
LINE
8
BLACK
6
CONTINUOUS
10
72.0665
20
-29.04
11
72.0415
21
-29.1057
0
LINE
8
BLACK
6
CONTINUOUS
10
72.0415
20
-29.1057
11
71.9428
21
-29.2542
0
LINE
8
BLACK
6
CONTINUOUS
10
71.9428
20
-29.2542
11
71.8137
21
-29.3772
0
LINE
8
BLACK
6
CONTINUOUS
10
71.8137
20
-29.3772
11
71.6605
21
-29.4685
0
LINE
8
BLACK
6
CONTINUOUS
10
71.6605
20
-29.4685
11
71.4909
21
-29.5237
0
LINE
8
BLACK
6
CONTINUOUS
10
71.4909
20
-29.5237
11
71.3132
21
-29.5398
0
LINE
8
BLACK
6
CONTINUOUS
10
71.3132
20
-29.5398
11
71.1365
21
-29.5162
0
LINE
8
BLACK
6
CONTINUOUS
10
71.1365
20
-29.5162
11
70.9693
21
-29.4541
0
LINE
8
BLACK
6
CONTINUOUS
10
70.9693
20
-29.4541
11
70.8201
21
-29.3564
0
LINE
8
BLACK
6
CONTINUOUS
10
70.8201
20
-29.3564
11
70.6962
21
-29.2281
0
LINE
8
BLACK
6
CONTINUOUS
10
70.6962
20
-29.2281
11
70.6038
21
-29.0756
0
LINE
8
BLACK
6
CONTINUOUS
10
70.6038
20
-29.0756
11
70.5919
21
-29.04
0
LINE
8
BLACK
6
CONTINUOUS
10
70.5919
20
-29.04
11
67.3287
21
-29.04
0
LINE
8
BLACK
6
CONTINUOUS
10
67.3287
20
-29.04
11
67.2328
21
-29.1842
0
LINE
8
BLACK
6
CONTINUOUS
10
67.2328
20
-29.1842
11
67.1037
21
-29.3072
0
LINE
8
BLACK
6
CONTINUOUS
10
67.1037
20
-29.3072
11
66.9505
21
-29.3985
0
LINE
8
BLACK
6
CONTINUOUS
10
66.9505
20
-29.3985
11
66.7809
21
-29.4537
0
LINE
8
BLACK
6
CONTINUOUS
10
66.7809
20
-29.4537
11
66.6032
21
-29.4698
0
LINE
8
BLACK
6
CONTINUOUS
10
66.6032
20
-29.4698
11
66.4265
21
-29.4462
0
LINE
8
BLACK
6
CONTINUOUS
10
66.4265
20
-29.4462
11
66.2593
21
-29.3841
0
LINE
8
BLACK
6
CONTINUOUS
10
66.2593
20
-29.3841
11
66.1101
21
-29.2864
0
LINE
8
BLACK
6
CONTINUOUS
10
66.1101
20
-29.2864
11
65.9862
21
-29.1581
0
LINE
8
BLACK
6
CONTINUOUS
10
65.9862
20
-29.1581
11
65.8938
21
-29.0056
0
LINE
8
BLACK
6
CONTINUOUS
10
65.8938
20
-29.0056
11
65.8819
21
-28.97
0
LINE
8
BLACK
6
CONTINUOUS
10
65.8819
20
-28.97
11
42.3524
21
-28.97
0
LINE
8
BLACK
6
CONTINUOUS
10
42.3524
20
-28.97
11
36.45
21
-34.8724
0
LINE
8
BLACK
6
CONTINUOUS
10
36.45
20
-34.8724
11
36.45
21
-38.0566
0
LINE
8
BLACK
6
CONTINUOUS
10
36.45
20
-38.0566
11
36.55
21
-38.0566
0
LINE
8
BLACK
6
CONTINUOUS
10
36.55
20
-38.0566
11
36.7053
21
-38.077
0
LINE
8
BLACK
6
CONTINUOUS
10
36.7053
20
-38.077
11
36.85
21
-38.1369
0
LINE
8
BLACK
6
CONTINUOUS
10
36.85
20
-38.1369
11
36.9743
21
-38.2323
0
LINE
8
BLACK
6
CONTINUOUS
10
36.9743
20
-38.2323
11
37.0696
21
-38.3566
0
LINE
8
BLACK
6
CONTINUOUS
10
37.0696
20
-38.3566
11
37.1296
21
-38.5013
0
LINE
8
BLACK
6
CONTINUOUS
10
37.1296
20
-38.5013
11
37.15
21
-38.6566
0
LINE
8
BLACK
6
CONTINUOUS
10
37.15
20
-38.6566
11
37.1296
21
-38.8119
0
LINE
8
BLACK
6
CONTINUOUS
10
37.1296
20
-38.8119
11
37.0696
21
-38.9566
0
LINE
8
BLACK
6
CONTINUOUS
10
37.0696
20
-38.9566
11
36.9743
21
-39.0808
0
LINE
8
BLACK
6
CONTINUOUS
10
36.9743
20
-39.0808
11
36.85
21
-39.1762
0
LINE
8
BLACK
6
CONTINUOUS
10
36.85
20
-39.1762
11
36.7053
21
-39.2361
0
LINE
8
BLACK
6
CONTINUOUS
10
36.7053
20
-39.2361
11
36.55
21
-39.2566
0
LINE
8
BLACK
6
CONTINUOUS
10
36.55
20
-39.2566
11
35.75
21
-39.2566
0
LINE
8
BLACK
6
CONTINUOUS
10
35.75
20
-39.2566
11
35.5947
21
-39.2361
0
LINE
8
BLACK
6
CONTINUOUS
10
35.5947
20
-39.2361
11
35.45
21
-39.1762
0
LINE
8
BLACK
6
CONTINUOUS
10
35.45
20
-39.1762
11
35.3257
21
-39.0808
0
LINE
8
BLACK
6
CONTINUOUS
10
35.3257
20
-39.0808
11
35.2304
21
-38.9566
0
LINE
8
BLACK
6
CONTINUOUS
10
35.2304
20
-38.9566
11
35.1704
21
-38.8119
0
LINE
8
BLACK
6
CONTINUOUS
10
35.1704
20
-38.8119
11
35.15
21
-38.6566
0
LINE
8
BLACK
6
CONTINUOUS
10
35.15
20
-38.6566
11
35.1704
21
-38.5013
0
LINE
8
BLACK
6
CONTINUOUS
10
35.1704
20
-38.5013
11
35.2304
21
-38.3566
0
LINE
8
BLACK
6
CONTINUOUS
10
35.2304
20
-38.3566
11
35.3257
21
-38.2323
0
LINE
8
BLACK
6
CONTINUOUS
10
35.3257
20
-38.2323
11
35.45
21
-38.1369
0
LINE
8
BLACK
6
CONTINUOUS
10
35.45
20
-38.1369
11
35.5947
21
-38.077
0
LINE
8
BLACK
6
CONTINUOUS
10
35.5947
20
-38.077
11
35.75
21
-38.0566
0
LINE
8
BLACK
6
CONTINUOUS
10
35.75
20
-38.0566
11
35.85
21
-38.0566
0
LINE
8
BLACK
6
CONTINUOUS
10
35.85
20
-38.0566
11
35.85
21
-34.7481
0
LINE
8
BLACK
6
CONTINUOUS
10
35.85
20
-34.7481
11
35.851
21
-34.7381
0
LINE
8
BLACK
6
CONTINUOUS
10
35.851
20
-34.7381
11
35.8504
21
-34.7335
0
LINE
8
BLACK
6
CONTINUOUS
10
35.8504
20
-34.7335
11
35.8522
21
-34.7257
0
LINE
8
BLACK
6
CONTINUOUS
10
35.8522
20
-34.7257
11
35.8557
21
-34.6898
0
LINE
8
BLACK
6
CONTINUOUS
10
35.8557
20
-34.6898
11
35.868
21
-34.6589
0
LINE
8
BLACK
6
CONTINUOUS
10
35.868
20
-34.6589
11
35.8757
21
-34.6266
0
LINE
8
BLACK
6
CONTINUOUS
10
35.8757
20
-34.6266
11
35.8882
21
-34.6084
0
LINE
8
BLACK
6
CONTINUOUS
10
35.8882
20
-34.6084
11
35.8964
21
-34.5878
0
LINE
8
BLACK
6
CONTINUOUS
10
35.8964
20
-34.5878
11
35.919
21
-34.5634
0
LINE
8
BLACK
6
CONTINUOUS
10
35.919
20
-34.5634
11
35.9379
21
-34.536
0
LINE
8
BLACK
6
CONTINUOUS
10
35.9379
20
-34.536
11
42.016
21
-28.4579
0
LINE
8
BLACK
6
CONTINUOUS
10
42.016
20
-28.4579
11
42.0238
21
-28.4515
0
LINE
8
BLACK
6
CONTINUOUS
10
42.0238
20
-28.4515
11
42.0266
21
-28.4478
0
LINE
8
BLACK
6
CONTINUOUS
10
42.0266
20
-28.4478
11
42.0334
21
-28.4436
0
LINE
8
BLACK
6
CONTINUOUS
10
42.0334
20
-28.4436
11
42.0612
21
-28.4207
0
LINE
8
BLACK
6
CONTINUOUS
10
42.0612
20
-28.4207
11
42.0918
21
-28.4076
0
LINE
8
BLACK
6
CONTINUOUS
10
42.0918
20
-28.4076
11
42.1201
21
-28.3901
0
LINE
8
BLACK
6
CONTINUOUS
10
42.1201
20
-28.3901
11
42.1419
21
-28.3861
0
LINE
8
BLACK
6
CONTINUOUS
10
42.1419
20
-28.3861
11
42.1622
21
-28.3773
0
LINE
8
BLACK
6
CONTINUOUS
10
42.1622
20
-28.3773
11
42.1954
21
-28.3761
0
LINE
8
BLACK
6
CONTINUOUS
10
42.1954
20
-28.3761
11
42.2281
21
-28.37
0
LINE
8
BLACK
6
CONTINUOUS
10
42.2281
20
-28.37
11
65.8832
21
-28.37
0
LINE
8
BLACK
6
CONTINUOUS
10
65.8832
20
-28.37
11
65.9034
21
-28.3143
0
LINE
8
BLACK
6
CONTINUOUS
10
65.9034
20
-28.3143
11
66
21
-28.1644
0
LINE
8
BLACK
6
CONTINUOUS
10
66
20
-28.1644
11
66.1275
21
-28.0396
0
LINE
8
BLACK
6
CONTINUOUS
10
66.1275
20
-28.0396
11
66.2794
21
-27.9461
0
LINE
8
BLACK
6
CONTINUOUS
10
66.2794
20
-27.9461
11
66.4482
21
-27.8887
0
LINE
8
BLACK
6
CONTINUOUS
10
66.4482
20
-27.8887
11
66.6256
21
-27.87
0
LINE
8
BLACK
6
CONTINUOUS
10
66.6256
20
-27.87
11
66.8027
21
-27.8911
0
LINE
8
BLACK
6
CONTINUOUS
10
36.7053
20
-43.157
11
36.85
21
-43.2169
0
LINE
8
BLACK
6
CONTINUOUS
10
36.85
20
-43.2169
11
36.9743
21
-43.3123
0
LINE
8
BLACK
6
CONTINUOUS
10
36.9743
20
-43.3123
11
37.0696
21
-43.4366
0
LINE
8
BLACK
6
CONTINUOUS
10
37.0696
20
-43.4366
11
37.1296
21
-43.5813
0
LINE
8
BLACK
6
CONTINUOUS
10
37.1296
20
-43.5813
11
37.15
21
-43.7366
0
LINE
8
BLACK
6
CONTINUOUS
10
37.15
20
-43.7366
11
37.1296
21
-43.8919
0
LINE
8
BLACK
6
CONTINUOUS
10
37.1296
20
-43.8919
11
37.0696
21
-44.0366
0
LINE
8
BLACK
6
CONTINUOUS
10
37.0696
20
-44.0366
11
36.9743
21
-44.1608
0
LINE
8
BLACK
6
CONTINUOUS
10
36.9743
20
-44.1608
11
36.85
21
-44.2562
0
LINE
8
BLACK
6
CONTINUOUS
10
36.85
20
-44.2562
11
36.7053
21
-44.3161
0
LINE
8
BLACK
6
CONTINUOUS
10
36.7053
20
-44.3161
11
36.55
21
-44.3366
0
LINE
8
BLACK
6
CONTINUOUS
10
36.55
20
-44.3366
11
35.75
21
-44.3366
0
LINE
8
BLACK
6
CONTINUOUS
10
35.75
20
-44.3366
11
35.5947
21
-44.3161
0
LINE
8
BLACK
6
CONTINUOUS
10
35.5947
20
-44.3161
11
35.45
21
-44.2562
0
LINE
8
BLACK
6
CONTINUOUS
10
35.45
20
-44.2562
11
35.3257
21
-44.1608
0
LINE
8
BLACK
6
CONTINUOUS
10
35.3257
20
-44.1608
11
35.2304
21
-44.0366
0
LINE
8
BLACK
6
CONTINUOUS
10
35.2304
20
-44.0366
11
35.1704
21
-43.8919
0
LINE
8
BLACK
6
CONTINUOUS
10
35.1704
20
-43.8919
11
35.15
21
-43.7366
0
LINE
8
BLACK
6
CONTINUOUS
10
35.15
20
-43.7366
11
35.1704
21
-43.5813
0
LINE
8
BLACK
6
CONTINUOUS
10
35.1704
20
-43.5813
11
35.2304
21
-43.4366
0
LINE
8
BLACK
6
CONTINUOUS
10
35.2304
20
-43.4366
11
35.3257
21
-43.3123
0
LINE
8
BLACK
6
CONTINUOUS
10
35.3257
20
-43.3123
11
35.45
21
-43.2169
0
LINE
8
BLACK
6
CONTINUOUS
10
35.45
20
-43.2169
11
35.5947
21
-43.157
0
LINE
8
BLACK
6
CONTINUOUS
10
35.5947
20
-43.157
11
35.75
21
-43.1366
0
LINE
8
BLACK
6
CONTINUOUS
10
35.75
20
-43.1366
11
36.55
21
-43.1366
0
LINE
8
BLACK
6
CONTINUOUS
10
36.55
20
-43.1366
11
36.7053
21
-43.157
0
LINE
8
BLACK
6
CONTINUOUS
10
62.1053
20
-43.157
11
62.25
21
-43.2169
0
LINE
8
BLACK
6
CONTINUOUS
10
62.25
20
-43.2169
11
62.3743
21
-43.3123
0
LINE
8
BLACK
6
CONTINUOUS
10
62.3743
20
-43.3123
11
62.4696
21
-43.4366
0
LINE
8
BLACK
6
CONTINUOUS
10
62.4696
20
-43.4366
11
62.5296
21
-43.5813
0
LINE
8
BLACK
6
CONTINUOUS
10
62.5296
20
-43.5813
11
62.55
21
-43.7366
0
LINE
8
BLACK
6
CONTINUOUS
10
62.55
20
-43.7366
11
62.5296
21
-43.8919
0
LINE
8
BLACK
6
CONTINUOUS
10
62.5296
20
-43.8919
11
62.4696
21
-44.0366
0
LINE
8
BLACK
6
CONTINUOUS
10
62.4696
20
-44.0366
11
62.3743
21
-44.1608
0
LINE
8
BLACK
6
CONTINUOUS
10
62.3743
20
-44.1608
11
62.25
21
-44.2562
0
LINE
8
BLACK
6
CONTINUOUS
10
62.25
20
-44.2562
11
62.1053
21
-44.3161
0
LINE
8
BLACK
6
CONTINUOUS
10
62.1053
20
-44.3161
11
61.95
21
-44.3366
0
LINE
8
BLACK
6
CONTINUOUS
10
61.95
20
-44.3366
11
61.15
21
-44.3366
0
LINE
8
BLACK
6
CONTINUOUS
10
61.15
20
-44.3366
11
60.9947
21
-44.3161
0
LINE
8
BLACK
6
CONTINUOUS
10
60.9947
20
-44.3161
11
60.85
21
-44.2562
0
LINE
8
BLACK
6
CONTINUOUS
10
60.85
20
-44.2562
11
60.7257
21
-44.1608
0
LINE
8
BLACK
6
CONTINUOUS
10
60.7257
20
-44.1608
11
60.6304
21
-44.0366
0
LINE
8
BLACK
6
CONTINUOUS
10
60.6304
20
-44.0366
11
60.5704
21
-43.8919
0
LINE
8
BLACK
6
CONTINUOUS
10
60.5704
20
-43.8919
11
60.55
21
-43.7366
0
LINE
8
BLACK
6
CONTINUOUS
10
60.55
20
-43.7366
11
60.5704
21
-43.5813
0
LINE
8
BLACK
6
CONTINUOUS
10
60.5704
20
-43.5813
11
60.6304
21
-43.4366
0
LINE
8
BLACK
6
CONTINUOUS
10
60.6304
20
-43.4366
11
60.7257
21
-43.3123
0
LINE
8
BLACK
6
CONTINUOUS
10
60.7257
20
-43.3123
11
60.85
21
-43.2169
0
LINE
8
BLACK
6
CONTINUOUS
10
60.85
20
-43.2169
11
60.9947
21
-43.157
0
LINE
8
BLACK
6
CONTINUOUS
10
60.9947
20
-43.157
11
61.15
21
-43.1366
0
LINE
8
BLACK
6
CONTINUOUS
10
61.15
20
-43.1366
11
61.95
21
-43.1366
0
LINE
8
BLACK
6
CONTINUOUS
10
61.95
20
-43.1366
11
62.1053
21
-43.157
0
LINE
8
BLACK
6
CONTINUOUS
10
36.7053
20
-40.617
11
36.85
21
-40.6769
0
LINE
8
BLACK
6
CONTINUOUS
10
36.85
20
-40.6769
11
36.9743
21
-40.7723
0
LINE
8
BLACK
6
CONTINUOUS
10
36.9743
20
-40.7723
11
37.0696
21
-40.8966
0
LINE
8
BLACK
6
CONTINUOUS
10
37.0696
20
-40.8966
11
37.1296
21
-41.0413
0
LINE
8
BLACK
6
CONTINUOUS
10
37.1296
20
-41.0413
11
37.15
21
-41.1966
0
LINE
8
BLACK
6
CONTINUOUS
10
37.15
20
-41.1966
11
37.1296
21
-41.3519
0
LINE
8
BLACK
6
CONTINUOUS
10
37.1296
20
-41.3519
11
37.0696
21
-41.4966
0
LINE
8
BLACK
6
CONTINUOUS
10
37.0696
20
-41.4966
11
36.9743
21
-41.6208
0
LINE
8
BLACK
6
CONTINUOUS
10
36.9743
20
-41.6208
11
36.85
21
-41.7162
0
LINE
8
BLACK
6
CONTINUOUS
10
36.85
20
-41.7162
11
36.7053
21
-41.7761
0
LINE
8
BLACK
6
CONTINUOUS
10
36.7053
20
-41.7761
11
36.55
21
-41.7966
0
LINE
8
BLACK
6
CONTINUOUS
10
36.55
20
-41.7966
11
35.75
21
-41.7966
0
LINE
8
BLACK
6
CONTINUOUS
10
35.75
20
-41.7966
11
35.5947
21
-41.7761
0
LINE
8
BLACK
6
CONTINUOUS
10
35.5947
20
-41.7761
11
35.45
21
-41.7162
0
LINE
8
BLACK
6
CONTINUOUS
10
35.45
20
-41.7162
11
35.3257
21
-41.6208
0
LINE
8
BLACK
6
CONTINUOUS
10
35.3257
20
-41.6208
11
35.2304
21
-41.4966
0
LINE
8
BLACK
6
CONTINUOUS
10
35.2304
20
-41.4966
11
35.1704
21
-41.3519
0
LINE
8
BLACK
6
CONTINUOUS
10
35.1704
20
-41.3519
11
35.15
21
-41.1966
0
LINE
8
BLACK
6
CONTINUOUS
10
35.15
20
-41.1966
11
35.1704
21
-41.0413
0
LINE
8
BLACK
6
CONTINUOUS
10
35.1704
20
-41.0413
11
35.2304
21
-40.8966
0
LINE
8
BLACK
6
CONTINUOUS
10
35.2304
20
-40.8966
11
35.3257
21
-40.7723
0
LINE
8
BLACK
6
CONTINUOUS
10
35.3257
20
-40.7723
11
35.45
21
-40.6769
0
LINE
8
BLACK
6
CONTINUOUS
10
35.45
20
-40.6769
11
35.5947
21
-40.617
0
LINE
8
BLACK
6
CONTINUOUS
10
35.5947
20
-40.617
11
35.75
21
-40.5966
0
LINE
8
BLACK
6
CONTINUOUS
10
35.75
20
-40.5966
11
36.55
21
-40.5966
0
LINE
8
BLACK
6
CONTINUOUS
10
36.55
20
-40.5966
11
36.7053
21
-40.617
0
LINE
8
BLACK
6
CONTINUOUS
10
62.1053
20
-40.617
11
62.25
21
-40.6769
0
LINE
8
BLACK
6
CONTINUOUS
10
62.25
20
-40.6769
11
62.3743
21
-40.7723
0
LINE
8
BLACK
6
CONTINUOUS
10
62.3743
20
-40.7723
11
62.4696
21
-40.8966
0
LINE
8
BLACK
6
CONTINUOUS
10
62.4696
20
-40.8966
11
62.5296
21
-41.0413
0
LINE
8
BLACK
6
CONTINUOUS
10
62.5296
20
-41.0413
11
62.55
21
-41.1966
0
LINE
8
BLACK
6
CONTINUOUS
10
62.55
20
-41.1966
11
62.5296
21
-41.3519
0
LINE
8
BLACK
6
CONTINUOUS
10
62.5296
20
-41.3519
11
62.4696
21
-41.4966
0
LINE
8
BLACK
6
CONTINUOUS
10
62.4696
20
-41.4966
11
62.3743
21
-41.6208
0
LINE
8
BLACK
6
CONTINUOUS
10
62.3743
20
-41.6208
11
62.25
21
-41.7162
0
LINE
8
BLACK
6
CONTINUOUS
10
62.25
20
-41.7162
11
62.1053
21
-41.7761
0
LINE
8
BLACK
6
CONTINUOUS
10
62.1053
20
-41.7761
11
61.95
21
-41.7966
0
LINE
8
BLACK
6
CONTINUOUS
10
61.95
20
-41.7966
11
61.15
21
-41.7966
0
LINE
8
BLACK
6
CONTINUOUS
10
61.15
20
-41.7966
11
60.9947
21
-41.7761
0
LINE
8
BLACK
6
CONTINUOUS
10
60.9947
20
-41.7761
11
60.85
21
-41.7162
0
LINE
8
BLACK
6
CONTINUOUS
10
60.85
20
-41.7162
11
60.7257
21
-41.6208
0
LINE
8
BLACK
6
CONTINUOUS
10
60.7257
20
-41.6208
11
60.6304
21
-41.4966
0
LINE
8
BLACK
6
CONTINUOUS
10
60.6304
20
-41.4966
11
60.5704
21
-41.3519
0
LINE
8
BLACK
6
CONTINUOUS
10
60.5704
20
-41.3519
11
60.55
21
-41.1966
0
LINE
8
BLACK
6
CONTINUOUS
10
60.55
20
-41.1966
11
60.5704
21
-41.0413
0
LINE
8
BLACK
6
CONTINUOUS
10
60.5704
20
-41.0413
11
60.6304
21
-40.8966
0
LINE
8
BLACK
6
CONTINUOUS
10
60.6304
20
-40.8966
11
60.7257
21
-40.7723
0
LINE
8
BLACK
6
CONTINUOUS
10
60.7257
20
-40.7723
11
60.85
21
-40.6769
0
LINE
8
BLACK
6
CONTINUOUS
10
60.85
20
-40.6769
11
60.9947
21
-40.617
0
LINE
8
BLACK
6
CONTINUOUS
10
60.9947
20
-40.617
11
61.15
21
-40.5966
0
LINE
8
BLACK
6
CONTINUOUS
10
61.15
20
-40.5966
11
61.95
21
-40.5966
0
LINE
8
BLACK
6
CONTINUOUS
10
61.95
20
-40.5966
11
62.1053
21
-40.617
0
LINE
8
BLACK
6
CONTINUOUS
10
62.319
20
-38.0646
11
62.4195
21
-38.109
0
LINE
8
BLACK
6
CONTINUOUS
10
62.4195
20
-38.109
11
62.4972
21
-38.1866
0
LINE
8
BLACK
6
CONTINUOUS
10
62.4972
20
-38.1866
11
62.5418
21
-38.287
0
LINE
8
BLACK
6
CONTINUOUS
10
62.5418
20
-38.287
11
62.55
21
-38.3566
0
LINE
8
BLACK
6
CONTINUOUS
10
62.55
20
-38.3566
11
62.55
21
-38.9566
0
LINE
8
BLACK
6
CONTINUOUS
10
62.55
20
-38.9566
11
62.542
21
-39.0256
0
LINE
8
BLACK
6
CONTINUOUS
10
62.542
20
-39.0256
11
62.4975
21
-39.126
0
LINE
8
BLACK
6
CONTINUOUS
10
62.4975
20
-39.126
11
62.4199
21
-39.2038
0
LINE
8
BLACK
6
CONTINUOUS
10
62.4199
20
-39.2038
11
62.3195
21
-39.2484
0
LINE
8
BLACK
6
CONTINUOUS
10
62.3195
20
-39.2484
11
62.25
21
-39.2566
0
LINE
8
BLACK
6
CONTINUOUS
10
62.25
20
-39.2566
11
60.85
21
-39.2566
0
LINE
8
BLACK
6
CONTINUOUS
10
60.85
20
-39.2566
11
60.781
21
-39.2485
0
LINE
8
BLACK
6
CONTINUOUS
10
60.781
20
-39.2485
11
60.6805
21
-39.2041
0
LINE
8
BLACK
6
CONTINUOUS
10
60.6805
20
-39.2041
11
60.6028
21
-39.1265
0
LINE
8
BLACK
6
CONTINUOUS
10
60.6028
20
-39.1265
11
60.5582
21
-39.0261
0
LINE
8
BLACK
6
CONTINUOUS
10
60.5582
20
-39.0261
11
60.55
21
-38.9566
0
LINE
8
BLACK
6
CONTINUOUS
10
60.55
20
-38.9566
11
60.55
21
-38.3566
0
LINE
8
BLACK
6
CONTINUOUS
10
60.55
20
-38.3566
11
60.558
21
-38.2875
0
LINE
8
BLACK
6
CONTINUOUS
10
60.558
20
-38.2875
11
60.6025
21
-38.1871
0
LINE
8
BLACK
6
CONTINUOUS
10
60.6025
20
-38.1871
11
60.6801
21
-38.1093
0
LINE
8
BLACK
6
CONTINUOUS
10
60.6801
20
-38.1093
11
60.7805
21
-38.0647
0
LINE
8
BLACK
6
CONTINUOUS
10
60.7805
20
-38.0647
11
60.85
21
-38.0566
0
LINE
8
BLACK
6
CONTINUOUS
10
60.85
20
-38.0566
11
62.25
21
-38.0566
0
LINE
8
BLACK
6
CONTINUOUS
10
62.25
20
-38.0566
11
62.319
21
-38.0646
0
CIRCLE
8
BLACK
10
71.8
20
-72.8725
40
0.5
0
CIRCLE
8
BLACK
10
76.8
20
-72.8725
40
0.5
0
CIRCLE
8
BLACK
10
66.6
20
-43.4725
40
0.5
0
CIRCLE
8
BLACK
10
82
20
-43.4725
40
0.5
0
CIRCLE
8
BLACK
10
36.15
20
-38.6566
40
0.4
0
CIRCLE
8
BLACK
10
36.15
20
-41.1966
40
0.4
0
CIRCLE
8
BLACK
10
36.15
20
-43.7366
40
0.4
0
CIRCLE
8
BLACK
10
36.15
20
-46.2766
40
0.4
0
CIRCLE
8
BLACK
10
36.15
20
-48.8166
40
0.4
0
CIRCLE
8
BLACK
10
36.15
20
-51.3566
40
0.4
0
CIRCLE
8
BLACK
10
36.15
20
-53.8966
40
0.4
0
CIRCLE
8
BLACK
10
36.15
20
-56.4366
40
0.4
0
CIRCLE
8
BLACK
10
36.15
20
-58.9766
40
0.4
0
CIRCLE
8
BLACK
10
36.15
20
-61.5166
40
0.4
0
CIRCLE
8
BLACK
10
36.15
20
-64.0566
40
0.4
0
CIRCLE
8
BLACK
10
36.15
20
-66.5966
40
0.4
0
CIRCLE
8
BLACK
10
36.15
20
-69.1366
40
0.4
0
CIRCLE
8
BLACK
10
36.15
20
-71.6766
40
0.4
0
CIRCLE
8
BLACK
10
36.15
20
-74.2166
40
0.4
0
CIRCLE
8
BLACK
10
36.15
20
-76.7566
40
0.4
0
CIRCLE
8
BLACK
10
36.15
20
-79.2966
40
0.4
0
CIRCLE
8
BLACK
10
36.15
20
-81.8366
40
0.4
0
CIRCLE
8
BLACK
10
36.15
20
-84.3766
40
0.4
0
CIRCLE
8
BLACK
10
61.5463
20
-84.3738
40
0.4
0
CIRCLE
8
BLACK
10
61.5463
20
-81.8338
40
0.4
0
CIRCLE
8
BLACK
10
61.55
20
-79.2966
40
0.4
0
CIRCLE
8
BLACK
10
61.55
20
-76.7566
40
0.4
0
CIRCLE
8
BLACK
10
61.55
20
-74.2166
40
0.4
0
CIRCLE
8
BLACK
10
61.55
20
-71.6766
40
0.4
0
CIRCLE
8
BLACK
10
61.55
20
-69.1366
40
0.4
0
CIRCLE
8
BLACK
10
61.55
20
-66.5966
40
0.4
0
CIRCLE
8
BLACK
10
61.55
20
-64.0566
40
0.4
0
CIRCLE
8
BLACK
10
61.55
20
-61.5166
40
0.4
0
CIRCLE
8
BLACK
10
61.55
20
-58.9766
40
0.4
0
CIRCLE
8
BLACK
10
61.55
20
-56.4366
40
0.4
0
CIRCLE
8
BLACK
10
61.55
20
-53.8966
40
0.4
0
CIRCLE
8
BLACK
10
61.55
20
-51.3566
40
0.4
0
CIRCLE
8
BLACK
10
61.55
20
-48.8166
40
0.4
0
CIRCLE
8
BLACK
10
61.55
20
-46.2766
40
0.4
0
CIRCLE
8
BLACK
10
61.55
20
-43.7366
40
0.4
0
CIRCLE
8
BLACK
10
61.55
20
-41.1966
40
0.4
0
CIRCLE
8
BLACK
10
61.55
20
-38.6566
40
0.4
0
CIRCLE
8
BLACK
10
71.33
20
-28.74
40
0.4
0
CIRCLE
8
BLACK
10
71.33
20
-38.9
40
0.4
0
CIRCLE
8
BLACK
10
66.62
20
-28.67
40
0.4
0
CIRCLE
8
BLACK
10
66.62
20
-38.83
40
0.4
0
CIRCLE
8
BLACK
10
77.0275
20
-30.07
40
0.475
0
CIRCLE
8
BLACK
10
77.0275
20
-32.57
40
0.475
0
CIRCLE
8
BLACK
10
77.0275
20
-35.07
40
0.475
0
CIRCLE
8
BLACK
10
77.0275
20
-37.57
40
0.475
0
CIRCLE
8
BLACK
10
76.78
20
-77.33
40
0.5
0
CIRCLE
8
BLACK
10
76.78
20
-84.85
40
0.5
0
CIRCLE
8
BLACK
10
71.78
20
-77.33
40
0.5
0
CIRCLE
8
BLACK
10
71.78
20
-84.85
40
0.5
  0
ENDSEC
  0
EOF
