%TF.GenerationSoftware,KiCad,Pcbnew,7.0.2*%
%TF.CreationDate,2023-04-22T16:52:06-03:00*%
%TF.ProjectId,PowerAndCommModule,506f7765-7241-46e6-9443-6f6d6d4d6f64,rev?*%
%TF.SameCoordinates,Original*%
%TF.FileFunction,Legend,Top*%
%TF.FilePolarity,Positive*%
%FSLAX46Y46*%
G04 Gerber Fmt 4.6, Leading zero omitted, Abs format (unit mm)*
G04 Created by KiCad (PCBNEW 7.0.2) date 2023-04-22 16:52:06*
%MOMM*%
%LPD*%
G01*
G04 APERTURE LIST*
%ADD10C,0.254000*%
%ADD11C,0.150000*%
%ADD12C,0.100000*%
%ADD13C,0.120000*%
%ADD14C,0.200000*%
G04 APERTURE END LIST*
D10*
%TO.C,J5*%
X55106667Y-75747526D02*
X55106667Y-76654669D01*
X55106667Y-76654669D02*
X55046190Y-76836097D01*
X55046190Y-76836097D02*
X54925238Y-76957050D01*
X54925238Y-76957050D02*
X54743809Y-77017526D01*
X54743809Y-77017526D02*
X54622857Y-77017526D01*
X56316190Y-75747526D02*
X55711428Y-75747526D01*
X55711428Y-75747526D02*
X55650952Y-76352288D01*
X55650952Y-76352288D02*
X55711428Y-76291811D01*
X55711428Y-76291811D02*
X55832381Y-76231335D01*
X55832381Y-76231335D02*
X56134762Y-76231335D01*
X56134762Y-76231335D02*
X56255714Y-76291811D01*
X56255714Y-76291811D02*
X56316190Y-76352288D01*
X56316190Y-76352288D02*
X56376667Y-76473240D01*
X56376667Y-76473240D02*
X56376667Y-76775621D01*
X56376667Y-76775621D02*
X56316190Y-76896573D01*
X56316190Y-76896573D02*
X56255714Y-76957050D01*
X56255714Y-76957050D02*
X56134762Y-77017526D01*
X56134762Y-77017526D02*
X55832381Y-77017526D01*
X55832381Y-77017526D02*
X55711428Y-76957050D01*
X55711428Y-76957050D02*
X55650952Y-76896573D01*
D11*
%TO.C,J4*%
X61536666Y-26952619D02*
X61536666Y-27666904D01*
X61536666Y-27666904D02*
X61489047Y-27809761D01*
X61489047Y-27809761D02*
X61393809Y-27905000D01*
X61393809Y-27905000D02*
X61250952Y-27952619D01*
X61250952Y-27952619D02*
X61155714Y-27952619D01*
X62441428Y-27285952D02*
X62441428Y-27952619D01*
X62203333Y-26905000D02*
X61965238Y-27619285D01*
X61965238Y-27619285D02*
X62584285Y-27619285D01*
D10*
%TO.C,PS1*%
X44617856Y-41647526D02*
X44617856Y-40377526D01*
X44617856Y-40377526D02*
X45101666Y-40377526D01*
X45101666Y-40377526D02*
X45222618Y-40438002D01*
X45222618Y-40438002D02*
X45283095Y-40498478D01*
X45283095Y-40498478D02*
X45343571Y-40619430D01*
X45343571Y-40619430D02*
X45343571Y-40800859D01*
X45343571Y-40800859D02*
X45283095Y-40921811D01*
X45283095Y-40921811D02*
X45222618Y-40982288D01*
X45222618Y-40982288D02*
X45101666Y-41042764D01*
X45101666Y-41042764D02*
X44617856Y-41042764D01*
X45827380Y-41587050D02*
X46008809Y-41647526D01*
X46008809Y-41647526D02*
X46311190Y-41647526D01*
X46311190Y-41647526D02*
X46432142Y-41587050D01*
X46432142Y-41587050D02*
X46492618Y-41526573D01*
X46492618Y-41526573D02*
X46553095Y-41405621D01*
X46553095Y-41405621D02*
X46553095Y-41284669D01*
X46553095Y-41284669D02*
X46492618Y-41163716D01*
X46492618Y-41163716D02*
X46432142Y-41103240D01*
X46432142Y-41103240D02*
X46311190Y-41042764D01*
X46311190Y-41042764D02*
X46069285Y-40982288D01*
X46069285Y-40982288D02*
X45948333Y-40921811D01*
X45948333Y-40921811D02*
X45887856Y-40861335D01*
X45887856Y-40861335D02*
X45827380Y-40740383D01*
X45827380Y-40740383D02*
X45827380Y-40619430D01*
X45827380Y-40619430D02*
X45887856Y-40498478D01*
X45887856Y-40498478D02*
X45948333Y-40438002D01*
X45948333Y-40438002D02*
X46069285Y-40377526D01*
X46069285Y-40377526D02*
X46371666Y-40377526D01*
X46371666Y-40377526D02*
X46553095Y-40438002D01*
X47762619Y-41647526D02*
X47036904Y-41647526D01*
X47399761Y-41647526D02*
X47399761Y-40377526D01*
X47399761Y-40377526D02*
X47278809Y-40558954D01*
X47278809Y-40558954D02*
X47157857Y-40679907D01*
X47157857Y-40679907D02*
X47036904Y-40740383D01*
%TO.C,K1*%
X50272618Y-69277526D02*
X50272618Y-68007526D01*
X50998333Y-69277526D02*
X50454047Y-68551811D01*
X50998333Y-68007526D02*
X50272618Y-68733240D01*
X52207857Y-69277526D02*
X51482142Y-69277526D01*
X51844999Y-69277526D02*
X51844999Y-68007526D01*
X51844999Y-68007526D02*
X51724047Y-68188954D01*
X51724047Y-68188954D02*
X51603095Y-68309907D01*
X51603095Y-68309907D02*
X51482142Y-68370383D01*
D11*
%TO.C,SW1*%
X59196667Y-73425000D02*
X59339524Y-73472619D01*
X59339524Y-73472619D02*
X59577619Y-73472619D01*
X59577619Y-73472619D02*
X59672857Y-73425000D01*
X59672857Y-73425000D02*
X59720476Y-73377380D01*
X59720476Y-73377380D02*
X59768095Y-73282142D01*
X59768095Y-73282142D02*
X59768095Y-73186904D01*
X59768095Y-73186904D02*
X59720476Y-73091666D01*
X59720476Y-73091666D02*
X59672857Y-73044047D01*
X59672857Y-73044047D02*
X59577619Y-72996428D01*
X59577619Y-72996428D02*
X59387143Y-72948809D01*
X59387143Y-72948809D02*
X59291905Y-72901190D01*
X59291905Y-72901190D02*
X59244286Y-72853571D01*
X59244286Y-72853571D02*
X59196667Y-72758333D01*
X59196667Y-72758333D02*
X59196667Y-72663095D01*
X59196667Y-72663095D02*
X59244286Y-72567857D01*
X59244286Y-72567857D02*
X59291905Y-72520238D01*
X59291905Y-72520238D02*
X59387143Y-72472619D01*
X59387143Y-72472619D02*
X59625238Y-72472619D01*
X59625238Y-72472619D02*
X59768095Y-72520238D01*
X60101429Y-72472619D02*
X60339524Y-73472619D01*
X60339524Y-73472619D02*
X60530000Y-72758333D01*
X60530000Y-72758333D02*
X60720476Y-73472619D01*
X60720476Y-73472619D02*
X60958572Y-72472619D01*
X61863333Y-73472619D02*
X61291905Y-73472619D01*
X61577619Y-73472619D02*
X61577619Y-72472619D01*
X61577619Y-72472619D02*
X61482381Y-72615476D01*
X61482381Y-72615476D02*
X61387143Y-72710714D01*
X61387143Y-72710714D02*
X61291905Y-72758333D01*
D10*
%TO.C,J1*%
X40566667Y-75577526D02*
X40566667Y-76484669D01*
X40566667Y-76484669D02*
X40506190Y-76666097D01*
X40506190Y-76666097D02*
X40385238Y-76787050D01*
X40385238Y-76787050D02*
X40203809Y-76847526D01*
X40203809Y-76847526D02*
X40082857Y-76847526D01*
X41836667Y-76847526D02*
X41110952Y-76847526D01*
X41473809Y-76847526D02*
X41473809Y-75577526D01*
X41473809Y-75577526D02*
X41352857Y-75758954D01*
X41352857Y-75758954D02*
X41231905Y-75879907D01*
X41231905Y-75879907D02*
X41110952Y-75940383D01*
D11*
%TO.C,J2*%
X27186666Y-53552619D02*
X27186666Y-54266904D01*
X27186666Y-54266904D02*
X27139047Y-54409761D01*
X27139047Y-54409761D02*
X27043809Y-54505000D01*
X27043809Y-54505000D02*
X26900952Y-54552619D01*
X26900952Y-54552619D02*
X26805714Y-54552619D01*
X27615238Y-53647857D02*
X27662857Y-53600238D01*
X27662857Y-53600238D02*
X27758095Y-53552619D01*
X27758095Y-53552619D02*
X27996190Y-53552619D01*
X27996190Y-53552619D02*
X28091428Y-53600238D01*
X28091428Y-53600238D02*
X28139047Y-53647857D01*
X28139047Y-53647857D02*
X28186666Y-53743095D01*
X28186666Y-53743095D02*
X28186666Y-53838333D01*
X28186666Y-53838333D02*
X28139047Y-53981190D01*
X28139047Y-53981190D02*
X27567619Y-54552619D01*
X27567619Y-54552619D02*
X28186666Y-54552619D01*
D10*
%TO.C,J3*%
X29527526Y-26793332D02*
X30434669Y-26793332D01*
X30434669Y-26793332D02*
X30616097Y-26853809D01*
X30616097Y-26853809D02*
X30737050Y-26974761D01*
X30737050Y-26974761D02*
X30797526Y-27156190D01*
X30797526Y-27156190D02*
X30797526Y-27277142D01*
X29527526Y-26309523D02*
X29527526Y-25523332D01*
X29527526Y-25523332D02*
X30011335Y-25946666D01*
X30011335Y-25946666D02*
X30011335Y-25765237D01*
X30011335Y-25765237D02*
X30071811Y-25644285D01*
X30071811Y-25644285D02*
X30132288Y-25583809D01*
X30132288Y-25583809D02*
X30253240Y-25523332D01*
X30253240Y-25523332D02*
X30555621Y-25523332D01*
X30555621Y-25523332D02*
X30676573Y-25583809D01*
X30676573Y-25583809D02*
X30737050Y-25644285D01*
X30737050Y-25644285D02*
X30797526Y-25765237D01*
X30797526Y-25765237D02*
X30797526Y-26128094D01*
X30797526Y-26128094D02*
X30737050Y-26249047D01*
X30737050Y-26249047D02*
X30676573Y-26309523D01*
D12*
%TO.C,J5*%
X44040000Y-72520000D02*
X54040000Y-72520000D01*
X44040000Y-80020000D02*
X44040000Y-72520000D01*
X54040000Y-72520000D02*
X54040000Y-80020000D01*
X54040000Y-80020000D02*
X44040000Y-80020000D01*
D13*
%TO.C,J4*%
X69210000Y-41780000D02*
X69210000Y-28960000D01*
X69210000Y-41780000D02*
X60580000Y-41780000D01*
X69210000Y-41660000D02*
X60580000Y-41660000D01*
X69210000Y-41541905D02*
X60580000Y-41541905D01*
X69210000Y-41423810D02*
X60580000Y-41423810D01*
X69210000Y-41305715D02*
X60580000Y-41305715D01*
X69210000Y-41187620D02*
X60580000Y-41187620D01*
X69210000Y-41069525D02*
X60580000Y-41069525D01*
X69210000Y-40951430D02*
X60580000Y-40951430D01*
X69210000Y-40833335D02*
X60580000Y-40833335D01*
X69210000Y-40715240D02*
X60580000Y-40715240D01*
X69210000Y-40597145D02*
X60580000Y-40597145D01*
X69210000Y-40479050D02*
X60580000Y-40479050D01*
X69210000Y-40360955D02*
X60580000Y-40360955D01*
X69210000Y-40242860D02*
X60580000Y-40242860D01*
X69210000Y-40124765D02*
X60580000Y-40124765D01*
X69210000Y-40006670D02*
X60580000Y-40006670D01*
X69210000Y-39888575D02*
X60580000Y-39888575D01*
X69210000Y-39770480D02*
X60580000Y-39770480D01*
X69210000Y-39652385D02*
X60580000Y-39652385D01*
X69210000Y-39534290D02*
X60580000Y-39534290D01*
X69210000Y-39416195D02*
X60580000Y-39416195D01*
X69210000Y-39298100D02*
X60580000Y-39298100D01*
X69210000Y-39180000D02*
X60580000Y-39180000D01*
X69210000Y-36640000D02*
X60580000Y-36640000D01*
X69210000Y-34100000D02*
X60580000Y-34100000D01*
X69210000Y-31560000D02*
X60580000Y-31560000D01*
X69210000Y-28960000D02*
X60580000Y-28960000D01*
X60580000Y-41780000D02*
X60580000Y-28960000D01*
X60580000Y-40810000D02*
X60230000Y-40810000D01*
X60580000Y-40090000D02*
X60230000Y-40090000D01*
X60580000Y-38270000D02*
X60170000Y-38270000D01*
X60580000Y-37550000D02*
X60170000Y-37550000D01*
X60580000Y-35730000D02*
X60170000Y-35730000D01*
X60580000Y-35010000D02*
X60170000Y-35010000D01*
X60580000Y-33190000D02*
X60170000Y-33190000D01*
X60580000Y-32470000D02*
X60170000Y-32470000D01*
X60580000Y-30650000D02*
X60170000Y-30650000D01*
X60580000Y-29930000D02*
X60170000Y-29930000D01*
X59120000Y-41780000D02*
X58010000Y-41780000D01*
X58010000Y-41780000D02*
X58010000Y-40450000D01*
D14*
%TO.C,PS1*%
X29520000Y-50280000D02*
X29520000Y-50280000D01*
X29720000Y-50280000D02*
X29720000Y-50280000D01*
D12*
X30720000Y-43280000D02*
X64720000Y-43280000D01*
X30720000Y-63280000D02*
X30720000Y-43280000D01*
X64720000Y-43280000D02*
X64720000Y-63280000D01*
X64720000Y-63280000D02*
X30720000Y-63280000D01*
D14*
X29720000Y-50280000D02*
G75*
G03*
X29520000Y-50280000I-100000J0D01*
G01*
X29520000Y-50280000D02*
G75*
G03*
X29720000Y-50280000I100000J0D01*
G01*
%TO.C,K1*%
X29490000Y-70360000D02*
X29490000Y-67460000D01*
D12*
X30740000Y-64760000D02*
X30740000Y-64760000D01*
X30740000Y-64860000D02*
X30740000Y-64860000D01*
D14*
X32140000Y-65360000D02*
X37340000Y-65360000D01*
X39540000Y-65360000D02*
X45140000Y-65360000D01*
X46940000Y-65360000D02*
X47740000Y-65360000D01*
X49490000Y-67060000D02*
X49490000Y-70360000D01*
X49490000Y-70360000D02*
X29490000Y-70360000D01*
D12*
X30740000Y-64860000D02*
G75*
G03*
X30740000Y-64760000I0J50000D01*
G01*
X30740000Y-64760000D02*
G75*
G03*
X30740000Y-64860000I0J-50000D01*
G01*
D13*
%TO.C,SW1*%
X56640000Y-67290000D02*
X56640000Y-68790000D01*
X57890000Y-71290000D02*
X62390000Y-71290000D01*
X62390000Y-64790000D02*
X57890000Y-64790000D01*
X63640000Y-68790000D02*
X63640000Y-67290000D01*
D12*
%TO.C,J1*%
X29510000Y-72460000D02*
X39510000Y-72460000D01*
X29510000Y-79960000D02*
X29510000Y-72460000D01*
X39510000Y-72460000D02*
X39510000Y-79960000D01*
X39510000Y-79960000D02*
X29510000Y-79960000D01*
D13*
%TO.C,J2*%
X26820000Y-40420000D02*
X27880000Y-40420000D01*
X26820000Y-41480000D02*
X26820000Y-40420000D01*
X26820000Y-42480000D02*
X26820000Y-52540000D01*
X26820000Y-42480000D02*
X28940000Y-42480000D01*
X26820000Y-52540000D02*
X28940000Y-52540000D01*
X28940000Y-42480000D02*
X28940000Y-52540000D01*
D12*
%TO.C,J3*%
X34160000Y-28780000D02*
X34160000Y-38780000D01*
X26660000Y-28780000D02*
X34160000Y-28780000D01*
X34160000Y-38780000D02*
X26660000Y-38780000D01*
X26660000Y-38780000D02*
X26660000Y-28780000D01*
%TD*%
M02*
