%TF.GenerationSoftware,KiCad,Pcbnew,7.0.2*%
%TF.CreationDate,2023-04-22T16:52:06-03:00*%
%TF.ProjectId,PowerAndCommModule,506f7765-7241-46e6-9443-6f6d6d4d6f64,rev?*%
%TF.SameCoordinates,Original*%
%TF.FileFunction,Copper,L1,Top*%
%TF.FilePolarity,Positive*%
%FSLAX46Y46*%
G04 Gerber Fmt 4.6, Leading zero omitted, Abs format (unit mm)*
G04 Created by KiCad (PCBNEW 7.0.2) date 2023-04-22 16:52:06*
%MOMM*%
%LPD*%
G01*
G04 APERTURE LIST*
%TA.AperFunction,ComponentPad*%
%ADD10C,2.100000*%
%TD*%
%TA.AperFunction,ComponentPad*%
%ADD11R,1.700000X1.700000*%
%TD*%
%TA.AperFunction,ComponentPad*%
%ADD12O,1.700000X1.700000*%
%TD*%
%TA.AperFunction,ComponentPad*%
%ADD13C,1.500000*%
%TD*%
%TA.AperFunction,ComponentPad*%
%ADD14R,1.800000X1.800000*%
%TD*%
%TA.AperFunction,ComponentPad*%
%ADD15C,1.800000*%
%TD*%
%TA.AperFunction,ComponentPad*%
%ADD16C,2.000000*%
%TD*%
%TA.AperFunction,ComponentPad*%
%ADD17R,1.350000X1.350000*%
%TD*%
%TA.AperFunction,ComponentPad*%
%ADD18O,1.350000X1.350000*%
%TD*%
%TA.AperFunction,ViaPad*%
%ADD19C,0.800000*%
%TD*%
%TA.AperFunction,Conductor*%
%ADD20C,0.400000*%
%TD*%
%TA.AperFunction,Conductor*%
%ADD21C,0.300000*%
%TD*%
G04 APERTURE END LIST*
D10*
%TO.P,J5,1,Pin_1*%
%TO.N,NEUT*%
X46540000Y-76520000D03*
%TO.P,J5,2,Pin_2*%
%TO.N,/LINE_NO*%
X51540000Y-76520000D03*
%TD*%
D11*
%TO.P,J4,1,Pin_1*%
%TO.N,+5V*%
X59120000Y-40450000D03*
D12*
%TO.P,J4,2,Pin_2*%
%TO.N,/SCL*%
X59120000Y-37910000D03*
%TO.P,J4,3,Pin_3*%
%TO.N,/SDA*%
X59120000Y-35370000D03*
%TO.P,J4,4,Pin_4*%
%TO.N,+3V3*%
X59120000Y-32830000D03*
%TO.P,J4,5,Pin_5*%
%TO.N,GND*%
X59120000Y-30290000D03*
%TD*%
D13*
%TO.P,PS1,1,AC/L*%
%TO.N,LINE*%
X33020000Y-50780000D03*
%TO.P,PS1,2,AC/N*%
%TO.N,NEUT*%
X33020000Y-55780000D03*
%TO.P,PS1,3,-Vout*%
%TO.N,GND*%
X62420000Y-45580000D03*
%TO.P,PS1,4,+Vout*%
%TO.N,+5V*%
X62420000Y-60980000D03*
%TD*%
D14*
%TO.P,K1,1,COM*%
%TO.N,LINE*%
X30740000Y-66260000D03*
D15*
%TO.P,K1,2,NO*%
%TO.N,/LINE_NO*%
X38360000Y-66260000D03*
D13*
%TO.P,K1,3,COIL_1*%
%TO.N,GND*%
X45980000Y-66260000D03*
%TO.P,K1,4,COIL_2*%
%TO.N,Net-(K1-COIL_2)*%
X48520000Y-66260000D03*
%TD*%
D16*
%TO.P,SW1,1*%
%TO.N,Net-(U2-IO13)*%
X56890000Y-65790000D03*
X63390000Y-65790000D03*
%TO.P,SW1,2*%
%TO.N,GND*%
X56890000Y-70290000D03*
X63390000Y-70290000D03*
%TD*%
D10*
%TO.P,J1,1,Pin_1*%
%TO.N,LINE*%
X32010000Y-76460000D03*
%TO.P,J1,2,Pin_2*%
%TO.N,NEUT*%
X37010000Y-76460000D03*
%TD*%
D17*
%TO.P,J2,1,Pin_1*%
%TO.N,/RXD*%
X27880000Y-41480000D03*
D18*
%TO.P,J2,2,Pin_2*%
%TO.N,/TXD*%
X27880000Y-43480000D03*
%TO.P,J2,3,Pin_3*%
%TO.N,/DTR*%
X27880000Y-45480000D03*
%TO.P,J2,4,Pin_4*%
%TO.N,/EN*%
X27880000Y-47480000D03*
%TO.P,J2,5,Pin_5*%
%TO.N,+3V3*%
X27880000Y-49480000D03*
%TO.P,J2,6,Pin_6*%
%TO.N,GND*%
X27880000Y-51480000D03*
%TD*%
D10*
%TO.P,J3,1,Pin_1*%
%TO.N,Net-(J3-Pin_1)*%
X30160000Y-31280000D03*
%TO.P,J3,2,Pin_2*%
%TO.N,GND*%
X30160000Y-36280000D03*
%TD*%
D19*
%TO.N,GND*%
X56400000Y-36640000D03*
%TO.N,/EN*%
X55850000Y-32680000D03*
%TO.N,+3V3*%
X51210000Y-51470000D03*
%TD*%
D20*
%TO.N,/EN*%
X36400000Y-34210000D02*
X31840000Y-38770000D01*
X31840000Y-38770000D02*
X31840000Y-46900000D01*
X31840000Y-46900000D02*
X31250000Y-47490000D01*
X31240000Y-47480000D02*
X27880000Y-47480000D01*
D21*
X55730000Y-32560000D02*
X55850000Y-32680000D01*
D20*
X31250000Y-47490000D02*
X31240000Y-47480000D01*
D21*
X36400000Y-34210000D02*
X38050000Y-32560000D01*
X38050000Y-32560000D02*
X55730000Y-32560000D01*
D20*
%TO.N,Net-(J3-Pin_1)*%
X30360000Y-31080000D02*
X30160000Y-31280000D01*
%TO.N,+3V3*%
X31900000Y-48060000D02*
X30480000Y-49480000D01*
X30480000Y-49480000D02*
X27880000Y-49480000D01*
X51210000Y-51470000D02*
X39980000Y-51470000D01*
X39980000Y-51470000D02*
X36570000Y-48060000D01*
X36570000Y-48060000D02*
X31900000Y-48060000D01*
%TD*%
%TA.AperFunction,Conductor*%
%TO.N,GND*%
G36*
X58424521Y-28920185D02*
G01*
X58470276Y-28972989D01*
X58480220Y-29042147D01*
X58451195Y-29105703D01*
X58428605Y-29126075D01*
X58248921Y-29251890D01*
X58081890Y-29418921D01*
X57946400Y-29612421D01*
X57846569Y-29826507D01*
X57789364Y-30039999D01*
X57789364Y-30040000D01*
X58686314Y-30040000D01*
X58660507Y-30080156D01*
X58620000Y-30218111D01*
X58620000Y-30361889D01*
X58660507Y-30499844D01*
X58686314Y-30540000D01*
X57789364Y-30540000D01*
X57846569Y-30753492D01*
X57946399Y-30967576D01*
X58081893Y-31161081D01*
X58248918Y-31328106D01*
X58434595Y-31458119D01*
X58478219Y-31512696D01*
X58485412Y-31582195D01*
X58453890Y-31644549D01*
X58434595Y-31661269D01*
X58248595Y-31791508D01*
X58081505Y-31958598D01*
X57945965Y-32152170D01*
X57846097Y-32366336D01*
X57784936Y-32594592D01*
X57764340Y-32829999D01*
X57784936Y-33065407D01*
X57823814Y-33210500D01*
X57846097Y-33293663D01*
X57945965Y-33507830D01*
X58081505Y-33701401D01*
X58248599Y-33868495D01*
X58434160Y-33998426D01*
X58477783Y-34053002D01*
X58484976Y-34122501D01*
X58453454Y-34184855D01*
X58434159Y-34201575D01*
X58248595Y-34331508D01*
X58081505Y-34498598D01*
X57945965Y-34692170D01*
X57846097Y-34906336D01*
X57784936Y-35134592D01*
X57764340Y-35370000D01*
X57784936Y-35605407D01*
X57824268Y-35752194D01*
X57846097Y-35833663D01*
X57945965Y-36047830D01*
X58081505Y-36241401D01*
X58248599Y-36408495D01*
X58434160Y-36538426D01*
X58477783Y-36593002D01*
X58484976Y-36662501D01*
X58453454Y-36724855D01*
X58434159Y-36741575D01*
X58248595Y-36871508D01*
X58081505Y-37038598D01*
X57945965Y-37232170D01*
X57846097Y-37446336D01*
X57784936Y-37674592D01*
X57764340Y-37909999D01*
X57784936Y-38145407D01*
X57814851Y-38257051D01*
X57846097Y-38373663D01*
X57945965Y-38587830D01*
X58081505Y-38781401D01*
X58081508Y-38781404D01*
X58203430Y-38903326D01*
X58236915Y-38964649D01*
X58231931Y-39034341D01*
X58190059Y-39090274D01*
X58159083Y-39107189D01*
X58027669Y-39156204D01*
X57912454Y-39242454D01*
X57826204Y-39357668D01*
X57775910Y-39492515D01*
X57775909Y-39492517D01*
X57769500Y-39552127D01*
X57769500Y-39555448D01*
X57769500Y-39555449D01*
X57769500Y-41344560D01*
X57769500Y-41344578D01*
X57769501Y-41347872D01*
X57775909Y-41407483D01*
X57826204Y-41542331D01*
X57912454Y-41657546D01*
X58027669Y-41743796D01*
X58162517Y-41794091D01*
X58222127Y-41800500D01*
X60017872Y-41800499D01*
X60077483Y-41794091D01*
X60212331Y-41743796D01*
X60327546Y-41657546D01*
X60413796Y-41542331D01*
X60464091Y-41407483D01*
X60470500Y-41347873D01*
X60470499Y-39552128D01*
X60464091Y-39492517D01*
X60413796Y-39357669D01*
X60327546Y-39242454D01*
X60212331Y-39156204D01*
X60150898Y-39133291D01*
X60080916Y-39107189D01*
X60024983Y-39065317D01*
X60000566Y-38999853D01*
X60015418Y-38931580D01*
X60036563Y-38903332D01*
X60158495Y-38781401D01*
X60294035Y-38587830D01*
X60393903Y-38373663D01*
X60455063Y-38145408D01*
X60475659Y-37910000D01*
X60455063Y-37674592D01*
X60393903Y-37446337D01*
X60294035Y-37232171D01*
X60158495Y-37038599D01*
X59991401Y-36871505D01*
X59805839Y-36741573D01*
X59762216Y-36686998D01*
X59755022Y-36617500D01*
X59786545Y-36555145D01*
X59805837Y-36538428D01*
X59991401Y-36408495D01*
X60158495Y-36241401D01*
X60294035Y-36047830D01*
X60393903Y-35833663D01*
X60455063Y-35605408D01*
X60475659Y-35370000D01*
X60455063Y-35134592D01*
X60393903Y-34906337D01*
X60294035Y-34692171D01*
X60158495Y-34498599D01*
X59991401Y-34331505D01*
X59805839Y-34201573D01*
X59762216Y-34146998D01*
X59755022Y-34077500D01*
X59786545Y-34015145D01*
X59805837Y-33998428D01*
X59991401Y-33868495D01*
X60158495Y-33701401D01*
X60294035Y-33507830D01*
X60393903Y-33293663D01*
X60455063Y-33065408D01*
X60475659Y-32830000D01*
X60455063Y-32594592D01*
X60393903Y-32366337D01*
X60294035Y-32152171D01*
X60158495Y-31958599D01*
X59991401Y-31791505D01*
X59805402Y-31661267D01*
X59761780Y-31606692D01*
X59754587Y-31537193D01*
X59786109Y-31474839D01*
X59805405Y-31458119D01*
X59991078Y-31328109D01*
X60158106Y-31161081D01*
X60293600Y-30967576D01*
X60393430Y-30753492D01*
X60450636Y-30540000D01*
X59553686Y-30540000D01*
X59579493Y-30499844D01*
X59620000Y-30361889D01*
X59620000Y-30218111D01*
X59579493Y-30080156D01*
X59553686Y-30040000D01*
X60450636Y-30040000D01*
X60450635Y-30039999D01*
X60393430Y-29826507D01*
X60293599Y-29612421D01*
X60158109Y-29418921D01*
X59991081Y-29251893D01*
X59811395Y-29126075D01*
X59767771Y-29071498D01*
X59760578Y-29001999D01*
X59792100Y-28939645D01*
X59852330Y-28904231D01*
X59882519Y-28900500D01*
X65803000Y-28900500D01*
X65870039Y-28920185D01*
X65915794Y-28972989D01*
X65927000Y-29024500D01*
X65926999Y-36581505D01*
X65923138Y-46468940D01*
X65903427Y-46535972D01*
X65850605Y-46581706D01*
X65797544Y-46592882D01*
X63494081Y-46563260D01*
X63427300Y-46542715D01*
X63382228Y-46489327D01*
X63373174Y-46420046D01*
X63394101Y-46368146D01*
X63506665Y-46207389D01*
X63599102Y-46009159D01*
X63655712Y-45797886D01*
X63674775Y-45580000D01*
X63655712Y-45362113D01*
X63599102Y-45150840D01*
X63506667Y-44952615D01*
X63463123Y-44890428D01*
X62903076Y-45450474D01*
X62879493Y-45370156D01*
X62801761Y-45249202D01*
X62693100Y-45155048D01*
X62562315Y-45095320D01*
X62552531Y-45093913D01*
X63109572Y-44536874D01*
X63109571Y-44536873D01*
X63047386Y-44493331D01*
X62849161Y-44400898D01*
X62637886Y-44344287D01*
X62420000Y-44325224D01*
X62202113Y-44344287D01*
X61990840Y-44400897D01*
X61792611Y-44493333D01*
X61730428Y-44536874D01*
X61730427Y-44536875D01*
X62287465Y-45093913D01*
X62277685Y-45095320D01*
X62146900Y-45155048D01*
X62038239Y-45249202D01*
X61960507Y-45370156D01*
X61936923Y-45450475D01*
X61376875Y-44890427D01*
X61376874Y-44890428D01*
X61333333Y-44952611D01*
X61240897Y-45150840D01*
X61184287Y-45362113D01*
X61165224Y-45580000D01*
X61184287Y-45797886D01*
X61240897Y-46009159D01*
X61333332Y-46207385D01*
X61426352Y-46340231D01*
X61448679Y-46406437D01*
X61431669Y-46474205D01*
X61380721Y-46522018D01*
X61323183Y-46535345D01*
X32662906Y-46166794D01*
X32596125Y-46146249D01*
X32551053Y-46092861D01*
X32540500Y-46042804D01*
X32540500Y-39111519D01*
X32560185Y-39044480D01*
X32576819Y-39023838D01*
X34729152Y-36871505D01*
X36925290Y-34675367D01*
X37003878Y-34575056D01*
X37034646Y-34506692D01*
X37060036Y-34469908D01*
X38283126Y-33246819D01*
X38344450Y-33213334D01*
X38370808Y-33210500D01*
X55060714Y-33210500D01*
X55127753Y-33230185D01*
X55152864Y-33251528D01*
X55244129Y-33352889D01*
X55397269Y-33464151D01*
X55570197Y-33541144D01*
X55755352Y-33580500D01*
X55755354Y-33580500D01*
X55944648Y-33580500D01*
X56068084Y-33554262D01*
X56129803Y-33541144D01*
X56302730Y-33464151D01*
X56455871Y-33352888D01*
X56582533Y-33212216D01*
X56677179Y-33048284D01*
X56735674Y-32868256D01*
X56755460Y-32680000D01*
X56735674Y-32491744D01*
X56677179Y-32311716D01*
X56677179Y-32311715D01*
X56582533Y-32147783D01*
X56455870Y-32007110D01*
X56302730Y-31895848D01*
X56129802Y-31818855D01*
X55944648Y-31779500D01*
X55944646Y-31779500D01*
X55755354Y-31779500D01*
X55755352Y-31779500D01*
X55570197Y-31818855D01*
X55390687Y-31898779D01*
X55340251Y-31909500D01*
X38135504Y-31909500D01*
X38114294Y-31907158D01*
X38041737Y-31909439D01*
X38037842Y-31909500D01*
X38009075Y-31909500D01*
X38005213Y-31909987D01*
X38005192Y-31909989D01*
X38004681Y-31910054D01*
X37993059Y-31910968D01*
X37947430Y-31912402D01*
X37927051Y-31918323D01*
X37908007Y-31922267D01*
X37893639Y-31924082D01*
X37886941Y-31924929D01*
X37844490Y-31941736D01*
X37833443Y-31945518D01*
X37789598Y-31958256D01*
X37771330Y-31969060D01*
X37753864Y-31977617D01*
X37734129Y-31985431D01*
X37697202Y-32012260D01*
X37687442Y-32018671D01*
X37648136Y-32041917D01*
X37633125Y-32056928D01*
X37618336Y-32069558D01*
X37601164Y-32082034D01*
X37572057Y-32117218D01*
X37564196Y-32125856D01*
X36140092Y-33549960D01*
X36103305Y-33575353D01*
X36034946Y-33606120D01*
X35937583Y-33682398D01*
X35937574Y-33682405D01*
X35934633Y-33684710D01*
X35931987Y-33687355D01*
X35931979Y-33687363D01*
X31362290Y-38257051D01*
X31356838Y-38262183D01*
X31311816Y-38302070D01*
X31277649Y-38351568D01*
X31273213Y-38357597D01*
X31236121Y-38404942D01*
X31231961Y-38414186D01*
X31220941Y-38433725D01*
X31215182Y-38442069D01*
X31193853Y-38498305D01*
X31190989Y-38505219D01*
X31166303Y-38560070D01*
X31164475Y-38570047D01*
X31158454Y-38591648D01*
X31154859Y-38601128D01*
X31147609Y-38660827D01*
X31146483Y-38668226D01*
X31135641Y-38727390D01*
X31139274Y-38787433D01*
X31139500Y-38794920D01*
X31139500Y-46021598D01*
X31119815Y-46088637D01*
X31067011Y-46134392D01*
X31013906Y-46145588D01*
X29072841Y-46120628D01*
X29006060Y-46100083D01*
X28960988Y-46046695D01*
X28951934Y-45977414D01*
X28963433Y-45941369D01*
X28980817Y-45906459D01*
X29013997Y-45789844D01*
X29040435Y-45696925D01*
X29044608Y-45651889D01*
X29060536Y-45480000D01*
X29040435Y-45263077D01*
X29040435Y-45263074D01*
X28980818Y-45053542D01*
X28883712Y-44858528D01*
X28752426Y-44684676D01*
X28628427Y-44571637D01*
X28592145Y-44511926D01*
X28593906Y-44442079D01*
X28628427Y-44388363D01*
X28752426Y-44275323D01*
X28752427Y-44275322D01*
X28883712Y-44101472D01*
X28980817Y-43906459D01*
X28980818Y-43906457D01*
X29040435Y-43696925D01*
X29043577Y-43663008D01*
X29060536Y-43480000D01*
X29040435Y-43263077D01*
X29040435Y-43263074D01*
X28980818Y-43053542D01*
X28883712Y-42858528D01*
X28802252Y-42750657D01*
X28777560Y-42685295D01*
X28792125Y-42616961D01*
X28826894Y-42576664D01*
X28912546Y-42512546D01*
X28998796Y-42397331D01*
X29049091Y-42262483D01*
X29055500Y-42202873D01*
X29055499Y-40757128D01*
X29049091Y-40697517D01*
X28998796Y-40562669D01*
X28912546Y-40447454D01*
X28797331Y-40361204D01*
X28662483Y-40310909D01*
X28602873Y-40304500D01*
X28599550Y-40304500D01*
X27160439Y-40304500D01*
X27160420Y-40304500D01*
X27157128Y-40304501D01*
X27153848Y-40304853D01*
X27153840Y-40304854D01*
X27097515Y-40310909D01*
X26962669Y-40361204D01*
X26847454Y-40447454D01*
X26761204Y-40562668D01*
X26710910Y-40697515D01*
X26710909Y-40697517D01*
X26704500Y-40757127D01*
X26704500Y-40760448D01*
X26704500Y-40760449D01*
X26704500Y-42199560D01*
X26704500Y-42199578D01*
X26704501Y-42202872D01*
X26710909Y-42262483D01*
X26761204Y-42397331D01*
X26813032Y-42466564D01*
X26847455Y-42512548D01*
X26933104Y-42576665D01*
X26974975Y-42632598D01*
X26979959Y-42702290D01*
X26957747Y-42750657D01*
X26876288Y-42858525D01*
X26779181Y-43053542D01*
X26719564Y-43263074D01*
X26699464Y-43480000D01*
X26719564Y-43696925D01*
X26779181Y-43906457D01*
X26876287Y-44101471D01*
X27007573Y-44275323D01*
X27131572Y-44388363D01*
X27167854Y-44448074D01*
X27166093Y-44517922D01*
X27131572Y-44571637D01*
X27007573Y-44684676D01*
X26876287Y-44858528D01*
X26779181Y-45053542D01*
X26719564Y-45263074D01*
X26699464Y-45480000D01*
X26719564Y-45696925D01*
X26779182Y-45906459D01*
X26781183Y-45910477D01*
X26793444Y-45979262D01*
X26766571Y-46043757D01*
X26709095Y-46083484D01*
X26668593Y-46089738D01*
X26399480Y-46086288D01*
X26332699Y-46065745D01*
X26287625Y-46012359D01*
X26277071Y-45962353D01*
X26273058Y-36279999D01*
X28605207Y-36279999D01*
X28624349Y-36523224D01*
X28681303Y-36760457D01*
X28774669Y-36985862D01*
X28898504Y-37187942D01*
X29519859Y-36566586D01*
X29579680Y-36680566D01*
X29692405Y-36807806D01*
X29832305Y-36904371D01*
X29873541Y-36920010D01*
X29252056Y-37541494D01*
X29454137Y-37665329D01*
X29679542Y-37758696D01*
X29916775Y-37815650D01*
X30160000Y-37834792D01*
X30403224Y-37815650D01*
X30640457Y-37758696D01*
X30865862Y-37665329D01*
X31067942Y-37541494D01*
X30446457Y-36920010D01*
X30487695Y-36904371D01*
X30627595Y-36807806D01*
X30740320Y-36680566D01*
X30800139Y-36566587D01*
X31421494Y-37187942D01*
X31545329Y-36985862D01*
X31638696Y-36760457D01*
X31695650Y-36523224D01*
X31714792Y-36280000D01*
X31695650Y-36036775D01*
X31638696Y-35799542D01*
X31545329Y-35574137D01*
X31421494Y-35372056D01*
X30800139Y-35993411D01*
X30740320Y-35879434D01*
X30627595Y-35752194D01*
X30487695Y-35655629D01*
X30446457Y-35639989D01*
X31067942Y-35018504D01*
X30865862Y-34894669D01*
X30640457Y-34801303D01*
X30403224Y-34744349D01*
X30160000Y-34725207D01*
X29916775Y-34744349D01*
X29679542Y-34801303D01*
X29454137Y-34894669D01*
X29252056Y-35018504D01*
X29873542Y-35639989D01*
X29832305Y-35655629D01*
X29692405Y-35752194D01*
X29579680Y-35879434D01*
X29519859Y-35993413D01*
X28898504Y-35372056D01*
X28774669Y-35574137D01*
X28681303Y-35799542D01*
X28624349Y-36036775D01*
X28605207Y-36279999D01*
X26273058Y-36279999D01*
X26270986Y-31280000D01*
X28604706Y-31280000D01*
X28623854Y-31523303D01*
X28680828Y-31760615D01*
X28774221Y-31986088D01*
X28873309Y-32147783D01*
X28901741Y-32194179D01*
X29060241Y-32379759D01*
X29245821Y-32538259D01*
X29324887Y-32586711D01*
X29453911Y-32665778D01*
X29679384Y-32759171D01*
X29679387Y-32759171D01*
X29679388Y-32759172D01*
X29916698Y-32816146D01*
X30160000Y-32835294D01*
X30403302Y-32816146D01*
X30640612Y-32759172D01*
X30640613Y-32759171D01*
X30640615Y-32759171D01*
X30866088Y-32665778D01*
X30916045Y-32635163D01*
X31074179Y-32538259D01*
X31259759Y-32379759D01*
X31418259Y-32194179D01*
X31527631Y-32015700D01*
X31545778Y-31986088D01*
X31639171Y-31760615D01*
X31639172Y-31760612D01*
X31696146Y-31523302D01*
X31715294Y-31280000D01*
X31696146Y-31036698D01*
X31639172Y-30799388D01*
X31639171Y-30799387D01*
X31639171Y-30799384D01*
X31545778Y-30573911D01*
X31466711Y-30444887D01*
X31418259Y-30365821D01*
X31259759Y-30180241D01*
X31074179Y-30021741D01*
X31045068Y-30003902D01*
X30866088Y-29894221D01*
X30640615Y-29800828D01*
X30403303Y-29743854D01*
X30160000Y-29724706D01*
X29916696Y-29743854D01*
X29679384Y-29800828D01*
X29453911Y-29894221D01*
X29245822Y-30021740D01*
X29060241Y-30180241D01*
X28901740Y-30365822D01*
X28774221Y-30573911D01*
X28680828Y-30799384D01*
X28623854Y-31036696D01*
X28604706Y-31280000D01*
X26270986Y-31280000D01*
X26270051Y-29024548D01*
X26289708Y-28957504D01*
X26342493Y-28911727D01*
X26394051Y-28900500D01*
X58357482Y-28900500D01*
X58424521Y-28920185D01*
G37*
%TD.AperFunction*%
%TD*%
%TA.AperFunction,NonConductor*%
G36*
X31328150Y-46655172D02*
G01*
X31336236Y-46658645D01*
X31339500Y-46666671D01*
X31339500Y-46687922D01*
X31336132Y-46696054D01*
X31056054Y-46976132D01*
X31047922Y-46979500D01*
X28725478Y-46979500D01*
X28717346Y-46976132D01*
X28715336Y-46973421D01*
X28695226Y-46935799D01*
X28695023Y-46935419D01*
X28573120Y-46786880D01*
X28424581Y-46664977D01*
X28412735Y-46658645D01*
X28375832Y-46638919D01*
X28370248Y-46632115D01*
X28371111Y-46623356D01*
X28377915Y-46617772D01*
X28381389Y-46617279D01*
X31328150Y-46655172D01*
G37*
%TD.AperFunction*%
%TA.AperFunction,NonConductor*%
G36*
X27402447Y-46604691D02*
G01*
X27410533Y-46608163D01*
X27413796Y-46616337D01*
X27410323Y-46624425D01*
X27407718Y-46626331D01*
X27335422Y-46664975D01*
X27335420Y-46664976D01*
X27335419Y-46664977D01*
X27301656Y-46692686D01*
X27186880Y-46786880D01*
X27064975Y-46935422D01*
X26974395Y-47104885D01*
X26933114Y-47240973D01*
X26918615Y-47288769D01*
X26899780Y-47480000D01*
X26918615Y-47671231D01*
X26974395Y-47855114D01*
X27064977Y-48024581D01*
X27186880Y-48173120D01*
X27335419Y-48295023D01*
X27504886Y-48385605D01*
X27688769Y-48441385D01*
X27880000Y-48460220D01*
X28071231Y-48441385D01*
X28255114Y-48385605D01*
X28424581Y-48295023D01*
X28573120Y-48173120D01*
X28695023Y-48024581D01*
X28711177Y-47994359D01*
X28715336Y-47986579D01*
X28722140Y-47980995D01*
X28725478Y-47980500D01*
X31130814Y-47980500D01*
X31134832Y-47981224D01*
X31142517Y-47984091D01*
X31177772Y-47986611D01*
X31179386Y-47986844D01*
X31194864Y-47990211D01*
X31213925Y-47994359D01*
X31213926Y-47994358D01*
X31213927Y-47994359D01*
X31230454Y-47993176D01*
X31238804Y-47995955D01*
X31242745Y-48003826D01*
X31239966Y-48012177D01*
X31239406Y-48012779D01*
X30276054Y-48976132D01*
X30267922Y-48979500D01*
X28725478Y-48979500D01*
X28717346Y-48976132D01*
X28715336Y-48973421D01*
X28708258Y-48960179D01*
X28695023Y-48935419D01*
X28573120Y-48786880D01*
X28424581Y-48664977D01*
X28255114Y-48574395D01*
X28071231Y-48518615D01*
X27880000Y-48499780D01*
X27688768Y-48518615D01*
X27504885Y-48574395D01*
X27335422Y-48664975D01*
X27335420Y-48664976D01*
X27335419Y-48664977D01*
X27186879Y-48786880D01*
X27186880Y-48786880D01*
X27064975Y-48935422D01*
X26974395Y-49104885D01*
X26974395Y-49104886D01*
X26918615Y-49288769D01*
X26899780Y-49480000D01*
X26918615Y-49671231D01*
X26974395Y-49855114D01*
X27064977Y-50024581D01*
X27186880Y-50173120D01*
X27335419Y-50295023D01*
X27504886Y-50385605D01*
X27688769Y-50441385D01*
X27880000Y-50460220D01*
X28071231Y-50441385D01*
X28255114Y-50385605D01*
X28424581Y-50295023D01*
X28573120Y-50173120D01*
X28695023Y-50024581D01*
X28715335Y-49986579D01*
X28722140Y-49980995D01*
X28725478Y-49980500D01*
X30424952Y-49980500D01*
X30427397Y-49980763D01*
X30443925Y-49984359D01*
X30443926Y-49984358D01*
X30443927Y-49984359D01*
X30487747Y-49981224D01*
X30497474Y-49980529D01*
X30498294Y-49980500D01*
X30515798Y-49980500D01*
X30515799Y-49980500D01*
X30533154Y-49978004D01*
X30533920Y-49977921D01*
X30587483Y-49974091D01*
X30603340Y-49968176D01*
X30605704Y-49967573D01*
X30622457Y-49965165D01*
X30671307Y-49942854D01*
X30672017Y-49942560D01*
X30722331Y-49923796D01*
X30735878Y-49913653D01*
X30737982Y-49912405D01*
X30753373Y-49905377D01*
X30793932Y-49870231D01*
X30794569Y-49869719D01*
X30803072Y-49863353D01*
X30808593Y-49859221D01*
X30820987Y-49846825D01*
X30821558Y-49846293D01*
X30862143Y-49811128D01*
X30871291Y-49796891D01*
X30872826Y-49794986D01*
X32103944Y-48563867D01*
X32112077Y-48560500D01*
X36357922Y-48560500D01*
X36366054Y-48563868D01*
X39587169Y-51784982D01*
X39588709Y-51786893D01*
X39597857Y-51801128D01*
X39638425Y-51836280D01*
X39639025Y-51836839D01*
X39651405Y-51849218D01*
X39651407Y-51849220D01*
X39660344Y-51855910D01*
X39665421Y-51859711D01*
X39666060Y-51860226D01*
X39706627Y-51895377D01*
X39722010Y-51902402D01*
X39724124Y-51903656D01*
X39737669Y-51913796D01*
X39787970Y-51932557D01*
X39788710Y-51932863D01*
X39837543Y-51955165D01*
X39854291Y-51957572D01*
X39856663Y-51958177D01*
X39872517Y-51964091D01*
X39926075Y-51967921D01*
X39926847Y-51968004D01*
X39944201Y-51970500D01*
X39961706Y-51970500D01*
X39962526Y-51970529D01*
X40016073Y-51974359D01*
X40016073Y-51974358D01*
X40016074Y-51974359D01*
X40032603Y-51970763D01*
X40035048Y-51970500D01*
X50714220Y-51970500D01*
X50721846Y-51973392D01*
X50809148Y-52050734D01*
X50959774Y-52129790D01*
X51042359Y-52150144D01*
X51124944Y-52170500D01*
X51124945Y-52170500D01*
X51295055Y-52170500D01*
X51295056Y-52170500D01*
X51460225Y-52129790D01*
X51610852Y-52050734D01*
X51738183Y-51937929D01*
X51834818Y-51797930D01*
X51895140Y-51638872D01*
X51915645Y-51470000D01*
X51895140Y-51301128D01*
X51834818Y-51142070D01*
X51765487Y-51041628D01*
X51738183Y-51002071D01*
X51610851Y-50889265D01*
X51460225Y-50810209D01*
X51327715Y-50777549D01*
X51295056Y-50769500D01*
X51124944Y-50769500D01*
X51097676Y-50776220D01*
X50959774Y-50810209D01*
X50809148Y-50889265D01*
X50721846Y-50966608D01*
X50714220Y-50969500D01*
X40192077Y-50969500D01*
X40183945Y-50966132D01*
X36962828Y-47745014D01*
X36961286Y-47743099D01*
X36952143Y-47728872D01*
X36911581Y-47693725D01*
X36910981Y-47693166D01*
X36898594Y-47680780D01*
X36884570Y-47670281D01*
X36883931Y-47669766D01*
X36843371Y-47634621D01*
X36827986Y-47627594D01*
X36825873Y-47626340D01*
X36812333Y-47616205D01*
X36812331Y-47616204D01*
X36785673Y-47606261D01*
X36762037Y-47597445D01*
X36761279Y-47597131D01*
X36712456Y-47574834D01*
X36695711Y-47572426D01*
X36693330Y-47571818D01*
X36677485Y-47565909D01*
X36623941Y-47562078D01*
X36623126Y-47561990D01*
X36605799Y-47559500D01*
X36588294Y-47559500D01*
X36587474Y-47559471D01*
X36533925Y-47555640D01*
X36517397Y-47559237D01*
X36514952Y-47559500D01*
X31955048Y-47559500D01*
X31952603Y-47559237D01*
X31936073Y-47555640D01*
X31919545Y-47556822D01*
X31911194Y-47554042D01*
X31907254Y-47546171D01*
X31910034Y-47537820D01*
X31910579Y-47537233D01*
X32154986Y-47292826D01*
X32156891Y-47291291D01*
X32171128Y-47282143D01*
X32206293Y-47241558D01*
X32206825Y-47240987D01*
X32219221Y-47228593D01*
X32223353Y-47223072D01*
X32229719Y-47214569D01*
X32230234Y-47213929D01*
X32265377Y-47173373D01*
X32272405Y-47157982D01*
X32273653Y-47155878D01*
X32283796Y-47142331D01*
X32302560Y-47092017D01*
X32302854Y-47091307D01*
X32325165Y-47042457D01*
X32327573Y-47025704D01*
X32328176Y-47023340D01*
X32334091Y-47007483D01*
X32337921Y-46953920D01*
X32338004Y-46953154D01*
X32340500Y-46935799D01*
X32340500Y-46918293D01*
X32340529Y-46917473D01*
X32344359Y-46863925D01*
X32340762Y-46847395D01*
X32340499Y-46844950D01*
X32340499Y-46786880D01*
X32340499Y-46679835D01*
X32343866Y-46671706D01*
X32351995Y-46668338D01*
X65908646Y-47099853D01*
X65916732Y-47103326D01*
X65919996Y-47111355D01*
X65910006Y-80088003D01*
X65906635Y-80096134D01*
X65898506Y-80099500D01*
X52036000Y-80099500D01*
X26281487Y-80080008D01*
X26273358Y-80076634D01*
X26269996Y-80068512D01*
X26268919Y-76460000D01*
X29954709Y-76460000D01*
X29954736Y-76460394D01*
X29973824Y-76739460D01*
X29973824Y-76739467D01*
X29973852Y-76739862D01*
X30030925Y-77014511D01*
X30124864Y-77278830D01*
X30125040Y-77279171D01*
X30125042Y-77279174D01*
X30253740Y-77527552D01*
X30253744Y-77527560D01*
X30253919Y-77527896D01*
X30415688Y-77757069D01*
X30607155Y-77962081D01*
X30607448Y-77962319D01*
X30607453Y-77962324D01*
X30700444Y-78037977D01*
X30824754Y-78139111D01*
X31064432Y-78284862D01*
X31321725Y-78396620D01*
X31591839Y-78472303D01*
X31869742Y-78510500D01*
X31870131Y-78510500D01*
X32149869Y-78510500D01*
X32150258Y-78510500D01*
X32428161Y-78472303D01*
X32698275Y-78396620D01*
X32955568Y-78284862D01*
X33195246Y-78139111D01*
X33412845Y-77962081D01*
X33604312Y-77757069D01*
X33766081Y-77527896D01*
X33895136Y-77278830D01*
X33989075Y-77014511D01*
X34046148Y-76739862D01*
X34065291Y-76460000D01*
X34954709Y-76460000D01*
X34954736Y-76460394D01*
X34973824Y-76739460D01*
X34973824Y-76739467D01*
X34973852Y-76739862D01*
X35030925Y-77014511D01*
X35124864Y-77278830D01*
X35125040Y-77279171D01*
X35125042Y-77279174D01*
X35253740Y-77527552D01*
X35253744Y-77527560D01*
X35253919Y-77527896D01*
X35415688Y-77757069D01*
X35607155Y-77962081D01*
X35607448Y-77962319D01*
X35607453Y-77962324D01*
X35700444Y-78037977D01*
X35824754Y-78139111D01*
X36064432Y-78284862D01*
X36321725Y-78396620D01*
X36591839Y-78472303D01*
X36869742Y-78510500D01*
X36870131Y-78510500D01*
X37149869Y-78510500D01*
X37150258Y-78510500D01*
X37428161Y-78472303D01*
X37698275Y-78396620D01*
X37955568Y-78284862D01*
X38195246Y-78139111D01*
X38412845Y-77962081D01*
X38604312Y-77757069D01*
X38766081Y-77527896D01*
X38895136Y-77278830D01*
X38989075Y-77014511D01*
X39046148Y-76739862D01*
X39061187Y-76520000D01*
X44484709Y-76520000D01*
X44484736Y-76520394D01*
X44503824Y-76799460D01*
X44503824Y-76799467D01*
X44503852Y-76799862D01*
X44560925Y-77074511D01*
X44654864Y-77338830D01*
X44655040Y-77339171D01*
X44655042Y-77339174D01*
X44783740Y-77587552D01*
X44783744Y-77587560D01*
X44783919Y-77587896D01*
X44945688Y-77817069D01*
X45137155Y-78022081D01*
X45137448Y-78022319D01*
X45137453Y-78022324D01*
X45230444Y-78097977D01*
X45354754Y-78199111D01*
X45594432Y-78344862D01*
X45851725Y-78456620D01*
X46121839Y-78532303D01*
X46399742Y-78570500D01*
X46400131Y-78570500D01*
X46679869Y-78570500D01*
X46680258Y-78570500D01*
X46958161Y-78532303D01*
X47228275Y-78456620D01*
X47485568Y-78344862D01*
X47725246Y-78199111D01*
X47942845Y-78022081D01*
X48134312Y-77817069D01*
X48296081Y-77587896D01*
X48425136Y-77338830D01*
X48519075Y-77074511D01*
X48576148Y-76799862D01*
X48595291Y-76520000D01*
X49484709Y-76520000D01*
X49484736Y-76520394D01*
X49503824Y-76799460D01*
X49503824Y-76799467D01*
X49503852Y-76799862D01*
X49560925Y-77074511D01*
X49654864Y-77338830D01*
X49655040Y-77339171D01*
X49655042Y-77339174D01*
X49783740Y-77587552D01*
X49783744Y-77587560D01*
X49783919Y-77587896D01*
X49945688Y-77817069D01*
X50137155Y-78022081D01*
X50137448Y-78022319D01*
X50137453Y-78022324D01*
X50230444Y-78097977D01*
X50354754Y-78199111D01*
X50594432Y-78344862D01*
X50851725Y-78456620D01*
X51121839Y-78532303D01*
X51399742Y-78570500D01*
X51400131Y-78570500D01*
X51679869Y-78570500D01*
X51680258Y-78570500D01*
X51958161Y-78532303D01*
X52228275Y-78456620D01*
X52485568Y-78344862D01*
X52725246Y-78199111D01*
X52942845Y-78022081D01*
X53134312Y-77817069D01*
X53296081Y-77587896D01*
X53425136Y-77338830D01*
X53519075Y-77074511D01*
X53576148Y-76799862D01*
X53595291Y-76520000D01*
X53576148Y-76240138D01*
X53519075Y-75965489D01*
X53425136Y-75701170D01*
X53296081Y-75452104D01*
X53134312Y-75222931D01*
X52942845Y-75017919D01*
X52942552Y-75017680D01*
X52942546Y-75017675D01*
X52818535Y-74916785D01*
X52725246Y-74840889D01*
X52724918Y-74840689D01*
X52724913Y-74840686D01*
X52485902Y-74695341D01*
X52485900Y-74695340D01*
X52485568Y-74695138D01*
X52485215Y-74694985D01*
X52485210Y-74694982D01*
X52228627Y-74583533D01*
X52228628Y-74583533D01*
X52228275Y-74583380D01*
X51958161Y-74507697D01*
X51939628Y-74505149D01*
X51680642Y-74469552D01*
X51680630Y-74469551D01*
X51680258Y-74469500D01*
X51399742Y-74469500D01*
X51399370Y-74469551D01*
X51399357Y-74469552D01*
X51122224Y-74507644D01*
X51122222Y-74507644D01*
X51121839Y-74507697D01*
X51121470Y-74507800D01*
X51121467Y-74507801D01*
X50852092Y-74583277D01*
X50852089Y-74583277D01*
X50851725Y-74583380D01*
X50851376Y-74583531D01*
X50851372Y-74583533D01*
X50594789Y-74694982D01*
X50594777Y-74694987D01*
X50594432Y-74695138D01*
X50594105Y-74695336D01*
X50594097Y-74695341D01*
X50355086Y-74840686D01*
X50355074Y-74840693D01*
X50354754Y-74840889D01*
X50354457Y-74841130D01*
X50354455Y-74841132D01*
X50137453Y-75017675D01*
X50137440Y-75017686D01*
X50137155Y-75017919D01*
X50136895Y-75018197D01*
X50136889Y-75018203D01*
X49945954Y-75222645D01*
X49945946Y-75222654D01*
X49945688Y-75222931D01*
X49945468Y-75223242D01*
X49945462Y-75223250D01*
X49784144Y-75451785D01*
X49783919Y-75452104D01*
X49783748Y-75452433D01*
X49783740Y-75452447D01*
X49655042Y-75700825D01*
X49655038Y-75700834D01*
X49654864Y-75701170D01*
X49654734Y-75701535D01*
X49654733Y-75701538D01*
X49561055Y-75965121D01*
X49561052Y-75965131D01*
X49560925Y-75965489D01*
X49503852Y-76240138D01*
X49503825Y-76240530D01*
X49503824Y-76240539D01*
X49488840Y-76459605D01*
X49484709Y-76520000D01*
X48595291Y-76520000D01*
X48576148Y-76240138D01*
X48519075Y-75965489D01*
X48425136Y-75701170D01*
X48296081Y-75452104D01*
X48134312Y-75222931D01*
X47942845Y-75017919D01*
X47942552Y-75017680D01*
X47942546Y-75017675D01*
X47818535Y-74916785D01*
X47725246Y-74840889D01*
X47724918Y-74840689D01*
X47724913Y-74840686D01*
X47485902Y-74695341D01*
X47485900Y-74695340D01*
X47485568Y-74695138D01*
X47485215Y-74694985D01*
X47485210Y-74694982D01*
X47228627Y-74583533D01*
X47228628Y-74583533D01*
X47228275Y-74583380D01*
X46958161Y-74507697D01*
X46939628Y-74505149D01*
X46680642Y-74469552D01*
X46680630Y-74469551D01*
X46680258Y-74469500D01*
X46399742Y-74469500D01*
X46399370Y-74469551D01*
X46399357Y-74469552D01*
X46122224Y-74507644D01*
X46122222Y-74507644D01*
X46121839Y-74507697D01*
X46121470Y-74507800D01*
X46121467Y-74507801D01*
X45852092Y-74583277D01*
X45852089Y-74583277D01*
X45851725Y-74583380D01*
X45851376Y-74583531D01*
X45851372Y-74583533D01*
X45594789Y-74694982D01*
X45594777Y-74694987D01*
X45594432Y-74695138D01*
X45594105Y-74695336D01*
X45594097Y-74695341D01*
X45355086Y-74840686D01*
X45355074Y-74840693D01*
X45354754Y-74840889D01*
X45354457Y-74841130D01*
X45354455Y-74841132D01*
X45137453Y-75017675D01*
X45137440Y-75017686D01*
X45137155Y-75017919D01*
X45136895Y-75018197D01*
X45136889Y-75018203D01*
X44945954Y-75222645D01*
X44945946Y-75222654D01*
X44945688Y-75222931D01*
X44945468Y-75223242D01*
X44945462Y-75223250D01*
X44784144Y-75451785D01*
X44783919Y-75452104D01*
X44783748Y-75452433D01*
X44783740Y-75452447D01*
X44655042Y-75700825D01*
X44655038Y-75700834D01*
X44654864Y-75701170D01*
X44654734Y-75701535D01*
X44654733Y-75701538D01*
X44561055Y-75965121D01*
X44561052Y-75965131D01*
X44560925Y-75965489D01*
X44503852Y-76240138D01*
X44503825Y-76240530D01*
X44503824Y-76240539D01*
X44488840Y-76459605D01*
X44484709Y-76520000D01*
X39061187Y-76520000D01*
X39065291Y-76460000D01*
X39046148Y-76180138D01*
X38989075Y-75905489D01*
X38895136Y-75641170D01*
X38797348Y-75452447D01*
X38766259Y-75392447D01*
X38766257Y-75392444D01*
X38766081Y-75392104D01*
X38604312Y-75162931D01*
X38412845Y-74957919D01*
X38412552Y-74957680D01*
X38412546Y-74957675D01*
X38288535Y-74856785D01*
X38195246Y-74780889D01*
X38194918Y-74780689D01*
X38194913Y-74780686D01*
X37955902Y-74635341D01*
X37955900Y-74635340D01*
X37955568Y-74635138D01*
X37955215Y-74634985D01*
X37955210Y-74634982D01*
X37698627Y-74523533D01*
X37698628Y-74523533D01*
X37698275Y-74523380D01*
X37428161Y-74447697D01*
X37409628Y-74445149D01*
X37150642Y-74409552D01*
X37150630Y-74409551D01*
X37150258Y-74409500D01*
X36869742Y-74409500D01*
X36869370Y-74409551D01*
X36869357Y-74409552D01*
X36592224Y-74447644D01*
X36592222Y-74447644D01*
X36591839Y-74447697D01*
X36591470Y-74447800D01*
X36591467Y-74447801D01*
X36322092Y-74523277D01*
X36322089Y-74523277D01*
X36321725Y-74523380D01*
X36321376Y-74523531D01*
X36321372Y-74523533D01*
X36064789Y-74634982D01*
X36064777Y-74634987D01*
X36064432Y-74635138D01*
X36064105Y-74635336D01*
X36064097Y-74635341D01*
X35825086Y-74780686D01*
X35825074Y-74780693D01*
X35824754Y-74780889D01*
X35824457Y-74781130D01*
X35824455Y-74781132D01*
X35607453Y-74957675D01*
X35607440Y-74957686D01*
X35607155Y-74957919D01*
X35606895Y-74958197D01*
X35606889Y-74958203D01*
X35415954Y-75162645D01*
X35415946Y-75162654D01*
X35415688Y-75162931D01*
X35415468Y-75163242D01*
X35415462Y-75163250D01*
X35254144Y-75391785D01*
X35253919Y-75392104D01*
X35253748Y-75392433D01*
X35253740Y-75392447D01*
X35125042Y-75640825D01*
X35125038Y-75640834D01*
X35124864Y-75641170D01*
X35124734Y-75641535D01*
X35124733Y-75641538D01*
X35031055Y-75905121D01*
X35031052Y-75905131D01*
X35030925Y-75905489D01*
X34973852Y-76180138D01*
X34973825Y-76180530D01*
X34973824Y-76180539D01*
X34969720Y-76240539D01*
X34954709Y-76460000D01*
X34065291Y-76460000D01*
X34046148Y-76180138D01*
X33989075Y-75905489D01*
X33895136Y-75641170D01*
X33797348Y-75452447D01*
X33766259Y-75392447D01*
X33766257Y-75392444D01*
X33766081Y-75392104D01*
X33604312Y-75162931D01*
X33412845Y-74957919D01*
X33412552Y-74957680D01*
X33412546Y-74957675D01*
X33288535Y-74856785D01*
X33195246Y-74780889D01*
X33194918Y-74780689D01*
X33194913Y-74780686D01*
X32955902Y-74635341D01*
X32955900Y-74635340D01*
X32955568Y-74635138D01*
X32955215Y-74634985D01*
X32955210Y-74634982D01*
X32698627Y-74523533D01*
X32698628Y-74523533D01*
X32698275Y-74523380D01*
X32428161Y-74447697D01*
X32409628Y-74445149D01*
X32150642Y-74409552D01*
X32150630Y-74409551D01*
X32150258Y-74409500D01*
X31869742Y-74409500D01*
X31869370Y-74409551D01*
X31869357Y-74409552D01*
X31592224Y-74447644D01*
X31592222Y-74447644D01*
X31591839Y-74447697D01*
X31591470Y-74447800D01*
X31591467Y-74447801D01*
X31322092Y-74523277D01*
X31322089Y-74523277D01*
X31321725Y-74523380D01*
X31321376Y-74523531D01*
X31321372Y-74523533D01*
X31064789Y-74634982D01*
X31064777Y-74634987D01*
X31064432Y-74635138D01*
X31064105Y-74635336D01*
X31064097Y-74635341D01*
X30825086Y-74780686D01*
X30825074Y-74780693D01*
X30824754Y-74780889D01*
X30824457Y-74781130D01*
X30824455Y-74781132D01*
X30607453Y-74957675D01*
X30607440Y-74957686D01*
X30607155Y-74957919D01*
X30606895Y-74958197D01*
X30606889Y-74958203D01*
X30415954Y-75162645D01*
X30415946Y-75162654D01*
X30415688Y-75162931D01*
X30415468Y-75163242D01*
X30415462Y-75163250D01*
X30254144Y-75391785D01*
X30253919Y-75392104D01*
X30253748Y-75392433D01*
X30253740Y-75392447D01*
X30125042Y-75640825D01*
X30125038Y-75640834D01*
X30124864Y-75641170D01*
X30124734Y-75641535D01*
X30124733Y-75641538D01*
X30031055Y-75905121D01*
X30031052Y-75905131D01*
X30030925Y-75905489D01*
X29973852Y-76180138D01*
X29973825Y-76180530D01*
X29973824Y-76180539D01*
X29969720Y-76240539D01*
X29954709Y-76460000D01*
X26268919Y-76460000D01*
X26267076Y-70290000D01*
X55584531Y-70290000D01*
X55604364Y-70516692D01*
X55663259Y-70736492D01*
X55663261Y-70736496D01*
X55759432Y-70942734D01*
X55889953Y-71129139D01*
X56050861Y-71290047D01*
X56237266Y-71420568D01*
X56443504Y-71516739D01*
X56443506Y-71516739D01*
X56443507Y-71516740D01*
X56663307Y-71575635D01*
X56889999Y-71595468D01*
X56889999Y-71595467D01*
X56890000Y-71595468D01*
X57116692Y-71575635D01*
X57336496Y-71516739D01*
X57542734Y-71420568D01*
X57729139Y-71290047D01*
X57890047Y-71129139D01*
X58020568Y-70942734D01*
X58116739Y-70736496D01*
X58175635Y-70516692D01*
X58195468Y-70290000D01*
X58195468Y-70289999D01*
X62084531Y-70289999D01*
X62104364Y-70516692D01*
X62163259Y-70736492D01*
X62163261Y-70736496D01*
X62259432Y-70942734D01*
X62389953Y-71129139D01*
X62550861Y-71290047D01*
X62737266Y-71420568D01*
X62943504Y-71516739D01*
X62943506Y-71516739D01*
X62943507Y-71516740D01*
X63163307Y-71575635D01*
X63390000Y-71595468D01*
X63616692Y-71575635D01*
X63836496Y-71516739D01*
X64042734Y-71420568D01*
X64229139Y-71290047D01*
X64390047Y-71129139D01*
X64520568Y-70942734D01*
X64616739Y-70736496D01*
X64675635Y-70516692D01*
X64695468Y-70290000D01*
X64675635Y-70063308D01*
X64616739Y-69843504D01*
X64520568Y-69637266D01*
X64390047Y-69450861D01*
X64229139Y-69289953D01*
X64042734Y-69159432D01*
X63836496Y-69063261D01*
X63836492Y-69063259D01*
X63616692Y-69004364D01*
X63389999Y-68984531D01*
X63163307Y-69004364D01*
X62943507Y-69063259D01*
X62737262Y-69159434D01*
X62550864Y-69289950D01*
X62389950Y-69450864D01*
X62259434Y-69637262D01*
X62163259Y-69843507D01*
X62104364Y-70063307D01*
X62084531Y-70289999D01*
X58195468Y-70289999D01*
X58175635Y-70063308D01*
X58116739Y-69843504D01*
X58020568Y-69637266D01*
X57890047Y-69450861D01*
X57729139Y-69289953D01*
X57542734Y-69159432D01*
X57336496Y-69063261D01*
X57336492Y-69063259D01*
X57116692Y-69004364D01*
X56890000Y-68984531D01*
X56663307Y-69004364D01*
X56443507Y-69063259D01*
X56237262Y-69159434D01*
X56050864Y-69289950D01*
X55889950Y-69450864D01*
X55759434Y-69637262D01*
X55663259Y-69843507D01*
X55604364Y-70063307D01*
X55584531Y-70290000D01*
X26267076Y-70290000D01*
X26266159Y-67217798D01*
X28839500Y-67217798D01*
X28839501Y-67218036D01*
X28839522Y-67218274D01*
X28839523Y-67218292D01*
X28850114Y-67337419D01*
X28906090Y-67533049D01*
X29000300Y-67713405D01*
X29128890Y-67871109D01*
X29286594Y-67999699D01*
X29466950Y-68093909D01*
X29545363Y-68116345D01*
X29662582Y-68149886D01*
X29781963Y-68160500D01*
X31698036Y-68160499D01*
X31817418Y-68149886D01*
X32013049Y-68093909D01*
X32193407Y-67999698D01*
X32351109Y-67871109D01*
X32479698Y-67713407D01*
X32573909Y-67533049D01*
X32629886Y-67337418D01*
X32640500Y-67218037D01*
X32640499Y-66260000D01*
X36454645Y-66260000D01*
X36474039Y-66531164D01*
X36502926Y-66663954D01*
X36531825Y-66796801D01*
X36626828Y-67051513D01*
X36757113Y-67290113D01*
X36920029Y-67507742D01*
X37112258Y-67699971D01*
X37329887Y-67862887D01*
X37568487Y-67993172D01*
X37823199Y-68088175D01*
X38088840Y-68145961D01*
X38360000Y-68165355D01*
X38631160Y-68145961D01*
X38896801Y-68088175D01*
X39151513Y-67993172D01*
X39390113Y-67862887D01*
X39607742Y-67699971D01*
X39799971Y-67507742D01*
X39962887Y-67290113D01*
X40093172Y-67051513D01*
X40188175Y-66796801D01*
X40245961Y-66531160D01*
X40265355Y-66260000D01*
X44924417Y-66260000D01*
X44944700Y-66465934D01*
X45004768Y-66663954D01*
X45075776Y-66796801D01*
X45102315Y-66846450D01*
X45233590Y-67006410D01*
X45393550Y-67137685D01*
X45576046Y-67235232D01*
X45774066Y-67295300D01*
X45980000Y-67315583D01*
X46185934Y-67295300D01*
X46383954Y-67235232D01*
X46566450Y-67137685D01*
X46726410Y-67006410D01*
X46857685Y-66846450D01*
X46955232Y-66663954D01*
X47015300Y-66465934D01*
X47035583Y-66260000D01*
X47464417Y-66260000D01*
X47484700Y-66465934D01*
X47544768Y-66663954D01*
X47615776Y-66796801D01*
X47642315Y-66846450D01*
X47773590Y-67006410D01*
X47933550Y-67137685D01*
X48116046Y-67235232D01*
X48314066Y-67295300D01*
X48520000Y-67315583D01*
X48725934Y-67295300D01*
X48923954Y-67235232D01*
X49106450Y-67137685D01*
X49266410Y-67006410D01*
X49397685Y-66846450D01*
X49495232Y-66663954D01*
X49555300Y-66465934D01*
X49575583Y-66260000D01*
X49555300Y-66054066D01*
X49495232Y-65856046D01*
X49459929Y-65789999D01*
X55584531Y-65789999D01*
X55604364Y-66016692D01*
X55663259Y-66236492D01*
X55663261Y-66236496D01*
X55759432Y-66442734D01*
X55889953Y-66629139D01*
X56050861Y-66790047D01*
X56237266Y-66920568D01*
X56443504Y-67016739D01*
X56443506Y-67016739D01*
X56443507Y-67016740D01*
X56663307Y-67075635D01*
X56889999Y-67095468D01*
X56889999Y-67095467D01*
X56890000Y-67095468D01*
X57116692Y-67075635D01*
X57336496Y-67016739D01*
X57542734Y-66920568D01*
X57729139Y-66790047D01*
X57890047Y-66629139D01*
X58020568Y-66442734D01*
X58116739Y-66236496D01*
X58175635Y-66016692D01*
X58195468Y-65790000D01*
X62084531Y-65790000D01*
X62104364Y-66016692D01*
X62163259Y-66236492D01*
X62163261Y-66236496D01*
X62259432Y-66442734D01*
X62389953Y-66629139D01*
X62550861Y-66790047D01*
X62737266Y-66920568D01*
X62943504Y-67016739D01*
X62943506Y-67016739D01*
X62943507Y-67016740D01*
X63163307Y-67075635D01*
X63390000Y-67095468D01*
X63616692Y-67075635D01*
X63836496Y-67016739D01*
X64042734Y-66920568D01*
X64229139Y-66790047D01*
X64390047Y-66629139D01*
X64520568Y-66442734D01*
X64616739Y-66236496D01*
X64675635Y-66016692D01*
X64695468Y-65790000D01*
X64675635Y-65563308D01*
X64627138Y-65382315D01*
X64616740Y-65343507D01*
X64597489Y-65302223D01*
X64520568Y-65137266D01*
X64390047Y-64950861D01*
X64229139Y-64789953D01*
X64042734Y-64659432D01*
X63836496Y-64563261D01*
X63836492Y-64563259D01*
X63616692Y-64504364D01*
X63389999Y-64484531D01*
X63163307Y-64504364D01*
X62943507Y-64563259D01*
X62775033Y-64641820D01*
X62742244Y-64657111D01*
X62737262Y-64659434D01*
X62550864Y-64789950D01*
X62389950Y-64950864D01*
X62259434Y-65137262D01*
X62163259Y-65343507D01*
X62104364Y-65563307D01*
X62084531Y-65790000D01*
X58195468Y-65790000D01*
X58175635Y-65563308D01*
X58127138Y-65382315D01*
X58116740Y-65343507D01*
X58097489Y-65302223D01*
X58020568Y-65137266D01*
X57890047Y-64950861D01*
X57729139Y-64789953D01*
X57542734Y-64659432D01*
X57336496Y-64563261D01*
X57336492Y-64563259D01*
X57116692Y-64504364D01*
X56890000Y-64484531D01*
X56663307Y-64504364D01*
X56443507Y-64563259D01*
X56275033Y-64641820D01*
X56242244Y-64657111D01*
X56237262Y-64659434D01*
X56050864Y-64789950D01*
X55889950Y-64950864D01*
X55759434Y-65137262D01*
X55663259Y-65343507D01*
X55604364Y-65563307D01*
X55584531Y-65789999D01*
X49459929Y-65789999D01*
X49397685Y-65673550D01*
X49266410Y-65513590D01*
X49106450Y-65382315D01*
X49106449Y-65382314D01*
X48923954Y-65284768D01*
X48725934Y-65224700D01*
X48520000Y-65204417D01*
X48314065Y-65224700D01*
X48116045Y-65284768D01*
X47933550Y-65382314D01*
X47773590Y-65513590D01*
X47642314Y-65673550D01*
X47544768Y-65856045D01*
X47484700Y-66054065D01*
X47464417Y-66260000D01*
X47035583Y-66260000D01*
X47015300Y-66054066D01*
X46955232Y-65856046D01*
X46857685Y-65673550D01*
X46726410Y-65513590D01*
X46566450Y-65382315D01*
X46566449Y-65382314D01*
X46383954Y-65284768D01*
X46185934Y-65224700D01*
X46185933Y-65224699D01*
X45980000Y-65204417D01*
X45979999Y-65204417D01*
X45774065Y-65224700D01*
X45576045Y-65284768D01*
X45393550Y-65382314D01*
X45233590Y-65513590D01*
X45102314Y-65673550D01*
X45004768Y-65856045D01*
X44944700Y-66054065D01*
X44924417Y-66260000D01*
X40265355Y-66260000D01*
X40245961Y-65988840D01*
X40188175Y-65723199D01*
X40093172Y-65468487D01*
X39962887Y-65229887D01*
X39799971Y-65012258D01*
X39607742Y-64820029D01*
X39390113Y-64657113D01*
X39390111Y-64657112D01*
X39390110Y-64657111D01*
X39218235Y-64563261D01*
X39151513Y-64526828D01*
X38896801Y-64431825D01*
X38896797Y-64431824D01*
X38631164Y-64374039D01*
X38360000Y-64354645D01*
X38088835Y-64374039D01*
X37823202Y-64431824D01*
X37823199Y-64431824D01*
X37823199Y-64431825D01*
X37568487Y-64526828D01*
X37568484Y-64526829D01*
X37568483Y-64526830D01*
X37329889Y-64657111D01*
X37112260Y-64820027D01*
X36920027Y-65012260D01*
X36757111Y-65229889D01*
X36673881Y-65382315D01*
X36626828Y-65468487D01*
X36550343Y-65673550D01*
X36531824Y-65723202D01*
X36474039Y-65988835D01*
X36454645Y-66260000D01*
X32640499Y-66260000D01*
X32640499Y-65301964D01*
X32629886Y-65182582D01*
X32573909Y-64986951D01*
X32573909Y-64986950D01*
X32479699Y-64806594D01*
X32351109Y-64648890D01*
X32193405Y-64520300D01*
X32013049Y-64426090D01*
X31817419Y-64370114D01*
X31698293Y-64359522D01*
X31698276Y-64359521D01*
X31698037Y-64359500D01*
X31697777Y-64359500D01*
X29782223Y-64359500D01*
X29782200Y-64359500D01*
X29781964Y-64359501D01*
X29781726Y-64359522D01*
X29781707Y-64359523D01*
X29662580Y-64370114D01*
X29466950Y-64426090D01*
X29286594Y-64520300D01*
X29128890Y-64648890D01*
X29000300Y-64806594D01*
X28906090Y-64986950D01*
X28850114Y-65182580D01*
X28839522Y-65301706D01*
X28839521Y-65301724D01*
X28839500Y-65301963D01*
X28839500Y-65302221D01*
X28839500Y-65302222D01*
X28839500Y-67217776D01*
X28839500Y-67217798D01*
X26266159Y-67217798D01*
X26264297Y-60980000D01*
X61364417Y-60980000D01*
X61384700Y-61185934D01*
X61444768Y-61383954D01*
X61542315Y-61566450D01*
X61673590Y-61726410D01*
X61833550Y-61857685D01*
X62016046Y-61955232D01*
X62214066Y-62015300D01*
X62420000Y-62035583D01*
X62625934Y-62015300D01*
X62823954Y-61955232D01*
X63006450Y-61857685D01*
X63166410Y-61726410D01*
X63297685Y-61566450D01*
X63395232Y-61383954D01*
X63455300Y-61185934D01*
X63475583Y-60980000D01*
X63455300Y-60774066D01*
X63395232Y-60576046D01*
X63297685Y-60393550D01*
X63166410Y-60233590D01*
X63006450Y-60102315D01*
X63006449Y-60102314D01*
X62823954Y-60004768D01*
X62625934Y-59944700D01*
X62420000Y-59924417D01*
X62214065Y-59944700D01*
X62016045Y-60004768D01*
X61833550Y-60102314D01*
X61673590Y-60233590D01*
X61542314Y-60393550D01*
X61444768Y-60576045D01*
X61444768Y-60576046D01*
X61384700Y-60774066D01*
X61364417Y-60980000D01*
X26264297Y-60980000D01*
X26262744Y-55779999D01*
X31264592Y-55779999D01*
X31284198Y-56041628D01*
X31342580Y-56297419D01*
X31438432Y-56541643D01*
X31569614Y-56768857D01*
X31733195Y-56973981D01*
X31925521Y-57152433D01*
X32142296Y-57300228D01*
X32378677Y-57414063D01*
X32629385Y-57491396D01*
X32888818Y-57530500D01*
X32888821Y-57530500D01*
X33151179Y-57530500D01*
X33151182Y-57530500D01*
X33410615Y-57491396D01*
X33661323Y-57414063D01*
X33897704Y-57300228D01*
X34114479Y-57152433D01*
X34306805Y-56973981D01*
X34470386Y-56768857D01*
X34601568Y-56541643D01*
X34697420Y-56297416D01*
X34755802Y-56041630D01*
X34775408Y-55780000D01*
X34755802Y-55518370D01*
X34697420Y-55262584D01*
X34697419Y-55262583D01*
X34697419Y-55262580D01*
X34651025Y-55144372D01*
X34601568Y-55018357D01*
X34470386Y-54791143D01*
X34306805Y-54586019D01*
X34114479Y-54407567D01*
X33897704Y-54259772D01*
X33897705Y-54259772D01*
X33897703Y-54259771D01*
X33775156Y-54200756D01*
X33661323Y-54145937D01*
X33577753Y-54120159D01*
X33410617Y-54068604D01*
X33306841Y-54052962D01*
X33151182Y-54029500D01*
X32888818Y-54029500D01*
X32759101Y-54049052D01*
X32629382Y-54068604D01*
X32378677Y-54145937D01*
X32142296Y-54259771D01*
X31925520Y-54407568D01*
X31733194Y-54586019D01*
X31569613Y-54791143D01*
X31438432Y-55018356D01*
X31342580Y-55262580D01*
X31284198Y-55518371D01*
X31264592Y-55779999D01*
X26262744Y-55779999D01*
X26261460Y-51480000D01*
X26899780Y-51480000D01*
X26918615Y-51671231D01*
X26974395Y-51855114D01*
X27064977Y-52024581D01*
X27186880Y-52173120D01*
X27335419Y-52295023D01*
X27504886Y-52385605D01*
X27688769Y-52441385D01*
X27880000Y-52460220D01*
X28071231Y-52441385D01*
X28255114Y-52385605D01*
X28424581Y-52295023D01*
X28573120Y-52173120D01*
X28695023Y-52024581D01*
X28785605Y-51855114D01*
X28841385Y-51671231D01*
X28860220Y-51480000D01*
X28841385Y-51288769D01*
X28785605Y-51104886D01*
X28695023Y-50935419D01*
X28573120Y-50786880D01*
X28564735Y-50779999D01*
X31264592Y-50779999D01*
X31284198Y-51041628D01*
X31342580Y-51297419D01*
X31438432Y-51541643D01*
X31569613Y-51768856D01*
X31728385Y-51967949D01*
X31733195Y-51973981D01*
X31925521Y-52152433D01*
X32142296Y-52300228D01*
X32378677Y-52414063D01*
X32629385Y-52491396D01*
X32888818Y-52530500D01*
X32888821Y-52530500D01*
X33151179Y-52530500D01*
X33151182Y-52530500D01*
X33410615Y-52491396D01*
X33661323Y-52414063D01*
X33897704Y-52300228D01*
X34114479Y-52152433D01*
X34306805Y-51973981D01*
X34470386Y-51768857D01*
X34601568Y-51541643D01*
X34682976Y-51334218D01*
X34697419Y-51297419D01*
X34697420Y-51297416D01*
X34755802Y-51041630D01*
X34775408Y-50780000D01*
X34755802Y-50518370D01*
X34697420Y-50262584D01*
X34697419Y-50262583D01*
X34697419Y-50262580D01*
X34651025Y-50144372D01*
X34601568Y-50018357D01*
X34470386Y-49791143D01*
X34306805Y-49586019D01*
X34114479Y-49407567D01*
X33897704Y-49259772D01*
X33897705Y-49259772D01*
X33897703Y-49259771D01*
X33775156Y-49200756D01*
X33661323Y-49145937D01*
X33528239Y-49104886D01*
X33410617Y-49068604D01*
X33306841Y-49052962D01*
X33151182Y-49029500D01*
X32888818Y-49029500D01*
X32759101Y-49049052D01*
X32629382Y-49068604D01*
X32378677Y-49145937D01*
X32142296Y-49259771D01*
X31925520Y-49407568D01*
X31733194Y-49586019D01*
X31569613Y-49791143D01*
X31438432Y-50018356D01*
X31342580Y-50262580D01*
X31284198Y-50518371D01*
X31264592Y-50779999D01*
X28564735Y-50779999D01*
X28424581Y-50664977D01*
X28255114Y-50574395D01*
X28071231Y-50518615D01*
X27880000Y-50499780D01*
X27879999Y-50499780D01*
X27688768Y-50518615D01*
X27504885Y-50574395D01*
X27335422Y-50664975D01*
X27335420Y-50664976D01*
X27335419Y-50664977D01*
X27208058Y-50769500D01*
X27186880Y-50786880D01*
X27064975Y-50935422D01*
X26974395Y-51104885D01*
X26918615Y-51288768D01*
X26900765Y-51469999D01*
X26899780Y-51480000D01*
X26261460Y-51480000D01*
X26260003Y-46601649D01*
X26263369Y-46593519D01*
X26271500Y-46590148D01*
X26271518Y-46590148D01*
X27402447Y-46604691D01*
G37*
%TD.AperFunction*%
M02*
