M48
; DRILL file {KiCad 7.0.2} date Sat 06 May 2023 05:38:51 PM -03
; FORMAT={-:-/ absolute / metric / decimal}
; #@! TF.CreationDate,2023-05-06T17:38:51-03:00
; #@! TF.GenerationSoftware,Kicad,Pcbnew,7.0.2
; #@! TF.FileFunction,Plated,1,2,PTH
FMAT,2
METRIC
; #@! TA.AperFunction,Plated,PTH,ViaDrill
T1C0.600
; #@! TA.AperFunction,Plated,PTH,ComponentDrill
T2C1.000
; #@! TA.AperFunction,Plated,PTH,ComponentDrill
T3C1.200
; #@! TA.AperFunction,Plated,PTH,ComponentDrill
T4C1.400
%
G90
G05
T1
X33.04Y-29.13
X51.21Y-51.47
X57.94Y-44.99
X60.31Y-29.61
T2
X27.78Y-40.97
X27.78Y-43.51
X27.78Y-46.05
X27.78Y-48.59
X27.78Y-51.13
X27.78Y-53.67
X33.02Y-50.38
X33.02Y-55.38
X56.97Y-30.52
X56.97Y-33.06
X56.97Y-35.6
X56.97Y-38.14
X56.97Y-40.68
X61.04Y-67.61
X62.42Y-45.18
X62.42Y-60.58
X63.58Y-67.61
T3
X45.8Y-67.61
X50.88Y-67.61
T4
X29.87Y-31.07
X29.87Y-36.07
X39.36Y-73.77
X44.36Y-73.77
X51.39Y-73.77
X56.39Y-73.77
T0
M30
