%TF.GenerationSoftware,KiCad,Pcbnew,7.0.2*%
%TF.CreationDate,2023-05-06T17:38:48-03:00*%
%TF.ProjectId,PowerAndCommModule,506f7765-7241-46e6-9443-6f6d6d4d6f64,rev?*%
%TF.SameCoordinates,Original*%
%TF.FileFunction,Copper,L2,Bot*%
%TF.FilePolarity,Positive*%
%FSLAX46Y46*%
G04 Gerber Fmt 4.6, Leading zero omitted, Abs format (unit mm)*
G04 Created by KiCad (PCBNEW 7.0.2) date 2023-05-06 17:38:48*
%MOMM*%
%LPD*%
G01*
G04 APERTURE LIST*
G04 Aperture macros list*
%AMRoundRect*
0 Rectangle with rounded corners*
0 $1 Rounding radius*
0 $2 $3 $4 $5 $6 $7 $8 $9 X,Y pos of 4 corners*
0 Add a 4 corners polygon primitive as box body*
4,1,4,$2,$3,$4,$5,$6,$7,$8,$9,$2,$3,0*
0 Add four circle primitives for the rounded corners*
1,1,$1+$1,$2,$3*
1,1,$1+$1,$4,$5*
1,1,$1+$1,$6,$7*
1,1,$1+$1,$8,$9*
0 Add four rect primitives between the rounded corners*
20,1,$1+$1,$2,$3,$4,$5,0*
20,1,$1+$1,$4,$5,$6,$7,0*
20,1,$1+$1,$6,$7,$8,$9,0*
20,1,$1+$1,$8,$9,$2,$3,0*%
G04 Aperture macros list end*
%TA.AperFunction,ComponentPad*%
%ADD10O,1.700000X1.700000*%
%TD*%
%TA.AperFunction,ComponentPad*%
%ADD11R,1.700000X1.700000*%
%TD*%
%TA.AperFunction,SMDPad,CuDef*%
%ADD12R,1.500000X1.500000*%
%TD*%
%TA.AperFunction,SMDPad,CuDef*%
%ADD13RoundRect,0.250001X0.924999X-0.499999X0.924999X0.499999X-0.924999X0.499999X-0.924999X-0.499999X0*%
%TD*%
%TA.AperFunction,ComponentPad*%
%ADD14C,2.000000*%
%TD*%
%TA.AperFunction,ComponentPad*%
%ADD15C,1.500000*%
%TD*%
%TA.AperFunction,ComponentPad*%
%ADD16C,1.800000*%
%TD*%
%TA.AperFunction,ComponentPad*%
%ADD17C,2.100000*%
%TD*%
%TA.AperFunction,SMDPad,CuDef*%
%ADD18RoundRect,0.150000X-0.587500X-0.150000X0.587500X-0.150000X0.587500X0.150000X-0.587500X0.150000X0*%
%TD*%
%TA.AperFunction,SMDPad,CuDef*%
%ADD19RoundRect,0.250000X0.450000X-0.262500X0.450000X0.262500X-0.450000X0.262500X-0.450000X-0.262500X0*%
%TD*%
%TA.AperFunction,SMDPad,CuDef*%
%ADD20RoundRect,0.250000X-0.262500X-0.450000X0.262500X-0.450000X0.262500X0.450000X-0.262500X0.450000X0*%
%TD*%
%TA.AperFunction,SMDPad,CuDef*%
%ADD21R,2.000000X1.500000*%
%TD*%
%TA.AperFunction,SMDPad,CuDef*%
%ADD22R,2.000000X3.800000*%
%TD*%
%TA.AperFunction,SMDPad,CuDef*%
%ADD23RoundRect,0.250000X-0.475000X0.250000X-0.475000X-0.250000X0.475000X-0.250000X0.475000X0.250000X0*%
%TD*%
%TA.AperFunction,SMDPad,CuDef*%
%ADD24RoundRect,0.250000X-0.250000X-0.475000X0.250000X-0.475000X0.250000X0.475000X-0.250000X0.475000X0*%
%TD*%
%TA.AperFunction,SMDPad,CuDef*%
%ADD25R,1.500000X0.900000*%
%TD*%
%TA.AperFunction,SMDPad,CuDef*%
%ADD26R,0.900000X1.500000*%
%TD*%
%TA.AperFunction,SMDPad,CuDef*%
%ADD27R,4.500000X4.500000*%
%TD*%
%TA.AperFunction,ViaPad*%
%ADD28C,1.200000*%
%TD*%
%TA.AperFunction,Conductor*%
%ADD29C,0.400000*%
%TD*%
%TA.AperFunction,Conductor*%
%ADD30C,0.800000*%
%TD*%
%TA.AperFunction,Conductor*%
%ADD31C,4.000000*%
%TD*%
G04 APERTURE END LIST*
D10*
%TO.P,J2,6,Pin_6*%
%TO.N,GND*%
X27780000Y-53670000D03*
%TO.P,J2,5,Pin_5*%
%TO.N,+3V3*%
X27780000Y-51130000D03*
%TO.P,J2,4,Pin_4*%
%TO.N,/EN*%
X27780000Y-48590000D03*
%TO.P,J2,3,Pin_3*%
%TO.N,/DTR*%
X27780000Y-46050000D03*
%TO.P,J2,2,Pin_2*%
%TO.N,/TXD*%
X27780000Y-43510000D03*
D11*
%TO.P,J2,1,Pin_1*%
%TO.N,/RXD*%
X27780000Y-40970000D03*
%TD*%
D12*
%TO.P,SW1,1*%
%TO.N,Net-(U2-IO22)*%
X31770000Y-38720000D03*
%TO.P,SW1,2*%
%TO.N,GND*%
X31770000Y-46520000D03*
%TD*%
D13*
%TO.P,C1,1*%
%TO.N,+3V3*%
X61410000Y-55275000D03*
%TO.P,C1,2*%
%TO.N,GND*%
X61410000Y-52025000D03*
%TD*%
D14*
%TO.P,PS1,4,+Vout*%
%TO.N,+5V*%
X62420000Y-60580000D03*
%TO.P,PS1,3,-Vout*%
%TO.N,GND*%
X62420000Y-45180000D03*
%TO.P,PS1,2,AC/N*%
%TO.N,NEUT*%
X33020000Y-55380000D03*
%TO.P,PS1,1,AC/L*%
%TO.N,LINE*%
X33020000Y-50380000D03*
%TD*%
D15*
%TO.P,K1,4,COIL_2*%
%TO.N,Net-(K1-COIL_2)*%
X63580000Y-67610000D03*
%TO.P,K1,3,COIL_1*%
%TO.N,GND*%
X61040000Y-67610000D03*
D16*
%TO.P,K1,2,NO*%
%TO.N,LINE*%
X50880000Y-67610000D03*
%TO.P,K1,1,COM*%
%TO.N,/LINE_NO*%
X45800000Y-67610000D03*
%TD*%
D17*
%TO.P,J5,2,Pin_2*%
%TO.N,NEUT*%
X44360000Y-73770000D03*
%TO.P,J5,1,Pin_1*%
%TO.N,/LINE_NO*%
X39360000Y-73770000D03*
%TD*%
D11*
%TO.P,J4,1,Pin_1*%
%TO.N,+5V*%
X56970000Y-40680000D03*
D10*
%TO.P,J4,2,Pin_2*%
%TO.N,/SCL*%
X56970000Y-38140000D03*
%TO.P,J4,3,Pin_3*%
%TO.N,/SDA*%
X56970000Y-35600000D03*
%TO.P,J4,4,Pin_4*%
%TO.N,+3V3*%
X56970000Y-33060000D03*
%TO.P,J4,5,Pin_5*%
%TO.N,GND*%
X56970000Y-30520000D03*
%TD*%
D17*
%TO.P,J1,2,Pin_2*%
%TO.N,LINE*%
X56390000Y-73770000D03*
%TO.P,J1,1,Pin_1*%
%TO.N,NEUT*%
X51390000Y-73770000D03*
%TD*%
%TO.P,J3,2,Pin_2*%
%TO.N,GND*%
X29870000Y-36070000D03*
%TO.P,J3,1,Pin_1*%
%TO.N,Net-(J3-Pin_1)*%
X29870000Y-31070000D03*
%TD*%
D18*
%TO.P,Q1,3,C*%
%TO.N,+5V*%
X56015000Y-60590000D03*
%TO.P,Q1,2,B*%
%TO.N,Net-(Q1-B)*%
X54140000Y-59640000D03*
%TO.P,Q1,1,E*%
%TO.N,Net-(K1-COIL_2)*%
X54140000Y-61540000D03*
%TD*%
D19*
%TO.P,R2,2*%
%TO.N,Net-(Q1-B)*%
X51550000Y-59717500D03*
%TO.P,R2,1*%
%TO.N,Net-(U2-IO19)*%
X51550000Y-61542500D03*
%TD*%
D20*
%TO.P,R3,1*%
%TO.N,/SCL*%
X60147500Y-38180000D03*
%TO.P,R3,2*%
%TO.N,+3V3*%
X61972500Y-38180000D03*
%TD*%
D21*
%TO.P,U1,3,VI*%
%TO.N,+5V*%
X58020000Y-57100000D03*
D22*
%TO.P,U1,2,VO*%
%TO.N,+3V3*%
X51720000Y-54800000D03*
D21*
X58020000Y-54800000D03*
%TO.P,U1,1,GND*%
%TO.N,GND*%
X58020000Y-52500000D03*
%TD*%
D23*
%TO.P,C3,1*%
%TO.N,/EN*%
X60750000Y-31400000D03*
%TO.P,C3,2*%
%TO.N,GND*%
X60750000Y-33300000D03*
%TD*%
D19*
%TO.P,R1,1*%
%TO.N,+3V3*%
X63180000Y-33252500D03*
%TO.P,R1,2*%
%TO.N,/EN*%
X63180000Y-31427500D03*
%TD*%
D24*
%TO.P,C2,1*%
%TO.N,+3V3*%
X58310000Y-49330000D03*
%TO.P,C2,2*%
%TO.N,GND*%
X60210000Y-49330000D03*
%TD*%
D20*
%TO.P,R4,1*%
%TO.N,/SDA*%
X60087500Y-35630000D03*
%TO.P,R4,2*%
%TO.N,+3V3*%
X61912500Y-35630000D03*
%TD*%
D25*
%TO.P,U2,1,GND_1*%
%TO.N,GND*%
X53640000Y-29680000D03*
%TO.P,U2,2,3V3*%
%TO.N,+3V3*%
X53640000Y-30950000D03*
%TO.P,U2,3,EN*%
%TO.N,/EN*%
X53640000Y-32220000D03*
%TO.P,U2,4,SENSOR_VP*%
%TO.N,unconnected-(U2-SENSOR_VP-Pad4)*%
X53640000Y-33490000D03*
%TO.P,U2,5,SENSOR_VN*%
%TO.N,unconnected-(U2-SENSOR_VN-Pad5)*%
X53640000Y-34760000D03*
%TO.P,U2,6,IO34*%
%TO.N,unconnected-(U2-IO34-Pad6)*%
X53640000Y-36030000D03*
%TO.P,U2,7,IO35*%
%TO.N,unconnected-(U2-IO35-Pad7)*%
X53640000Y-37300000D03*
%TO.P,U2,8,IO32*%
%TO.N,/SDA*%
X53640000Y-38570000D03*
%TO.P,U2,9,IO33*%
%TO.N,/SCL*%
X53640000Y-39840000D03*
%TO.P,U2,10,IO25*%
%TO.N,unconnected-(U2-IO25-Pad10)*%
X53640000Y-41110000D03*
%TO.P,U2,11,IO26*%
%TO.N,unconnected-(U2-IO26-Pad11)*%
X53640000Y-42380000D03*
%TO.P,U2,12,IO27*%
%TO.N,unconnected-(U2-IO27-Pad12)*%
X53640000Y-43650000D03*
%TO.P,U2,13,IO14*%
%TO.N,unconnected-(U2-IO14-Pad13)*%
X53640000Y-44920000D03*
%TO.P,U2,14,IO12*%
%TO.N,unconnected-(U2-IO12-Pad14)*%
X53640000Y-46190000D03*
D26*
%TO.P,U2,15,GND_2*%
%TO.N,GND*%
X50450000Y-47690000D03*
%TO.P,U2,16,IO13*%
%TO.N,unconnected-(U2-IO13-Pad16)*%
X49180000Y-47690000D03*
%TO.P,U2,17,SHD/SD2*%
%TO.N,unconnected-(U2-SHD{slash}SD2-Pad17)*%
X47910000Y-47690000D03*
%TO.P,U2,18,SHD/SD3*%
%TO.N,unconnected-(U2-SHD{slash}SD3-Pad18)*%
X46640000Y-47690000D03*
%TO.P,U2,19,SCS/CMD*%
%TO.N,unconnected-(U2-SCS{slash}CMD-Pad19)*%
X45370000Y-47690000D03*
%TO.P,U2,20,SCK/CLK*%
%TO.N,unconnected-(U2-SCK{slash}CLK-Pad20)*%
X44100000Y-47690000D03*
%TO.P,U2,21,SDO/SD0*%
%TO.N,unconnected-(U2-SDO{slash}SD0-Pad21)*%
X42830000Y-47690000D03*
%TO.P,U2,22,SDI/SD1*%
%TO.N,unconnected-(U2-SDI{slash}SD1-Pad22)*%
X41560000Y-47690000D03*
%TO.P,U2,23,IO15*%
%TO.N,unconnected-(U2-IO15-Pad23)*%
X40290000Y-47690000D03*
%TO.P,U2,24,IO2*%
%TO.N,unconnected-(U2-IO2-Pad24)*%
X39020000Y-47690000D03*
D25*
%TO.P,U2,25,IO0*%
%TO.N,/DTR*%
X35840000Y-46190000D03*
%TO.P,U2,26,IO4*%
%TO.N,unconnected-(U2-IO4-Pad26)*%
X35840000Y-44920000D03*
%TO.P,U2,27,IO16*%
%TO.N,unconnected-(U2-IO16-Pad27)*%
X35840000Y-43650000D03*
%TO.P,U2,28,IO17*%
%TO.N,unconnected-(U2-IO17-Pad28)*%
X35840000Y-42380000D03*
%TO.P,U2,29,IO5*%
%TO.N,unconnected-(U2-IO5-Pad29)*%
X35840000Y-41110000D03*
%TO.P,U2,30,IO18*%
%TO.N,unconnected-(U2-IO18-Pad30)*%
X35840000Y-39840000D03*
%TO.P,U2,31,IO19*%
%TO.N,Net-(U2-IO19)*%
X35840000Y-38570000D03*
%TO.P,U2,32,NC*%
%TO.N,unconnected-(U2-NC-Pad32)*%
X35840000Y-37300000D03*
%TO.P,U2,33,IO21*%
%TO.N,unconnected-(U2-IO21-Pad33)*%
X35840000Y-36030000D03*
%TO.P,U2,34,RXD0*%
%TO.N,/TXD*%
X35840000Y-34760000D03*
%TO.P,U2,35,TXDO*%
%TO.N,/RXD*%
X35840000Y-33490000D03*
%TO.P,U2,36,IO22*%
%TO.N,Net-(U2-IO22)*%
X35840000Y-32220000D03*
%TO.P,U2,37,IO23*%
%TO.N,Net-(J3-Pin_1)*%
X35840000Y-30950000D03*
%TO.P,U2,38,GND_3*%
%TO.N,GND*%
X35840000Y-29680000D03*
D27*
%TO.P,U2,39,EP*%
X45420000Y-37020000D03*
%TD*%
D28*
%TO.N,GND*%
X33040000Y-29130000D03*
X57940000Y-44990000D03*
%TO.N,/EN*%
X60310000Y-29610000D03*
%TO.N,+3V3*%
X51210000Y-51470000D03*
%TD*%
D29*
%TO.N,/EN*%
X60750000Y-31400000D02*
X63152500Y-31400000D01*
X63152500Y-31400000D02*
X63180000Y-31427500D01*
X60310000Y-29610000D02*
X62160000Y-29610000D01*
X62160000Y-29610000D02*
X63180000Y-30630000D01*
X53640000Y-32220000D02*
X55080000Y-32220000D01*
X55080000Y-32220000D02*
X55620000Y-31680000D01*
X55620000Y-29960811D02*
X56410811Y-29170000D01*
X55620000Y-31680000D02*
X55620000Y-29960811D01*
X56410811Y-29170000D02*
X59870000Y-29170000D01*
X59870000Y-29170000D02*
X60310000Y-29610000D01*
%TO.N,Net-(Q1-B)*%
X51550000Y-59717500D02*
X54062500Y-59717500D01*
X54062500Y-59717500D02*
X54140000Y-59640000D01*
D30*
%TO.N,LINE*%
X33020000Y-50380000D02*
X33650000Y-50380000D01*
X33650000Y-50380000D02*
X50880000Y-67610000D01*
%TO.N,NEUT*%
X33020000Y-55380000D02*
X33020000Y-72238326D01*
X33020000Y-72238326D02*
X37951674Y-77170000D01*
X37951674Y-77170000D02*
X40960000Y-77170000D01*
X40960000Y-77170000D02*
X44360000Y-73770000D01*
D31*
%TO.N,/LINE_NO*%
X45800000Y-67610000D02*
X43448932Y-67610000D01*
X43448932Y-67610000D02*
X39360000Y-71698932D01*
X39360000Y-71698932D02*
X39360000Y-73770000D01*
%TO.N,LINE*%
X56390000Y-73770000D02*
X56390000Y-71698932D01*
X56390000Y-71698932D02*
X52301068Y-67610000D01*
X52301068Y-67610000D02*
X50880000Y-67610000D01*
%TO.N,NEUT*%
X51390000Y-73770000D02*
X44360000Y-73770000D01*
D30*
%TO.N,LINE*%
X50880000Y-67610000D02*
X50880000Y-66337208D01*
D29*
%TO.N,Net-(K1-COIL_2)*%
X54140000Y-61540000D02*
X54140000Y-62090000D01*
X54140000Y-62090000D02*
X54710000Y-62660000D01*
X61190000Y-62660000D02*
X63580000Y-65050000D01*
X54710000Y-62660000D02*
X61190000Y-62660000D01*
X63580000Y-65050000D02*
X63580000Y-67610000D01*
%TO.N,/RXD*%
X34330000Y-33490000D02*
X35840000Y-33490000D01*
%TO.N,Net-(J3-Pin_1)*%
X29870000Y-31070000D02*
X35720000Y-31070000D01*
X35720000Y-31070000D02*
X35840000Y-30950000D01*
%TO.N,/SDA*%
X56970000Y-35600000D02*
X55340000Y-37230000D01*
X54570000Y-38570000D02*
X53640000Y-38570000D01*
X55340000Y-37230000D02*
X55340000Y-37800000D01*
X55340000Y-37800000D02*
X54570000Y-38570000D01*
%TO.N,/DTR*%
X29280000Y-44550000D02*
X32790000Y-44550000D01*
X27780000Y-46050000D02*
X29280000Y-44550000D01*
X32790000Y-44550000D02*
X34430000Y-46190000D01*
X34430000Y-46190000D02*
X35840000Y-46190000D01*
%TO.N,/TXD*%
X34150000Y-39829949D02*
X34150000Y-35570000D01*
X30469950Y-43510000D02*
X34150000Y-39829949D01*
X27780000Y-43510000D02*
X30469950Y-43510000D01*
X34150000Y-35570000D02*
X34960000Y-34760000D01*
X34960000Y-34760000D02*
X35840000Y-34760000D01*
%TO.N,/RXD*%
X33450000Y-39540000D02*
X33450000Y-34370000D01*
X32020000Y-40970000D02*
X33450000Y-39540000D01*
X33450000Y-34370000D02*
X34330000Y-33490000D01*
X27780000Y-40970000D02*
X32020000Y-40970000D01*
%TO.N,Net-(U2-IO22)*%
X31770000Y-38720000D02*
X31770000Y-37370000D01*
X31770000Y-37370000D02*
X32720000Y-36420000D01*
X32720000Y-36420000D02*
X32720000Y-33490000D01*
X32720000Y-33490000D02*
X33990000Y-32220000D01*
X33990000Y-32220000D02*
X35840000Y-32220000D01*
%TO.N,+5V*%
X56015000Y-60590000D02*
X57570000Y-60590000D01*
X57570000Y-60590000D02*
X58020000Y-60140000D01*
%TO.N,Net-(U2-IO19)*%
X35840000Y-38570000D02*
X36770000Y-38570000D01*
X36770000Y-38570000D02*
X37460000Y-39260000D01*
X37460000Y-39260000D02*
X37460000Y-49180000D01*
X37460000Y-49180000D02*
X49822500Y-61542500D01*
X49822500Y-61542500D02*
X51550000Y-61542500D01*
%TO.N,/SCL*%
X53640000Y-39840000D02*
X55270000Y-39840000D01*
X55270000Y-39840000D02*
X56970000Y-38140000D01*
%TO.N,/EN*%
X63180000Y-31427500D02*
X63180000Y-30630000D01*
%TO.N,+3V3*%
X61912500Y-35630000D02*
X63850000Y-35630000D01*
X63180000Y-34960000D02*
X63850000Y-35630000D01*
X63850000Y-35630000D02*
X64560000Y-35630000D01*
X63180000Y-33252500D02*
X63180000Y-34960000D01*
X65010000Y-30350000D02*
X65010000Y-35180000D01*
X65010000Y-35180000D02*
X65010000Y-37370000D01*
X64560000Y-35630000D02*
X65010000Y-35180000D01*
X53640000Y-30950000D02*
X54790000Y-30950000D01*
X54790000Y-30950000D02*
X54890000Y-30850000D01*
X54890000Y-30850000D02*
X54890000Y-29700861D01*
X54890000Y-29700861D02*
X56120861Y-28470000D01*
X65010000Y-37370000D02*
X64200000Y-38180000D01*
X56120861Y-28470000D02*
X63130000Y-28470000D01*
X63130000Y-28470000D02*
X65010000Y-30350000D01*
X64200000Y-38180000D02*
X61972500Y-38180000D01*
X61972500Y-35690000D02*
X61912500Y-35630000D01*
%TO.N,/SDA*%
X60087500Y-35630000D02*
X57000000Y-35630000D01*
X57000000Y-35630000D02*
X56970000Y-35600000D01*
X56970000Y-35600000D02*
X56970000Y-36170000D01*
%TO.N,/SCL*%
X60147500Y-38180000D02*
X57010000Y-38180000D01*
X57010000Y-38180000D02*
X56970000Y-38140000D01*
%TO.N,+5V*%
X62420000Y-60580000D02*
X64430000Y-58570000D01*
X64430000Y-58570000D02*
X64430000Y-43600000D01*
X64430000Y-43600000D02*
X61510000Y-40680000D01*
X61510000Y-40680000D02*
X56970000Y-40680000D01*
%TO.N,+3V3*%
X58310000Y-49330000D02*
X56910000Y-49330000D01*
X56910000Y-49330000D02*
X54435000Y-51805000D01*
X55410000Y-54800000D02*
X56150000Y-54800000D01*
X55210000Y-54800000D02*
X55410000Y-54800000D01*
X54435000Y-53825000D02*
X54435000Y-51805000D01*
X51910000Y-49280000D02*
X54435000Y-51805000D01*
X55410000Y-54800000D02*
X54435000Y-53825000D01*
X56150000Y-54800000D02*
X58020000Y-54800000D01*
X51910000Y-46640000D02*
X51910000Y-49280000D01*
X54220000Y-31060000D02*
X51440000Y-31060000D01*
X50700000Y-45430000D02*
X51910000Y-46640000D01*
X51440000Y-31060000D02*
X50700000Y-31800000D01*
X50700000Y-31800000D02*
X50700000Y-45430000D01*
X61972500Y-36080000D02*
X62002500Y-36050000D01*
%TO.N,+5V*%
X56800000Y-40710000D02*
X56800000Y-40490000D01*
X59830000Y-60980000D02*
X59870000Y-60980000D01*
%TO.N,GND*%
X61410000Y-52212500D02*
X61410000Y-51820000D01*
X58020000Y-52500000D02*
X58040000Y-52500000D01*
%TO.N,+5V*%
X58020000Y-60140000D02*
X58860000Y-60980000D01*
X62420000Y-60980000D02*
X59830000Y-60980000D01*
X58860000Y-60980000D02*
X59830000Y-60980000D01*
X58020000Y-57100000D02*
X58020000Y-60140000D01*
%TO.N,/RXD*%
X27880000Y-41210000D02*
X27880000Y-41480000D01*
%TO.N,Net-(J3-Pin_1)*%
X30380000Y-31060000D02*
X30160000Y-31280000D01*
%TO.N,+3V3*%
X51720000Y-54800000D02*
X51720000Y-51940000D01*
X51210000Y-51470000D02*
X51210000Y-51430000D01*
X51210000Y-51430000D02*
X51210000Y-51430000D01*
X51250000Y-51470000D02*
X51210000Y-51470000D01*
X51720000Y-54800000D02*
X55210000Y-54800000D01*
X58307500Y-55087500D02*
X58020000Y-54800000D01*
X51720000Y-51940000D02*
X51250000Y-51470000D01*
X61410000Y-55087500D02*
X58307500Y-55087500D01*
%TD*%
%TA.AperFunction,NonConductor*%
G36*
X48422189Y-69341252D02*
G01*
X48443597Y-69365959D01*
X48469151Y-69404811D01*
X48471465Y-69407569D01*
X48471466Y-69407570D01*
X48691498Y-69669795D01*
X48691503Y-69669800D01*
X48693817Y-69672558D01*
X48948047Y-69912412D01*
X48950931Y-69914559D01*
X48950937Y-69914564D01*
X49122335Y-70042164D01*
X49228404Y-70121130D01*
X49231531Y-70122935D01*
X49231535Y-70122938D01*
X49411682Y-70226945D01*
X49531096Y-70295889D01*
X49852029Y-70434326D01*
X50160610Y-70526709D01*
X50219187Y-70564794D01*
X50247875Y-70628502D01*
X50237566Y-70697607D01*
X50191533Y-70750169D01*
X50125046Y-70769500D01*
X46554954Y-70769500D01*
X46487915Y-70749815D01*
X46442160Y-70697011D01*
X46432216Y-70627853D01*
X46461241Y-70564297D01*
X46519390Y-70526709D01*
X46827971Y-70434326D01*
X47148904Y-70295889D01*
X47451596Y-70121130D01*
X47731953Y-69912412D01*
X47986183Y-69672558D01*
X48210849Y-69404811D01*
X48236400Y-69365961D01*
X48289684Y-69320768D01*
X48358943Y-69311557D01*
X48422189Y-69341252D01*
G37*
%TD.AperFunction*%
%TA.AperFunction,NonConductor*%
G36*
X43331346Y-57737119D02*
G01*
X43356594Y-57755363D01*
X44322809Y-58658525D01*
X45745693Y-59988554D01*
X46287496Y-60495000D01*
X46704076Y-60884395D01*
X47305846Y-61446895D01*
X47409013Y-61543330D01*
X48501363Y-62564395D01*
X48608992Y-62665000D01*
X50161608Y-64116296D01*
X50163435Y-64117906D01*
X50191550Y-64142169D01*
X50191576Y-64142184D01*
X50191577Y-64142185D01*
X50315680Y-64214986D01*
X50323261Y-64218082D01*
X50323316Y-64218102D01*
X50325534Y-64218933D01*
X50360495Y-64231615D01*
X50360521Y-64231619D01*
X50360526Y-64231621D01*
X50502418Y-64255461D01*
X53628395Y-64329449D01*
X53694950Y-64350714D01*
X53712575Y-64365169D01*
X54258618Y-64904210D01*
X54307785Y-64952747D01*
X56999548Y-67609999D01*
X57363961Y-67969740D01*
X60514192Y-71079584D01*
X60528657Y-71096712D01*
X65167968Y-77724297D01*
X65175034Y-77734391D01*
X65197352Y-77800600D01*
X65180332Y-77868365D01*
X65129378Y-77916171D01*
X65073449Y-77929500D01*
X42480468Y-77929500D01*
X42413429Y-77909815D01*
X42367674Y-77857011D01*
X42357730Y-77787853D01*
X42386755Y-77724297D01*
X42392787Y-77717819D01*
X42532666Y-77577938D01*
X43421491Y-76689113D01*
X43482812Y-76655630D01*
X43544733Y-76658004D01*
X43666864Y-76694569D01*
X44011073Y-76755262D01*
X44272695Y-76770500D01*
X44274485Y-76770500D01*
X51475515Y-76770500D01*
X51477305Y-76770500D01*
X51738927Y-76755262D01*
X52083136Y-76694569D01*
X52417971Y-76594326D01*
X52738904Y-76455889D01*
X53041596Y-76281130D01*
X53321953Y-76072412D01*
X53576183Y-75832558D01*
X53797881Y-75568347D01*
X53856053Y-75529645D01*
X53925913Y-75528536D01*
X53985284Y-75565373D01*
X53992334Y-75574005D01*
X54085435Y-75699062D01*
X54085441Y-75699069D01*
X54087588Y-75701953D01*
X54327442Y-75956183D01*
X54330200Y-75958497D01*
X54330204Y-75958501D01*
X54468523Y-76074564D01*
X54595189Y-76180849D01*
X54887207Y-76372913D01*
X55199549Y-76529777D01*
X55527989Y-76649319D01*
X55695903Y-76689115D01*
X55864579Y-76729092D01*
X55864581Y-76729092D01*
X55868086Y-76729923D01*
X56215241Y-76770500D01*
X56218839Y-76770500D01*
X56561161Y-76770500D01*
X56564759Y-76770500D01*
X56911914Y-76729923D01*
X57252011Y-76649319D01*
X57580451Y-76529777D01*
X57892793Y-76372913D01*
X58184811Y-76180849D01*
X58452558Y-75956183D01*
X58692412Y-75701953D01*
X58901130Y-75421596D01*
X59075889Y-75118904D01*
X59214326Y-74797971D01*
X59314569Y-74463136D01*
X59375262Y-74118927D01*
X59390500Y-73857305D01*
X59390500Y-71835353D01*
X59390972Y-71824546D01*
X59394000Y-71789934D01*
X59394314Y-71786348D01*
X59390552Y-71657061D01*
X59390500Y-71653454D01*
X59390500Y-71613417D01*
X59390500Y-71611627D01*
X59388067Y-71569859D01*
X59387910Y-71566271D01*
X59384253Y-71440597D01*
X59384148Y-71436978D01*
X59378589Y-71399029D01*
X59377490Y-71388273D01*
X59375472Y-71353615D01*
X59375262Y-71350005D01*
X59352806Y-71222656D01*
X59352236Y-71219121D01*
X59333492Y-71091150D01*
X59323568Y-71054115D01*
X59323566Y-71054105D01*
X59321228Y-71043561D01*
X59314569Y-71005796D01*
X59277475Y-70881893D01*
X59276495Y-70878437D01*
X59247305Y-70769500D01*
X59243029Y-70753541D01*
X59228872Y-70717905D01*
X59225323Y-70707694D01*
X59215359Y-70674412D01*
X59214326Y-70670961D01*
X59163096Y-70552197D01*
X59161716Y-70548864D01*
X59115316Y-70432067D01*
X59115311Y-70432056D01*
X59113985Y-70428717D01*
X59095786Y-70394966D01*
X59091075Y-70385233D01*
X59087516Y-70376984D01*
X59075889Y-70350028D01*
X59011208Y-70237998D01*
X59009473Y-70234888D01*
X58948104Y-70121071D01*
X58926106Y-70089655D01*
X58920303Y-70080545D01*
X58901130Y-70047336D01*
X58823886Y-69943581D01*
X58821784Y-69940669D01*
X58803505Y-69914564D01*
X58747628Y-69834762D01*
X58722138Y-69806119D01*
X58715309Y-69797735D01*
X58692412Y-69766979D01*
X58689950Y-69764370D01*
X58689938Y-69764355D01*
X58603655Y-69672900D01*
X58601220Y-69670243D01*
X58574598Y-69640329D01*
X58574595Y-69640326D01*
X58573408Y-69638992D01*
X58543810Y-69609394D01*
X58541301Y-69606811D01*
X58452558Y-69512749D01*
X58423185Y-69488102D01*
X58415210Y-69480794D01*
X54519205Y-65584789D01*
X54511896Y-65576813D01*
X54489576Y-65550213D01*
X54487251Y-65547442D01*
X54393186Y-65458696D01*
X54390600Y-65456184D01*
X54362278Y-65427862D01*
X54361008Y-65426592D01*
X54359676Y-65425407D01*
X54359668Y-65425399D01*
X54329754Y-65398777D01*
X54327098Y-65396343D01*
X54235645Y-65310063D01*
X54235638Y-65310057D01*
X54233021Y-65307588D01*
X54230141Y-65305443D01*
X54230134Y-65305438D01*
X54202256Y-65284683D01*
X54193873Y-65277854D01*
X54167930Y-65254768D01*
X54165238Y-65252372D01*
X54059329Y-65178214D01*
X54056404Y-65176102D01*
X53955563Y-65101028D01*
X53955560Y-65101026D01*
X53952664Y-65098870D01*
X53949536Y-65097064D01*
X53949533Y-65097062D01*
X53919453Y-65079695D01*
X53910333Y-65073885D01*
X53901097Y-65067418D01*
X53878929Y-65051896D01*
X53875769Y-65050192D01*
X53875764Y-65050189D01*
X53765100Y-64990519D01*
X53761952Y-64988762D01*
X53653093Y-64925913D01*
X53653094Y-64925913D01*
X53649972Y-64924111D01*
X53614761Y-64908922D01*
X53605030Y-64904211D01*
X53605028Y-64904210D01*
X53571283Y-64886015D01*
X53567935Y-64884685D01*
X53567931Y-64884683D01*
X53451121Y-64838277D01*
X53447790Y-64836897D01*
X53332354Y-64787103D01*
X53332340Y-64787097D01*
X53329039Y-64785674D01*
X53325587Y-64784640D01*
X53325583Y-64784639D01*
X53292301Y-64774675D01*
X53282085Y-64771124D01*
X53249818Y-64758305D01*
X53249811Y-64758302D01*
X53246459Y-64756971D01*
X53242987Y-64756040D01*
X53242958Y-64756031D01*
X53121542Y-64723497D01*
X53118074Y-64722514D01*
X52997658Y-64686465D01*
X52997657Y-64686464D01*
X52994204Y-64685431D01*
X52990660Y-64684806D01*
X52990643Y-64684802D01*
X52956439Y-64678770D01*
X52945886Y-64676431D01*
X52912322Y-64667438D01*
X52912317Y-64667437D01*
X52908850Y-64666508D01*
X52905295Y-64665987D01*
X52905289Y-64665986D01*
X52780865Y-64647760D01*
X52777306Y-64647185D01*
X52653563Y-64625367D01*
X52653560Y-64625366D01*
X52649995Y-64624738D01*
X52646389Y-64624527D01*
X52646381Y-64624527D01*
X52611727Y-64622509D01*
X52600967Y-64621410D01*
X52566590Y-64616374D01*
X52566579Y-64616373D01*
X52563022Y-64615852D01*
X52559430Y-64615747D01*
X52559402Y-64615745D01*
X52433717Y-64612087D01*
X52430119Y-64611930D01*
X52390172Y-64609604D01*
X52390146Y-64609603D01*
X52388373Y-64609500D01*
X52386580Y-64609500D01*
X52346546Y-64609500D01*
X52342939Y-64609448D01*
X52217246Y-64605790D01*
X52217236Y-64605790D01*
X52213652Y-64605686D01*
X52210079Y-64605998D01*
X52210064Y-64605999D01*
X52175453Y-64609028D01*
X52164646Y-64609500D01*
X50792695Y-64609500D01*
X50790914Y-64609603D01*
X50790904Y-64609604D01*
X50534687Y-64624527D01*
X50534678Y-64624528D01*
X50531073Y-64624738D01*
X50527520Y-64625364D01*
X50527507Y-64625366D01*
X50190413Y-64684805D01*
X50190409Y-64684805D01*
X50186864Y-64685431D01*
X50183427Y-64686459D01*
X50183414Y-64686463D01*
X50064734Y-64721994D01*
X49994866Y-64722363D01*
X49941490Y-64690884D01*
X43184238Y-57933632D01*
X43150753Y-57872309D01*
X43155737Y-57802617D01*
X43197609Y-57746684D01*
X43263073Y-57722267D01*
X43331346Y-57737119D01*
G37*
%TD.AperFunction*%
%TA.AperFunction,NonConductor*%
G36*
X31468102Y-51649339D02*
G01*
X31485113Y-51667816D01*
X31504261Y-51693395D01*
X31706605Y-51895739D01*
X31878414Y-52024354D01*
X31935686Y-52067227D01*
X32075435Y-52143535D01*
X32186839Y-52204367D01*
X32454954Y-52304369D01*
X32454957Y-52304369D01*
X32454958Y-52304370D01*
X32507217Y-52315738D01*
X32734572Y-52365196D01*
X33020000Y-52385610D01*
X33305428Y-52365196D01*
X33526044Y-52317204D01*
X33595736Y-52322188D01*
X33640083Y-52350689D01*
X45687213Y-64397819D01*
X45720698Y-64459142D01*
X45715714Y-64528834D01*
X45673842Y-64584767D01*
X45608378Y-64609184D01*
X45599532Y-64609500D01*
X43585354Y-64609500D01*
X43574547Y-64609028D01*
X43539935Y-64605999D01*
X43539920Y-64605998D01*
X43536348Y-64605686D01*
X43532763Y-64605790D01*
X43532753Y-64605790D01*
X43407061Y-64609448D01*
X43403454Y-64609500D01*
X43361627Y-64609500D01*
X43359854Y-64609603D01*
X43359827Y-64609604D01*
X43319879Y-64611930D01*
X43316281Y-64612087D01*
X43190597Y-64615745D01*
X43190568Y-64615747D01*
X43186978Y-64615852D01*
X43183418Y-64616373D01*
X43183400Y-64616375D01*
X43149029Y-64621409D01*
X43138275Y-64622508D01*
X43103599Y-64624528D01*
X43103587Y-64624529D01*
X43100005Y-64624738D01*
X43096474Y-64625360D01*
X43096453Y-64625363D01*
X42972692Y-64647185D01*
X42969134Y-64647760D01*
X42844712Y-64665986D01*
X42844708Y-64665986D01*
X42841150Y-64666508D01*
X42804107Y-64676432D01*
X42793561Y-64678771D01*
X42759342Y-64684805D01*
X42759331Y-64684807D01*
X42755796Y-64685431D01*
X42752346Y-64686463D01*
X42752341Y-64686465D01*
X42631893Y-64722524D01*
X42628425Y-64723507D01*
X42503541Y-64756971D01*
X42500202Y-64758297D01*
X42500182Y-64758304D01*
X42467905Y-64771127D01*
X42457692Y-64774677D01*
X42424415Y-64784639D01*
X42424401Y-64784643D01*
X42420961Y-64785674D01*
X42417653Y-64787100D01*
X42417639Y-64787106D01*
X42302219Y-64836892D01*
X42298890Y-64838272D01*
X42182056Y-64884688D01*
X42182049Y-64884691D01*
X42178717Y-64886015D01*
X42175557Y-64887718D01*
X42175550Y-64887722D01*
X42144969Y-64904210D01*
X42135243Y-64908918D01*
X42103356Y-64922674D01*
X42103336Y-64922683D01*
X42100028Y-64924111D01*
X42096912Y-64925909D01*
X42096892Y-64925920D01*
X41988034Y-64988768D01*
X41984888Y-64990524D01*
X41874250Y-65050181D01*
X41874238Y-65050187D01*
X41871071Y-65051896D01*
X41868129Y-65053955D01*
X41868111Y-65053967D01*
X41839662Y-65073887D01*
X41830545Y-65079695D01*
X41800464Y-65097063D01*
X41800451Y-65097071D01*
X41797336Y-65098870D01*
X41693626Y-65176079D01*
X41690703Y-65178189D01*
X41587719Y-65250300D01*
X41587702Y-65250312D01*
X41584762Y-65252372D01*
X41582085Y-65254753D01*
X41582070Y-65254766D01*
X41556127Y-65277853D01*
X41547747Y-65284679D01*
X41519884Y-65305423D01*
X41519860Y-65305442D01*
X41516979Y-65307588D01*
X41514361Y-65310057D01*
X41514362Y-65310057D01*
X41422915Y-65396331D01*
X41420261Y-65398762D01*
X41390341Y-65425390D01*
X41390314Y-65425415D01*
X41388992Y-65426592D01*
X41387739Y-65427844D01*
X41387705Y-65427877D01*
X41359394Y-65456187D01*
X41356811Y-65458696D01*
X41265386Y-65544952D01*
X41265368Y-65544970D01*
X41262749Y-65547442D01*
X41260428Y-65550207D01*
X41260427Y-65550209D01*
X41238102Y-65576814D01*
X41230796Y-65584786D01*
X37334786Y-69480796D01*
X37326814Y-69488102D01*
X37297442Y-69512749D01*
X37294970Y-69515368D01*
X37294952Y-69515386D01*
X37208696Y-69606811D01*
X37206187Y-69609394D01*
X37177877Y-69637705D01*
X37177844Y-69637739D01*
X37176592Y-69638992D01*
X37175415Y-69640314D01*
X37175390Y-69640341D01*
X37148762Y-69670261D01*
X37146345Y-69672900D01*
X37057588Y-69766979D01*
X37055442Y-69769860D01*
X37055423Y-69769884D01*
X37034679Y-69797747D01*
X37027853Y-69806127D01*
X37004766Y-69832070D01*
X37004753Y-69832085D01*
X37002372Y-69834762D01*
X37000312Y-69837702D01*
X37000300Y-69837719D01*
X36928189Y-69940703D01*
X36926081Y-69943621D01*
X36848870Y-70047336D01*
X36847071Y-70050451D01*
X36847063Y-70050464D01*
X36829695Y-70080545D01*
X36823887Y-70089662D01*
X36803967Y-70118111D01*
X36803955Y-70118129D01*
X36801896Y-70121071D01*
X36800187Y-70124238D01*
X36800181Y-70124250D01*
X36740524Y-70234888D01*
X36738768Y-70238034D01*
X36675920Y-70346892D01*
X36675909Y-70346912D01*
X36674111Y-70350028D01*
X36672683Y-70353336D01*
X36672674Y-70353356D01*
X36658918Y-70385243D01*
X36654210Y-70394969D01*
X36637722Y-70425550D01*
X36637718Y-70425557D01*
X36636015Y-70428717D01*
X36634691Y-70432049D01*
X36634688Y-70432056D01*
X36588272Y-70548890D01*
X36586892Y-70552219D01*
X36537106Y-70667639D01*
X36537100Y-70667653D01*
X36535674Y-70670961D01*
X36534643Y-70674401D01*
X36534639Y-70674415D01*
X36524677Y-70707692D01*
X36521127Y-70717905D01*
X36508304Y-70750182D01*
X36508297Y-70750202D01*
X36506971Y-70753541D01*
X36506040Y-70757017D01*
X36506036Y-70757030D01*
X36473507Y-70878425D01*
X36472524Y-70881893D01*
X36436466Y-71002340D01*
X36435431Y-71005796D01*
X36434807Y-71009331D01*
X36434805Y-71009342D01*
X36428771Y-71043561D01*
X36426433Y-71054105D01*
X36416508Y-71091150D01*
X36415986Y-71094708D01*
X36415986Y-71094712D01*
X36397760Y-71219134D01*
X36397185Y-71222692D01*
X36375363Y-71346453D01*
X36375360Y-71346474D01*
X36374738Y-71350005D01*
X36374529Y-71353587D01*
X36374528Y-71353599D01*
X36372508Y-71388275D01*
X36371409Y-71399029D01*
X36366375Y-71433400D01*
X36366374Y-71433411D01*
X36365852Y-71436978D01*
X36365747Y-71440568D01*
X36365745Y-71440597D01*
X36362087Y-71566281D01*
X36361930Y-71569879D01*
X36359604Y-71609827D01*
X36359604Y-71609838D01*
X36359500Y-71611627D01*
X36359500Y-71613417D01*
X36359500Y-71613420D01*
X36359500Y-71653454D01*
X36359448Y-71657061D01*
X36355790Y-71782753D01*
X36355790Y-71782763D01*
X36355686Y-71786348D01*
X36355998Y-71789921D01*
X36355999Y-71789934D01*
X36359028Y-71824546D01*
X36359500Y-71835354D01*
X36359500Y-73297857D01*
X36339815Y-73364896D01*
X36287011Y-73410651D01*
X36217853Y-73420595D01*
X36154297Y-73391570D01*
X36147819Y-73385538D01*
X34456819Y-71694538D01*
X34423334Y-71633215D01*
X34420500Y-71606857D01*
X34420500Y-56859996D01*
X34440185Y-56792957D01*
X34456819Y-56772315D01*
X34488896Y-56740236D01*
X34535739Y-56693395D01*
X34707226Y-56464315D01*
X34844367Y-56213161D01*
X34944369Y-55945046D01*
X35005196Y-55665428D01*
X35025610Y-55380000D01*
X35005196Y-55094572D01*
X34944369Y-54814954D01*
X34844367Y-54546839D01*
X34707226Y-54295685D01*
X34535739Y-54066605D01*
X34333395Y-53864261D01*
X34218855Y-53778517D01*
X34104313Y-53692772D01*
X33853163Y-53555634D01*
X33853162Y-53555633D01*
X33853161Y-53555633D01*
X33585046Y-53455631D01*
X33585041Y-53455629D01*
X33305429Y-53394804D01*
X33020000Y-53374389D01*
X32734570Y-53394804D01*
X32454958Y-53455629D01*
X32186836Y-53555634D01*
X31935686Y-53692772D01*
X31706602Y-53864263D01*
X31504263Y-54066602D01*
X31459198Y-54126802D01*
X31403264Y-54168673D01*
X31333572Y-54173657D01*
X31272249Y-54140172D01*
X31238765Y-54078848D01*
X31235939Y-54051100D01*
X31238036Y-53864263D01*
X31261861Y-51740743D01*
X31282296Y-51673929D01*
X31335610Y-51628770D01*
X31404876Y-51619603D01*
X31468102Y-51649339D01*
G37*
%TD.AperFunction*%
%TA.AperFunction,NonConductor*%
G36*
X31169271Y-56220351D02*
G01*
X31223180Y-56264798D01*
X31229370Y-56274946D01*
X31311529Y-56425409D01*
X31332774Y-56464315D01*
X31504261Y-56693395D01*
X31583183Y-56772317D01*
X31616666Y-56833636D01*
X31619500Y-56859995D01*
X31619499Y-72189760D01*
X31619248Y-72197648D01*
X31614753Y-72268161D01*
X31625665Y-72370596D01*
X31625916Y-72373214D01*
X31634654Y-72475869D01*
X31636098Y-72481416D01*
X31639400Y-72499513D01*
X31640008Y-72505220D01*
X31668074Y-72604337D01*
X31668764Y-72606874D01*
X31694726Y-72706580D01*
X31697085Y-72711799D01*
X31703396Y-72729073D01*
X31704959Y-72734593D01*
X31749393Y-72827582D01*
X31750502Y-72829968D01*
X31792922Y-72923810D01*
X31796127Y-72928552D01*
X31805275Y-72944528D01*
X31807746Y-72949700D01*
X31867244Y-73033824D01*
X31868741Y-73035989D01*
X31926420Y-73121328D01*
X31930388Y-73125468D01*
X31942097Y-73139658D01*
X31945410Y-73144342D01*
X31945412Y-73144344D01*
X32018224Y-73217156D01*
X32020066Y-73219037D01*
X32091381Y-73293446D01*
X32095990Y-73296855D01*
X32109938Y-73308870D01*
X36518887Y-77717819D01*
X36552372Y-77779142D01*
X36547388Y-77848834D01*
X36505516Y-77904767D01*
X36440052Y-77929184D01*
X36431206Y-77929500D01*
X26403926Y-77929500D01*
X26336887Y-77909815D01*
X26291132Y-77857011D01*
X26279926Y-77805575D01*
X26272582Y-65584786D01*
X26267146Y-56538243D01*
X26286790Y-56471195D01*
X26339567Y-56425409D01*
X26390035Y-56414177D01*
X30703253Y-56375580D01*
X30752246Y-56372759D01*
X30891693Y-56337321D01*
X30899630Y-56334043D01*
X30990293Y-56285255D01*
X31037067Y-56242675D01*
X31099890Y-56212104D01*
X31169271Y-56220351D01*
G37*
%TD.AperFunction*%
%TA.AperFunction,NonConductor*%
G36*
X52633017Y-31563868D02*
G01*
X52635405Y-31567355D01*
X52637794Y-31572766D01*
X52641896Y-31576869D01*
X52645264Y-31585001D01*
X52641896Y-31593131D01*
X52637794Y-31597233D01*
X52592414Y-31700009D01*
X52589539Y-31724793D01*
X52589538Y-31724804D01*
X52589500Y-31725135D01*
X52589500Y-31725474D01*
X52589500Y-31725475D01*
X52589500Y-32714523D01*
X52589500Y-32714540D01*
X52589501Y-32714864D01*
X52589539Y-32715195D01*
X52589540Y-32715205D01*
X52592414Y-32739990D01*
X52637794Y-32842766D01*
X52641896Y-32846869D01*
X52645264Y-32855001D01*
X52641896Y-32863131D01*
X52637794Y-32867233D01*
X52592414Y-32970009D01*
X52589539Y-32994793D01*
X52589538Y-32994804D01*
X52589500Y-32995135D01*
X52589500Y-32995474D01*
X52589500Y-32995475D01*
X52589500Y-33984523D01*
X52589500Y-33984540D01*
X52589501Y-33984864D01*
X52589539Y-33985195D01*
X52589540Y-33985205D01*
X52592414Y-34009990D01*
X52637794Y-34112766D01*
X52641896Y-34116869D01*
X52645264Y-34125001D01*
X52641896Y-34133131D01*
X52637794Y-34137233D01*
X52592414Y-34240009D01*
X52589539Y-34264793D01*
X52589538Y-34264804D01*
X52589500Y-34265135D01*
X52589500Y-34265474D01*
X52589500Y-34265475D01*
X52589500Y-35254523D01*
X52589500Y-35254540D01*
X52589501Y-35254864D01*
X52589539Y-35255195D01*
X52589540Y-35255205D01*
X52592414Y-35279990D01*
X52637794Y-35382766D01*
X52641896Y-35386869D01*
X52645264Y-35395001D01*
X52641896Y-35403131D01*
X52637794Y-35407233D01*
X52592414Y-35510009D01*
X52589539Y-35534793D01*
X52589538Y-35534804D01*
X52589500Y-35535135D01*
X52589500Y-35535474D01*
X52589500Y-35535475D01*
X52589500Y-36524523D01*
X52589500Y-36524540D01*
X52589501Y-36524864D01*
X52589539Y-36525195D01*
X52589540Y-36525205D01*
X52592414Y-36549990D01*
X52637794Y-36652766D01*
X52641896Y-36656869D01*
X52645264Y-36665001D01*
X52641896Y-36673131D01*
X52637794Y-36677233D01*
X52592414Y-36780009D01*
X52589539Y-36804793D01*
X52589538Y-36804804D01*
X52589500Y-36805135D01*
X52589500Y-36805474D01*
X52589500Y-36805475D01*
X52589500Y-37794523D01*
X52589500Y-37794540D01*
X52589501Y-37794864D01*
X52589539Y-37795195D01*
X52589540Y-37795205D01*
X52592414Y-37819990D01*
X52637794Y-37922766D01*
X52641896Y-37926869D01*
X52645264Y-37935001D01*
X52641896Y-37943131D01*
X52637794Y-37947233D01*
X52592414Y-38050009D01*
X52589539Y-38074793D01*
X52589538Y-38074804D01*
X52589500Y-38075135D01*
X52589500Y-38075474D01*
X52589500Y-38075475D01*
X52589500Y-39064523D01*
X52589500Y-39064540D01*
X52589501Y-39064864D01*
X52589539Y-39065195D01*
X52589540Y-39065205D01*
X52592414Y-39089990D01*
X52637794Y-39192766D01*
X52641896Y-39196869D01*
X52645264Y-39205001D01*
X52641896Y-39213131D01*
X52637794Y-39217233D01*
X52592414Y-39320009D01*
X52589539Y-39344793D01*
X52589538Y-39344804D01*
X52589500Y-39345135D01*
X52589500Y-39345474D01*
X52589500Y-39345475D01*
X52589500Y-40334523D01*
X52589500Y-40334540D01*
X52589501Y-40334864D01*
X52589539Y-40335195D01*
X52589540Y-40335205D01*
X52592414Y-40359990D01*
X52637794Y-40462766D01*
X52641896Y-40466869D01*
X52645264Y-40475001D01*
X52641896Y-40483131D01*
X52637794Y-40487233D01*
X52592414Y-40590009D01*
X52589539Y-40614793D01*
X52589538Y-40614804D01*
X52589500Y-40615135D01*
X52589500Y-40615474D01*
X52589500Y-40615475D01*
X52589500Y-41604523D01*
X52589500Y-41604540D01*
X52589501Y-41604864D01*
X52589539Y-41605195D01*
X52589540Y-41605205D01*
X52592414Y-41629990D01*
X52637793Y-41732765D01*
X52641896Y-41736867D01*
X52645265Y-41744998D01*
X52641898Y-41753129D01*
X52637794Y-41757234D01*
X52592414Y-41860009D01*
X52589539Y-41884793D01*
X52589538Y-41884804D01*
X52589500Y-41885135D01*
X52589500Y-41885474D01*
X52589500Y-41885475D01*
X52589500Y-42874523D01*
X52589500Y-42874540D01*
X52589501Y-42874864D01*
X52589539Y-42875195D01*
X52589540Y-42875205D01*
X52592414Y-42899990D01*
X52637793Y-43002765D01*
X52641896Y-43006867D01*
X52645265Y-43014998D01*
X52641898Y-43023129D01*
X52637794Y-43027234D01*
X52592414Y-43130009D01*
X52589539Y-43154793D01*
X52589538Y-43154804D01*
X52589500Y-43155135D01*
X52589500Y-43155474D01*
X52589500Y-43155475D01*
X52589500Y-44144523D01*
X52589500Y-44144540D01*
X52589501Y-44144864D01*
X52589539Y-44145195D01*
X52589540Y-44145205D01*
X52592414Y-44169990D01*
X52637794Y-44272766D01*
X52641896Y-44276869D01*
X52645264Y-44285001D01*
X52641896Y-44293131D01*
X52637794Y-44297233D01*
X52592414Y-44400009D01*
X52589539Y-44424793D01*
X52589538Y-44424804D01*
X52589500Y-44425135D01*
X52589500Y-44425474D01*
X52589500Y-44425475D01*
X52589500Y-45414523D01*
X52589500Y-45414540D01*
X52589501Y-45414864D01*
X52589539Y-45415195D01*
X52589540Y-45415205D01*
X52592414Y-45439990D01*
X52637794Y-45542766D01*
X52641896Y-45546869D01*
X52645264Y-45555001D01*
X52641896Y-45563131D01*
X52637794Y-45567233D01*
X52592414Y-45670009D01*
X52589539Y-45694793D01*
X52589538Y-45694804D01*
X52589500Y-45695135D01*
X52589500Y-45695474D01*
X52589500Y-45695475D01*
X52589500Y-46507942D01*
X52586132Y-46516074D01*
X52578000Y-46519442D01*
X52573534Y-46518539D01*
X52370875Y-46433127D01*
X52364689Y-46426865D01*
X52364583Y-46426593D01*
X52353795Y-46397669D01*
X52343657Y-46384127D01*
X52342403Y-46382013D01*
X52335377Y-46366627D01*
X52328798Y-46359035D01*
X52300224Y-46326058D01*
X52299709Y-46325418D01*
X52289221Y-46311406D01*
X52276832Y-46299017D01*
X52276273Y-46298417D01*
X52241128Y-46257857D01*
X52226895Y-46248710D01*
X52224984Y-46247170D01*
X51203868Y-45226053D01*
X51200500Y-45217921D01*
X51200500Y-32012078D01*
X51203868Y-32003946D01*
X51643946Y-31563868D01*
X51652078Y-31560500D01*
X52624885Y-31560500D01*
X52633017Y-31563868D01*
G37*
%TD.AperFunction*%
%TA.AperFunction,Conductor*%
%TO.N,GND*%
G36*
X55833750Y-28029822D02*
G01*
X55841876Y-28033197D01*
X55845236Y-28041333D01*
X55841860Y-28049461D01*
X55841267Y-28050012D01*
X55806921Y-28079772D01*
X55806283Y-28080286D01*
X55792267Y-28090780D01*
X55779893Y-28103153D01*
X55779293Y-28103712D01*
X55738718Y-28138872D01*
X55729571Y-28153103D01*
X55728029Y-28155017D01*
X54862789Y-29020255D01*
X54854657Y-29023623D01*
X54846525Y-29020255D01*
X54843882Y-29016142D01*
X54833352Y-28987910D01*
X54747188Y-28872811D01*
X54632089Y-28786647D01*
X54497374Y-28736401D01*
X54438127Y-28730032D01*
X54437528Y-28730000D01*
X53890000Y-28730000D01*
X53890000Y-29918500D01*
X53886632Y-29926632D01*
X53878500Y-29930000D01*
X52390001Y-29930000D01*
X52390000Y-29930001D01*
X52390000Y-30177527D01*
X52390032Y-30178127D01*
X52396401Y-30237374D01*
X52446647Y-30372089D01*
X52532811Y-30487188D01*
X52584892Y-30526176D01*
X52589383Y-30533745D01*
X52589500Y-30535382D01*
X52589500Y-30548000D01*
X52586132Y-30556132D01*
X52578000Y-30559500D01*
X51495048Y-30559500D01*
X51492603Y-30559237D01*
X51476074Y-30555640D01*
X51422526Y-30559471D01*
X51421706Y-30559500D01*
X51404201Y-30559500D01*
X51386872Y-30561990D01*
X51386057Y-30562078D01*
X51332515Y-30565909D01*
X51316670Y-30571818D01*
X51314289Y-30572426D01*
X51297543Y-30574834D01*
X51248719Y-30597131D01*
X51247961Y-30597445D01*
X51197668Y-30616204D01*
X51184125Y-30626341D01*
X51182013Y-30627594D01*
X51166627Y-30634622D01*
X51126067Y-30669766D01*
X51125429Y-30670280D01*
X51111406Y-30680779D01*
X51099024Y-30693160D01*
X51098424Y-30693719D01*
X51057857Y-30728872D01*
X51048711Y-30743101D01*
X51047169Y-30745015D01*
X50385015Y-31407169D01*
X50383101Y-31408711D01*
X50368872Y-31417857D01*
X50333719Y-31458424D01*
X50333160Y-31459024D01*
X50320779Y-31471406D01*
X50310280Y-31485429D01*
X50309766Y-31486067D01*
X50274622Y-31526627D01*
X50267594Y-31542013D01*
X50266341Y-31544125D01*
X50256204Y-31557668D01*
X50237445Y-31607961D01*
X50237131Y-31608719D01*
X50214834Y-31657543D01*
X50212426Y-31674289D01*
X50211818Y-31676670D01*
X50205909Y-31692515D01*
X50202078Y-31746057D01*
X50201990Y-31746872D01*
X50199500Y-31764200D01*
X50199500Y-31781705D01*
X50199471Y-31782525D01*
X50195640Y-31836074D01*
X50199237Y-31852603D01*
X50199500Y-31855048D01*
X50199500Y-45374951D01*
X50199237Y-45377396D01*
X50195640Y-45393925D01*
X50199471Y-45447473D01*
X50199500Y-45448293D01*
X50199500Y-45465799D01*
X50201990Y-45483126D01*
X50202078Y-45483941D01*
X50205909Y-45537485D01*
X50211818Y-45553330D01*
X50212426Y-45555711D01*
X50214834Y-45572456D01*
X50237131Y-45621279D01*
X50237445Y-45622037D01*
X50255338Y-45670010D01*
X50256205Y-45672333D01*
X50266340Y-45685873D01*
X50267594Y-45687986D01*
X50274621Y-45703371D01*
X50309766Y-45743931D01*
X50310281Y-45744570D01*
X50320780Y-45758594D01*
X50333166Y-45770981D01*
X50333725Y-45771581D01*
X50368872Y-45812143D01*
X50383099Y-45821286D01*
X50385014Y-45822828D01*
X50985683Y-46423497D01*
X50989051Y-46431629D01*
X50985683Y-46439761D01*
X50977551Y-46443129D01*
X50976322Y-46443063D01*
X50948127Y-46440032D01*
X50947528Y-46440000D01*
X50700001Y-46440000D01*
X50699999Y-46440001D01*
X50699999Y-48939999D01*
X50700001Y-48940000D01*
X50947528Y-48940000D01*
X50948127Y-48939967D01*
X51007374Y-48933598D01*
X51142089Y-48883352D01*
X51257188Y-48797188D01*
X51343352Y-48682089D01*
X51387225Y-48564462D01*
X51393223Y-48558020D01*
X51402019Y-48557706D01*
X51408461Y-48563704D01*
X51409500Y-48568481D01*
X51409500Y-49224951D01*
X51409237Y-49227396D01*
X51405640Y-49243925D01*
X51409471Y-49297473D01*
X51409500Y-49298293D01*
X51409500Y-49315799D01*
X51411990Y-49333126D01*
X51412078Y-49333941D01*
X51415909Y-49387485D01*
X51421818Y-49403330D01*
X51422426Y-49405711D01*
X51424834Y-49422456D01*
X51447131Y-49471279D01*
X51447445Y-49472037D01*
X51465924Y-49521581D01*
X51466205Y-49522333D01*
X51476340Y-49535873D01*
X51477594Y-49537986D01*
X51484621Y-49553371D01*
X51519766Y-49593931D01*
X51520281Y-49594570D01*
X51530780Y-49608594D01*
X51543166Y-49620981D01*
X51543725Y-49621581D01*
X51578872Y-49662143D01*
X51593099Y-49671286D01*
X51595014Y-49672828D01*
X53931132Y-52008945D01*
X53934500Y-52017077D01*
X53934500Y-53769951D01*
X53934237Y-53772396D01*
X53930640Y-53788925D01*
X53934471Y-53842473D01*
X53934500Y-53843293D01*
X53934500Y-53860799D01*
X53936990Y-53878126D01*
X53937078Y-53878941D01*
X53940909Y-53932485D01*
X53946818Y-53948330D01*
X53947426Y-53950711D01*
X53949834Y-53967456D01*
X53972131Y-54016279D01*
X53972445Y-54017037D01*
X53991205Y-54067333D01*
X54001340Y-54080873D01*
X54002594Y-54082986D01*
X54009621Y-54098371D01*
X54044766Y-54138931D01*
X54045281Y-54139570D01*
X54055780Y-54153594D01*
X54068166Y-54165981D01*
X54068725Y-54166581D01*
X54103872Y-54207143D01*
X54118099Y-54216286D01*
X54120014Y-54217828D01*
X54182054Y-54279868D01*
X54185422Y-54288000D01*
X54182054Y-54296132D01*
X54173922Y-54299500D01*
X53031999Y-54299500D01*
X53023867Y-54296132D01*
X53020499Y-54288000D01*
X53020499Y-52855476D01*
X53020499Y-52855475D01*
X53020499Y-52855136D01*
X53017585Y-52830009D01*
X52972206Y-52727235D01*
X52892765Y-52647794D01*
X52892764Y-52647793D01*
X52789990Y-52602414D01*
X52765206Y-52599539D01*
X52765196Y-52599538D01*
X52764865Y-52599500D01*
X52764525Y-52599500D01*
X52232000Y-52599500D01*
X52223868Y-52596132D01*
X52220500Y-52588000D01*
X52220500Y-51995043D01*
X52220763Y-51992598D01*
X52224358Y-51976074D01*
X52220529Y-51922534D01*
X52220500Y-51921714D01*
X52220500Y-51904201D01*
X52219283Y-51895739D01*
X52218003Y-51886841D01*
X52217920Y-51886069D01*
X52214091Y-51832517D01*
X52208177Y-51816663D01*
X52207572Y-51814291D01*
X52205165Y-51797543D01*
X52182863Y-51748710D01*
X52182553Y-51747961D01*
X52165587Y-51702472D01*
X52163796Y-51697669D01*
X52153656Y-51684124D01*
X52152402Y-51682010D01*
X52145377Y-51666627D01*
X52110226Y-51626060D01*
X52109711Y-51625421D01*
X52103130Y-51616630D01*
X52100899Y-51608536D01*
X52115460Y-51470000D01*
X52095674Y-51281744D01*
X52037179Y-51101716D01*
X52037179Y-51101715D01*
X51942533Y-50937784D01*
X51924439Y-50917689D01*
X51815871Y-50797112D01*
X51662730Y-50685849D01*
X51489803Y-50608856D01*
X51304646Y-50569500D01*
X51115354Y-50569500D01*
X51022775Y-50589177D01*
X50930196Y-50608856D01*
X50757271Y-50685848D01*
X50757269Y-50685849D01*
X50757270Y-50685849D01*
X50604129Y-50797112D01*
X50604127Y-50797113D01*
X50604127Y-50797114D01*
X50477466Y-50937784D01*
X50382820Y-51101715D01*
X50324325Y-51281743D01*
X50304540Y-51470000D01*
X50324325Y-51658256D01*
X50382820Y-51838284D01*
X50477466Y-52002215D01*
X50477467Y-52002216D01*
X50604129Y-52142888D01*
X50757270Y-52254151D01*
X50930197Y-52331144D01*
X51115354Y-52370500D01*
X51208000Y-52370500D01*
X51216132Y-52373868D01*
X51219500Y-52382000D01*
X51219500Y-52588000D01*
X51216132Y-52596132D01*
X51208000Y-52599500D01*
X50675476Y-52599500D01*
X50675458Y-52599500D01*
X50675136Y-52599501D01*
X50674805Y-52599539D01*
X50674794Y-52599540D01*
X50650009Y-52602414D01*
X50547235Y-52647793D01*
X50467793Y-52727235D01*
X50422414Y-52830009D01*
X50419539Y-52854793D01*
X50419538Y-52854804D01*
X50419500Y-52855135D01*
X50419500Y-52855474D01*
X50419500Y-52855475D01*
X50419500Y-56744523D01*
X50419500Y-56744540D01*
X50419501Y-56744864D01*
X50419539Y-56745195D01*
X50419540Y-56745205D01*
X50422414Y-56769990D01*
X50467793Y-56872764D01*
X50467794Y-56872765D01*
X50547235Y-56952206D01*
X50650009Y-56997585D01*
X50675135Y-57000500D01*
X52764864Y-57000499D01*
X52789991Y-56997585D01*
X52892765Y-56952206D01*
X52972206Y-56872765D01*
X53017585Y-56769991D01*
X53020500Y-56744865D01*
X53020500Y-55312000D01*
X53023868Y-55303868D01*
X53032000Y-55300500D01*
X55174201Y-55300500D01*
X55374201Y-55300500D01*
X55391706Y-55300500D01*
X55392526Y-55300529D01*
X55446073Y-55304359D01*
X55446073Y-55304358D01*
X55446074Y-55304359D01*
X55462603Y-55300763D01*
X55465048Y-55300500D01*
X56114201Y-55300500D01*
X56708001Y-55300500D01*
X56716133Y-55303868D01*
X56719501Y-55312000D01*
X56719501Y-55594864D01*
X56719539Y-55595195D01*
X56719540Y-55595205D01*
X56722414Y-55619990D01*
X56767793Y-55722764D01*
X56767794Y-55722765D01*
X56847235Y-55802206D01*
X56950009Y-55847585D01*
X56975135Y-55850500D01*
X59064864Y-55850499D01*
X59089991Y-55847585D01*
X59192765Y-55802206D01*
X59272206Y-55722765D01*
X59317585Y-55619991D01*
X59320115Y-55598175D01*
X59324398Y-55590486D01*
X59331539Y-55588000D01*
X59923001Y-55588000D01*
X59931133Y-55591368D01*
X59934501Y-55599499D01*
X59934501Y-55818098D01*
X59945124Y-55906564D01*
X60000639Y-56047342D01*
X60092078Y-56167922D01*
X60212658Y-56259361D01*
X60353436Y-56314876D01*
X60441901Y-56325500D01*
X62378098Y-56325499D01*
X62466564Y-56314876D01*
X62607342Y-56259361D01*
X62727922Y-56167922D01*
X62819361Y-56047342D01*
X62874876Y-55906564D01*
X62885500Y-55818099D01*
X62885499Y-54731902D01*
X62874876Y-54643436D01*
X62819361Y-54502658D01*
X62727922Y-54382078D01*
X62607342Y-54290639D01*
X62466564Y-54235124D01*
X62378099Y-54224500D01*
X62377763Y-54224500D01*
X60442237Y-54224500D01*
X60442220Y-54224500D01*
X60441902Y-54224501D01*
X60441569Y-54224540D01*
X60441568Y-54224541D01*
X60353435Y-54235124D01*
X60212658Y-54290639D01*
X60092078Y-54382078D01*
X60000639Y-54502658D01*
X59970250Y-54579719D01*
X59964134Y-54586048D01*
X59959552Y-54587000D01*
X59331999Y-54587000D01*
X59323867Y-54583632D01*
X59320499Y-54575500D01*
X59320499Y-54005476D01*
X59320499Y-54005475D01*
X59320499Y-54005136D01*
X59317585Y-53980009D01*
X59272206Y-53877235D01*
X59192765Y-53797794D01*
X59192764Y-53797793D01*
X59120570Y-53765916D01*
X59114492Y-53759550D01*
X59114695Y-53750751D01*
X59121061Y-53744673D01*
X59123988Y-53743962D01*
X59127374Y-53743598D01*
X59262089Y-53693352D01*
X59377188Y-53607188D01*
X59463352Y-53492089D01*
X59513598Y-53357374D01*
X59519967Y-53298127D01*
X59520000Y-53297527D01*
X59520000Y-52750000D01*
X56520000Y-52750000D01*
X56520000Y-53297527D01*
X56520032Y-53298127D01*
X56526401Y-53357374D01*
X56576647Y-53492089D01*
X56662811Y-53607188D01*
X56777910Y-53693352D01*
X56912625Y-53743598D01*
X56916012Y-53743962D01*
X56923737Y-53748179D01*
X56926218Y-53756624D01*
X56922001Y-53764349D01*
X56919429Y-53765916D01*
X56847235Y-53797793D01*
X56767793Y-53877235D01*
X56722414Y-53980009D01*
X56719539Y-54004793D01*
X56719538Y-54004804D01*
X56719500Y-54005135D01*
X56719500Y-54005474D01*
X56719500Y-54005475D01*
X56719500Y-54288000D01*
X56716132Y-54296132D01*
X56708000Y-54299500D01*
X55622078Y-54299500D01*
X55613946Y-54296132D01*
X54938868Y-53621054D01*
X54935500Y-53612922D01*
X54935500Y-52830009D01*
X54935500Y-52275000D01*
X59735000Y-52275000D01*
X59735000Y-52574681D01*
X59735030Y-52575277D01*
X59745493Y-52677695D01*
X59800641Y-52844119D01*
X59892682Y-52993341D01*
X60016658Y-53117317D01*
X60165880Y-53209358D01*
X60332304Y-53264506D01*
X60434722Y-53274969D01*
X60435319Y-53275000D01*
X61159999Y-53275000D01*
X61160000Y-53274999D01*
X61660000Y-53274999D01*
X61660001Y-53275000D01*
X62384681Y-53275000D01*
X62385277Y-53274969D01*
X62487695Y-53264506D01*
X62654119Y-53209358D01*
X62803341Y-53117317D01*
X62927317Y-52993341D01*
X63019358Y-52844119D01*
X63074506Y-52677695D01*
X63084969Y-52575277D01*
X63085000Y-52574681D01*
X63084999Y-52275000D01*
X61660001Y-52275000D01*
X61660000Y-52275001D01*
X61660000Y-53274999D01*
X61160000Y-53274999D01*
X61160000Y-52275001D01*
X61159999Y-52275000D01*
X59735000Y-52275000D01*
X54935500Y-52275000D01*
X54935500Y-52249999D01*
X56520000Y-52249999D01*
X56520001Y-52250000D01*
X57769999Y-52250000D01*
X57770000Y-52249999D01*
X58269999Y-52249999D01*
X58270001Y-52250000D01*
X59519999Y-52250000D01*
X59520000Y-52249999D01*
X59520000Y-51774999D01*
X59735000Y-51774999D01*
X59735001Y-51775000D01*
X61159999Y-51775000D01*
X61160000Y-51774998D01*
X61160000Y-50775001D01*
X61159999Y-50775000D01*
X61660000Y-50775000D01*
X61660000Y-51774999D01*
X61660001Y-51775000D01*
X63084999Y-51775000D01*
X63084999Y-51774999D01*
X63085000Y-51475318D01*
X63084969Y-51474722D01*
X63074506Y-51372304D01*
X63019358Y-51205880D01*
X62927317Y-51056658D01*
X62803341Y-50932682D01*
X62654119Y-50840641D01*
X62487695Y-50785493D01*
X62385277Y-50775030D01*
X62384681Y-50775000D01*
X61660000Y-50775000D01*
X61159999Y-50775000D01*
X60435319Y-50775000D01*
X60434722Y-50775030D01*
X60332304Y-50785493D01*
X60165880Y-50840641D01*
X60016658Y-50932682D01*
X59892682Y-51056658D01*
X59800641Y-51205880D01*
X59745493Y-51372304D01*
X59735030Y-51474722D01*
X59735000Y-51475318D01*
X59735000Y-51774999D01*
X59520000Y-51774999D01*
X59520000Y-51702472D01*
X59519967Y-51701872D01*
X59513598Y-51642625D01*
X59463352Y-51507910D01*
X59377188Y-51392811D01*
X59262089Y-51306647D01*
X59127374Y-51256401D01*
X59068127Y-51250032D01*
X59067528Y-51250000D01*
X58270001Y-51250000D01*
X58269999Y-51250001D01*
X58269999Y-52249999D01*
X57770000Y-52249999D01*
X57770000Y-51250001D01*
X57769999Y-51250000D01*
X56972472Y-51250000D01*
X56971872Y-51250032D01*
X56912625Y-51256401D01*
X56777910Y-51306647D01*
X56662811Y-51392811D01*
X56576647Y-51507910D01*
X56526401Y-51642625D01*
X56520032Y-51701872D01*
X56520000Y-51702472D01*
X56520000Y-52249999D01*
X54935500Y-52249999D01*
X54935500Y-52017074D01*
X54938866Y-52008946D01*
X57113945Y-49833868D01*
X57122078Y-49830500D01*
X57498000Y-49830500D01*
X57506132Y-49833868D01*
X57509500Y-49842000D01*
X57509500Y-49848102D01*
X57520123Y-49936564D01*
X57575639Y-50077342D01*
X57667078Y-50197922D01*
X57787658Y-50289361D01*
X57928436Y-50344877D01*
X58016898Y-50355500D01*
X58017234Y-50355500D01*
X58602766Y-50355500D01*
X58603102Y-50355500D01*
X58691564Y-50344877D01*
X58832342Y-50289361D01*
X58952922Y-50197922D01*
X59044361Y-50077342D01*
X59099877Y-49936564D01*
X59110500Y-49848102D01*
X59110500Y-49580000D01*
X59210001Y-49580000D01*
X59210001Y-49854681D01*
X59210031Y-49855277D01*
X59220494Y-49957696D01*
X59275641Y-50124120D01*
X59367682Y-50273342D01*
X59491657Y-50397317D01*
X59640879Y-50489358D01*
X59807303Y-50544506D01*
X59909721Y-50554969D01*
X59910317Y-50554999D01*
X59960000Y-50554999D01*
X59960000Y-49580001D01*
X59959999Y-49580000D01*
X60460000Y-49580000D01*
X60460000Y-50554998D01*
X60460001Y-50554999D01*
X60509681Y-50554999D01*
X60510277Y-50554968D01*
X60612696Y-50544505D01*
X60779120Y-50489358D01*
X60928342Y-50397317D01*
X61052317Y-50273342D01*
X61144358Y-50124120D01*
X61199506Y-49957696D01*
X61209969Y-49855278D01*
X61210000Y-49854682D01*
X61210000Y-49580001D01*
X61209999Y-49580000D01*
X60460000Y-49580000D01*
X59959999Y-49580000D01*
X59210001Y-49580000D01*
X59110500Y-49580000D01*
X59110500Y-49079999D01*
X59210000Y-49079999D01*
X59210001Y-49080000D01*
X59959999Y-49080000D01*
X59960000Y-49079999D01*
X59960000Y-48105000D01*
X60460000Y-48105000D01*
X60460000Y-49079999D01*
X60460001Y-49080000D01*
X61209998Y-49080000D01*
X61209999Y-49079999D01*
X61209999Y-48805318D01*
X61209968Y-48804722D01*
X61199505Y-48702303D01*
X61144358Y-48535879D01*
X61052317Y-48386657D01*
X60928342Y-48262682D01*
X60779120Y-48170641D01*
X60612696Y-48115493D01*
X60510278Y-48105030D01*
X60509682Y-48105000D01*
X60460000Y-48105000D01*
X59960000Y-48105000D01*
X59910318Y-48105000D01*
X59909722Y-48105031D01*
X59807303Y-48115494D01*
X59640879Y-48170641D01*
X59491657Y-48262682D01*
X59367682Y-48386657D01*
X59275641Y-48535879D01*
X59220493Y-48702303D01*
X59210030Y-48804721D01*
X59210000Y-48805317D01*
X59210000Y-49079999D01*
X59110500Y-49079999D01*
X59110500Y-48811898D01*
X59099877Y-48723436D01*
X59044361Y-48582658D01*
X58952922Y-48462078D01*
X58832342Y-48370639D01*
X58691564Y-48315123D01*
X58603102Y-48304500D01*
X58016898Y-48304500D01*
X58016565Y-48304539D01*
X58016564Y-48304540D01*
X57928435Y-48315123D01*
X57787658Y-48370639D01*
X57667078Y-48462078D01*
X57575639Y-48582658D01*
X57520123Y-48723435D01*
X57517521Y-48745107D01*
X57509500Y-48811898D01*
X57509500Y-48812233D01*
X57509500Y-48818000D01*
X57506132Y-48826132D01*
X57498000Y-48829500D01*
X56965048Y-48829500D01*
X56962603Y-48829237D01*
X56946074Y-48825640D01*
X56892526Y-48829471D01*
X56891706Y-48829500D01*
X56874201Y-48829500D01*
X56856872Y-48831990D01*
X56856057Y-48832078D01*
X56802515Y-48835909D01*
X56786670Y-48841818D01*
X56784289Y-48842426D01*
X56767543Y-48844834D01*
X56718719Y-48867131D01*
X56717961Y-48867445D01*
X56667668Y-48886204D01*
X56654125Y-48896341D01*
X56652013Y-48897594D01*
X56636627Y-48904622D01*
X56596067Y-48939766D01*
X56595429Y-48940280D01*
X56581406Y-48950779D01*
X56569024Y-48963160D01*
X56568424Y-48963719D01*
X56527857Y-48998872D01*
X56518711Y-49013101D01*
X56517169Y-49015015D01*
X54443131Y-51089053D01*
X54434999Y-51092421D01*
X54426867Y-51089053D01*
X52413868Y-49076054D01*
X52410500Y-49067922D01*
X52410500Y-46798677D01*
X52413868Y-46790545D01*
X52422000Y-46787177D01*
X52426465Y-46788079D01*
X52454886Y-46800058D01*
X52512989Y-46817979D01*
X52517455Y-46818882D01*
X52585044Y-46824861D01*
X52632497Y-46814852D01*
X52641147Y-46816469D01*
X52643001Y-46817972D01*
X52717235Y-46892206D01*
X52820009Y-46937585D01*
X52845135Y-46940500D01*
X54434864Y-46940499D01*
X54459991Y-46937585D01*
X54562765Y-46892206D01*
X54642206Y-46812765D01*
X54687585Y-46709991D01*
X54690500Y-46684865D01*
X54690499Y-45695136D01*
X54687585Y-45670009D01*
X54642206Y-45567235D01*
X54638103Y-45563132D01*
X54634735Y-45555000D01*
X54638103Y-45546868D01*
X54642206Y-45542765D01*
X54687585Y-45439991D01*
X54690500Y-45414865D01*
X54690499Y-44425136D01*
X54687585Y-44400009D01*
X54642206Y-44297235D01*
X54638103Y-44293132D01*
X54634735Y-44285000D01*
X54638103Y-44276868D01*
X54642206Y-44272765D01*
X54687585Y-44169991D01*
X54690500Y-44144865D01*
X54690499Y-43155136D01*
X54687585Y-43130009D01*
X54642206Y-43027235D01*
X54642204Y-43027233D01*
X54638102Y-43023130D01*
X54634734Y-43014998D01*
X54638102Y-43006868D01*
X54642206Y-43002765D01*
X54687585Y-42899991D01*
X54690500Y-42874865D01*
X54690499Y-41885136D01*
X54687585Y-41860009D01*
X54642206Y-41757235D01*
X54638103Y-41753132D01*
X54634735Y-41745000D01*
X54638103Y-41736868D01*
X54642206Y-41732765D01*
X54687585Y-41629991D01*
X54690500Y-41604865D01*
X54690499Y-40615136D01*
X54687585Y-40590009D01*
X54642206Y-40487235D01*
X54638102Y-40483131D01*
X54634734Y-40474999D01*
X54638102Y-40466868D01*
X54642206Y-40462765D01*
X54687585Y-40359991D01*
X54688665Y-40350675D01*
X54692948Y-40342986D01*
X54700089Y-40340500D01*
X55214952Y-40340500D01*
X55217397Y-40340763D01*
X55233925Y-40344359D01*
X55233926Y-40344358D01*
X55233927Y-40344359D01*
X55287473Y-40340529D01*
X55288294Y-40340500D01*
X55305798Y-40340500D01*
X55305799Y-40340500D01*
X55323154Y-40338004D01*
X55323920Y-40337921D01*
X55377483Y-40334091D01*
X55393340Y-40328176D01*
X55395704Y-40327573D01*
X55412457Y-40325165D01*
X55461307Y-40302854D01*
X55462017Y-40302560D01*
X55512331Y-40283796D01*
X55525878Y-40273653D01*
X55527982Y-40272405D01*
X55543373Y-40265377D01*
X55583932Y-40230231D01*
X55584569Y-40229719D01*
X55593837Y-40222781D01*
X55598593Y-40219221D01*
X55610987Y-40206825D01*
X55611558Y-40206293D01*
X55652143Y-40171128D01*
X55661291Y-40156891D01*
X55662826Y-40154986D01*
X55799869Y-40017943D01*
X55808000Y-40014576D01*
X55816132Y-40017944D01*
X55819500Y-40026076D01*
X55819500Y-41574523D01*
X55819500Y-41574540D01*
X55819501Y-41574864D01*
X55819539Y-41575195D01*
X55819540Y-41575205D01*
X55822414Y-41599990D01*
X55867793Y-41702764D01*
X55867794Y-41702764D01*
X55867794Y-41702765D01*
X55947235Y-41782206D01*
X56050009Y-41827585D01*
X56075135Y-41830500D01*
X57864864Y-41830499D01*
X57889991Y-41827585D01*
X57992765Y-41782206D01*
X58072206Y-41702765D01*
X58117585Y-41599991D01*
X58120500Y-41574865D01*
X58120500Y-41192000D01*
X58123868Y-41183868D01*
X58132000Y-41180500D01*
X61297922Y-41180500D01*
X61306054Y-41183868D01*
X63926132Y-43803946D01*
X63929500Y-43812078D01*
X63929500Y-44954560D01*
X63926132Y-44962692D01*
X63918000Y-44966060D01*
X63909868Y-44962692D01*
X63906539Y-44955510D01*
X63904612Y-44932259D01*
X63843587Y-44691279D01*
X63743733Y-44463633D01*
X63643435Y-44310117D01*
X62903076Y-45050475D01*
X62879493Y-44970156D01*
X62801761Y-44849202D01*
X62693100Y-44755048D01*
X62562315Y-44695320D01*
X62552530Y-44693913D01*
X63290056Y-43956388D01*
X63243234Y-43919946D01*
X63024608Y-43801633D01*
X62789489Y-43720915D01*
X62544295Y-43680000D01*
X62295705Y-43680000D01*
X62050510Y-43720915D01*
X61815391Y-43801633D01*
X61596765Y-43919947D01*
X61549942Y-43956388D01*
X62287467Y-44693913D01*
X62277685Y-44695320D01*
X62146900Y-44755048D01*
X62038239Y-44849202D01*
X61960507Y-44970156D01*
X61936922Y-45050476D01*
X61196563Y-44310117D01*
X61196562Y-44310117D01*
X61096266Y-44463633D01*
X60996412Y-44691279D01*
X60935387Y-44932259D01*
X60914859Y-45180000D01*
X60935387Y-45427740D01*
X60996412Y-45668720D01*
X61096266Y-45896366D01*
X61196563Y-46049881D01*
X61936922Y-45309521D01*
X61960507Y-45389844D01*
X62038239Y-45510798D01*
X62146900Y-45604952D01*
X62277685Y-45664680D01*
X62287465Y-45666086D01*
X61549942Y-46403610D01*
X61596765Y-46440053D01*
X61815391Y-46558366D01*
X62050510Y-46639084D01*
X62295705Y-46680000D01*
X62544295Y-46680000D01*
X62789489Y-46639084D01*
X63024608Y-46558366D01*
X63243234Y-46440053D01*
X63290056Y-46403610D01*
X62552532Y-45666086D01*
X62562315Y-45664680D01*
X62693100Y-45604952D01*
X62801761Y-45510798D01*
X62879493Y-45389844D01*
X62903077Y-45309523D01*
X63643435Y-46049881D01*
X63643436Y-46049881D01*
X63743733Y-45896366D01*
X63843587Y-45668720D01*
X63904612Y-45427740D01*
X63906539Y-45404489D01*
X63910568Y-45396664D01*
X63918950Y-45393978D01*
X63926775Y-45398007D01*
X63929500Y-45405439D01*
X63929500Y-58357921D01*
X63926132Y-58366053D01*
X62921585Y-59370599D01*
X62913453Y-59373967D01*
X62908593Y-59372890D01*
X62866492Y-59353259D01*
X62646692Y-59294364D01*
X62420000Y-59274531D01*
X62193307Y-59294364D01*
X61973507Y-59353259D01*
X61767262Y-59449434D01*
X61580864Y-59579950D01*
X61419950Y-59740864D01*
X61289434Y-59927262D01*
X61193259Y-60133507D01*
X61134364Y-60353307D01*
X61124243Y-60469002D01*
X61120179Y-60476809D01*
X61112787Y-60479500D01*
X59072078Y-60479500D01*
X59063946Y-60476132D01*
X58523867Y-59936053D01*
X58520499Y-59927921D01*
X58520499Y-58161999D01*
X58523867Y-58153867D01*
X58531999Y-58150499D01*
X59064524Y-58150499D01*
X59064864Y-58150499D01*
X59089991Y-58147585D01*
X59192765Y-58102206D01*
X59272206Y-58022765D01*
X59317585Y-57919991D01*
X59320500Y-57894865D01*
X59320499Y-56305136D01*
X59317585Y-56280009D01*
X59272206Y-56177235D01*
X59192765Y-56097794D01*
X59192764Y-56097793D01*
X59089990Y-56052414D01*
X59065206Y-56049539D01*
X59065196Y-56049538D01*
X59064865Y-56049500D01*
X59064524Y-56049500D01*
X56975476Y-56049500D01*
X56975458Y-56049500D01*
X56975136Y-56049501D01*
X56974805Y-56049539D01*
X56974794Y-56049540D01*
X56950009Y-56052414D01*
X56847235Y-56097793D01*
X56767793Y-56177235D01*
X56722414Y-56280009D01*
X56719539Y-56304793D01*
X56719538Y-56304804D01*
X56719500Y-56305135D01*
X56719500Y-56305474D01*
X56719500Y-56305475D01*
X56719500Y-57894523D01*
X56719500Y-57894540D01*
X56719501Y-57894864D01*
X56719539Y-57895195D01*
X56719540Y-57895205D01*
X56722414Y-57919990D01*
X56767793Y-58022764D01*
X56767794Y-58022765D01*
X56847235Y-58102206D01*
X56950009Y-58147585D01*
X56975135Y-58150500D01*
X57508000Y-58150499D01*
X57516132Y-58153867D01*
X57519500Y-58161999D01*
X57519500Y-59927922D01*
X57516132Y-59936054D01*
X57366054Y-60086132D01*
X57357922Y-60089500D01*
X56890021Y-60089500D01*
X56883192Y-60087253D01*
X56876904Y-60082612D01*
X56815382Y-60037207D01*
X56770527Y-60021511D01*
X56687198Y-59992353D01*
X56657039Y-59989525D01*
X56657026Y-59989524D01*
X56656766Y-59989500D01*
X55373234Y-59989500D01*
X55372974Y-59989524D01*
X55372960Y-59989525D01*
X55342801Y-59992353D01*
X55214618Y-60037207D01*
X55105349Y-60117849D01*
X55024707Y-60227118D01*
X54979853Y-60355301D01*
X54977025Y-60385460D01*
X54977024Y-60385474D01*
X54977000Y-60385734D01*
X54977000Y-60794266D01*
X54977024Y-60794526D01*
X54977025Y-60794539D01*
X54979853Y-60824698D01*
X54990787Y-60855945D01*
X55024707Y-60952882D01*
X55044694Y-60979963D01*
X55105349Y-61062150D01*
X55140385Y-61088007D01*
X55214618Y-61142793D01*
X55342801Y-61187646D01*
X55373234Y-61190500D01*
X55373511Y-61190500D01*
X56656489Y-61190500D01*
X56656766Y-61190500D01*
X56687199Y-61187646D01*
X56815382Y-61142793D01*
X56883192Y-61092746D01*
X56890021Y-61090500D01*
X57514952Y-61090500D01*
X57517397Y-61090763D01*
X57533925Y-61094359D01*
X57533926Y-61094358D01*
X57533927Y-61094359D01*
X57587473Y-61090529D01*
X57588294Y-61090500D01*
X57605798Y-61090500D01*
X57605799Y-61090500D01*
X57623154Y-61088004D01*
X57623920Y-61087921D01*
X57677483Y-61084091D01*
X57693340Y-61078176D01*
X57695704Y-61077573D01*
X57712457Y-61075165D01*
X57761307Y-61052854D01*
X57762017Y-61052560D01*
X57812331Y-61033796D01*
X57825878Y-61023653D01*
X57827982Y-61022405D01*
X57843373Y-61015377D01*
X57883932Y-60980231D01*
X57884569Y-60979719D01*
X57893072Y-60973353D01*
X57898593Y-60969221D01*
X57910987Y-60956825D01*
X57911558Y-60956293D01*
X57952143Y-60921128D01*
X57961291Y-60906891D01*
X57962826Y-60904986D01*
X58011870Y-60855943D01*
X58019999Y-60852577D01*
X58028131Y-60855945D01*
X58467170Y-61294984D01*
X58468710Y-61296895D01*
X58477857Y-61311128D01*
X58506574Y-61336011D01*
X58518417Y-61346273D01*
X58519017Y-61346832D01*
X58531406Y-61359221D01*
X58545418Y-61369709D01*
X58546058Y-61370224D01*
X58579035Y-61398798D01*
X58586627Y-61405377D01*
X58602014Y-61412404D01*
X58604127Y-61413657D01*
X58617669Y-61423795D01*
X58667963Y-61442554D01*
X58668703Y-61442860D01*
X58717543Y-61465165D01*
X58734292Y-61467572D01*
X58736662Y-61468176D01*
X58752517Y-61474091D01*
X58806069Y-61477920D01*
X58806841Y-61478003D01*
X58824201Y-61480500D01*
X58841714Y-61480500D01*
X58842534Y-61480529D01*
X58896073Y-61484358D01*
X58896073Y-61484357D01*
X58896074Y-61484358D01*
X58904317Y-61482564D01*
X58912599Y-61480762D01*
X58915043Y-61480500D01*
X59794201Y-61480500D01*
X59905799Y-61480500D01*
X61476550Y-61480500D01*
X61484682Y-61483868D01*
X61580861Y-61580047D01*
X61767266Y-61710568D01*
X61973504Y-61806739D01*
X61973506Y-61806739D01*
X61973507Y-61806740D01*
X62193307Y-61865635D01*
X62420000Y-61885468D01*
X62646692Y-61865635D01*
X62866496Y-61806739D01*
X63072734Y-61710568D01*
X63259139Y-61580047D01*
X63420047Y-61419139D01*
X63550568Y-61232734D01*
X63646739Y-61026496D01*
X63705635Y-60806692D01*
X63725468Y-60580000D01*
X63705635Y-60353308D01*
X63678581Y-60252342D01*
X63646740Y-60133507D01*
X63627108Y-60091405D01*
X63626725Y-60082612D01*
X63629397Y-60078415D01*
X64744984Y-58962827D01*
X64746889Y-58961292D01*
X64761128Y-58952143D01*
X64796300Y-58911550D01*
X64796832Y-58910979D01*
X64809220Y-58898593D01*
X64819735Y-58884545D01*
X64820202Y-58883965D01*
X64855377Y-58843373D01*
X64862405Y-58827982D01*
X64863653Y-58825878D01*
X64873796Y-58812331D01*
X64892560Y-58762017D01*
X64892854Y-58761307D01*
X64915165Y-58712457D01*
X64917573Y-58695704D01*
X64918176Y-58693340D01*
X64924091Y-58677483D01*
X64927921Y-58623920D01*
X64928004Y-58623154D01*
X64930500Y-58605799D01*
X64930500Y-58588293D01*
X64930529Y-58587473D01*
X64934359Y-58533925D01*
X64930763Y-58517396D01*
X64930500Y-58514951D01*
X64930500Y-43655048D01*
X64930763Y-43652603D01*
X64934359Y-43636074D01*
X64930529Y-43582525D01*
X64930500Y-43581705D01*
X64930500Y-43564201D01*
X64928004Y-43546847D01*
X64927921Y-43546075D01*
X64924091Y-43492517D01*
X64918177Y-43476663D01*
X64917572Y-43474291D01*
X64915165Y-43457543D01*
X64892863Y-43408710D01*
X64892553Y-43407961D01*
X64873796Y-43357669D01*
X64863656Y-43344124D01*
X64862402Y-43342010D01*
X64855377Y-43326627D01*
X64820232Y-43286067D01*
X64819717Y-43285428D01*
X64815962Y-43280412D01*
X64809221Y-43271407D01*
X64809219Y-43271405D01*
X64796832Y-43259017D01*
X64796273Y-43258417D01*
X64761128Y-43217857D01*
X64746895Y-43208710D01*
X64744984Y-43207170D01*
X61902828Y-40365014D01*
X61901286Y-40363099D01*
X61892143Y-40348872D01*
X61851581Y-40313725D01*
X61850981Y-40313166D01*
X61838594Y-40300780D01*
X61824570Y-40290281D01*
X61823931Y-40289766D01*
X61783371Y-40254621D01*
X61767986Y-40247594D01*
X61765873Y-40246340D01*
X61752333Y-40236205D01*
X61752331Y-40236204D01*
X61716343Y-40222781D01*
X61702037Y-40217445D01*
X61701279Y-40217131D01*
X61652456Y-40194834D01*
X61635711Y-40192426D01*
X61633330Y-40191818D01*
X61617485Y-40185909D01*
X61563941Y-40182078D01*
X61563126Y-40181990D01*
X61545799Y-40179500D01*
X61528294Y-40179500D01*
X61527474Y-40179471D01*
X61473925Y-40175640D01*
X61457397Y-40179237D01*
X61454952Y-40179500D01*
X58131999Y-40179500D01*
X58123867Y-40176132D01*
X58120499Y-40168000D01*
X58120499Y-39785476D01*
X58120499Y-39785136D01*
X58117585Y-39760009D01*
X58072206Y-39657235D01*
X57992765Y-39577794D01*
X57992764Y-39577793D01*
X57889990Y-39532414D01*
X57865206Y-39529539D01*
X57865196Y-39529538D01*
X57864865Y-39529500D01*
X57864525Y-39529500D01*
X56316077Y-39529500D01*
X56307945Y-39526132D01*
X56304577Y-39518000D01*
X56307945Y-39509868D01*
X56440439Y-39377374D01*
X56585574Y-39232238D01*
X56593705Y-39228871D01*
X56597859Y-39229648D01*
X56653802Y-39251321D01*
X56815202Y-39281492D01*
X56863389Y-39290500D01*
X56863390Y-39290500D01*
X57076611Y-39290500D01*
X57124797Y-39281492D01*
X57286198Y-39251321D01*
X57485019Y-39174298D01*
X57666302Y-39062052D01*
X57823872Y-38918407D01*
X57952366Y-38748255D01*
X57982930Y-38686873D01*
X57989569Y-38681096D01*
X57993224Y-38680500D01*
X59325186Y-38680500D01*
X59333318Y-38683868D01*
X59336604Y-38690629D01*
X59345123Y-38761564D01*
X59400639Y-38902342D01*
X59492078Y-39022922D01*
X59612658Y-39114361D01*
X59753436Y-39169877D01*
X59841898Y-39180500D01*
X59842234Y-39180500D01*
X60452766Y-39180500D01*
X60453102Y-39180500D01*
X60541564Y-39169877D01*
X60682342Y-39114361D01*
X60802922Y-39022922D01*
X60894361Y-38902342D01*
X60949877Y-38761564D01*
X60960500Y-38673102D01*
X60960500Y-37686898D01*
X60949877Y-37598436D01*
X60894361Y-37457658D01*
X60802922Y-37337078D01*
X60682342Y-37245639D01*
X60541564Y-37190123D01*
X60453102Y-37179500D01*
X59841898Y-37179500D01*
X59841565Y-37179539D01*
X59841564Y-37179540D01*
X59753435Y-37190123D01*
X59612658Y-37245639D01*
X59492078Y-37337078D01*
X59400639Y-37457658D01*
X59345123Y-37598435D01*
X59336604Y-37669371D01*
X59332290Y-37677043D01*
X59325186Y-37679500D01*
X58033058Y-37679500D01*
X58024926Y-37676132D01*
X58022764Y-37673126D01*
X58022410Y-37672415D01*
X57952366Y-37531745D01*
X57894658Y-37455328D01*
X57823875Y-37361596D01*
X57813925Y-37352525D01*
X57666302Y-37217948D01*
X57599962Y-37176872D01*
X57485018Y-37105701D01*
X57286200Y-37028679D01*
X57076611Y-36989500D01*
X57076610Y-36989500D01*
X56863390Y-36989500D01*
X56863389Y-36989500D01*
X56653799Y-37028679D01*
X56454981Y-37105701D01*
X56273702Y-37217945D01*
X56273700Y-37217946D01*
X56273698Y-37217948D01*
X56220908Y-37266073D01*
X56116124Y-37361596D01*
X55987634Y-37531744D01*
X55892595Y-37722609D01*
X55863061Y-37826410D01*
X55857596Y-37833310D01*
X55848853Y-37834324D01*
X55841953Y-37828859D01*
X55840500Y-37823263D01*
X55840500Y-37818284D01*
X55840529Y-37817464D01*
X55844358Y-37763925D01*
X55840763Y-37747401D01*
X55840500Y-37744956D01*
X55840500Y-37442077D01*
X55843867Y-37433946D01*
X56585574Y-36692238D01*
X56593705Y-36688871D01*
X56597859Y-36689648D01*
X56653802Y-36711321D01*
X56815202Y-36741492D01*
X56863389Y-36750500D01*
X56863390Y-36750500D01*
X57076611Y-36750500D01*
X57124797Y-36741492D01*
X57286198Y-36711321D01*
X57485019Y-36634298D01*
X57666302Y-36522052D01*
X57823872Y-36378407D01*
X57952366Y-36208255D01*
X57987909Y-36136873D01*
X57994548Y-36131096D01*
X57998203Y-36130500D01*
X59265186Y-36130500D01*
X59273318Y-36133868D01*
X59276604Y-36140629D01*
X59284726Y-36208255D01*
X59285123Y-36211564D01*
X59340639Y-36352342D01*
X59432078Y-36472922D01*
X59552658Y-36564361D01*
X59693436Y-36619877D01*
X59781898Y-36630500D01*
X59782234Y-36630500D01*
X60392766Y-36630500D01*
X60393102Y-36630500D01*
X60481564Y-36619877D01*
X60622342Y-36564361D01*
X60742922Y-36472922D01*
X60834361Y-36352342D01*
X60889877Y-36211564D01*
X60900500Y-36123102D01*
X60900500Y-35136898D01*
X60889877Y-35048436D01*
X60834361Y-34907658D01*
X60742922Y-34787078D01*
X60622342Y-34695639D01*
X60481564Y-34640123D01*
X60393102Y-34629500D01*
X59781898Y-34629500D01*
X59781565Y-34629539D01*
X59781564Y-34629540D01*
X59693435Y-34640123D01*
X59552658Y-34695639D01*
X59432078Y-34787078D01*
X59340639Y-34907658D01*
X59285123Y-35048435D01*
X59276604Y-35119371D01*
X59272290Y-35127043D01*
X59265186Y-35129500D01*
X58028079Y-35129500D01*
X58019947Y-35126132D01*
X58017785Y-35123126D01*
X57973367Y-35033921D01*
X57952366Y-34991745D01*
X57891781Y-34911518D01*
X57823875Y-34821596D01*
X57809513Y-34808503D01*
X57666302Y-34677948D01*
X57588056Y-34629500D01*
X57485018Y-34565701D01*
X57286200Y-34488679D01*
X57076611Y-34449500D01*
X57076610Y-34449500D01*
X56863390Y-34449500D01*
X56863389Y-34449500D01*
X56653799Y-34488679D01*
X56454981Y-34565701D01*
X56273702Y-34677945D01*
X56273700Y-34677946D01*
X56273698Y-34677948D01*
X56225516Y-34721872D01*
X56116124Y-34821596D01*
X55987634Y-34991744D01*
X55892595Y-35182609D01*
X55834243Y-35387689D01*
X55814571Y-35600000D01*
X55834243Y-35812310D01*
X55880157Y-35973677D01*
X55879143Y-35982420D01*
X55877228Y-35984956D01*
X55025015Y-36837169D01*
X55023101Y-36838711D01*
X55008872Y-36847857D01*
X54973719Y-36888424D01*
X54973160Y-36889024D01*
X54960779Y-36901406D01*
X54950280Y-36915429D01*
X54949766Y-36916067D01*
X54914622Y-36956627D01*
X54907594Y-36972013D01*
X54906341Y-36974125D01*
X54896204Y-36987668D01*
X54877445Y-37037961D01*
X54877131Y-37038719D01*
X54854834Y-37087543D01*
X54852426Y-37104289D01*
X54851818Y-37106670D01*
X54845909Y-37122515D01*
X54842078Y-37176057D01*
X54841990Y-37176872D01*
X54839500Y-37194200D01*
X54839500Y-37211705D01*
X54839471Y-37212525D01*
X54835640Y-37266074D01*
X54839237Y-37282603D01*
X54839500Y-37285048D01*
X54839500Y-37587921D01*
X54836132Y-37596053D01*
X54710131Y-37722053D01*
X54701999Y-37725421D01*
X54693867Y-37722053D01*
X54690499Y-37713921D01*
X54690499Y-36805476D01*
X54690499Y-36805475D01*
X54690499Y-36805136D01*
X54687585Y-36780009D01*
X54642206Y-36677235D01*
X54638103Y-36673132D01*
X54634735Y-36665000D01*
X54638103Y-36656868D01*
X54642206Y-36652765D01*
X54687585Y-36549991D01*
X54690500Y-36524865D01*
X54690499Y-35535136D01*
X54687585Y-35510009D01*
X54642206Y-35407235D01*
X54638103Y-35403132D01*
X54634735Y-35395000D01*
X54638103Y-35386868D01*
X54639622Y-35385349D01*
X54642206Y-35382765D01*
X54687585Y-35279991D01*
X54690500Y-35254865D01*
X54690499Y-34265136D01*
X54687585Y-34240009D01*
X54642206Y-34137235D01*
X54638103Y-34133132D01*
X54634735Y-34125000D01*
X54638103Y-34116868D01*
X54642206Y-34112765D01*
X54687585Y-34009991D01*
X54690500Y-33984865D01*
X54690499Y-33060000D01*
X55814571Y-33060000D01*
X55834243Y-33272310D01*
X55892595Y-33477390D01*
X55987634Y-33668255D01*
X56116124Y-33838403D01*
X56116127Y-33838405D01*
X56116128Y-33838407D01*
X56273698Y-33982052D01*
X56454981Y-34094298D01*
X56653802Y-34171321D01*
X56800815Y-34198802D01*
X56863389Y-34210500D01*
X56863390Y-34210500D01*
X57076611Y-34210500D01*
X57124797Y-34201492D01*
X57286198Y-34171321D01*
X57485019Y-34094298D01*
X57666302Y-33982052D01*
X57823872Y-33838407D01*
X57952366Y-33668255D01*
X58011249Y-33550000D01*
X59525001Y-33550000D01*
X59525001Y-33599681D01*
X59525031Y-33600277D01*
X59535494Y-33702696D01*
X59590641Y-33869120D01*
X59682682Y-34018342D01*
X59806657Y-34142317D01*
X59955879Y-34234358D01*
X60122303Y-34289506D01*
X60224721Y-34299969D01*
X60225317Y-34299999D01*
X60499998Y-34299999D01*
X60499999Y-34299998D01*
X61000000Y-34299998D01*
X61000001Y-34299999D01*
X61274681Y-34299999D01*
X61275277Y-34299968D01*
X61377696Y-34289505D01*
X61544120Y-34234358D01*
X61693342Y-34142317D01*
X61817317Y-34018342D01*
X61909358Y-33869120D01*
X61964506Y-33702696D01*
X61974969Y-33600278D01*
X61975000Y-33599682D01*
X61975000Y-33550001D01*
X61974999Y-33550000D01*
X61000001Y-33550000D01*
X61000000Y-33550001D01*
X61000000Y-34299998D01*
X60499999Y-34299998D01*
X60499999Y-33550000D01*
X59525001Y-33550000D01*
X58011249Y-33550000D01*
X58047405Y-33477389D01*
X58105756Y-33272310D01*
X58125429Y-33060000D01*
X58124502Y-33049999D01*
X59525000Y-33049999D01*
X59525001Y-33050000D01*
X60499999Y-33050000D01*
X60500000Y-33049999D01*
X61000000Y-33049999D01*
X61000001Y-33050000D01*
X61974998Y-33050000D01*
X61974999Y-33049999D01*
X61974999Y-33000318D01*
X61974968Y-32999722D01*
X61964505Y-32897303D01*
X61909358Y-32730879D01*
X61817317Y-32581657D01*
X61693342Y-32457682D01*
X61544120Y-32365641D01*
X61377696Y-32310493D01*
X61275278Y-32300030D01*
X61274682Y-32300000D01*
X61000001Y-32300000D01*
X61000000Y-32300001D01*
X61000000Y-33049999D01*
X60500000Y-33049999D01*
X60500000Y-33049998D01*
X60500000Y-32300001D01*
X60499999Y-32300000D01*
X60225318Y-32300000D01*
X60224722Y-32300031D01*
X60122303Y-32310494D01*
X59955879Y-32365641D01*
X59806657Y-32457682D01*
X59682682Y-32581657D01*
X59590641Y-32730879D01*
X59535493Y-32897303D01*
X59525030Y-32999721D01*
X59525000Y-33000317D01*
X59525000Y-33049999D01*
X58124502Y-33049999D01*
X58106752Y-32858435D01*
X58105756Y-32847689D01*
X58070274Y-32722986D01*
X58047405Y-32642611D01*
X57952366Y-32451745D01*
X57870927Y-32343903D01*
X57823875Y-32281596D01*
X57823872Y-32281593D01*
X57666302Y-32137948D01*
X57577431Y-32082921D01*
X57485018Y-32025701D01*
X57286200Y-31948679D01*
X57076611Y-31909500D01*
X57076610Y-31909500D01*
X56863390Y-31909500D01*
X56863389Y-31909500D01*
X56653799Y-31948679D01*
X56454981Y-32025701D01*
X56273702Y-32137945D01*
X56273700Y-32137946D01*
X56273698Y-32137948D01*
X56233755Y-32174361D01*
X56116124Y-32281596D01*
X55987634Y-32451744D01*
X55892595Y-32642609D01*
X55834243Y-32847689D01*
X55814571Y-33060000D01*
X54690499Y-33060000D01*
X54690499Y-32995136D01*
X54687585Y-32970009D01*
X54642206Y-32867235D01*
X54642204Y-32867233D01*
X54638102Y-32863130D01*
X54634734Y-32854998D01*
X54638102Y-32846868D01*
X54642206Y-32842765D01*
X54687585Y-32739991D01*
X54688665Y-32730675D01*
X54692948Y-32722986D01*
X54700089Y-32720500D01*
X55024952Y-32720500D01*
X55027397Y-32720763D01*
X55043925Y-32724359D01*
X55043926Y-32724358D01*
X55043927Y-32724359D01*
X55097473Y-32720529D01*
X55098294Y-32720500D01*
X55115798Y-32720500D01*
X55115799Y-32720500D01*
X55133154Y-32718004D01*
X55133920Y-32717921D01*
X55187483Y-32714091D01*
X55203340Y-32708176D01*
X55205704Y-32707573D01*
X55222457Y-32705165D01*
X55271307Y-32682854D01*
X55272017Y-32682560D01*
X55322331Y-32663796D01*
X55335878Y-32653653D01*
X55337982Y-32652405D01*
X55353373Y-32645377D01*
X55393932Y-32610231D01*
X55394569Y-32609719D01*
X55403072Y-32603353D01*
X55408593Y-32599221D01*
X55420987Y-32586825D01*
X55421558Y-32586293D01*
X55462143Y-32551128D01*
X55471291Y-32536891D01*
X55472826Y-32534986D01*
X55934984Y-32072827D01*
X55936889Y-32071292D01*
X55951128Y-32062143D01*
X55986300Y-32021550D01*
X55986832Y-32020979D01*
X55999220Y-32008593D01*
X56009735Y-31994545D01*
X56010202Y-31993965D01*
X56045377Y-31953373D01*
X56052405Y-31937982D01*
X56053653Y-31935878D01*
X56063796Y-31922331D01*
X56082560Y-31872017D01*
X56082854Y-31871307D01*
X56105165Y-31822457D01*
X56107573Y-31805704D01*
X56108176Y-31803340D01*
X56114091Y-31787483D01*
X56117921Y-31733920D01*
X56118004Y-31733154D01*
X56120500Y-31715799D01*
X56120500Y-31698293D01*
X56120529Y-31697473D01*
X56120866Y-31692766D01*
X56124359Y-31643927D01*
X56120761Y-31627386D01*
X56120499Y-31624960D01*
X56120499Y-31595307D01*
X56123867Y-31587178D01*
X56131999Y-31583810D01*
X56138595Y-31585890D01*
X56292417Y-31693597D01*
X56506512Y-31793432D01*
X56734678Y-31854569D01*
X56970000Y-31875157D01*
X57205321Y-31854569D01*
X57433487Y-31793432D01*
X57647582Y-31693597D01*
X57841074Y-31558112D01*
X58008112Y-31391074D01*
X58143597Y-31197582D01*
X58243432Y-30983487D01*
X58300636Y-30770000D01*
X57403686Y-30770000D01*
X57429493Y-30729844D01*
X57470000Y-30591889D01*
X57470000Y-30448111D01*
X57429493Y-30310156D01*
X57403686Y-30270000D01*
X58300636Y-30270000D01*
X58243432Y-30056512D01*
X58143597Y-29842418D01*
X58035890Y-29688596D01*
X58033985Y-29680003D01*
X58038714Y-29672580D01*
X58045310Y-29670500D01*
X59400544Y-29670500D01*
X59408676Y-29673868D01*
X59411981Y-29680798D01*
X59424325Y-29798256D01*
X59482820Y-29978284D01*
X59577466Y-30142215D01*
X59577467Y-30142216D01*
X59704129Y-30282888D01*
X59857270Y-30394151D01*
X60030197Y-30471144D01*
X60215354Y-30510500D01*
X60215355Y-30510500D01*
X60404645Y-30510500D01*
X60404646Y-30510500D01*
X60589803Y-30471144D01*
X60762730Y-30394151D01*
X60915871Y-30282888D01*
X61042533Y-30142216D01*
X61057524Y-30116249D01*
X61064506Y-30110892D01*
X61067483Y-30110500D01*
X61947922Y-30110500D01*
X61956054Y-30113868D01*
X62491996Y-30649810D01*
X62495364Y-30657942D01*
X62491996Y-30666074D01*
X62488083Y-30668640D01*
X62457658Y-30680638D01*
X62337078Y-30772078D01*
X62244684Y-30893918D01*
X62244388Y-30893693D01*
X62239692Y-30898550D01*
X62235114Y-30899500D01*
X61725801Y-30899500D01*
X61717669Y-30896132D01*
X61715103Y-30892219D01*
X61714435Y-30890527D01*
X61709361Y-30877658D01*
X61617922Y-30757078D01*
X61497342Y-30665639D01*
X61356564Y-30610123D01*
X61268102Y-30599500D01*
X60231898Y-30599500D01*
X60231565Y-30599539D01*
X60231564Y-30599540D01*
X60143435Y-30610123D01*
X60002658Y-30665639D01*
X59882078Y-30757078D01*
X59790639Y-30877658D01*
X59740548Y-31004680D01*
X59735123Y-31018436D01*
X59724500Y-31106898D01*
X59724500Y-31693102D01*
X59735123Y-31781564D01*
X59790639Y-31922342D01*
X59882078Y-32042922D01*
X60002658Y-32134361D01*
X60143436Y-32189877D01*
X60231898Y-32200500D01*
X60232234Y-32200500D01*
X61267766Y-32200500D01*
X61268102Y-32200500D01*
X61356564Y-32189877D01*
X61497342Y-32134361D01*
X61617922Y-32042922D01*
X61709361Y-31922342D01*
X61715102Y-31907781D01*
X61721219Y-31901452D01*
X61725801Y-31900500D01*
X62213425Y-31900500D01*
X62221557Y-31903868D01*
X62224123Y-31907781D01*
X62245639Y-31962342D01*
X62337078Y-32082922D01*
X62457658Y-32174361D01*
X62598436Y-32229877D01*
X62686898Y-32240500D01*
X62687234Y-32240500D01*
X63672766Y-32240500D01*
X63673102Y-32240500D01*
X63761564Y-32229877D01*
X63902342Y-32174361D01*
X64022922Y-32082922D01*
X64114361Y-31962342D01*
X64169877Y-31821564D01*
X64180500Y-31733102D01*
X64180500Y-31121898D01*
X64169877Y-31033436D01*
X64114361Y-30892658D01*
X64022922Y-30772078D01*
X63902342Y-30680639D01*
X63761564Y-30625123D01*
X63761563Y-30625122D01*
X63690629Y-30616604D01*
X63682957Y-30612290D01*
X63680500Y-30605186D01*
X63680500Y-30594201D01*
X63678004Y-30576847D01*
X63677921Y-30576075D01*
X63674091Y-30522517D01*
X63668177Y-30506663D01*
X63667572Y-30504291D01*
X63665165Y-30487543D01*
X63642863Y-30438710D01*
X63642553Y-30437961D01*
X63623796Y-30387669D01*
X63613656Y-30374124D01*
X63612402Y-30372010D01*
X63605377Y-30356627D01*
X63596308Y-30346161D01*
X63570232Y-30316067D01*
X63569717Y-30315428D01*
X63565770Y-30310156D01*
X63559221Y-30301407D01*
X63553861Y-30296047D01*
X63546832Y-30289017D01*
X63546273Y-30288417D01*
X63541482Y-30282888D01*
X63511128Y-30247857D01*
X63496895Y-30238710D01*
X63494984Y-30237170D01*
X62552828Y-29295014D01*
X62551286Y-29293099D01*
X62542143Y-29278872D01*
X62501581Y-29243725D01*
X62500981Y-29243166D01*
X62488594Y-29230780D01*
X62474570Y-29220281D01*
X62473931Y-29219766D01*
X62433371Y-29184621D01*
X62417986Y-29177594D01*
X62415873Y-29176340D01*
X62402333Y-29166205D01*
X62402331Y-29166204D01*
X62375673Y-29156261D01*
X62352037Y-29147445D01*
X62351279Y-29147131D01*
X62302456Y-29124834D01*
X62285711Y-29122426D01*
X62283330Y-29121818D01*
X62267485Y-29115909D01*
X62213941Y-29112078D01*
X62213126Y-29111990D01*
X62195799Y-29109500D01*
X62178294Y-29109500D01*
X62177474Y-29109471D01*
X62123925Y-29105640D01*
X62107397Y-29109237D01*
X62104952Y-29109500D01*
X61067483Y-29109500D01*
X61059351Y-29106132D01*
X61057524Y-29103750D01*
X61042533Y-29077784D01*
X60993766Y-29023623D01*
X60963216Y-28989694D01*
X60960279Y-28981398D01*
X60964068Y-28973454D01*
X60971763Y-28970500D01*
X62917922Y-28970500D01*
X62926054Y-28973868D01*
X64506132Y-30553946D01*
X64509500Y-30562078D01*
X64509499Y-34967922D01*
X64506131Y-34976054D01*
X64356054Y-35126132D01*
X64347922Y-35129500D01*
X64062078Y-35129500D01*
X64053946Y-35126132D01*
X63683867Y-34756053D01*
X63680499Y-34747921D01*
X63680499Y-34412811D01*
X63680499Y-34074809D01*
X63683867Y-34066680D01*
X63690625Y-34063395D01*
X63761564Y-34054877D01*
X63902342Y-33999361D01*
X64022922Y-33907922D01*
X64114361Y-33787342D01*
X64169877Y-33646564D01*
X64180500Y-33558102D01*
X64180500Y-32946898D01*
X64169877Y-32858436D01*
X64114361Y-32717658D01*
X64022922Y-32597078D01*
X63902342Y-32505639D01*
X63761564Y-32450123D01*
X63673102Y-32439500D01*
X62686898Y-32439500D01*
X62686565Y-32439539D01*
X62686564Y-32439540D01*
X62598435Y-32450123D01*
X62457658Y-32505639D01*
X62337078Y-32597078D01*
X62245639Y-32717658D01*
X62190123Y-32858435D01*
X62189066Y-32867234D01*
X62179500Y-32946898D01*
X62179500Y-33558102D01*
X62190123Y-33646564D01*
X62245639Y-33787342D01*
X62337078Y-33907922D01*
X62457658Y-33999361D01*
X62598436Y-34054877D01*
X62669372Y-34063394D01*
X62677043Y-34067708D01*
X62679500Y-34074812D01*
X62679500Y-34900018D01*
X62676132Y-34908150D01*
X62668000Y-34911518D01*
X62659868Y-34908150D01*
X62658837Y-34906967D01*
X62658514Y-34906541D01*
X62567922Y-34787078D01*
X62447342Y-34695639D01*
X62306564Y-34640123D01*
X62218102Y-34629500D01*
X61606898Y-34629500D01*
X61606565Y-34629539D01*
X61606564Y-34629540D01*
X61518435Y-34640123D01*
X61377658Y-34695639D01*
X61257078Y-34787078D01*
X61165639Y-34907658D01*
X61132480Y-34991744D01*
X61110123Y-35048436D01*
X61099500Y-35136898D01*
X61099500Y-36123102D01*
X61110123Y-36211564D01*
X61165639Y-36352342D01*
X61257078Y-36472922D01*
X61377658Y-36564361D01*
X61518436Y-36619877D01*
X61606898Y-36630500D01*
X61607234Y-36630500D01*
X62217766Y-36630500D01*
X62218102Y-36630500D01*
X62306564Y-36619877D01*
X62447342Y-36564361D01*
X62567922Y-36472922D01*
X62659361Y-36352342D01*
X62714877Y-36211564D01*
X62720985Y-36160701D01*
X62723396Y-36140629D01*
X62727710Y-36132957D01*
X62734814Y-36130500D01*
X63814201Y-36130500D01*
X63831706Y-36130500D01*
X63832526Y-36130529D01*
X63842187Y-36131220D01*
X63886073Y-36134359D01*
X63886073Y-36134358D01*
X63886074Y-36134359D01*
X63902603Y-36130763D01*
X63905048Y-36130500D01*
X64498000Y-36130500D01*
X64506132Y-36133868D01*
X64509500Y-36142000D01*
X64509500Y-37157922D01*
X64506132Y-37166054D01*
X63996054Y-37676132D01*
X63987922Y-37679500D01*
X62794814Y-37679500D01*
X62786682Y-37676132D01*
X62783396Y-37669371D01*
X62778042Y-37624793D01*
X62774877Y-37598436D01*
X62719361Y-37457658D01*
X62627922Y-37337078D01*
X62507342Y-37245639D01*
X62366564Y-37190123D01*
X62278102Y-37179500D01*
X61666898Y-37179500D01*
X61666565Y-37179539D01*
X61666564Y-37179540D01*
X61578435Y-37190123D01*
X61437658Y-37245639D01*
X61317078Y-37337078D01*
X61225639Y-37457658D01*
X61170123Y-37598435D01*
X61159819Y-37684242D01*
X61159500Y-37686898D01*
X61159500Y-38673102D01*
X61170123Y-38761564D01*
X61225639Y-38902342D01*
X61317078Y-39022922D01*
X61437658Y-39114361D01*
X61578436Y-39169877D01*
X61666898Y-39180500D01*
X61667234Y-39180500D01*
X62277766Y-39180500D01*
X62278102Y-39180500D01*
X62366564Y-39169877D01*
X62507342Y-39114361D01*
X62627922Y-39022922D01*
X62719361Y-38902342D01*
X62774877Y-38761564D01*
X62783395Y-38690629D01*
X62787710Y-38682957D01*
X62794814Y-38680500D01*
X64144952Y-38680500D01*
X64147397Y-38680763D01*
X64163925Y-38684359D01*
X64163926Y-38684358D01*
X64163927Y-38684359D01*
X64207747Y-38681224D01*
X64217474Y-38680529D01*
X64218294Y-38680500D01*
X64235798Y-38680500D01*
X64235799Y-38680500D01*
X64253154Y-38678004D01*
X64253920Y-38677921D01*
X64307483Y-38674091D01*
X64323340Y-38668176D01*
X64325704Y-38667573D01*
X64342457Y-38665165D01*
X64391307Y-38642854D01*
X64392017Y-38642560D01*
X64442331Y-38623796D01*
X64455878Y-38613653D01*
X64457982Y-38612405D01*
X64473373Y-38605377D01*
X64513932Y-38570231D01*
X64514569Y-38569719D01*
X64523072Y-38563353D01*
X64528593Y-38559221D01*
X64540987Y-38546825D01*
X64541558Y-38546293D01*
X64582143Y-38511128D01*
X64591291Y-38496891D01*
X64592826Y-38494986D01*
X65324986Y-37762826D01*
X65326891Y-37761291D01*
X65341128Y-37752143D01*
X65376293Y-37711558D01*
X65376825Y-37710987D01*
X65389221Y-37698593D01*
X65393353Y-37693072D01*
X65399719Y-37684569D01*
X65400234Y-37683929D01*
X65406201Y-37677043D01*
X65435377Y-37643373D01*
X65442405Y-37627982D01*
X65443653Y-37625878D01*
X65453796Y-37612331D01*
X65472560Y-37562017D01*
X65472854Y-37561307D01*
X65495165Y-37512457D01*
X65497573Y-37495704D01*
X65498176Y-37493340D01*
X65504091Y-37477483D01*
X65507921Y-37423920D01*
X65508004Y-37423154D01*
X65510500Y-37405799D01*
X65510500Y-37388293D01*
X65510529Y-37387473D01*
X65513087Y-37351705D01*
X65514359Y-37333927D01*
X65510763Y-37317396D01*
X65510500Y-37314951D01*
X65510500Y-35198293D01*
X65510529Y-35197473D01*
X65514359Y-35143925D01*
X65510762Y-35127395D01*
X65510499Y-35124950D01*
X65510499Y-30405043D01*
X65510762Y-30402598D01*
X65514358Y-30386073D01*
X65510529Y-30332534D01*
X65510500Y-30331714D01*
X65510500Y-30314201D01*
X65508660Y-30301407D01*
X65508003Y-30296841D01*
X65507920Y-30296069D01*
X65504091Y-30242517D01*
X65498176Y-30226662D01*
X65497572Y-30224292D01*
X65495165Y-30207543D01*
X65472861Y-30158705D01*
X65472551Y-30157956D01*
X65453795Y-30107668D01*
X65443656Y-30094125D01*
X65442402Y-30092011D01*
X65435377Y-30076627D01*
X65400218Y-30036052D01*
X65399728Y-30035444D01*
X65389220Y-30021406D01*
X65387814Y-30020000D01*
X65376832Y-30009017D01*
X65376273Y-30008417D01*
X65341128Y-29967857D01*
X65326895Y-29958710D01*
X65324984Y-29957170D01*
X63522828Y-28155014D01*
X63521286Y-28153099D01*
X63512143Y-28138872D01*
X63471581Y-28103725D01*
X63470981Y-28103166D01*
X63458594Y-28090780D01*
X63444570Y-28080281D01*
X63443931Y-28079766D01*
X63418425Y-28057665D01*
X63414485Y-28049794D01*
X63417265Y-28041443D01*
X63425136Y-28037503D01*
X63425930Y-28037475D01*
X65915514Y-28039984D01*
X65923640Y-28043360D01*
X65927000Y-28051484D01*
X65927000Y-77890659D01*
X65923632Y-77898791D01*
X65915500Y-77902159D01*
X65907368Y-77898791D01*
X65906079Y-77897254D01*
X63288601Y-74158001D01*
X60910000Y-70760000D01*
X57719090Y-67609999D01*
X59785224Y-67609999D01*
X59804287Y-67827889D01*
X59860895Y-68039154D01*
X59953335Y-68237391D01*
X59996874Y-68299571D01*
X60556922Y-67739521D01*
X60580507Y-67819844D01*
X60658239Y-67940798D01*
X60766900Y-68034952D01*
X60897685Y-68094680D01*
X60907465Y-68096086D01*
X60350427Y-68653124D01*
X60412608Y-68696664D01*
X60610845Y-68789104D01*
X60822110Y-68845712D01*
X61040000Y-68864775D01*
X61257889Y-68845712D01*
X61469154Y-68789104D01*
X61667391Y-68696664D01*
X61729572Y-68653125D01*
X61172532Y-68096086D01*
X61182315Y-68094680D01*
X61313100Y-68034952D01*
X61421761Y-67940798D01*
X61499493Y-67819844D01*
X61523077Y-67739523D01*
X62083125Y-68299572D01*
X62126664Y-68237391D01*
X62219104Y-68039154D01*
X62275712Y-67827889D01*
X62294775Y-67609999D01*
X62275712Y-67392110D01*
X62219104Y-67180845D01*
X62126664Y-66982609D01*
X62083123Y-66920427D01*
X61523076Y-67480474D01*
X61499493Y-67400156D01*
X61421761Y-67279202D01*
X61313100Y-67185048D01*
X61182315Y-67125320D01*
X61172530Y-67123913D01*
X61729571Y-66566874D01*
X61667391Y-66523335D01*
X61469154Y-66430895D01*
X61257889Y-66374287D01*
X61040000Y-66355224D01*
X60822110Y-66374287D01*
X60610845Y-66430895D01*
X60412609Y-66523335D01*
X60350428Y-66566875D01*
X60907467Y-67123913D01*
X60897685Y-67125320D01*
X60766900Y-67185048D01*
X60658239Y-67279202D01*
X60580507Y-67400156D01*
X60556922Y-67480476D01*
X59996875Y-66920428D01*
X59953335Y-66982609D01*
X59860895Y-67180845D01*
X59804287Y-67392110D01*
X59785224Y-67609999D01*
X57719090Y-67609999D01*
X53890000Y-63830000D01*
X53889999Y-63830000D01*
X50514379Y-63750103D01*
X50506798Y-63747007D01*
X49876678Y-63158007D01*
X34420000Y-48710000D01*
X34419999Y-48710000D01*
X34134401Y-48712359D01*
X34127415Y-48710065D01*
X34104316Y-48692774D01*
X33876690Y-48568481D01*
X33853161Y-48555633D01*
X33645049Y-48478011D01*
X33585044Y-48455630D01*
X33305430Y-48394804D01*
X33020000Y-48374390D01*
X32734569Y-48394804D01*
X32454955Y-48455630D01*
X32309212Y-48509990D01*
X32186839Y-48555633D01*
X32186836Y-48555634D01*
X32186835Y-48555635D01*
X31935683Y-48692774D01*
X31887704Y-48728690D01*
X31880908Y-48730984D01*
X30789999Y-48740000D01*
X30710126Y-55858729D01*
X30706667Y-55866822D01*
X30698730Y-55870100D01*
X26264603Y-55909779D01*
X26256441Y-55906483D01*
X26253000Y-55898382D01*
X26253000Y-53420000D01*
X26449363Y-53420000D01*
X27346314Y-53420000D01*
X27320507Y-53460156D01*
X27280000Y-53598111D01*
X27280000Y-53741889D01*
X27320507Y-53879844D01*
X27346314Y-53920000D01*
X26449364Y-53920000D01*
X26506567Y-54133487D01*
X26606402Y-54347582D01*
X26741887Y-54541074D01*
X26908925Y-54708112D01*
X27102417Y-54843597D01*
X27316512Y-54943432D01*
X27530000Y-55000635D01*
X27529999Y-54105501D01*
X27637685Y-54154680D01*
X27744237Y-54170000D01*
X27815763Y-54170000D01*
X27922315Y-54154680D01*
X28029999Y-54105501D01*
X28029999Y-55000634D01*
X28243487Y-54943432D01*
X28457582Y-54843597D01*
X28651074Y-54708112D01*
X28818112Y-54541074D01*
X28953597Y-54347582D01*
X29053432Y-54133487D01*
X29110636Y-53920000D01*
X28213686Y-53920000D01*
X28239493Y-53879844D01*
X28280000Y-53741889D01*
X28280000Y-53598111D01*
X28239493Y-53460156D01*
X28213686Y-53420000D01*
X29110636Y-53420000D01*
X29053432Y-53206512D01*
X28953597Y-52992418D01*
X28818112Y-52798925D01*
X28651074Y-52631887D01*
X28457582Y-52496402D01*
X28243487Y-52396567D01*
X28015321Y-52335430D01*
X27779999Y-52314842D01*
X27544678Y-52335430D01*
X27316512Y-52396567D01*
X27102418Y-52496402D01*
X26908925Y-52631887D01*
X26741887Y-52798925D01*
X26606402Y-52992418D01*
X26506567Y-53206512D01*
X26449363Y-53420000D01*
X26253000Y-53420000D01*
X26253000Y-51130000D01*
X26624571Y-51130000D01*
X26644243Y-51342310D01*
X26702595Y-51547390D01*
X26797634Y-51738255D01*
X26926124Y-51908403D01*
X26926127Y-51908405D01*
X26926128Y-51908407D01*
X27083698Y-52052052D01*
X27264981Y-52164298D01*
X27463802Y-52241321D01*
X27610815Y-52268802D01*
X27673389Y-52280500D01*
X27673390Y-52280500D01*
X27886611Y-52280500D01*
X27934797Y-52271492D01*
X28096198Y-52241321D01*
X28295019Y-52164298D01*
X28476302Y-52052052D01*
X28633872Y-51908407D01*
X28762366Y-51738255D01*
X28857405Y-51547389D01*
X28915756Y-51342310D01*
X28935429Y-51130000D01*
X28915756Y-50917690D01*
X28857405Y-50712611D01*
X28762366Y-50521745D01*
X28730242Y-50479207D01*
X28633875Y-50351596D01*
X28626505Y-50344877D01*
X28476302Y-50207948D01*
X28340916Y-50124120D01*
X28295018Y-50095701D01*
X28096200Y-50018679D01*
X27886611Y-49979500D01*
X27886610Y-49979500D01*
X27673390Y-49979500D01*
X27673389Y-49979500D01*
X27463799Y-50018679D01*
X27264981Y-50095701D01*
X27083702Y-50207945D01*
X27083700Y-50207946D01*
X27083698Y-50207948D01*
X27011965Y-50273342D01*
X26926124Y-50351596D01*
X26797634Y-50521744D01*
X26702595Y-50712609D01*
X26644243Y-50917689D01*
X26624571Y-51130000D01*
X26253000Y-51130000D01*
X26253000Y-48590000D01*
X26624571Y-48590000D01*
X26644243Y-48802310D01*
X26702595Y-49007390D01*
X26797634Y-49198255D01*
X26926124Y-49368403D01*
X26926127Y-49368405D01*
X26926128Y-49368407D01*
X27083698Y-49512052D01*
X27264981Y-49624298D01*
X27463802Y-49701321D01*
X27610815Y-49728802D01*
X27673389Y-49740500D01*
X27673390Y-49740500D01*
X27886611Y-49740500D01*
X27934797Y-49731492D01*
X28096198Y-49701321D01*
X28295019Y-49624298D01*
X28476302Y-49512052D01*
X28633872Y-49368407D01*
X28762366Y-49198255D01*
X28857405Y-49007389D01*
X28915756Y-48802310D01*
X28935429Y-48590000D01*
X28915756Y-48377690D01*
X28857405Y-48172611D01*
X28762366Y-47981745D01*
X28730242Y-47939207D01*
X28633875Y-47811596D01*
X28633872Y-47811593D01*
X28476302Y-47667948D01*
X28410473Y-47627188D01*
X28295018Y-47555701D01*
X28096200Y-47478679D01*
X27886611Y-47439500D01*
X27886610Y-47439500D01*
X27673390Y-47439500D01*
X27673389Y-47439500D01*
X27463799Y-47478679D01*
X27264981Y-47555701D01*
X27083702Y-47667945D01*
X27083700Y-47667946D01*
X27083698Y-47667948D01*
X27033893Y-47713352D01*
X26926124Y-47811596D01*
X26797634Y-47981744D01*
X26702595Y-48172609D01*
X26644243Y-48377689D01*
X26624571Y-48590000D01*
X26253000Y-48590000D01*
X26253000Y-46050000D01*
X26624571Y-46050000D01*
X26644243Y-46262310D01*
X26702595Y-46467390D01*
X26797634Y-46658255D01*
X26926124Y-46828403D01*
X26926127Y-46828405D01*
X26926128Y-46828407D01*
X27083698Y-46972052D01*
X27264981Y-47084298D01*
X27463802Y-47161321D01*
X27610815Y-47188802D01*
X27673389Y-47200500D01*
X27673390Y-47200500D01*
X27886611Y-47200500D01*
X27934797Y-47191492D01*
X28096198Y-47161321D01*
X28295019Y-47084298D01*
X28476302Y-46972052D01*
X28633872Y-46828407D01*
X28677979Y-46770000D01*
X30520000Y-46770000D01*
X30520000Y-47317527D01*
X30520032Y-47318127D01*
X30526401Y-47377374D01*
X30576647Y-47512089D01*
X30662811Y-47627188D01*
X30777910Y-47713352D01*
X30912625Y-47763598D01*
X30971872Y-47769967D01*
X30972472Y-47770000D01*
X31519999Y-47770000D01*
X31520000Y-47769999D01*
X32020000Y-47769999D01*
X32020001Y-47770000D01*
X32567528Y-47770000D01*
X32568127Y-47769967D01*
X32627374Y-47763598D01*
X32762089Y-47713352D01*
X32877188Y-47627188D01*
X32963352Y-47512089D01*
X33013598Y-47377374D01*
X33019967Y-47318127D01*
X33020000Y-47317527D01*
X33020000Y-46770001D01*
X33019999Y-46770000D01*
X32020001Y-46770000D01*
X32020000Y-46770001D01*
X32020000Y-47769999D01*
X31520000Y-47769999D01*
X31520000Y-46770001D01*
X31519999Y-46770000D01*
X30520000Y-46770000D01*
X28677979Y-46770000D01*
X28762366Y-46658255D01*
X28857405Y-46467389D01*
X28913569Y-46269998D01*
X30520000Y-46269998D01*
X30520001Y-46270000D01*
X31519999Y-46270000D01*
X31520000Y-46269999D01*
X32020000Y-46269999D01*
X32020001Y-46270000D01*
X33019999Y-46270000D01*
X33020000Y-46269999D01*
X33020000Y-45722472D01*
X33019967Y-45721872D01*
X33013598Y-45662625D01*
X32963352Y-45527910D01*
X32877188Y-45412811D01*
X32762089Y-45326647D01*
X32627374Y-45276401D01*
X32568127Y-45270032D01*
X32567528Y-45270000D01*
X32020001Y-45270000D01*
X32020000Y-45270001D01*
X32020000Y-46269999D01*
X31520000Y-46269999D01*
X31520000Y-45270001D01*
X31519999Y-45270000D01*
X30972472Y-45270000D01*
X30971872Y-45270032D01*
X30912625Y-45276401D01*
X30777910Y-45326647D01*
X30662811Y-45412811D01*
X30576647Y-45527910D01*
X30526401Y-45662625D01*
X30520032Y-45721872D01*
X30520000Y-45722472D01*
X30520000Y-46269998D01*
X28913569Y-46269998D01*
X28915756Y-46262310D01*
X28935429Y-46050000D01*
X28915756Y-45837690D01*
X28911527Y-45822828D01*
X28889167Y-45744242D01*
X28869841Y-45676319D01*
X28870855Y-45667578D01*
X28872766Y-45665046D01*
X29483945Y-45053867D01*
X29492077Y-45050500D01*
X32577922Y-45050500D01*
X32586054Y-45053868D01*
X34037169Y-46504982D01*
X34038709Y-46506893D01*
X34047857Y-46521128D01*
X34088425Y-46556280D01*
X34089025Y-46556839D01*
X34101405Y-46569218D01*
X34101407Y-46569220D01*
X34110344Y-46575910D01*
X34115421Y-46579711D01*
X34116060Y-46580226D01*
X34146169Y-46606315D01*
X34156627Y-46615377D01*
X34172010Y-46622402D01*
X34174124Y-46623656D01*
X34187669Y-46633796D01*
X34237970Y-46652557D01*
X34238710Y-46652863D01*
X34287543Y-46675165D01*
X34304291Y-46677572D01*
X34306663Y-46678177D01*
X34322517Y-46684091D01*
X34376075Y-46687921D01*
X34376847Y-46688004D01*
X34394201Y-46690500D01*
X34411706Y-46690500D01*
X34412526Y-46690529D01*
X34466073Y-46694359D01*
X34466073Y-46694358D01*
X34466074Y-46694359D01*
X34482603Y-46690763D01*
X34485048Y-46690500D01*
X34779912Y-46690500D01*
X34788044Y-46693868D01*
X34791334Y-46700673D01*
X34792224Y-46708349D01*
X34792415Y-46709993D01*
X34837793Y-46812764D01*
X34837794Y-46812765D01*
X34917235Y-46892206D01*
X35020009Y-46937585D01*
X35045135Y-46940500D01*
X36634864Y-46940499D01*
X36659991Y-46937585D01*
X36762765Y-46892206D01*
X36842206Y-46812765D01*
X36887585Y-46709991D01*
X36890500Y-46684865D01*
X36890499Y-45695136D01*
X36887585Y-45670009D01*
X36842206Y-45567235D01*
X36838103Y-45563132D01*
X36834735Y-45555000D01*
X36838103Y-45546868D01*
X36842206Y-45542765D01*
X36887585Y-45439991D01*
X36890500Y-45414865D01*
X36890499Y-44425136D01*
X36887585Y-44400009D01*
X36842206Y-44297235D01*
X36838103Y-44293132D01*
X36834735Y-44285000D01*
X36838103Y-44276868D01*
X36842206Y-44272765D01*
X36887585Y-44169991D01*
X36890500Y-44144865D01*
X36890499Y-43155136D01*
X36887585Y-43130009D01*
X36842206Y-43027235D01*
X36838103Y-43023132D01*
X36834735Y-43015000D01*
X36838103Y-43006868D01*
X36838839Y-43006132D01*
X36842206Y-43002765D01*
X36887585Y-42899991D01*
X36890500Y-42874865D01*
X36890499Y-41885136D01*
X36887585Y-41860009D01*
X36842206Y-41757235D01*
X36838103Y-41753132D01*
X36834735Y-41745000D01*
X36838103Y-41736868D01*
X36842206Y-41732765D01*
X36887585Y-41629991D01*
X36890500Y-41604865D01*
X36890499Y-40615136D01*
X36887585Y-40590009D01*
X36842206Y-40487235D01*
X36838103Y-40483132D01*
X36834735Y-40475000D01*
X36838103Y-40466868D01*
X36838839Y-40466132D01*
X36842206Y-40462765D01*
X36887585Y-40359991D01*
X36890500Y-40334865D01*
X36890499Y-39426075D01*
X36893867Y-39417944D01*
X36901999Y-39414576D01*
X36910131Y-39417944D01*
X36956132Y-39463945D01*
X36959500Y-39472077D01*
X36959500Y-49124951D01*
X36959237Y-49127396D01*
X36955640Y-49143925D01*
X36959471Y-49197473D01*
X36959500Y-49198293D01*
X36959500Y-49215799D01*
X36961990Y-49233126D01*
X36962078Y-49233941D01*
X36965909Y-49287485D01*
X36971818Y-49303330D01*
X36972426Y-49305711D01*
X36974834Y-49322456D01*
X36997131Y-49371279D01*
X36997445Y-49372037D01*
X37016205Y-49422333D01*
X37026340Y-49435873D01*
X37027594Y-49437986D01*
X37034621Y-49453371D01*
X37069766Y-49493931D01*
X37070281Y-49494570D01*
X37080780Y-49508594D01*
X37093166Y-49520981D01*
X37093725Y-49521581D01*
X37128872Y-49562143D01*
X37143099Y-49571286D01*
X37145014Y-49572828D01*
X49429670Y-61857484D01*
X49431210Y-61859395D01*
X49440357Y-61873628D01*
X49480917Y-61908773D01*
X49481517Y-61909332D01*
X49493905Y-61921719D01*
X49493907Y-61921721D01*
X49502912Y-61928462D01*
X49507928Y-61932217D01*
X49508567Y-61932732D01*
X49538661Y-61958808D01*
X49549127Y-61967877D01*
X49564510Y-61974902D01*
X49566624Y-61976156D01*
X49580169Y-61986296D01*
X49630470Y-62005057D01*
X49631210Y-62005363D01*
X49680043Y-62027665D01*
X49696791Y-62030072D01*
X49699163Y-62030677D01*
X49715017Y-62036591D01*
X49768575Y-62040421D01*
X49769347Y-62040504D01*
X49786701Y-62043000D01*
X49804206Y-62043000D01*
X49805026Y-62043029D01*
X49858573Y-62046859D01*
X49858573Y-62046858D01*
X49858574Y-62046859D01*
X49875103Y-62043263D01*
X49877548Y-62043000D01*
X50594269Y-62043000D01*
X50602401Y-62046368D01*
X50604967Y-62050281D01*
X50615639Y-62077342D01*
X50707078Y-62197922D01*
X50827658Y-62289361D01*
X50968436Y-62344877D01*
X51056898Y-62355500D01*
X51057234Y-62355500D01*
X52042766Y-62355500D01*
X52043102Y-62355500D01*
X52131564Y-62344877D01*
X52272342Y-62289361D01*
X52392922Y-62197922D01*
X52484361Y-62077342D01*
X52539877Y-61936564D01*
X52550500Y-61848102D01*
X52550500Y-61744266D01*
X53102000Y-61744266D01*
X53102024Y-61744526D01*
X53102025Y-61744539D01*
X53104853Y-61774698D01*
X53130421Y-61847766D01*
X53149707Y-61902882D01*
X53183950Y-61949280D01*
X53230349Y-62012150D01*
X53272190Y-62043029D01*
X53339618Y-62092793D01*
X53467801Y-62137646D01*
X53498234Y-62140500D01*
X53631126Y-62140500D01*
X53639258Y-62143868D01*
X53642596Y-62151179D01*
X53644073Y-62171818D01*
X53645909Y-62197485D01*
X53651818Y-62213330D01*
X53652426Y-62215711D01*
X53654834Y-62232456D01*
X53677131Y-62281279D01*
X53677445Y-62282037D01*
X53696205Y-62332333D01*
X53706340Y-62345873D01*
X53707594Y-62347986D01*
X53714621Y-62363371D01*
X53749766Y-62403931D01*
X53750281Y-62404570D01*
X53760780Y-62418594D01*
X53773166Y-62430981D01*
X53773725Y-62431581D01*
X53808872Y-62472143D01*
X53823099Y-62481286D01*
X53825014Y-62482828D01*
X54317170Y-62974984D01*
X54318710Y-62976895D01*
X54327857Y-62991128D01*
X54368417Y-63026273D01*
X54369017Y-63026832D01*
X54381405Y-63039219D01*
X54381407Y-63039221D01*
X54390412Y-63045962D01*
X54395428Y-63049717D01*
X54396067Y-63050232D01*
X54436627Y-63085377D01*
X54452010Y-63092402D01*
X54454124Y-63093656D01*
X54467669Y-63103796D01*
X54517970Y-63122557D01*
X54518710Y-63122863D01*
X54567543Y-63145165D01*
X54584291Y-63147572D01*
X54586663Y-63148177D01*
X54602517Y-63154091D01*
X54656075Y-63157921D01*
X54656847Y-63158004D01*
X54674201Y-63160500D01*
X54691706Y-63160500D01*
X54692526Y-63160529D01*
X54746073Y-63164359D01*
X54746073Y-63164358D01*
X54746074Y-63164359D01*
X54762603Y-63160763D01*
X54765048Y-63160500D01*
X60977922Y-63160500D01*
X60986054Y-63163868D01*
X63076131Y-65253945D01*
X63079499Y-65262077D01*
X63079500Y-66679480D01*
X63076132Y-66687612D01*
X63073421Y-66689622D01*
X62993550Y-66732314D01*
X62833590Y-66863590D01*
X62702314Y-67023550D01*
X62604768Y-67206045D01*
X62548327Y-67392110D01*
X62544700Y-67404066D01*
X62524417Y-67610000D01*
X62544700Y-67815934D01*
X62604768Y-68013954D01*
X62702315Y-68196450D01*
X62833590Y-68356410D01*
X62993550Y-68487685D01*
X63176046Y-68585232D01*
X63374066Y-68645300D01*
X63580000Y-68665583D01*
X63785934Y-68645300D01*
X63983954Y-68585232D01*
X64166450Y-68487685D01*
X64326410Y-68356410D01*
X64457685Y-68196450D01*
X64555232Y-68013954D01*
X64615300Y-67815934D01*
X64635583Y-67610000D01*
X64615300Y-67404066D01*
X64555232Y-67206046D01*
X64457685Y-67023550D01*
X64326410Y-66863590D01*
X64166450Y-66732315D01*
X64166449Y-66732314D01*
X64086579Y-66689622D01*
X64080995Y-66682818D01*
X64080500Y-66679480D01*
X64080500Y-65105043D01*
X64080763Y-65102598D01*
X64084358Y-65086074D01*
X64080529Y-65032534D01*
X64080500Y-65031714D01*
X64080500Y-65014201D01*
X64078003Y-64996841D01*
X64077920Y-64996069D01*
X64074091Y-64942517D01*
X64068176Y-64926662D01*
X64067572Y-64924292D01*
X64065165Y-64907543D01*
X64042860Y-64858703D01*
X64042550Y-64857954D01*
X64034962Y-64837610D01*
X64023795Y-64807669D01*
X64013657Y-64794127D01*
X64012403Y-64792013D01*
X64009508Y-64785674D01*
X64005377Y-64776627D01*
X63988345Y-64756971D01*
X63970224Y-64736058D01*
X63969709Y-64735418D01*
X63959221Y-64721406D01*
X63946832Y-64709017D01*
X63946273Y-64708417D01*
X63911128Y-64667857D01*
X63896895Y-64658710D01*
X63894984Y-64657170D01*
X61582828Y-62345014D01*
X61581286Y-62343099D01*
X61574367Y-62332333D01*
X61572143Y-62328872D01*
X61531581Y-62293725D01*
X61530981Y-62293166D01*
X61518594Y-62280780D01*
X61504570Y-62270281D01*
X61503931Y-62269766D01*
X61463371Y-62234621D01*
X61447986Y-62227594D01*
X61445873Y-62226340D01*
X61432333Y-62216205D01*
X61432331Y-62216204D01*
X61405673Y-62206261D01*
X61382037Y-62197445D01*
X61381279Y-62197131D01*
X61332456Y-62174834D01*
X61315711Y-62172426D01*
X61313330Y-62171818D01*
X61297485Y-62165909D01*
X61243941Y-62162078D01*
X61243126Y-62161990D01*
X61225799Y-62159500D01*
X61208294Y-62159500D01*
X61207474Y-62159471D01*
X61153925Y-62155640D01*
X61137397Y-62159237D01*
X61134952Y-62159500D01*
X54922078Y-62159500D01*
X54913946Y-62156132D01*
X54886819Y-62129005D01*
X54883451Y-62120873D01*
X54886819Y-62112741D01*
X54891153Y-62110018D01*
X54940382Y-62092793D01*
X55049650Y-62012150D01*
X55130293Y-61902882D01*
X55175146Y-61774699D01*
X55178000Y-61744266D01*
X55178000Y-61335734D01*
X55175146Y-61305301D01*
X55130293Y-61177118D01*
X55083893Y-61114248D01*
X55049650Y-61067849D01*
X54968092Y-61007658D01*
X54940382Y-60987207D01*
X54888981Y-60969221D01*
X54812198Y-60942353D01*
X54782039Y-60939525D01*
X54782026Y-60939524D01*
X54781766Y-60939500D01*
X53498234Y-60939500D01*
X53497974Y-60939524D01*
X53497960Y-60939525D01*
X53467801Y-60942353D01*
X53339618Y-60987207D01*
X53230349Y-61067849D01*
X53149707Y-61177118D01*
X53104853Y-61305301D01*
X53102025Y-61335460D01*
X53102024Y-61335474D01*
X53102000Y-61335734D01*
X53102000Y-61744266D01*
X52550500Y-61744266D01*
X52550500Y-61236898D01*
X52539877Y-61148436D01*
X52484361Y-61007658D01*
X52392922Y-60887078D01*
X52272342Y-60795639D01*
X52131564Y-60740123D01*
X52043102Y-60729500D01*
X51056898Y-60729500D01*
X51056565Y-60729539D01*
X51056564Y-60729540D01*
X50968435Y-60740123D01*
X50827658Y-60795639D01*
X50707078Y-60887078D01*
X50615639Y-61007658D01*
X50604967Y-61034719D01*
X50598850Y-61041048D01*
X50594269Y-61042000D01*
X50034578Y-61042000D01*
X50026446Y-61038632D01*
X49010916Y-60023102D01*
X50549500Y-60023102D01*
X50560123Y-60111564D01*
X50615639Y-60252342D01*
X50707078Y-60372922D01*
X50827658Y-60464361D01*
X50968436Y-60519877D01*
X51056898Y-60530500D01*
X51057234Y-60530500D01*
X52042766Y-60530500D01*
X52043102Y-60530500D01*
X52131564Y-60519877D01*
X52272342Y-60464361D01*
X52392922Y-60372922D01*
X52484361Y-60252342D01*
X52495032Y-60225281D01*
X52501150Y-60218952D01*
X52505731Y-60218000D01*
X53409701Y-60218000D01*
X53413499Y-60218645D01*
X53432464Y-60225281D01*
X53467801Y-60237646D01*
X53498234Y-60240500D01*
X53498511Y-60240500D01*
X54781489Y-60240500D01*
X54781766Y-60240500D01*
X54812199Y-60237646D01*
X54940382Y-60192793D01*
X55049650Y-60112150D01*
X55130293Y-60002882D01*
X55175146Y-59874699D01*
X55178000Y-59844266D01*
X55178000Y-59435734D01*
X55175146Y-59405301D01*
X55130293Y-59277118D01*
X55060579Y-59182658D01*
X55049650Y-59167849D01*
X54986780Y-59121450D01*
X54940382Y-59087207D01*
X54895527Y-59071511D01*
X54812198Y-59042353D01*
X54782039Y-59039525D01*
X54782026Y-59039524D01*
X54781766Y-59039500D01*
X53498234Y-59039500D01*
X53497974Y-59039524D01*
X53497960Y-59039525D01*
X53467801Y-59042353D01*
X53339618Y-59087207D01*
X53230349Y-59167849D01*
X53197523Y-59212329D01*
X53189984Y-59216872D01*
X53188270Y-59217000D01*
X52505731Y-59217000D01*
X52497599Y-59213632D01*
X52495033Y-59209719D01*
X52492497Y-59203290D01*
X52484361Y-59182658D01*
X52392922Y-59062078D01*
X52272342Y-58970639D01*
X52131564Y-58915123D01*
X52043102Y-58904500D01*
X51056898Y-58904500D01*
X51056565Y-58904539D01*
X51056564Y-58904540D01*
X50968435Y-58915123D01*
X50827658Y-58970639D01*
X50707078Y-59062078D01*
X50615639Y-59182658D01*
X50560123Y-59323435D01*
X50550292Y-59405301D01*
X50549500Y-59411898D01*
X50549500Y-60023102D01*
X49010916Y-60023102D01*
X37963868Y-48976054D01*
X37960500Y-48967922D01*
X37960500Y-48484540D01*
X38269500Y-48484540D01*
X38269501Y-48484864D01*
X38269539Y-48485195D01*
X38269540Y-48485205D01*
X38272414Y-48509990D01*
X38317793Y-48612764D01*
X38317794Y-48612765D01*
X38397235Y-48692206D01*
X38500009Y-48737585D01*
X38525135Y-48740500D01*
X39514864Y-48740499D01*
X39539991Y-48737585D01*
X39642765Y-48692206D01*
X39646867Y-48688103D01*
X39654997Y-48684734D01*
X39663129Y-48688101D01*
X39663130Y-48688102D01*
X39667233Y-48692204D01*
X39667235Y-48692206D01*
X39770009Y-48737585D01*
X39795135Y-48740500D01*
X40784864Y-48740499D01*
X40809991Y-48737585D01*
X40912765Y-48692206D01*
X40916868Y-48688103D01*
X40925000Y-48684735D01*
X40933132Y-48688103D01*
X40937235Y-48692206D01*
X41040009Y-48737585D01*
X41065135Y-48740500D01*
X42054864Y-48740499D01*
X42079991Y-48737585D01*
X42182765Y-48692206D01*
X42186868Y-48688103D01*
X42195000Y-48684735D01*
X42203132Y-48688103D01*
X42207235Y-48692206D01*
X42310009Y-48737585D01*
X42335135Y-48740500D01*
X43324864Y-48740499D01*
X43349991Y-48737585D01*
X43452765Y-48692206D01*
X43456868Y-48688103D01*
X43465000Y-48684735D01*
X43473132Y-48688103D01*
X43477235Y-48692206D01*
X43580009Y-48737585D01*
X43605135Y-48740500D01*
X44594864Y-48740499D01*
X44619991Y-48737585D01*
X44722765Y-48692206D01*
X44726867Y-48688103D01*
X44734997Y-48684734D01*
X44743129Y-48688101D01*
X44743130Y-48688102D01*
X44747233Y-48692204D01*
X44747235Y-48692206D01*
X44850009Y-48737585D01*
X44875135Y-48740500D01*
X45864864Y-48740499D01*
X45889991Y-48737585D01*
X45992765Y-48692206D01*
X45996868Y-48688103D01*
X46005000Y-48684735D01*
X46013132Y-48688103D01*
X46017235Y-48692206D01*
X46120009Y-48737585D01*
X46145135Y-48740500D01*
X47134864Y-48740499D01*
X47159991Y-48737585D01*
X47262765Y-48692206D01*
X47266868Y-48688103D01*
X47275000Y-48684735D01*
X47283132Y-48688103D01*
X47287235Y-48692206D01*
X47390009Y-48737585D01*
X47415135Y-48740500D01*
X48404864Y-48740499D01*
X48429991Y-48737585D01*
X48532765Y-48692206D01*
X48536868Y-48688103D01*
X48545000Y-48684735D01*
X48553132Y-48688103D01*
X48557235Y-48692206D01*
X48660009Y-48737585D01*
X48685135Y-48740500D01*
X49594615Y-48740499D01*
X49602747Y-48743867D01*
X49603821Y-48745107D01*
X49642811Y-48797188D01*
X49757910Y-48883352D01*
X49892625Y-48933598D01*
X49951872Y-48939967D01*
X49952472Y-48940000D01*
X50199999Y-48940000D01*
X50200000Y-48939999D01*
X50200000Y-46440001D01*
X50199999Y-46440000D01*
X49952472Y-46440000D01*
X49951872Y-46440032D01*
X49892625Y-46446401D01*
X49757910Y-46496647D01*
X49642811Y-46582811D01*
X49603822Y-46634892D01*
X49596252Y-46639383D01*
X49594616Y-46639500D01*
X48685476Y-46639500D01*
X48685458Y-46639500D01*
X48685136Y-46639501D01*
X48684805Y-46639539D01*
X48684794Y-46639540D01*
X48660009Y-46642414D01*
X48557234Y-46687794D01*
X48553131Y-46691897D01*
X48544999Y-46695265D01*
X48536869Y-46691897D01*
X48532765Y-46687794D01*
X48429990Y-46642414D01*
X48405206Y-46639539D01*
X48405196Y-46639538D01*
X48404865Y-46639500D01*
X48404524Y-46639500D01*
X47415476Y-46639500D01*
X47415458Y-46639500D01*
X47415136Y-46639501D01*
X47414805Y-46639539D01*
X47414794Y-46639540D01*
X47390009Y-46642414D01*
X47287234Y-46687794D01*
X47283131Y-46691897D01*
X47274999Y-46695265D01*
X47266869Y-46691897D01*
X47262765Y-46687794D01*
X47159990Y-46642414D01*
X47135206Y-46639539D01*
X47135196Y-46639538D01*
X47134865Y-46639500D01*
X47134524Y-46639500D01*
X46145476Y-46639500D01*
X46145458Y-46639500D01*
X46145136Y-46639501D01*
X46144805Y-46639539D01*
X46144794Y-46639540D01*
X46120009Y-46642414D01*
X46017234Y-46687794D01*
X46013131Y-46691897D01*
X46004999Y-46695265D01*
X45996869Y-46691897D01*
X45992765Y-46687794D01*
X45889990Y-46642414D01*
X45865206Y-46639539D01*
X45865196Y-46639538D01*
X45864865Y-46639500D01*
X45864524Y-46639500D01*
X44875476Y-46639500D01*
X44875458Y-46639500D01*
X44875136Y-46639501D01*
X44874805Y-46639539D01*
X44874794Y-46639540D01*
X44850009Y-46642414D01*
X44747234Y-46687794D01*
X44743131Y-46691897D01*
X44734999Y-46695265D01*
X44726868Y-46691897D01*
X44722764Y-46687793D01*
X44619990Y-46642414D01*
X44595206Y-46639539D01*
X44595196Y-46639538D01*
X44594865Y-46639500D01*
X44594524Y-46639500D01*
X43605476Y-46639500D01*
X43605458Y-46639500D01*
X43605136Y-46639501D01*
X43604805Y-46639539D01*
X43604794Y-46639540D01*
X43580009Y-46642414D01*
X43477234Y-46687794D01*
X43473131Y-46691897D01*
X43464999Y-46695265D01*
X43456869Y-46691897D01*
X43452765Y-46687794D01*
X43349990Y-46642414D01*
X43325206Y-46639539D01*
X43325196Y-46639538D01*
X43324865Y-46639500D01*
X43324524Y-46639500D01*
X42335476Y-46639500D01*
X42335458Y-46639500D01*
X42335136Y-46639501D01*
X42334805Y-46639539D01*
X42334794Y-46639540D01*
X42310009Y-46642414D01*
X42207234Y-46687794D01*
X42203131Y-46691897D01*
X42194999Y-46695265D01*
X42186868Y-46691897D01*
X42182764Y-46687793D01*
X42079990Y-46642414D01*
X42055206Y-46639539D01*
X42055196Y-46639538D01*
X42054865Y-46639500D01*
X42054524Y-46639500D01*
X41065476Y-46639500D01*
X41065458Y-46639500D01*
X41065136Y-46639501D01*
X41064805Y-46639539D01*
X41064794Y-46639540D01*
X41040009Y-46642414D01*
X40937233Y-46687794D01*
X40933131Y-46691896D01*
X40924999Y-46695264D01*
X40916869Y-46691896D01*
X40912766Y-46687794D01*
X40809990Y-46642414D01*
X40785206Y-46639539D01*
X40785196Y-46639538D01*
X40784865Y-46639500D01*
X40784524Y-46639500D01*
X39795476Y-46639500D01*
X39795458Y-46639500D01*
X39795136Y-46639501D01*
X39794805Y-46639539D01*
X39794794Y-46639540D01*
X39770009Y-46642414D01*
X39667233Y-46687794D01*
X39663131Y-46691896D01*
X39654999Y-46695264D01*
X39646869Y-46691896D01*
X39642766Y-46687794D01*
X39539990Y-46642414D01*
X39515206Y-46639539D01*
X39515196Y-46639538D01*
X39514865Y-46639500D01*
X39514524Y-46639500D01*
X38525476Y-46639500D01*
X38525458Y-46639500D01*
X38525136Y-46639501D01*
X38524805Y-46639539D01*
X38524794Y-46639540D01*
X38500009Y-46642414D01*
X38397235Y-46687793D01*
X38317793Y-46767235D01*
X38272414Y-46870009D01*
X38269539Y-46894793D01*
X38269538Y-46894804D01*
X38269500Y-46895135D01*
X38269500Y-46895474D01*
X38269500Y-46895475D01*
X38269500Y-48484523D01*
X38269500Y-48484540D01*
X37960500Y-48484540D01*
X37960500Y-39317527D01*
X42670000Y-39317527D01*
X42670032Y-39318127D01*
X42676401Y-39377374D01*
X42726647Y-39512089D01*
X42812811Y-39627188D01*
X42927910Y-39713352D01*
X43062625Y-39763598D01*
X43121872Y-39769967D01*
X43122472Y-39770000D01*
X45169999Y-39770000D01*
X45170000Y-39769999D01*
X45670000Y-39769999D01*
X45670001Y-39770000D01*
X47717528Y-39770000D01*
X47718127Y-39769967D01*
X47777374Y-39763598D01*
X47912089Y-39713352D01*
X48027188Y-39627188D01*
X48113352Y-39512089D01*
X48163598Y-39377374D01*
X48169967Y-39318127D01*
X48170000Y-39317527D01*
X48170000Y-37270001D01*
X48169999Y-37270000D01*
X45670001Y-37270000D01*
X45670000Y-37270001D01*
X45670000Y-39769999D01*
X45170000Y-39769999D01*
X45170000Y-37270001D01*
X45169999Y-37270000D01*
X42670001Y-37270000D01*
X42670000Y-37270001D01*
X42670000Y-39317527D01*
X37960500Y-39317527D01*
X37960500Y-39315048D01*
X37960763Y-39312603D01*
X37964359Y-39296074D01*
X37960529Y-39242525D01*
X37960500Y-39241705D01*
X37960500Y-39224201D01*
X37958908Y-39213131D01*
X37958004Y-39206847D01*
X37957921Y-39206075D01*
X37954091Y-39152517D01*
X37948177Y-39136663D01*
X37947572Y-39134291D01*
X37945165Y-39117543D01*
X37922863Y-39068710D01*
X37922553Y-39067961D01*
X37922198Y-39067008D01*
X37903796Y-39017669D01*
X37893656Y-39004124D01*
X37892402Y-39002010D01*
X37889373Y-38995377D01*
X37885377Y-38986627D01*
X37876315Y-38976169D01*
X37850226Y-38946060D01*
X37849711Y-38945421D01*
X37842867Y-38936279D01*
X37839220Y-38931407D01*
X37839218Y-38931405D01*
X37826839Y-38919025D01*
X37826280Y-38918425D01*
X37811292Y-38901128D01*
X37791128Y-38877857D01*
X37776893Y-38868709D01*
X37774982Y-38867169D01*
X37162828Y-38255014D01*
X37161286Y-38253099D01*
X37152143Y-38238872D01*
X37111581Y-38203725D01*
X37110981Y-38203166D01*
X37098594Y-38190780D01*
X37084570Y-38180281D01*
X37083931Y-38179766D01*
X37043371Y-38144621D01*
X37027986Y-38137594D01*
X37025873Y-38136340D01*
X37012333Y-38126205D01*
X37012331Y-38126204D01*
X36979426Y-38113931D01*
X36962037Y-38107445D01*
X36961279Y-38107131D01*
X36912456Y-38084834D01*
X36900036Y-38083048D01*
X36892466Y-38078556D01*
X36890250Y-38072990D01*
X36887585Y-38050009D01*
X36842206Y-37947235D01*
X36838103Y-37943132D01*
X36834735Y-37935000D01*
X36838103Y-37926868D01*
X36839836Y-37925135D01*
X36842206Y-37922765D01*
X36887585Y-37819991D01*
X36890500Y-37794865D01*
X36890499Y-36805136D01*
X36887585Y-36780009D01*
X36883165Y-36769999D01*
X42670000Y-36769999D01*
X42670001Y-36770000D01*
X45169999Y-36770000D01*
X45170000Y-36769999D01*
X45170000Y-34270001D01*
X45169999Y-34270000D01*
X45670000Y-34270000D01*
X45670000Y-36769999D01*
X45670001Y-36770000D01*
X48169999Y-36770000D01*
X48170000Y-36769999D01*
X48170000Y-34722472D01*
X48169967Y-34721872D01*
X48163598Y-34662625D01*
X48113352Y-34527910D01*
X48027188Y-34412811D01*
X47912089Y-34326647D01*
X47777374Y-34276401D01*
X47718127Y-34270032D01*
X47717528Y-34270000D01*
X45670000Y-34270000D01*
X45169999Y-34270000D01*
X43122472Y-34270000D01*
X43121872Y-34270032D01*
X43062625Y-34276401D01*
X42927910Y-34326647D01*
X42812811Y-34412811D01*
X42726647Y-34527910D01*
X42676401Y-34662625D01*
X42670032Y-34721872D01*
X42670000Y-34722472D01*
X42670000Y-36769999D01*
X36883165Y-36769999D01*
X36842206Y-36677235D01*
X36838103Y-36673132D01*
X36834735Y-36665000D01*
X36838103Y-36656868D01*
X36842206Y-36652765D01*
X36887585Y-36549991D01*
X36890500Y-36524865D01*
X36890499Y-35535136D01*
X36887585Y-35510009D01*
X36842206Y-35407235D01*
X36838103Y-35403132D01*
X36834735Y-35395000D01*
X36838103Y-35386868D01*
X36839622Y-35385349D01*
X36842206Y-35382765D01*
X36887585Y-35279991D01*
X36890500Y-35254865D01*
X36890499Y-34265136D01*
X36887585Y-34240009D01*
X36842206Y-34137235D01*
X36838103Y-34133132D01*
X36834735Y-34125000D01*
X36838103Y-34116868D01*
X36842206Y-34112765D01*
X36887585Y-34009991D01*
X36890500Y-33984865D01*
X36890499Y-32995136D01*
X36887585Y-32970009D01*
X36842206Y-32867235D01*
X36838103Y-32863132D01*
X36834735Y-32855000D01*
X36838103Y-32846868D01*
X36838104Y-32846867D01*
X36842206Y-32842765D01*
X36887585Y-32739991D01*
X36890500Y-32714865D01*
X36890499Y-31725136D01*
X36887585Y-31700009D01*
X36842206Y-31597235D01*
X36838103Y-31593132D01*
X36834735Y-31585000D01*
X36838103Y-31576868D01*
X36838104Y-31576867D01*
X36842206Y-31572765D01*
X36887585Y-31469991D01*
X36890500Y-31444865D01*
X36890499Y-30535382D01*
X36893867Y-30527251D01*
X36895107Y-30526177D01*
X36947188Y-30487188D01*
X37033352Y-30372089D01*
X37083598Y-30237374D01*
X37089967Y-30178127D01*
X37090000Y-30177527D01*
X37090000Y-29930001D01*
X37089999Y-29930000D01*
X34590001Y-29930000D01*
X34590000Y-29930001D01*
X34590000Y-30177527D01*
X34590032Y-30178127D01*
X34596401Y-30237374D01*
X34646647Y-30372089D01*
X34732811Y-30487188D01*
X34784892Y-30526176D01*
X34789383Y-30533745D01*
X34789500Y-30535382D01*
X34789500Y-30558000D01*
X34786132Y-30566132D01*
X34778000Y-30569500D01*
X31134052Y-30569500D01*
X31125920Y-30566132D01*
X31123629Y-30562860D01*
X31096886Y-30505511D01*
X31044035Y-30392171D01*
X30908495Y-30198599D01*
X30741401Y-30031505D01*
X30726972Y-30021402D01*
X30547833Y-29895967D01*
X30547832Y-29895966D01*
X30547830Y-29895965D01*
X30333663Y-29796097D01*
X30333659Y-29796095D01*
X30105408Y-29734936D01*
X29870000Y-29714340D01*
X29634591Y-29734936D01*
X29406340Y-29796095D01*
X29192167Y-29895967D01*
X28998602Y-30031502D01*
X28831502Y-30198602D01*
X28695967Y-30392167D01*
X28596095Y-30606340D01*
X28534936Y-30834591D01*
X28514340Y-31070000D01*
X28534936Y-31305408D01*
X28596095Y-31533659D01*
X28607291Y-31557668D01*
X28695965Y-31747830D01*
X28695966Y-31747832D01*
X28695967Y-31747833D01*
X28809167Y-31909500D01*
X28831505Y-31941401D01*
X28998599Y-32108495D01*
X29192170Y-32244035D01*
X29406337Y-32343903D01*
X29406339Y-32343903D01*
X29406340Y-32343904D01*
X29634591Y-32405063D01*
X29869999Y-32425659D01*
X29869999Y-32425658D01*
X29870000Y-32425659D01*
X30105408Y-32405063D01*
X30333663Y-32343903D01*
X30547830Y-32244035D01*
X30741401Y-32108495D01*
X30908495Y-31941401D01*
X31044035Y-31747830D01*
X31115157Y-31595310D01*
X31123630Y-31577140D01*
X31130120Y-31571194D01*
X31134053Y-31570500D01*
X34830766Y-31570500D01*
X34838896Y-31573867D01*
X34841897Y-31576868D01*
X34845265Y-31584999D01*
X34841897Y-31593130D01*
X34837794Y-31597233D01*
X34792414Y-31700010D01*
X34791334Y-31709325D01*
X34787052Y-31717014D01*
X34779911Y-31719500D01*
X34045048Y-31719500D01*
X34042603Y-31719237D01*
X34026074Y-31715640D01*
X33972526Y-31719471D01*
X33971706Y-31719500D01*
X33954201Y-31719500D01*
X33936872Y-31721990D01*
X33936057Y-31722078D01*
X33882515Y-31725909D01*
X33866670Y-31731818D01*
X33864289Y-31732426D01*
X33847543Y-31734834D01*
X33798719Y-31757131D01*
X33797961Y-31757445D01*
X33747668Y-31776204D01*
X33734125Y-31786341D01*
X33732013Y-31787594D01*
X33716627Y-31794622D01*
X33676067Y-31829766D01*
X33675429Y-31830280D01*
X33661406Y-31840779D01*
X33649024Y-31853160D01*
X33648424Y-31853719D01*
X33607857Y-31888872D01*
X33598711Y-31903101D01*
X33597169Y-31905015D01*
X32405015Y-33097169D01*
X32403101Y-33098711D01*
X32388872Y-33107857D01*
X32353719Y-33148424D01*
X32353160Y-33149024D01*
X32340779Y-33161406D01*
X32330280Y-33175429D01*
X32329766Y-33176067D01*
X32294622Y-33216627D01*
X32287594Y-33232013D01*
X32286341Y-33234125D01*
X32276204Y-33247668D01*
X32257445Y-33297961D01*
X32257131Y-33298719D01*
X32234834Y-33347543D01*
X32232426Y-33364289D01*
X32231818Y-33366670D01*
X32225909Y-33382515D01*
X32222078Y-33436057D01*
X32221990Y-33436872D01*
X32219500Y-33454200D01*
X32219500Y-33471705D01*
X32219471Y-33472525D01*
X32215640Y-33526074D01*
X32219237Y-33542603D01*
X32219500Y-33545048D01*
X32219500Y-36207921D01*
X32216132Y-36216053D01*
X31455015Y-36977169D01*
X31453101Y-36978711D01*
X31438872Y-36987857D01*
X31403719Y-37028424D01*
X31403160Y-37029024D01*
X31390779Y-37041406D01*
X31380280Y-37055429D01*
X31379766Y-37056067D01*
X31344622Y-37096627D01*
X31337594Y-37112013D01*
X31336341Y-37114125D01*
X31326204Y-37127668D01*
X31307445Y-37177961D01*
X31307131Y-37178719D01*
X31284834Y-37227543D01*
X31282426Y-37244289D01*
X31281818Y-37246670D01*
X31275909Y-37262515D01*
X31272078Y-37316057D01*
X31271990Y-37316872D01*
X31269500Y-37334200D01*
X31269500Y-37351705D01*
X31269471Y-37352525D01*
X31265640Y-37406074D01*
X31269237Y-37422603D01*
X31269500Y-37425048D01*
X31269500Y-37658000D01*
X31266132Y-37666132D01*
X31258000Y-37669500D01*
X30975476Y-37669500D01*
X30975458Y-37669500D01*
X30975136Y-37669501D01*
X30974805Y-37669539D01*
X30974794Y-37669540D01*
X30950009Y-37672414D01*
X30847235Y-37717793D01*
X30767793Y-37797235D01*
X30722414Y-37900009D01*
X30719539Y-37924793D01*
X30719538Y-37924804D01*
X30719500Y-37925135D01*
X30719500Y-37925474D01*
X30719500Y-37925475D01*
X30719500Y-39514523D01*
X30719500Y-39514540D01*
X30719501Y-39514864D01*
X30719539Y-39515195D01*
X30719540Y-39515205D01*
X30722414Y-39539990D01*
X30767793Y-39642764D01*
X30767794Y-39642765D01*
X30847235Y-39722206D01*
X30950009Y-39767585D01*
X30975135Y-39770500D01*
X32483922Y-39770499D01*
X32492054Y-39773867D01*
X32495422Y-39781999D01*
X32492054Y-39790131D01*
X31816054Y-40466132D01*
X31807922Y-40469500D01*
X28941999Y-40469500D01*
X28933867Y-40466132D01*
X28930499Y-40458000D01*
X28930499Y-40075476D01*
X28930499Y-40075475D01*
X28930499Y-40075136D01*
X28927585Y-40050009D01*
X28882206Y-39947235D01*
X28802765Y-39867794D01*
X28802764Y-39867793D01*
X28699990Y-39822414D01*
X28675206Y-39819539D01*
X28675196Y-39819538D01*
X28674865Y-39819500D01*
X28674524Y-39819500D01*
X26885476Y-39819500D01*
X26885458Y-39819500D01*
X26885136Y-39819501D01*
X26884805Y-39819539D01*
X26884794Y-39819540D01*
X26860009Y-39822414D01*
X26757235Y-39867793D01*
X26677793Y-39947235D01*
X26632414Y-40050009D01*
X26629539Y-40074793D01*
X26629538Y-40074804D01*
X26629500Y-40075135D01*
X26629500Y-40075474D01*
X26629500Y-40075475D01*
X26629500Y-41864523D01*
X26629500Y-41864540D01*
X26629501Y-41864864D01*
X26629539Y-41865195D01*
X26629540Y-41865205D01*
X26632414Y-41889990D01*
X26677793Y-41992764D01*
X26677793Y-41992765D01*
X26677794Y-41992765D01*
X26757235Y-42072206D01*
X26860009Y-42117585D01*
X26885135Y-42120500D01*
X28674864Y-42120499D01*
X28699991Y-42117585D01*
X28802765Y-42072206D01*
X28882206Y-41992765D01*
X28927585Y-41889991D01*
X28930500Y-41864865D01*
X28930500Y-41481999D01*
X28933868Y-41473868D01*
X28942000Y-41470500D01*
X31773872Y-41470500D01*
X31782004Y-41473868D01*
X31785372Y-41482000D01*
X31782004Y-41490132D01*
X30266004Y-43006132D01*
X30257872Y-43009500D01*
X28823141Y-43009500D01*
X28815009Y-43006132D01*
X28812847Y-43003126D01*
X28812667Y-43002764D01*
X28762366Y-42901745D01*
X28730242Y-42859207D01*
X28633875Y-42731596D01*
X28633872Y-42731593D01*
X28476302Y-42587948D01*
X28439836Y-42565369D01*
X28295018Y-42475701D01*
X28096200Y-42398679D01*
X27886611Y-42359500D01*
X27886610Y-42359500D01*
X27673390Y-42359500D01*
X27673389Y-42359500D01*
X27463799Y-42398679D01*
X27264981Y-42475701D01*
X27083702Y-42587945D01*
X27083700Y-42587946D01*
X27083698Y-42587948D01*
X27004912Y-42659770D01*
X26926124Y-42731596D01*
X26797634Y-42901744D01*
X26702595Y-43092609D01*
X26644243Y-43297689D01*
X26624571Y-43510000D01*
X26644243Y-43722310D01*
X26702595Y-43927390D01*
X26797634Y-44118255D01*
X26926124Y-44288403D01*
X26926127Y-44288405D01*
X26926128Y-44288407D01*
X27083698Y-44432052D01*
X27264981Y-44544298D01*
X27463802Y-44621321D01*
X27610815Y-44648802D01*
X27673389Y-44660500D01*
X27673390Y-44660500D01*
X27886611Y-44660500D01*
X27934797Y-44651492D01*
X28096198Y-44621321D01*
X28295019Y-44544298D01*
X28476302Y-44432052D01*
X28633872Y-44288407D01*
X28762366Y-44118255D01*
X28812847Y-44016873D01*
X28819486Y-44011096D01*
X28823141Y-44010500D01*
X30414902Y-44010500D01*
X30417347Y-44010763D01*
X30433875Y-44014359D01*
X30433876Y-44014358D01*
X30433877Y-44014359D01*
X30477697Y-44011224D01*
X30487424Y-44010529D01*
X30488244Y-44010500D01*
X30505748Y-44010500D01*
X30505749Y-44010500D01*
X30523104Y-44008004D01*
X30523870Y-44007921D01*
X30577433Y-44004091D01*
X30593290Y-43998176D01*
X30595654Y-43997573D01*
X30612407Y-43995165D01*
X30661257Y-43972854D01*
X30661967Y-43972560D01*
X30712281Y-43953796D01*
X30725828Y-43943653D01*
X30727932Y-43942405D01*
X30743323Y-43935377D01*
X30783882Y-43900231D01*
X30784519Y-43899719D01*
X30793022Y-43893353D01*
X30798543Y-43889221D01*
X30810937Y-43876825D01*
X30811508Y-43876293D01*
X30852093Y-43841128D01*
X30861241Y-43826891D01*
X30862776Y-43824986D01*
X34464984Y-40222776D01*
X34466889Y-40221241D01*
X34481128Y-40212092D01*
X34516300Y-40171499D01*
X34516832Y-40170928D01*
X34529220Y-40158542D01*
X34539735Y-40144494D01*
X34540202Y-40143914D01*
X34575377Y-40103322D01*
X34582405Y-40087931D01*
X34583653Y-40085827D01*
X34593796Y-40072280D01*
X34612560Y-40021966D01*
X34612854Y-40021256D01*
X34635165Y-39972406D01*
X34637573Y-39955653D01*
X34638176Y-39953289D01*
X34644091Y-39937432D01*
X34647921Y-39883869D01*
X34648004Y-39883103D01*
X34650500Y-39865748D01*
X34650500Y-39848242D01*
X34650529Y-39847422D01*
X34654359Y-39793874D01*
X34650763Y-39777345D01*
X34650500Y-39774900D01*
X34650500Y-35782077D01*
X34653867Y-35773946D01*
X34769868Y-35657944D01*
X34778000Y-35654577D01*
X34786132Y-35657945D01*
X34789500Y-35666077D01*
X34789500Y-36524523D01*
X34789500Y-36524540D01*
X34789501Y-36524864D01*
X34789539Y-36525195D01*
X34789540Y-36525205D01*
X34792414Y-36549990D01*
X34837794Y-36652766D01*
X34841896Y-36656869D01*
X34845264Y-36665001D01*
X34841896Y-36673131D01*
X34837794Y-36677233D01*
X34792414Y-36780009D01*
X34789539Y-36804793D01*
X34789538Y-36804804D01*
X34789500Y-36805135D01*
X34789500Y-36805474D01*
X34789500Y-36805475D01*
X34789500Y-37794523D01*
X34789500Y-37794540D01*
X34789501Y-37794864D01*
X34789539Y-37795195D01*
X34789540Y-37795205D01*
X34792414Y-37819990D01*
X34837794Y-37922766D01*
X34841896Y-37926869D01*
X34845264Y-37935001D01*
X34841896Y-37943131D01*
X34837794Y-37947233D01*
X34792414Y-38050009D01*
X34789539Y-38074793D01*
X34789538Y-38074804D01*
X34789500Y-38075135D01*
X34789500Y-38075474D01*
X34789500Y-38075475D01*
X34789500Y-39064523D01*
X34789500Y-39064540D01*
X34789501Y-39064864D01*
X34789539Y-39065195D01*
X34789540Y-39065205D01*
X34792414Y-39089990D01*
X34837794Y-39192766D01*
X34841896Y-39196869D01*
X34845264Y-39205001D01*
X34841896Y-39213131D01*
X34837794Y-39217233D01*
X34792414Y-39320009D01*
X34789539Y-39344793D01*
X34789538Y-39344804D01*
X34789500Y-39345135D01*
X34789500Y-39345474D01*
X34789500Y-39345475D01*
X34789500Y-40334523D01*
X34789500Y-40334540D01*
X34789501Y-40334864D01*
X34789539Y-40335195D01*
X34789540Y-40335205D01*
X34792414Y-40359990D01*
X34837794Y-40462766D01*
X34841896Y-40466869D01*
X34845264Y-40475001D01*
X34841896Y-40483131D01*
X34837794Y-40487233D01*
X34792414Y-40590009D01*
X34789539Y-40614793D01*
X34789538Y-40614804D01*
X34789500Y-40615135D01*
X34789500Y-40615474D01*
X34789500Y-40615475D01*
X34789500Y-41604523D01*
X34789500Y-41604540D01*
X34789501Y-41604864D01*
X34789539Y-41605195D01*
X34789540Y-41605205D01*
X34792414Y-41629990D01*
X34837794Y-41732766D01*
X34841896Y-41736869D01*
X34845264Y-41745001D01*
X34841896Y-41753131D01*
X34837794Y-41757233D01*
X34792414Y-41860009D01*
X34789539Y-41884793D01*
X34789538Y-41884804D01*
X34789500Y-41885135D01*
X34789500Y-41885474D01*
X34789500Y-41885475D01*
X34789500Y-42874523D01*
X34789500Y-42874540D01*
X34789501Y-42874864D01*
X34789539Y-42875195D01*
X34789540Y-42875205D01*
X34792414Y-42899990D01*
X34837794Y-43002766D01*
X34841896Y-43006869D01*
X34845264Y-43015001D01*
X34841896Y-43023131D01*
X34837794Y-43027233D01*
X34792414Y-43130009D01*
X34789539Y-43154793D01*
X34789538Y-43154804D01*
X34789500Y-43155135D01*
X34789500Y-43155474D01*
X34789500Y-43155475D01*
X34789500Y-44144523D01*
X34789500Y-44144540D01*
X34789501Y-44144864D01*
X34789539Y-44145195D01*
X34789540Y-44145205D01*
X34792414Y-44169990D01*
X34837794Y-44272766D01*
X34841896Y-44276869D01*
X34845264Y-44285001D01*
X34841896Y-44293131D01*
X34837794Y-44297233D01*
X34792414Y-44400009D01*
X34789539Y-44424793D01*
X34789538Y-44424804D01*
X34789500Y-44425135D01*
X34789500Y-44425474D01*
X34789500Y-44425475D01*
X34789500Y-45414523D01*
X34789500Y-45414540D01*
X34789501Y-45414864D01*
X34789539Y-45415195D01*
X34789540Y-45415205D01*
X34792414Y-45439990D01*
X34837794Y-45542766D01*
X34841896Y-45546869D01*
X34845264Y-45555001D01*
X34841896Y-45563131D01*
X34837794Y-45567233D01*
X34792414Y-45670010D01*
X34791334Y-45679325D01*
X34787052Y-45687014D01*
X34779911Y-45689500D01*
X34642077Y-45689500D01*
X34633945Y-45686132D01*
X33908940Y-44961127D01*
X33182828Y-44235014D01*
X33181286Y-44233099D01*
X33172143Y-44218872D01*
X33131581Y-44183725D01*
X33130981Y-44183166D01*
X33118594Y-44170780D01*
X33104570Y-44160281D01*
X33103931Y-44159766D01*
X33063371Y-44124621D01*
X33047986Y-44117594D01*
X33045873Y-44116340D01*
X33032333Y-44106205D01*
X33032331Y-44106204D01*
X33005673Y-44096261D01*
X32982037Y-44087445D01*
X32981279Y-44087131D01*
X32932456Y-44064834D01*
X32915711Y-44062426D01*
X32913330Y-44061818D01*
X32897485Y-44055909D01*
X32843941Y-44052078D01*
X32843126Y-44051990D01*
X32825799Y-44049500D01*
X32808294Y-44049500D01*
X32807474Y-44049471D01*
X32753925Y-44045640D01*
X32737397Y-44049237D01*
X32734952Y-44049500D01*
X29335048Y-44049500D01*
X29332603Y-44049237D01*
X29316074Y-44045640D01*
X29262526Y-44049471D01*
X29261706Y-44049500D01*
X29244201Y-44049500D01*
X29226872Y-44051990D01*
X29226057Y-44052078D01*
X29172515Y-44055909D01*
X29156670Y-44061818D01*
X29154289Y-44062426D01*
X29137543Y-44064834D01*
X29088719Y-44087131D01*
X29087961Y-44087445D01*
X29037668Y-44106204D01*
X29024125Y-44116341D01*
X29022013Y-44117594D01*
X29006627Y-44124622D01*
X28966060Y-44159772D01*
X28965422Y-44160286D01*
X28951406Y-44170780D01*
X28939032Y-44183153D01*
X28938432Y-44183712D01*
X28897857Y-44218872D01*
X28888710Y-44233103D01*
X28887168Y-44235017D01*
X28164426Y-44957759D01*
X28156294Y-44961127D01*
X28152140Y-44960350D01*
X28096200Y-44938679D01*
X27886611Y-44899500D01*
X27886610Y-44899500D01*
X27673390Y-44899500D01*
X27673389Y-44899500D01*
X27463799Y-44938679D01*
X27264981Y-45015701D01*
X27083702Y-45127945D01*
X27083700Y-45127946D01*
X27083698Y-45127948D01*
X27026601Y-45179999D01*
X26926124Y-45271596D01*
X26797634Y-45441744D01*
X26702595Y-45632609D01*
X26644243Y-45837689D01*
X26624571Y-46050000D01*
X26253000Y-46050000D01*
X26253000Y-36070000D01*
X28315206Y-36070000D01*
X28334349Y-36313227D01*
X28391302Y-36550453D01*
X28484671Y-36775864D01*
X28608503Y-36977942D01*
X29229859Y-36356585D01*
X29289680Y-36470566D01*
X29402405Y-36597806D01*
X29542305Y-36694371D01*
X29583541Y-36710010D01*
X28962056Y-37331495D01*
X29164135Y-37455328D01*
X29389546Y-37548697D01*
X29626772Y-37605650D01*
X29870000Y-37624793D01*
X30113227Y-37605650D01*
X30350453Y-37548697D01*
X30575864Y-37455328D01*
X30777942Y-37331495D01*
X30156456Y-36710010D01*
X30197695Y-36694371D01*
X30337595Y-36597806D01*
X30450320Y-36470566D01*
X30510140Y-36356586D01*
X31131495Y-36977942D01*
X31255328Y-36775864D01*
X31348697Y-36550453D01*
X31405650Y-36313227D01*
X31424793Y-36070000D01*
X31405650Y-35826772D01*
X31348697Y-35589546D01*
X31255328Y-35364135D01*
X31131495Y-35162056D01*
X30510139Y-35783412D01*
X30450320Y-35669434D01*
X30337595Y-35542194D01*
X30197695Y-35445629D01*
X30156455Y-35429988D01*
X30777942Y-34808503D01*
X30575864Y-34684671D01*
X30350453Y-34591302D01*
X30113227Y-34534349D01*
X29870000Y-34515206D01*
X29626772Y-34534349D01*
X29389546Y-34591302D01*
X29164135Y-34684671D01*
X28962056Y-34808503D01*
X29583543Y-35429989D01*
X29542305Y-35445629D01*
X29402405Y-35542194D01*
X29289680Y-35669434D01*
X29229859Y-35783413D01*
X28608503Y-35162056D01*
X28484671Y-35364135D01*
X28391302Y-35589546D01*
X28334349Y-35826772D01*
X28315206Y-36070000D01*
X26253000Y-36070000D01*
X26253000Y-29429999D01*
X34590000Y-29429999D01*
X34590001Y-29430000D01*
X35589999Y-29430000D01*
X35590000Y-29429998D01*
X36090000Y-29429998D01*
X36090001Y-29430000D01*
X37089999Y-29430000D01*
X37090000Y-29429999D01*
X52390000Y-29429999D01*
X52390001Y-29430000D01*
X53389999Y-29430000D01*
X53390000Y-29429998D01*
X53390000Y-28730001D01*
X53389999Y-28730000D01*
X52842472Y-28730000D01*
X52841872Y-28730032D01*
X52782625Y-28736401D01*
X52647910Y-28786647D01*
X52532811Y-28872811D01*
X52446647Y-28987910D01*
X52396401Y-29122625D01*
X52390032Y-29181872D01*
X52390000Y-29182472D01*
X52390000Y-29429999D01*
X37090000Y-29429999D01*
X37090000Y-29182472D01*
X37089967Y-29181872D01*
X37083598Y-29122625D01*
X37033352Y-28987910D01*
X36947188Y-28872811D01*
X36832089Y-28786647D01*
X36697374Y-28736401D01*
X36638127Y-28730032D01*
X36637528Y-28730000D01*
X36090001Y-28730000D01*
X36090000Y-28730001D01*
X36090000Y-29429998D01*
X35590000Y-29429998D01*
X35590000Y-28730001D01*
X35589999Y-28730000D01*
X35042472Y-28730000D01*
X35041872Y-28730032D01*
X34982625Y-28736401D01*
X34847910Y-28786647D01*
X34732811Y-28872811D01*
X34646647Y-28987910D01*
X34596401Y-29122625D01*
X34590032Y-29181872D01*
X34590000Y-29182472D01*
X34590000Y-29429999D01*
X26253000Y-29429999D01*
X26253000Y-28032000D01*
X26256368Y-28023868D01*
X26264500Y-28020500D01*
X46586012Y-28020500D01*
X55833750Y-28029822D01*
G37*
%TD.AperFunction*%
%TD*%
M02*
