%TF.GenerationSoftware,KiCad,Pcbnew,7.0.2*%
%TF.CreationDate,2023-05-06T17:38:48-03:00*%
%TF.ProjectId,PowerAndCommModule,506f7765-7241-46e6-9443-6f6d6d4d6f64,rev?*%
%TF.SameCoordinates,Original*%
%TF.FileFunction,Paste,Bot*%
%TF.FilePolarity,Positive*%
%FSLAX46Y46*%
G04 Gerber Fmt 4.6, Leading zero omitted, Abs format (unit mm)*
G04 Created by KiCad (PCBNEW 7.0.2) date 2023-05-06 17:38:48*
%MOMM*%
%LPD*%
G01*
G04 APERTURE LIST*
G04 Aperture macros list*
%AMRoundRect*
0 Rectangle with rounded corners*
0 $1 Rounding radius*
0 $2 $3 $4 $5 $6 $7 $8 $9 X,Y pos of 4 corners*
0 Add a 4 corners polygon primitive as box body*
4,1,4,$2,$3,$4,$5,$6,$7,$8,$9,$2,$3,0*
0 Add four circle primitives for the rounded corners*
1,1,$1+$1,$2,$3*
1,1,$1+$1,$4,$5*
1,1,$1+$1,$6,$7*
1,1,$1+$1,$8,$9*
0 Add four rect primitives between the rounded corners*
20,1,$1+$1,$2,$3,$4,$5,0*
20,1,$1+$1,$4,$5,$6,$7,0*
20,1,$1+$1,$6,$7,$8,$9,0*
20,1,$1+$1,$8,$9,$2,$3,0*%
G04 Aperture macros list end*
%ADD10R,1.500000X1.500000*%
%ADD11RoundRect,0.250001X0.924999X-0.499999X0.924999X0.499999X-0.924999X0.499999X-0.924999X-0.499999X0*%
%ADD12RoundRect,0.150000X-0.587500X-0.150000X0.587500X-0.150000X0.587500X0.150000X-0.587500X0.150000X0*%
%ADD13RoundRect,0.250000X0.450000X-0.262500X0.450000X0.262500X-0.450000X0.262500X-0.450000X-0.262500X0*%
%ADD14RoundRect,0.250000X-0.262500X-0.450000X0.262500X-0.450000X0.262500X0.450000X-0.262500X0.450000X0*%
%ADD15R,2.000000X1.500000*%
%ADD16R,2.000000X3.800000*%
%ADD17RoundRect,0.250000X-0.475000X0.250000X-0.475000X-0.250000X0.475000X-0.250000X0.475000X0.250000X0*%
%ADD18RoundRect,0.250000X-0.250000X-0.475000X0.250000X-0.475000X0.250000X0.475000X-0.250000X0.475000X0*%
%ADD19R,1.500000X0.900000*%
%ADD20R,0.900000X1.500000*%
%ADD21R,4.500000X4.500000*%
G04 APERTURE END LIST*
D10*
%TO.C,SW1*%
X31770000Y-38720000D03*
X31770000Y-46520000D03*
%TD*%
D11*
%TO.C,C1*%
X61410000Y-55275000D03*
X61410000Y-52025000D03*
%TD*%
D12*
%TO.C,Q1*%
X56015000Y-60590000D03*
X54140000Y-59640000D03*
X54140000Y-61540000D03*
%TD*%
D13*
%TO.C,R2*%
X51550000Y-59717500D03*
X51550000Y-61542500D03*
%TD*%
D14*
%TO.C,R3*%
X60147500Y-38180000D03*
X61972500Y-38180000D03*
%TD*%
D15*
%TO.C,U1*%
X58020000Y-57100000D03*
D16*
X51720000Y-54800000D03*
D15*
X58020000Y-54800000D03*
X58020000Y-52500000D03*
%TD*%
D17*
%TO.C,C3*%
X60750000Y-31400000D03*
X60750000Y-33300000D03*
%TD*%
D13*
%TO.C,R1*%
X63180000Y-33252500D03*
X63180000Y-31427500D03*
%TD*%
D18*
%TO.C,C2*%
X58310000Y-49330000D03*
X60210000Y-49330000D03*
%TD*%
D14*
%TO.C,R4*%
X60087500Y-35630000D03*
X61912500Y-35630000D03*
%TD*%
D19*
%TO.C,U2*%
X53640000Y-29680000D03*
X53640000Y-30950000D03*
X53640000Y-32220000D03*
X53640000Y-33490000D03*
X53640000Y-34760000D03*
X53640000Y-36030000D03*
X53640000Y-37300000D03*
X53640000Y-38570000D03*
X53640000Y-39840000D03*
X53640000Y-41110000D03*
X53640000Y-42380000D03*
X53640000Y-43650000D03*
X53640000Y-44920000D03*
X53640000Y-46190000D03*
D20*
X50450000Y-47690000D03*
X49180000Y-47690000D03*
X47910000Y-47690000D03*
X46640000Y-47690000D03*
X45370000Y-47690000D03*
X44100000Y-47690000D03*
X42830000Y-47690000D03*
X41560000Y-47690000D03*
X40290000Y-47690000D03*
X39020000Y-47690000D03*
D19*
X35840000Y-46190000D03*
X35840000Y-44920000D03*
X35840000Y-43650000D03*
X35840000Y-42380000D03*
X35840000Y-41110000D03*
X35840000Y-39840000D03*
X35840000Y-38570000D03*
X35840000Y-37300000D03*
X35840000Y-36030000D03*
X35840000Y-34760000D03*
X35840000Y-33490000D03*
X35840000Y-32220000D03*
X35840000Y-30950000D03*
X35840000Y-29680000D03*
D21*
X45420000Y-37020000D03*
%TD*%
M02*
