%TF.GenerationSoftware,KiCad,Pcbnew,7.0.2*%
%TF.CreationDate,2023-04-22T16:52:06-03:00*%
%TF.ProjectId,PowerAndCommModule,506f7765-7241-46e6-9443-6f6d6d4d6f64,rev?*%
%TF.SameCoordinates,Original*%
%TF.FileFunction,Copper,L2,Bot*%
%TF.FilePolarity,Positive*%
%FSLAX46Y46*%
G04 Gerber Fmt 4.6, Leading zero omitted, Abs format (unit mm)*
G04 Created by KiCad (PCBNEW 7.0.2) date 2023-04-22 16:52:06*
%MOMM*%
%LPD*%
G01*
G04 APERTURE LIST*
G04 Aperture macros list*
%AMRoundRect*
0 Rectangle with rounded corners*
0 $1 Rounding radius*
0 $2 $3 $4 $5 $6 $7 $8 $9 X,Y pos of 4 corners*
0 Add a 4 corners polygon primitive as box body*
4,1,4,$2,$3,$4,$5,$6,$7,$8,$9,$2,$3,0*
0 Add four circle primitives for the rounded corners*
1,1,$1+$1,$2,$3*
1,1,$1+$1,$4,$5*
1,1,$1+$1,$6,$7*
1,1,$1+$1,$8,$9*
0 Add four rect primitives between the rounded corners*
20,1,$1+$1,$2,$3,$4,$5,0*
20,1,$1+$1,$4,$5,$6,$7,0*
20,1,$1+$1,$6,$7,$8,$9,0*
20,1,$1+$1,$8,$9,$2,$3,0*%
G04 Aperture macros list end*
%TA.AperFunction,ComponentPad*%
%ADD10C,2.100000*%
%TD*%
%TA.AperFunction,ComponentPad*%
%ADD11R,1.700000X1.700000*%
%TD*%
%TA.AperFunction,ComponentPad*%
%ADD12O,1.700000X1.700000*%
%TD*%
%TA.AperFunction,ComponentPad*%
%ADD13C,1.500000*%
%TD*%
%TA.AperFunction,ComponentPad*%
%ADD14R,1.800000X1.800000*%
%TD*%
%TA.AperFunction,ComponentPad*%
%ADD15C,1.800000*%
%TD*%
%TA.AperFunction,ComponentPad*%
%ADD16C,2.000000*%
%TD*%
%TA.AperFunction,ComponentPad*%
%ADD17R,1.350000X1.350000*%
%TD*%
%TA.AperFunction,ComponentPad*%
%ADD18O,1.350000X1.350000*%
%TD*%
%TA.AperFunction,SMDPad,CuDef*%
%ADD19RoundRect,0.150000X-0.587500X-0.150000X0.587500X-0.150000X0.587500X0.150000X-0.587500X0.150000X0*%
%TD*%
%TA.AperFunction,SMDPad,CuDef*%
%ADD20RoundRect,0.250000X-0.262500X-0.450000X0.262500X-0.450000X0.262500X0.450000X-0.262500X0.450000X0*%
%TD*%
%TA.AperFunction,SMDPad,CuDef*%
%ADD21R,2.000000X1.500000*%
%TD*%
%TA.AperFunction,SMDPad,CuDef*%
%ADD22R,2.000000X3.800000*%
%TD*%
%TA.AperFunction,SMDPad,CuDef*%
%ADD23RoundRect,0.250000X-0.475000X0.250000X-0.475000X-0.250000X0.475000X-0.250000X0.475000X0.250000X0*%
%TD*%
%TA.AperFunction,SMDPad,CuDef*%
%ADD24RoundRect,0.250000X-0.450000X0.262500X-0.450000X-0.262500X0.450000X-0.262500X0.450000X0.262500X0*%
%TD*%
%TA.AperFunction,SMDPad,CuDef*%
%ADD25RoundRect,0.250000X-0.250000X-0.475000X0.250000X-0.475000X0.250000X0.475000X-0.250000X0.475000X0*%
%TD*%
%TA.AperFunction,SMDPad,CuDef*%
%ADD26RoundRect,0.250000X0.425000X-0.537500X0.425000X0.537500X-0.425000X0.537500X-0.425000X-0.537500X0*%
%TD*%
%TA.AperFunction,SMDPad,CuDef*%
%ADD27R,1.500000X0.900000*%
%TD*%
%TA.AperFunction,SMDPad,CuDef*%
%ADD28R,0.900000X1.500000*%
%TD*%
%TA.AperFunction,SMDPad,CuDef*%
%ADD29R,4.500000X4.500000*%
%TD*%
%TA.AperFunction,ViaPad*%
%ADD30C,0.800000*%
%TD*%
%TA.AperFunction,Conductor*%
%ADD31C,0.300000*%
%TD*%
%TA.AperFunction,Conductor*%
%ADD32C,0.400000*%
%TD*%
%TA.AperFunction,Conductor*%
%ADD33C,1.000000*%
%TD*%
%TA.AperFunction,Conductor*%
%ADD34C,4.000000*%
%TD*%
G04 APERTURE END LIST*
D10*
%TO.P,J5,1,Pin_1*%
%TO.N,NEUT*%
X46540000Y-76520000D03*
%TO.P,J5,2,Pin_2*%
%TO.N,/LINE_NO*%
X51540000Y-76520000D03*
%TD*%
D11*
%TO.P,J4,1,Pin_1*%
%TO.N,+5V*%
X59120000Y-40450000D03*
D12*
%TO.P,J4,2,Pin_2*%
%TO.N,/SCL*%
X59120000Y-37910000D03*
%TO.P,J4,3,Pin_3*%
%TO.N,/SDA*%
X59120000Y-35370000D03*
%TO.P,J4,4,Pin_4*%
%TO.N,+3V3*%
X59120000Y-32830000D03*
%TO.P,J4,5,Pin_5*%
%TO.N,GND*%
X59120000Y-30290000D03*
%TD*%
D13*
%TO.P,PS1,1,AC/L*%
%TO.N,LINE*%
X33020000Y-50780000D03*
%TO.P,PS1,2,AC/N*%
%TO.N,NEUT*%
X33020000Y-55780000D03*
%TO.P,PS1,3,-Vout*%
%TO.N,GND*%
X62420000Y-45580000D03*
%TO.P,PS1,4,+Vout*%
%TO.N,+5V*%
X62420000Y-60980000D03*
%TD*%
D14*
%TO.P,K1,1,COM*%
%TO.N,LINE*%
X30740000Y-66260000D03*
D15*
%TO.P,K1,2,NO*%
%TO.N,/LINE_NO*%
X38360000Y-66260000D03*
D13*
%TO.P,K1,3,COIL_1*%
%TO.N,GND*%
X45980000Y-66260000D03*
%TO.P,K1,4,COIL_2*%
%TO.N,Net-(K1-COIL_2)*%
X48520000Y-66260000D03*
%TD*%
D16*
%TO.P,SW1,1*%
%TO.N,Net-(U2-IO13)*%
X56890000Y-65790000D03*
X63390000Y-65790000D03*
%TO.P,SW1,2*%
%TO.N,GND*%
X56890000Y-70290000D03*
X63390000Y-70290000D03*
%TD*%
D10*
%TO.P,J1,1,Pin_1*%
%TO.N,LINE*%
X32010000Y-76460000D03*
%TO.P,J1,2,Pin_2*%
%TO.N,NEUT*%
X37010000Y-76460000D03*
%TD*%
D17*
%TO.P,J2,1,Pin_1*%
%TO.N,/RXD*%
X27880000Y-41480000D03*
D18*
%TO.P,J2,2,Pin_2*%
%TO.N,/TXD*%
X27880000Y-43480000D03*
%TO.P,J2,3,Pin_3*%
%TO.N,/DTR*%
X27880000Y-45480000D03*
%TO.P,J2,4,Pin_4*%
%TO.N,/EN*%
X27880000Y-47480000D03*
%TO.P,J2,5,Pin_5*%
%TO.N,+3V3*%
X27880000Y-49480000D03*
%TO.P,J2,6,Pin_6*%
%TO.N,GND*%
X27880000Y-51480000D03*
%TD*%
D10*
%TO.P,J3,1,Pin_1*%
%TO.N,Net-(J3-Pin_1)*%
X30160000Y-31280000D03*
%TO.P,J3,2,Pin_2*%
%TO.N,GND*%
X30160000Y-36280000D03*
%TD*%
D19*
%TO.P,Q1,1,E*%
%TO.N,Net-(K1-COIL_2)*%
X52015000Y-66200000D03*
%TO.P,Q1,2,B*%
%TO.N,Net-(Q1-B)*%
X52015000Y-64300000D03*
%TO.P,Q1,3,C*%
%TO.N,+5V*%
X53890000Y-65250000D03*
%TD*%
D20*
%TO.P,R2,1*%
%TO.N,Net-(U2-IO19)*%
X49017500Y-61970000D03*
%TO.P,R2,2*%
%TO.N,Net-(Q1-B)*%
X50842500Y-61970000D03*
%TD*%
%TO.P,R3,1*%
%TO.N,/SCL*%
X61297500Y-37880000D03*
%TO.P,R3,2*%
%TO.N,+3V3*%
X63122500Y-37880000D03*
%TD*%
D21*
%TO.P,U1,1,GND*%
%TO.N,GND*%
X58020000Y-52500000D03*
%TO.P,U1,2,VO*%
%TO.N,+3V3*%
X58020000Y-54800000D03*
D22*
X51720000Y-54800000D03*
D21*
%TO.P,U1,3,VI*%
%TO.N,+5V*%
X58020000Y-57100000D03*
%TD*%
D23*
%TO.P,C3,1*%
%TO.N,/EN*%
X56950000Y-33500000D03*
%TO.P,C3,2*%
%TO.N,GND*%
X56950000Y-35400000D03*
%TD*%
D24*
%TO.P,R1,1*%
%TO.N,+3V3*%
X56960000Y-30077500D03*
%TO.P,R1,2*%
%TO.N,/EN*%
X56960000Y-31902500D03*
%TD*%
D25*
%TO.P,C2,1*%
%TO.N,+3V3*%
X56980000Y-49290000D03*
%TO.P,C2,2*%
%TO.N,GND*%
X58880000Y-49290000D03*
%TD*%
D26*
%TO.P,C1,1*%
%TO.N,+3V3*%
X61410000Y-55087500D03*
%TO.P,C1,2*%
%TO.N,GND*%
X61410000Y-52212500D03*
%TD*%
D20*
%TO.P,R4,1*%
%TO.N,/SDA*%
X61347500Y-35390000D03*
%TO.P,R4,2*%
%TO.N,+3V3*%
X63172500Y-35390000D03*
%TD*%
D27*
%TO.P,U2,1,GND_1*%
%TO.N,GND*%
X54220000Y-29790000D03*
%TO.P,U2,2,3V3*%
%TO.N,+3V3*%
X54220000Y-31060000D03*
%TO.P,U2,3,EN*%
%TO.N,/EN*%
X54220000Y-32330000D03*
%TO.P,U2,4,SENSOR_VP*%
%TO.N,unconnected-(U2-SENSOR_VP-Pad4)*%
X54220000Y-33600000D03*
%TO.P,U2,5,SENSOR_VN*%
%TO.N,unconnected-(U2-SENSOR_VN-Pad5)*%
X54220000Y-34870000D03*
%TO.P,U2,6,IO34*%
%TO.N,unconnected-(U2-IO34-Pad6)*%
X54220000Y-36140000D03*
%TO.P,U2,7,IO35*%
%TO.N,unconnected-(U2-IO35-Pad7)*%
X54220000Y-37410000D03*
%TO.P,U2,8,IO32*%
%TO.N,/SDA*%
X54220000Y-38680000D03*
%TO.P,U2,9,IO33*%
%TO.N,/SCL*%
X54220000Y-39950000D03*
%TO.P,U2,10,IO25*%
%TO.N,unconnected-(U2-IO25-Pad10)*%
X54220000Y-41220000D03*
%TO.P,U2,11,IO26*%
%TO.N,unconnected-(U2-IO26-Pad11)*%
X54220000Y-42490000D03*
%TO.P,U2,12,IO27*%
%TO.N,unconnected-(U2-IO27-Pad12)*%
X54220000Y-43760000D03*
%TO.P,U2,13,IO14*%
%TO.N,unconnected-(U2-IO14-Pad13)*%
X54220000Y-45030000D03*
%TO.P,U2,14,IO12*%
%TO.N,unconnected-(U2-IO12-Pad14)*%
X54220000Y-46300000D03*
D28*
%TO.P,U2,15,GND_2*%
%TO.N,GND*%
X51030000Y-47800000D03*
%TO.P,U2,16,IO13*%
%TO.N,Net-(U2-IO13)*%
X49760000Y-47800000D03*
%TO.P,U2,17,SHD/SD2*%
%TO.N,unconnected-(U2-SHD{slash}SD2-Pad17)*%
X48490000Y-47800000D03*
%TO.P,U2,18,SHD/SD3*%
%TO.N,unconnected-(U2-SHD{slash}SD3-Pad18)*%
X47220000Y-47800000D03*
%TO.P,U2,19,SCS/CMD*%
%TO.N,unconnected-(U2-SCS{slash}CMD-Pad19)*%
X45950000Y-47800000D03*
%TO.P,U2,20,SCK/CLK*%
%TO.N,unconnected-(U2-SCK{slash}CLK-Pad20)*%
X44680000Y-47800000D03*
%TO.P,U2,21,SDO/SD0*%
%TO.N,unconnected-(U2-SDO{slash}SD0-Pad21)*%
X43410000Y-47800000D03*
%TO.P,U2,22,SDI/SD1*%
%TO.N,unconnected-(U2-SDI{slash}SD1-Pad22)*%
X42140000Y-47800000D03*
%TO.P,U2,23,IO15*%
%TO.N,unconnected-(U2-IO15-Pad23)*%
X40870000Y-47800000D03*
%TO.P,U2,24,IO2*%
%TO.N,unconnected-(U2-IO2-Pad24)*%
X39600000Y-47800000D03*
D27*
%TO.P,U2,25,IO0*%
%TO.N,/DTR*%
X36420000Y-46300000D03*
%TO.P,U2,26,IO4*%
%TO.N,unconnected-(U2-IO4-Pad26)*%
X36420000Y-45030000D03*
%TO.P,U2,27,IO16*%
%TO.N,unconnected-(U2-IO16-Pad27)*%
X36420000Y-43760000D03*
%TO.P,U2,28,IO17*%
%TO.N,unconnected-(U2-IO17-Pad28)*%
X36420000Y-42490000D03*
%TO.P,U2,29,IO5*%
%TO.N,unconnected-(U2-IO5-Pad29)*%
X36420000Y-41220000D03*
%TO.P,U2,30,IO18*%
%TO.N,unconnected-(U2-IO18-Pad30)*%
X36420000Y-39950000D03*
%TO.P,U2,31,IO19*%
%TO.N,Net-(U2-IO19)*%
X36420000Y-38680000D03*
%TO.P,U2,32,NC*%
%TO.N,unconnected-(U2-NC-Pad32)*%
X36420000Y-37410000D03*
%TO.P,U2,33,IO21*%
%TO.N,unconnected-(U2-IO21-Pad33)*%
X36420000Y-36140000D03*
%TO.P,U2,34,RXD0*%
%TO.N,/TXD*%
X36420000Y-34870000D03*
%TO.P,U2,35,TXDO*%
%TO.N,/RXD*%
X36420000Y-33600000D03*
%TO.P,U2,36,IO22*%
%TO.N,unconnected-(U2-IO22-Pad36)*%
X36420000Y-32330000D03*
%TO.P,U2,37,IO23*%
%TO.N,Net-(J3-Pin_1)*%
X36420000Y-31060000D03*
%TO.P,U2,38,GND_3*%
%TO.N,GND*%
X36420000Y-29790000D03*
D29*
%TO.P,U2,39,EP*%
X46000000Y-37130000D03*
%TD*%
D30*
%TO.N,GND*%
X56400000Y-36640000D03*
%TO.N,/EN*%
X55850000Y-32680000D03*
%TO.N,+3V3*%
X51210000Y-51470000D03*
%TD*%
D31*
%TO.N,GND*%
X51040000Y-47810000D02*
X51030000Y-47800000D01*
D32*
X61410000Y-52212500D02*
X61410000Y-51820000D01*
X58020000Y-52500000D02*
X58040000Y-52500000D01*
D33*
%TO.N,LINE*%
X30520000Y-54744466D02*
X30520000Y-66040000D01*
D34*
X30740000Y-66260000D02*
X30740000Y-75440000D01*
D33*
X30520000Y-66040000D02*
X30740000Y-66260000D01*
X30740000Y-66260000D02*
X29770000Y-65290000D01*
D34*
X30740000Y-75440000D02*
X31760000Y-76460000D01*
D33*
X33020000Y-52244466D02*
X30520000Y-54744466D01*
X33020000Y-50780000D02*
X33020000Y-52244466D01*
D32*
%TO.N,+5V*%
X53890000Y-66380000D02*
X55470000Y-67960000D01*
X53890000Y-65250000D02*
X53890000Y-66380000D01*
X62130000Y-40450000D02*
X59120000Y-40450000D01*
X65007500Y-63180000D02*
X64430000Y-62602500D01*
X53890000Y-65250000D02*
X53940000Y-65250000D01*
X64430000Y-42750000D02*
X62130000Y-40450000D01*
X64430000Y-56420000D02*
X59870000Y-60980000D01*
X58020000Y-60140000D02*
X58860000Y-60980000D01*
X64430000Y-62602500D02*
X64430000Y-56420000D01*
X59830000Y-60980000D02*
X59870000Y-60980000D01*
X62420000Y-60980000D02*
X59830000Y-60980000D01*
X58860000Y-60980000D02*
X59830000Y-60980000D01*
X64600000Y-67960000D02*
X65007500Y-67552500D01*
X64430000Y-56420000D02*
X64430000Y-42750000D01*
X58020000Y-57100000D02*
X58020000Y-60140000D01*
X55470000Y-67960000D02*
X64600000Y-67960000D01*
X65007500Y-67552500D02*
X65007500Y-63180000D01*
%TO.N,Net-(K1-COIL_2)*%
X50400000Y-66260000D02*
X51955000Y-66260000D01*
X51955000Y-66260000D02*
X52015000Y-66200000D01*
X48520000Y-66260000D02*
X50400000Y-66260000D01*
%TO.N,Net-(Q1-B)*%
X50842500Y-63127500D02*
X52015000Y-64300000D01*
X50842500Y-61970000D02*
X50842500Y-63127500D01*
%TO.N,/RXD*%
X35490000Y-33600000D02*
X36420000Y-33600000D01*
X27880000Y-41210000D02*
X27880000Y-41480000D01*
X35490000Y-33600000D02*
X27880000Y-41210000D01*
%TO.N,/TXD*%
X30660000Y-42114594D02*
X29294594Y-43480000D01*
X35490000Y-34870000D02*
X36420000Y-34870000D01*
X30680000Y-39680000D02*
X35490000Y-34870000D01*
X29294594Y-43480000D02*
X27880000Y-43480000D01*
X30680000Y-42114594D02*
X30660000Y-42114594D01*
X30680000Y-42114594D02*
X30680000Y-39680000D01*
D33*
%TO.N,NEUT*%
X34510000Y-67713300D02*
X34510000Y-57270000D01*
D34*
X46540000Y-76520000D02*
X37070000Y-76520000D01*
D33*
X37010000Y-76460000D02*
X37010000Y-70213300D01*
D34*
X37070000Y-76520000D02*
X37010000Y-76460000D01*
D33*
X37010000Y-70213300D02*
X34510000Y-67713300D01*
X34510000Y-57270000D02*
X33020000Y-55780000D01*
D34*
%TO.N,/LINE_NO*%
X38360000Y-66260000D02*
X43150000Y-71050000D01*
X51790000Y-73200000D02*
X51790000Y-76520000D01*
X43150000Y-71050000D02*
X49640000Y-71050000D01*
X49640000Y-71050000D02*
X51790000Y-73200000D01*
D31*
%TO.N,/EN*%
X56960000Y-33490000D02*
X56950000Y-33500000D01*
X55927500Y-31902500D02*
X55500000Y-32330000D01*
X56960000Y-31902500D02*
X56960000Y-33490000D01*
D32*
X55850000Y-32680000D02*
X55500000Y-32330000D01*
D31*
X56960000Y-31902500D02*
X55927500Y-31902500D01*
D32*
X55500000Y-32330000D02*
X54220000Y-32330000D01*
X28390000Y-47450000D02*
X28350000Y-47490000D01*
%TO.N,/DTR*%
X34450000Y-46300000D02*
X33630000Y-45480000D01*
X36420000Y-46300000D02*
X34450000Y-46300000D01*
X33630000Y-45480000D02*
X27880000Y-45480000D01*
%TO.N,Net-(J3-Pin_1)*%
X36200000Y-31280000D02*
X36420000Y-31060000D01*
X36420000Y-31060000D02*
X30380000Y-31060000D01*
X30380000Y-31060000D02*
X30160000Y-31280000D01*
%TO.N,Net-(U2-IO19)*%
X38110000Y-51062500D02*
X49017500Y-61970000D01*
X36420000Y-38680000D02*
X37570000Y-38680000D01*
X37570000Y-38680000D02*
X38110000Y-39220000D01*
X38110000Y-39220000D02*
X38110000Y-51062500D01*
%TO.N,+3V3*%
X54940000Y-54530000D02*
X55210000Y-54800000D01*
X51720000Y-54800000D02*
X51720000Y-51940000D01*
X51210000Y-51470000D02*
X51210000Y-51430000D01*
D31*
X63172500Y-37830000D02*
X63122500Y-37880000D01*
X61420000Y-32830000D02*
X63172500Y-34582500D01*
D32*
X51440000Y-31060000D02*
X54220000Y-31060000D01*
X51210000Y-51430000D02*
X51210000Y-51430000D01*
X51250000Y-51470000D02*
X51210000Y-51470000D01*
D31*
X63172500Y-35390000D02*
X63172500Y-37830000D01*
D32*
X50700000Y-31800000D02*
X51440000Y-31060000D01*
X54940000Y-52600000D02*
X54940000Y-54530000D01*
X52600000Y-46900000D02*
X52600000Y-45020000D01*
X51720000Y-54800000D02*
X55210000Y-54800000D01*
X54220000Y-31060000D02*
X55110000Y-31060000D01*
X50700000Y-43120000D02*
X50700000Y-31800000D01*
X58307500Y-55087500D02*
X58020000Y-54800000D01*
X59120000Y-32237500D02*
X59120000Y-32830000D01*
X56092500Y-30077500D02*
X56960000Y-30077500D01*
X51720000Y-51940000D02*
X51250000Y-51470000D01*
D31*
X63172500Y-34582500D02*
X63172500Y-35390000D01*
D32*
X54940000Y-49240000D02*
X52600000Y-46900000D01*
X54940000Y-51330000D02*
X54940000Y-49240000D01*
X61410000Y-55087500D02*
X58307500Y-55087500D01*
D31*
X59120000Y-32830000D02*
X61420000Y-32830000D01*
D32*
X54940000Y-51330000D02*
X54940000Y-52600000D01*
X56960000Y-30077500D02*
X59120000Y-32237500D01*
X56980000Y-49290000D02*
X54940000Y-51330000D01*
X55110000Y-31060000D02*
X56092500Y-30077500D01*
X55210000Y-54800000D02*
X58020000Y-54800000D01*
X52600000Y-45020000D02*
X50700000Y-43120000D01*
D31*
%TO.N,/SCL*%
X56010000Y-39950000D02*
X58050000Y-37910000D01*
X61267500Y-37910000D02*
X61297500Y-37880000D01*
X59120000Y-37910000D02*
X61267500Y-37910000D01*
X54220000Y-39950000D02*
X56010000Y-39950000D01*
X58050000Y-37910000D02*
X59120000Y-37910000D01*
%TO.N,/SDA*%
X54220000Y-38680000D02*
X55810000Y-38680000D01*
X59120000Y-35370000D02*
X61327500Y-35370000D01*
X61327500Y-35370000D02*
X61347500Y-35390000D01*
X55810000Y-38680000D02*
X59120000Y-35370000D01*
D32*
%TO.N,Net-(U2-IO13)*%
X56890000Y-65790000D02*
X56890000Y-64680000D01*
X56890000Y-65790000D02*
X63390000Y-65790000D01*
X49760000Y-50620000D02*
X49760000Y-47800000D01*
X49140000Y-56930000D02*
X49140000Y-51240000D01*
X49140000Y-51240000D02*
X49760000Y-50620000D01*
X56890000Y-64680000D02*
X49140000Y-56930000D01*
%TD*%
%TA.AperFunction,Conductor*%
%TO.N,GND*%
G36*
X65923632Y-28903868D02*
G01*
X65927000Y-28912000D01*
X65927000Y-72747384D01*
X65923632Y-72755516D01*
X65915500Y-72758884D01*
X65915213Y-72758880D01*
X55954240Y-72510105D01*
X55946844Y-72507166D01*
X53871358Y-70643553D01*
X53477609Y-70289999D01*
X55384859Y-70289999D01*
X55405387Y-70537740D01*
X55466412Y-70778720D01*
X55566266Y-71006366D01*
X55666563Y-71159881D01*
X56364070Y-70462375D01*
X56366884Y-70475915D01*
X56436442Y-70610156D01*
X56539638Y-70720652D01*
X56668819Y-70799209D01*
X56720002Y-70813549D01*
X56019942Y-71513610D01*
X56066765Y-71550053D01*
X56285391Y-71668366D01*
X56520510Y-71749084D01*
X56765705Y-71790000D01*
X57014295Y-71790000D01*
X57259489Y-71749084D01*
X57494608Y-71668366D01*
X57713234Y-71550053D01*
X57760056Y-71513610D01*
X57061567Y-70815121D01*
X57178458Y-70764349D01*
X57295739Y-70668934D01*
X57382928Y-70545415D01*
X57413355Y-70459801D01*
X58113435Y-71159881D01*
X58113436Y-71159881D01*
X58213733Y-71006366D01*
X58313587Y-70778720D01*
X58374612Y-70537740D01*
X58395140Y-70289999D01*
X61884859Y-70289999D01*
X61905387Y-70537740D01*
X61966412Y-70778720D01*
X62066266Y-71006366D01*
X62166563Y-71159881D01*
X62864070Y-70462373D01*
X62866884Y-70475915D01*
X62936442Y-70610156D01*
X63039638Y-70720652D01*
X63168819Y-70799209D01*
X63220002Y-70813549D01*
X62519942Y-71513610D01*
X62566765Y-71550053D01*
X62785391Y-71668366D01*
X63020510Y-71749084D01*
X63265705Y-71790000D01*
X63514295Y-71790000D01*
X63759489Y-71749084D01*
X63994608Y-71668366D01*
X64213234Y-71550053D01*
X64260056Y-71513610D01*
X63561567Y-70815121D01*
X63678458Y-70764349D01*
X63795739Y-70668934D01*
X63882928Y-70545415D01*
X63913355Y-70459801D01*
X64613435Y-71159881D01*
X64613436Y-71159881D01*
X64713733Y-71006366D01*
X64813587Y-70778720D01*
X64874612Y-70537740D01*
X64895140Y-70289999D01*
X64874612Y-70042259D01*
X64813587Y-69801279D01*
X64713733Y-69573633D01*
X64613435Y-69420117D01*
X63915929Y-70117622D01*
X63913116Y-70104085D01*
X63843558Y-69969844D01*
X63740362Y-69859348D01*
X63611181Y-69780791D01*
X63559994Y-69766449D01*
X64260056Y-69066388D01*
X64213234Y-69029946D01*
X63994608Y-68911633D01*
X63759489Y-68830915D01*
X63514295Y-68790000D01*
X63265705Y-68790000D01*
X63020510Y-68830915D01*
X62785391Y-68911633D01*
X62566765Y-69029947D01*
X62519942Y-69066388D01*
X63218432Y-69764878D01*
X63101542Y-69815651D01*
X62984261Y-69911066D01*
X62897072Y-70034585D01*
X62866644Y-70120198D01*
X62166563Y-69420117D01*
X62166562Y-69420117D01*
X62066266Y-69573633D01*
X61966412Y-69801279D01*
X61905387Y-70042259D01*
X61884859Y-70289999D01*
X58395140Y-70289999D01*
X58374612Y-70042259D01*
X58313587Y-69801279D01*
X58213733Y-69573633D01*
X58113435Y-69420117D01*
X57415929Y-70117622D01*
X57413116Y-70104085D01*
X57343558Y-69969844D01*
X57240362Y-69859348D01*
X57111181Y-69780791D01*
X57059994Y-69766449D01*
X57760056Y-69066388D01*
X57713234Y-69029946D01*
X57494608Y-68911633D01*
X57259489Y-68830915D01*
X57014295Y-68790000D01*
X56765705Y-68790000D01*
X56520510Y-68830915D01*
X56285391Y-68911633D01*
X56066765Y-69029947D01*
X56019942Y-69066388D01*
X56718432Y-69764878D01*
X56601542Y-69815651D01*
X56484261Y-69911066D01*
X56397072Y-70034585D01*
X56366644Y-70120198D01*
X55666563Y-69420117D01*
X55666562Y-69420117D01*
X55566266Y-69573633D01*
X55466412Y-69801279D01*
X55405387Y-70042259D01*
X55384859Y-70289999D01*
X53477609Y-70289999D01*
X51150000Y-68200000D01*
X51149999Y-68199999D01*
X51149998Y-68199999D01*
X50539405Y-68184318D01*
X50536724Y-68183930D01*
X50488637Y-68171045D01*
X50458906Y-68163078D01*
X50458609Y-68162994D01*
X50333136Y-68125431D01*
X50332804Y-68125372D01*
X50332798Y-68125371D01*
X50290544Y-68117920D01*
X50289565Y-68117703D01*
X50248101Y-68106593D01*
X50248093Y-68106591D01*
X50247782Y-68106508D01*
X50247473Y-68106462D01*
X50247460Y-68106460D01*
X50118171Y-68087522D01*
X50117841Y-68087468D01*
X49989250Y-68064795D01*
X49988927Y-68064738D01*
X49988609Y-68064719D01*
X49988605Y-68064719D01*
X49945751Y-68062223D01*
X49944753Y-68062121D01*
X49902286Y-68055900D01*
X49902275Y-68055899D01*
X49901954Y-68055852D01*
X49901614Y-68055842D01*
X49901613Y-68055842D01*
X49771064Y-68052042D01*
X49770731Y-68052028D01*
X49727449Y-68049508D01*
X49727436Y-68049507D01*
X49727305Y-68049500D01*
X49727154Y-68049500D01*
X49683820Y-68049500D01*
X49683486Y-68049495D01*
X49552919Y-68045695D01*
X49552906Y-68045695D01*
X49552584Y-68045686D01*
X49552254Y-68045714D01*
X49552248Y-68045715D01*
X49509493Y-68049456D01*
X49508491Y-68049500D01*
X45290045Y-68049500D01*
X45289750Y-68049496D01*
X45289711Y-68049495D01*
X45141749Y-68045695D01*
X44924518Y-68040116D01*
X44916770Y-68036838D01*
X43101583Y-66260000D01*
X44725224Y-66260000D01*
X44744287Y-66477889D01*
X44800895Y-66689154D01*
X44893335Y-66887391D01*
X44936874Y-66949571D01*
X45496922Y-66389521D01*
X45520507Y-66469844D01*
X45598239Y-66590798D01*
X45706900Y-66684952D01*
X45837685Y-66744680D01*
X45847465Y-66746086D01*
X45290427Y-67303124D01*
X45352608Y-67346664D01*
X45550845Y-67439104D01*
X45762110Y-67495712D01*
X45979999Y-67514775D01*
X46197889Y-67495712D01*
X46409154Y-67439104D01*
X46607391Y-67346664D01*
X46669572Y-67303125D01*
X46112532Y-66746086D01*
X46122315Y-66744680D01*
X46253100Y-66684952D01*
X46361761Y-66590798D01*
X46439493Y-66469844D01*
X46463077Y-66389523D01*
X47023125Y-66949572D01*
X47066664Y-66887391D01*
X47159104Y-66689154D01*
X47215712Y-66477889D01*
X47234775Y-66260000D01*
X47464417Y-66260000D01*
X47484700Y-66465934D01*
X47544768Y-66663954D01*
X47612167Y-66790049D01*
X47642315Y-66846450D01*
X47773590Y-67006410D01*
X47933550Y-67137685D01*
X48116046Y-67235232D01*
X48314066Y-67295300D01*
X48520000Y-67315583D01*
X48725934Y-67295300D01*
X48923954Y-67235232D01*
X49106450Y-67137685D01*
X49266410Y-67006410D01*
X49397685Y-66846450D01*
X49423772Y-66797646D01*
X49440378Y-66766579D01*
X49447182Y-66760995D01*
X49450520Y-66760500D01*
X50364201Y-66760500D01*
X51234688Y-66760500D01*
X51238486Y-66761145D01*
X51321084Y-66790047D01*
X51342801Y-66797646D01*
X51373234Y-66800500D01*
X51373511Y-66800500D01*
X52656489Y-66800500D01*
X52656766Y-66800500D01*
X52687199Y-66797646D01*
X52815382Y-66752793D01*
X52924650Y-66672150D01*
X53005293Y-66562882D01*
X53050146Y-66434699D01*
X53053000Y-66404266D01*
X53053000Y-65995734D01*
X53050146Y-65965301D01*
X53005293Y-65837118D01*
X52945523Y-65756132D01*
X52924650Y-65727849D01*
X52861780Y-65681450D01*
X52815382Y-65647207D01*
X52770527Y-65631511D01*
X52687198Y-65602353D01*
X52657039Y-65599525D01*
X52657026Y-65599524D01*
X52656766Y-65599500D01*
X51373234Y-65599500D01*
X51372974Y-65599524D01*
X51372960Y-65599525D01*
X51342801Y-65602353D01*
X51214618Y-65647207D01*
X51105349Y-65727849D01*
X51085438Y-65754829D01*
X51077899Y-65759372D01*
X51076185Y-65759500D01*
X49450520Y-65759500D01*
X49442388Y-65756132D01*
X49440378Y-65753421D01*
X49397685Y-65673550D01*
X49347896Y-65612882D01*
X49266410Y-65513590D01*
X49106450Y-65382315D01*
X49106449Y-65382314D01*
X48923954Y-65284768D01*
X48725934Y-65224700D01*
X48520000Y-65204417D01*
X48314065Y-65224700D01*
X48116045Y-65284768D01*
X47933550Y-65382314D01*
X47773590Y-65513590D01*
X47642314Y-65673550D01*
X47544768Y-65856045D01*
X47484700Y-66054065D01*
X47464417Y-66260000D01*
X47234775Y-66260000D01*
X47215712Y-66042110D01*
X47159104Y-65830845D01*
X47066664Y-65632609D01*
X47023123Y-65570427D01*
X46463076Y-66130474D01*
X46439493Y-66050156D01*
X46361761Y-65929202D01*
X46253100Y-65835048D01*
X46122315Y-65775320D01*
X46112531Y-65773913D01*
X46669571Y-65216874D01*
X46607391Y-65173335D01*
X46409154Y-65080895D01*
X46197889Y-65024287D01*
X45980000Y-65005224D01*
X45762110Y-65024287D01*
X45550845Y-65080895D01*
X45352609Y-65173335D01*
X45290428Y-65216875D01*
X45847466Y-65773913D01*
X45837685Y-65775320D01*
X45706900Y-65835048D01*
X45598239Y-65929202D01*
X45520507Y-66050156D01*
X45496922Y-66130476D01*
X44936875Y-65570428D01*
X44893335Y-65632609D01*
X44800895Y-65830845D01*
X44744287Y-66042110D01*
X44725224Y-66260000D01*
X43101583Y-66260000D01*
X36403407Y-59703335D01*
X36399952Y-59695240D01*
X36399952Y-59695232D01*
X36384552Y-58153867D01*
X36290815Y-48771564D01*
X36290000Y-48689999D01*
X29919999Y-48730000D01*
X29850191Y-52968399D01*
X29846690Y-52976475D01*
X29838504Y-52979708D01*
X29838402Y-52979706D01*
X26301199Y-52890283D01*
X26293155Y-52886711D01*
X26289990Y-52878798D01*
X26289031Y-51730000D01*
X26729495Y-51730000D01*
X26779651Y-51906278D01*
X26876715Y-52101208D01*
X27007942Y-52274983D01*
X27168868Y-52421685D01*
X27354018Y-52536324D01*
X27557065Y-52614986D01*
X27630000Y-52628619D01*
X27630000Y-51795686D01*
X27641955Y-51807641D01*
X27754852Y-51865165D01*
X27848519Y-51880000D01*
X27911481Y-51880000D01*
X28005148Y-51865165D01*
X28118045Y-51807641D01*
X28129999Y-51795686D01*
X28130000Y-52628619D01*
X28202934Y-52614986D01*
X28405981Y-52536324D01*
X28591131Y-52421685D01*
X28752057Y-52274983D01*
X28883284Y-52101208D01*
X28980348Y-51906278D01*
X29030505Y-51730000D01*
X28195686Y-51730000D01*
X28207641Y-51718045D01*
X28265165Y-51605148D01*
X28284986Y-51480000D01*
X28265165Y-51354852D01*
X28207641Y-51241955D01*
X28195686Y-51230000D01*
X29030505Y-51230000D01*
X29030504Y-51229999D01*
X28980348Y-51053721D01*
X28883284Y-50858791D01*
X28752057Y-50685016D01*
X28591131Y-50538314D01*
X28405981Y-50423675D01*
X28300582Y-50382843D01*
X28294216Y-50376765D01*
X28294013Y-50367966D01*
X28299313Y-50361980D01*
X28424581Y-50295023D01*
X28573120Y-50173120D01*
X28695023Y-50024581D01*
X28785605Y-49855114D01*
X28841385Y-49671231D01*
X28860220Y-49480000D01*
X28841385Y-49288769D01*
X28785605Y-49104886D01*
X28695023Y-48935419D01*
X28573120Y-48786880D01*
X28424581Y-48664977D01*
X28255114Y-48574395D01*
X28071231Y-48518615D01*
X27880000Y-48499780D01*
X27688768Y-48518615D01*
X27504885Y-48574395D01*
X27335422Y-48664975D01*
X27335420Y-48664976D01*
X27335419Y-48664977D01*
X27186880Y-48786880D01*
X27072907Y-48925757D01*
X27064975Y-48935422D01*
X26974395Y-49104885D01*
X26918615Y-49288768D01*
X26909834Y-49377921D01*
X26899780Y-49480000D01*
X26918615Y-49671231D01*
X26974395Y-49855114D01*
X27064977Y-50024581D01*
X27186880Y-50173120D01*
X27335419Y-50295023D01*
X27451963Y-50357317D01*
X27460683Y-50361978D01*
X27466267Y-50368782D01*
X27465404Y-50377541D01*
X27459416Y-50382843D01*
X27354018Y-50423675D01*
X27168868Y-50538314D01*
X27007942Y-50685016D01*
X26876715Y-50858791D01*
X26779651Y-51053721D01*
X26729495Y-51229999D01*
X26729495Y-51230000D01*
X27564314Y-51230000D01*
X27552359Y-51241955D01*
X27494835Y-51354852D01*
X27475014Y-51480000D01*
X27494835Y-51605148D01*
X27552359Y-51718045D01*
X27564314Y-51730000D01*
X26729495Y-51730000D01*
X26289031Y-51730000D01*
X26285483Y-47480000D01*
X26899780Y-47480000D01*
X26918615Y-47671231D01*
X26974395Y-47855114D01*
X27064977Y-48024581D01*
X27186880Y-48173120D01*
X27335419Y-48295023D01*
X27504886Y-48385605D01*
X27688769Y-48441385D01*
X27880000Y-48460220D01*
X28071231Y-48441385D01*
X28255114Y-48385605D01*
X28424581Y-48295023D01*
X28573120Y-48173120D01*
X28695023Y-48024581D01*
X28785605Y-47855114D01*
X28840062Y-47675588D01*
X28840279Y-47674945D01*
X28884091Y-47557483D01*
X28894359Y-47413927D01*
X28868016Y-47292828D01*
X28863766Y-47273292D01*
X28803418Y-47162777D01*
X28802508Y-47160609D01*
X28785605Y-47104886D01*
X28695023Y-46935419D01*
X28573120Y-46786880D01*
X28424581Y-46664977D01*
X28255114Y-46574395D01*
X28071231Y-46518615D01*
X27880000Y-46499780D01*
X27879999Y-46499780D01*
X27688768Y-46518615D01*
X27504885Y-46574395D01*
X27335422Y-46664975D01*
X27335420Y-46664976D01*
X27335419Y-46664977D01*
X27186880Y-46786880D01*
X27112728Y-46877235D01*
X27064975Y-46935422D01*
X26974395Y-47104885D01*
X26936869Y-47228594D01*
X26918615Y-47288769D01*
X26899780Y-47480000D01*
X26285483Y-47480000D01*
X26283814Y-45480000D01*
X26899780Y-45480000D01*
X26918615Y-45671231D01*
X26974395Y-45855114D01*
X27064977Y-46024581D01*
X27186880Y-46173120D01*
X27335419Y-46295023D01*
X27504886Y-46385605D01*
X27688769Y-46441385D01*
X27880000Y-46460220D01*
X28071231Y-46441385D01*
X28255114Y-46385605D01*
X28424581Y-46295023D01*
X28573120Y-46173120D01*
X28695023Y-46024581D01*
X28715335Y-45986579D01*
X28722140Y-45980995D01*
X28725478Y-45980500D01*
X33417922Y-45980500D01*
X33426054Y-45983868D01*
X34057170Y-46614984D01*
X34058710Y-46616895D01*
X34067857Y-46631128D01*
X34106919Y-46664975D01*
X34108417Y-46666273D01*
X34109017Y-46666832D01*
X34121405Y-46679219D01*
X34121407Y-46679221D01*
X34130412Y-46685962D01*
X34135428Y-46689717D01*
X34136067Y-46690232D01*
X34142785Y-46696053D01*
X34176627Y-46725377D01*
X34192010Y-46732402D01*
X34194124Y-46733656D01*
X34207669Y-46743796D01*
X34257970Y-46762557D01*
X34258710Y-46762863D01*
X34307543Y-46785165D01*
X34324291Y-46787572D01*
X34326663Y-46788177D01*
X34342517Y-46794091D01*
X34396075Y-46797921D01*
X34396847Y-46798004D01*
X34414201Y-46800500D01*
X34431706Y-46800500D01*
X34432526Y-46800529D01*
X34486073Y-46804359D01*
X34486073Y-46804358D01*
X34486074Y-46804359D01*
X34502603Y-46800763D01*
X34505048Y-46800500D01*
X35359912Y-46800500D01*
X35368044Y-46803868D01*
X35371334Y-46810673D01*
X35371919Y-46815712D01*
X35372415Y-46819993D01*
X35417793Y-46922764D01*
X35417794Y-46922765D01*
X35497235Y-47002206D01*
X35600009Y-47047585D01*
X35625135Y-47050500D01*
X37214864Y-47050499D01*
X37239991Y-47047585D01*
X37342765Y-47002206D01*
X37422206Y-46922765D01*
X37467585Y-46819991D01*
X37470500Y-46794865D01*
X37470499Y-45805136D01*
X37467585Y-45780009D01*
X37422206Y-45677235D01*
X37418103Y-45673132D01*
X37414735Y-45665000D01*
X37418103Y-45656868D01*
X37418104Y-45656867D01*
X37422206Y-45652765D01*
X37467585Y-45549991D01*
X37470500Y-45524865D01*
X37470499Y-44535136D01*
X37467585Y-44510009D01*
X37422206Y-44407235D01*
X37418103Y-44403132D01*
X37414735Y-44395000D01*
X37418103Y-44386868D01*
X37419367Y-44385604D01*
X37422206Y-44382765D01*
X37467585Y-44279991D01*
X37470500Y-44254865D01*
X37470499Y-43265136D01*
X37467585Y-43240009D01*
X37422206Y-43137235D01*
X37418103Y-43133132D01*
X37414735Y-43125000D01*
X37418103Y-43116868D01*
X37422206Y-43112765D01*
X37467585Y-43009991D01*
X37470500Y-42984865D01*
X37470499Y-41995136D01*
X37467585Y-41970009D01*
X37422206Y-41867235D01*
X37418103Y-41863132D01*
X37414735Y-41855000D01*
X37418103Y-41846868D01*
X37422206Y-41842765D01*
X37467585Y-41739991D01*
X37470500Y-41714865D01*
X37470499Y-40725136D01*
X37467585Y-40700009D01*
X37422206Y-40597235D01*
X37418103Y-40593132D01*
X37414735Y-40585000D01*
X37418103Y-40576868D01*
X37422206Y-40572765D01*
X37467585Y-40469991D01*
X37470500Y-40444865D01*
X37470499Y-39455136D01*
X37467585Y-39430009D01*
X37422206Y-39327235D01*
X37418103Y-39323132D01*
X37414735Y-39315000D01*
X37418103Y-39306868D01*
X37422206Y-39302765D01*
X37434643Y-39274595D01*
X37441008Y-39268518D01*
X37449808Y-39268721D01*
X37453295Y-39271109D01*
X37606132Y-39423945D01*
X37609500Y-39432077D01*
X37609500Y-51007451D01*
X37609237Y-51009896D01*
X37605640Y-51026425D01*
X37609471Y-51079973D01*
X37609500Y-51080793D01*
X37609500Y-51098299D01*
X37611990Y-51115626D01*
X37612078Y-51116441D01*
X37615909Y-51169985D01*
X37621818Y-51185830D01*
X37622426Y-51188211D01*
X37624834Y-51204956D01*
X37647131Y-51253779D01*
X37647445Y-51254537D01*
X37663438Y-51297416D01*
X37666205Y-51304833D01*
X37676340Y-51318373D01*
X37677594Y-51320486D01*
X37684621Y-51335871D01*
X37719766Y-51376431D01*
X37720281Y-51377070D01*
X37730780Y-51391094D01*
X37743166Y-51403481D01*
X37743725Y-51404081D01*
X37778872Y-51444643D01*
X37790440Y-51452077D01*
X37793099Y-51453786D01*
X37795014Y-51455328D01*
X48201132Y-61861446D01*
X48204500Y-61869578D01*
X48204500Y-62463102D01*
X48215123Y-62551564D01*
X48270639Y-62692342D01*
X48362078Y-62812922D01*
X48482658Y-62904361D01*
X48623436Y-62959877D01*
X48711898Y-62970500D01*
X48712234Y-62970500D01*
X49322766Y-62970500D01*
X49323102Y-62970500D01*
X49411564Y-62959877D01*
X49552342Y-62904361D01*
X49672922Y-62812922D01*
X49764361Y-62692342D01*
X49819877Y-62551564D01*
X49830500Y-62463102D01*
X50029500Y-62463102D01*
X50040123Y-62551564D01*
X50095639Y-62692342D01*
X50187078Y-62812922D01*
X50307658Y-62904361D01*
X50334718Y-62915031D01*
X50341048Y-62921147D01*
X50342000Y-62925729D01*
X50342000Y-63072451D01*
X50341737Y-63074896D01*
X50338140Y-63091425D01*
X50341971Y-63144973D01*
X50342000Y-63145793D01*
X50342000Y-63163299D01*
X50344490Y-63180626D01*
X50344578Y-63181441D01*
X50348409Y-63234985D01*
X50354318Y-63250830D01*
X50354926Y-63253211D01*
X50357334Y-63269956D01*
X50379631Y-63318779D01*
X50379945Y-63319537D01*
X50398705Y-63369833D01*
X50408840Y-63383373D01*
X50410094Y-63385486D01*
X50417121Y-63400871D01*
X50452266Y-63441431D01*
X50452781Y-63442070D01*
X50463280Y-63456094D01*
X50475666Y-63468481D01*
X50476225Y-63469081D01*
X50511372Y-63509643D01*
X50525599Y-63518786D01*
X50527514Y-63520328D01*
X50998755Y-63991569D01*
X51002123Y-63999701D01*
X51001478Y-64003499D01*
X50979853Y-64065301D01*
X50977025Y-64095460D01*
X50977024Y-64095474D01*
X50977000Y-64095734D01*
X50977000Y-64504266D01*
X50977024Y-64504526D01*
X50977025Y-64504539D01*
X50979853Y-64534698D01*
X51005644Y-64608404D01*
X51024707Y-64662882D01*
X51050040Y-64697207D01*
X51105349Y-64772150D01*
X51129468Y-64789950D01*
X51214618Y-64852793D01*
X51342801Y-64897646D01*
X51373234Y-64900500D01*
X51373511Y-64900500D01*
X52656489Y-64900500D01*
X52656766Y-64900500D01*
X52687199Y-64897646D01*
X52815382Y-64852793D01*
X52924650Y-64772150D01*
X53005293Y-64662882D01*
X53050146Y-64534699D01*
X53053000Y-64504266D01*
X53053000Y-64095734D01*
X53050146Y-64065301D01*
X53005293Y-63937118D01*
X52940371Y-63849151D01*
X52924650Y-63827849D01*
X52861780Y-63781450D01*
X52815382Y-63747207D01*
X52770527Y-63731511D01*
X52687198Y-63702353D01*
X52657039Y-63699525D01*
X52657026Y-63699524D01*
X52656766Y-63699500D01*
X52656489Y-63699500D01*
X52127078Y-63699500D01*
X52118946Y-63696132D01*
X51353759Y-62930946D01*
X51350391Y-62922814D01*
X51353759Y-62914682D01*
X51357669Y-62912118D01*
X51377342Y-62904361D01*
X51497922Y-62812922D01*
X51589361Y-62692342D01*
X51644877Y-62551564D01*
X51655500Y-62463102D01*
X51655500Y-61476898D01*
X51644877Y-61388436D01*
X51589361Y-61247658D01*
X51497922Y-61127078D01*
X51377342Y-61035639D01*
X51236564Y-60980123D01*
X51148102Y-60969500D01*
X50536898Y-60969500D01*
X50536565Y-60969539D01*
X50536564Y-60969540D01*
X50448435Y-60980123D01*
X50307658Y-61035639D01*
X50187078Y-61127078D01*
X50095639Y-61247658D01*
X50056530Y-61346832D01*
X50040123Y-61388436D01*
X50029500Y-61476898D01*
X50029500Y-62463102D01*
X49830500Y-62463102D01*
X49830500Y-61476898D01*
X49819877Y-61388436D01*
X49764361Y-61247658D01*
X49672922Y-61127078D01*
X49552342Y-61035639D01*
X49411564Y-60980123D01*
X49323102Y-60969500D01*
X49322766Y-60969500D01*
X48729578Y-60969500D01*
X48721446Y-60966132D01*
X38613868Y-50858554D01*
X38610500Y-50850422D01*
X38610500Y-48594540D01*
X38849500Y-48594540D01*
X38849501Y-48594864D01*
X38849539Y-48595195D01*
X38849540Y-48595205D01*
X38852414Y-48619990D01*
X38897793Y-48722764D01*
X38897794Y-48722765D01*
X38977235Y-48802206D01*
X39080009Y-48847585D01*
X39105135Y-48850500D01*
X40094864Y-48850499D01*
X40119991Y-48847585D01*
X40222765Y-48802206D01*
X40226868Y-48798103D01*
X40235000Y-48794735D01*
X40243132Y-48798103D01*
X40247235Y-48802206D01*
X40350009Y-48847585D01*
X40375135Y-48850500D01*
X41364864Y-48850499D01*
X41389991Y-48847585D01*
X41492765Y-48802206D01*
X41496868Y-48798103D01*
X41505000Y-48794735D01*
X41513132Y-48798103D01*
X41517235Y-48802206D01*
X41620009Y-48847585D01*
X41645135Y-48850500D01*
X42634864Y-48850499D01*
X42659991Y-48847585D01*
X42762765Y-48802206D01*
X42766868Y-48798103D01*
X42775000Y-48794735D01*
X42783132Y-48798103D01*
X42787235Y-48802206D01*
X42890009Y-48847585D01*
X42915135Y-48850500D01*
X43904864Y-48850499D01*
X43929991Y-48847585D01*
X44032765Y-48802206D01*
X44036868Y-48798103D01*
X44045000Y-48794735D01*
X44053132Y-48798103D01*
X44057235Y-48802206D01*
X44160009Y-48847585D01*
X44185135Y-48850500D01*
X45174864Y-48850499D01*
X45199991Y-48847585D01*
X45302765Y-48802206D01*
X45306868Y-48798103D01*
X45315000Y-48794735D01*
X45323132Y-48798103D01*
X45327235Y-48802206D01*
X45430009Y-48847585D01*
X45455135Y-48850500D01*
X46444864Y-48850499D01*
X46469991Y-48847585D01*
X46572765Y-48802206D01*
X46576868Y-48798103D01*
X46585000Y-48794735D01*
X46593132Y-48798103D01*
X46597235Y-48802206D01*
X46700009Y-48847585D01*
X46725135Y-48850500D01*
X47714864Y-48850499D01*
X47739991Y-48847585D01*
X47842765Y-48802206D01*
X47846868Y-48798103D01*
X47855000Y-48794735D01*
X47863132Y-48798103D01*
X47867235Y-48802206D01*
X47970009Y-48847585D01*
X47995135Y-48850500D01*
X48984864Y-48850499D01*
X49009991Y-48847585D01*
X49112765Y-48802206D01*
X49116867Y-48798103D01*
X49124999Y-48794734D01*
X49133131Y-48798102D01*
X49133132Y-48798103D01*
X49137234Y-48802206D01*
X49240006Y-48847584D01*
X49240009Y-48847585D01*
X49249327Y-48848665D01*
X49257014Y-48852947D01*
X49259500Y-48860088D01*
X49259500Y-50407921D01*
X49256132Y-50416053D01*
X48825015Y-50847169D01*
X48823101Y-50848711D01*
X48808872Y-50857857D01*
X48773719Y-50898424D01*
X48773160Y-50899024D01*
X48760779Y-50911406D01*
X48750280Y-50925429D01*
X48749766Y-50926067D01*
X48714622Y-50966627D01*
X48707594Y-50982013D01*
X48706341Y-50984125D01*
X48696204Y-50997668D01*
X48677445Y-51047961D01*
X48677131Y-51048719D01*
X48654834Y-51097543D01*
X48652426Y-51114289D01*
X48651818Y-51116670D01*
X48645909Y-51132515D01*
X48642078Y-51186057D01*
X48641990Y-51186872D01*
X48639500Y-51204200D01*
X48639500Y-51221705D01*
X48639471Y-51222525D01*
X48635640Y-51276074D01*
X48639237Y-51292603D01*
X48639500Y-51295048D01*
X48639500Y-56874951D01*
X48639237Y-56877396D01*
X48635640Y-56893925D01*
X48639471Y-56947473D01*
X48639500Y-56948293D01*
X48639500Y-56965799D01*
X48641990Y-56983126D01*
X48642078Y-56983941D01*
X48645909Y-57037485D01*
X48651818Y-57053330D01*
X48652426Y-57055711D01*
X48654834Y-57072456D01*
X48677131Y-57121279D01*
X48677445Y-57122037D01*
X48696205Y-57172333D01*
X48706340Y-57185873D01*
X48707594Y-57187986D01*
X48714621Y-57203371D01*
X48749766Y-57243931D01*
X48750281Y-57244570D01*
X48760780Y-57258594D01*
X48773166Y-57270981D01*
X48773725Y-57271581D01*
X48808872Y-57312143D01*
X48823099Y-57321286D01*
X48825014Y-57322828D01*
X56183081Y-64680895D01*
X56186449Y-64689027D01*
X56183081Y-64697159D01*
X56181545Y-64698447D01*
X56050864Y-64789950D01*
X55889950Y-64950864D01*
X55759434Y-65137262D01*
X55663259Y-65343507D01*
X55604364Y-65563307D01*
X55584531Y-65789999D01*
X55604364Y-66016692D01*
X55663259Y-66236492D01*
X55663261Y-66236496D01*
X55759432Y-66442734D01*
X55759433Y-66442736D01*
X55759434Y-66442737D01*
X55879039Y-66613553D01*
X55889953Y-66629139D01*
X56050861Y-66790047D01*
X56237266Y-66920568D01*
X56443504Y-67016739D01*
X56443506Y-67016739D01*
X56443507Y-67016740D01*
X56663307Y-67075635D01*
X56889999Y-67095468D01*
X56889999Y-67095467D01*
X56890000Y-67095468D01*
X57116692Y-67075635D01*
X57336496Y-67016739D01*
X57542734Y-66920568D01*
X57729139Y-66790047D01*
X57890047Y-66629139D01*
X58020568Y-66442734D01*
X58088459Y-66297140D01*
X58094950Y-66291194D01*
X58098883Y-66290500D01*
X62181117Y-66290500D01*
X62189249Y-66293868D01*
X62191540Y-66297140D01*
X62259432Y-66442734D01*
X62259433Y-66442736D01*
X62259434Y-66442737D01*
X62379039Y-66613553D01*
X62389953Y-66629139D01*
X62550861Y-66790047D01*
X62737266Y-66920568D01*
X62943504Y-67016739D01*
X62943506Y-67016739D01*
X62943507Y-67016740D01*
X63163307Y-67075635D01*
X63390000Y-67095468D01*
X63616692Y-67075635D01*
X63836496Y-67016739D01*
X64042734Y-66920568D01*
X64229139Y-66790047D01*
X64390047Y-66629139D01*
X64486080Y-66491987D01*
X64493503Y-66487259D01*
X64502096Y-66489164D01*
X64506825Y-66496587D01*
X64507000Y-66498584D01*
X64507000Y-67340422D01*
X64503632Y-67348554D01*
X64396054Y-67456132D01*
X64387922Y-67459500D01*
X55682078Y-67459500D01*
X55673946Y-67456132D01*
X54393867Y-66176053D01*
X54390500Y-66167923D01*
X54390500Y-65862000D01*
X54393868Y-65853868D01*
X54402000Y-65850500D01*
X54531489Y-65850500D01*
X54531766Y-65850500D01*
X54562199Y-65847646D01*
X54690382Y-65802793D01*
X54799650Y-65722150D01*
X54880293Y-65612882D01*
X54925146Y-65484699D01*
X54928000Y-65454266D01*
X54928000Y-65045734D01*
X54925146Y-65015301D01*
X54880293Y-64887118D01*
X54833893Y-64824248D01*
X54799650Y-64777849D01*
X54736780Y-64731450D01*
X54690382Y-64697207D01*
X54643765Y-64680895D01*
X54562198Y-64652353D01*
X54532039Y-64649525D01*
X54532026Y-64649524D01*
X54531766Y-64649500D01*
X53248234Y-64649500D01*
X53247974Y-64649524D01*
X53247960Y-64649525D01*
X53217801Y-64652353D01*
X53089618Y-64697207D01*
X52980349Y-64777849D01*
X52899707Y-64887118D01*
X52854853Y-65015301D01*
X52852025Y-65045460D01*
X52852024Y-65045474D01*
X52852000Y-65045734D01*
X52852000Y-65454266D01*
X52852024Y-65454526D01*
X52852025Y-65454539D01*
X52854853Y-65484698D01*
X52864963Y-65513590D01*
X52899707Y-65612882D01*
X52925040Y-65647207D01*
X52980349Y-65722150D01*
X53022721Y-65753421D01*
X53089618Y-65802793D01*
X53217801Y-65847646D01*
X53248234Y-65850500D01*
X53378000Y-65850500D01*
X53386132Y-65853868D01*
X53389500Y-65862000D01*
X53389500Y-66324951D01*
X53389237Y-66327396D01*
X53385640Y-66343925D01*
X53389471Y-66397473D01*
X53389500Y-66398293D01*
X53389500Y-66415799D01*
X53391990Y-66433126D01*
X53392078Y-66433941D01*
X53395909Y-66487485D01*
X53401818Y-66503330D01*
X53402426Y-66505711D01*
X53404834Y-66522456D01*
X53427131Y-66571279D01*
X53427445Y-66572037D01*
X53446205Y-66622333D01*
X53456340Y-66635873D01*
X53457594Y-66637986D01*
X53464621Y-66653371D01*
X53499766Y-66693931D01*
X53500281Y-66694570D01*
X53510780Y-66708594D01*
X53523166Y-66720981D01*
X53523725Y-66721581D01*
X53558872Y-66762143D01*
X53565775Y-66766579D01*
X53573099Y-66771286D01*
X53575014Y-66772828D01*
X55077170Y-68274984D01*
X55078710Y-68276895D01*
X55087857Y-68291128D01*
X55128119Y-68326015D01*
X55128417Y-68326273D01*
X55129017Y-68326832D01*
X55141406Y-68339221D01*
X55155418Y-68349709D01*
X55156058Y-68350224D01*
X55156070Y-68350234D01*
X55196627Y-68385377D01*
X55212014Y-68392404D01*
X55214127Y-68393657D01*
X55227669Y-68403795D01*
X55277961Y-68422553D01*
X55278703Y-68422860D01*
X55327543Y-68445165D01*
X55344292Y-68447572D01*
X55346662Y-68448176D01*
X55362517Y-68454091D01*
X55416069Y-68457920D01*
X55416841Y-68458003D01*
X55434201Y-68460500D01*
X55451714Y-68460500D01*
X55452534Y-68460529D01*
X55506073Y-68464358D01*
X55506073Y-68464357D01*
X55506074Y-68464358D01*
X55514317Y-68462564D01*
X55522599Y-68460762D01*
X55525043Y-68460500D01*
X64544952Y-68460500D01*
X64547397Y-68460763D01*
X64563925Y-68464359D01*
X64563926Y-68464358D01*
X64563927Y-68464359D01*
X64617473Y-68460529D01*
X64618294Y-68460500D01*
X64635798Y-68460500D01*
X64635799Y-68460500D01*
X64653154Y-68458004D01*
X64653920Y-68457921D01*
X64707483Y-68454091D01*
X64723340Y-68448176D01*
X64725704Y-68447573D01*
X64742457Y-68445165D01*
X64791307Y-68422854D01*
X64792017Y-68422560D01*
X64842331Y-68403796D01*
X64855878Y-68393653D01*
X64857982Y-68392405D01*
X64873373Y-68385377D01*
X64913941Y-68350224D01*
X64914569Y-68349719D01*
X64923072Y-68343353D01*
X64928593Y-68339221D01*
X64940987Y-68326825D01*
X64941558Y-68326293D01*
X64982143Y-68291128D01*
X64991291Y-68276891D01*
X64992829Y-68274984D01*
X65322486Y-67945326D01*
X65324391Y-67943791D01*
X65338628Y-67934643D01*
X65373793Y-67894058D01*
X65374325Y-67893487D01*
X65386721Y-67881093D01*
X65390853Y-67875572D01*
X65397219Y-67867069D01*
X65397734Y-67866429D01*
X65432877Y-67825873D01*
X65439905Y-67810482D01*
X65441153Y-67808378D01*
X65451296Y-67794831D01*
X65470060Y-67744517D01*
X65470354Y-67743807D01*
X65492665Y-67694957D01*
X65495073Y-67678204D01*
X65495676Y-67675840D01*
X65501591Y-67659983D01*
X65505421Y-67606420D01*
X65505504Y-67605654D01*
X65508000Y-67588299D01*
X65508000Y-67570793D01*
X65508029Y-67569973D01*
X65511859Y-67516425D01*
X65510764Y-67511396D01*
X65508261Y-67499886D01*
X65508000Y-67497460D01*
X65508000Y-63235038D01*
X65508261Y-63232612D01*
X65511859Y-63216073D01*
X65508029Y-63162525D01*
X65508000Y-63161705D01*
X65508000Y-63144201D01*
X65505504Y-63126847D01*
X65505421Y-63126075D01*
X65501591Y-63072517D01*
X65495677Y-63056663D01*
X65495072Y-63054291D01*
X65492665Y-63037543D01*
X65470363Y-62988710D01*
X65470053Y-62987961D01*
X65451296Y-62937669D01*
X65441156Y-62924124D01*
X65439902Y-62922010D01*
X65439069Y-62920186D01*
X65432877Y-62906627D01*
X65397726Y-62866060D01*
X65397211Y-62865421D01*
X65393410Y-62860344D01*
X65386720Y-62851407D01*
X65386718Y-62851405D01*
X65374339Y-62839025D01*
X65373780Y-62838425D01*
X65338628Y-62797857D01*
X65324393Y-62788709D01*
X65322482Y-62787169D01*
X64933868Y-62398554D01*
X64930500Y-62390422D01*
X64930500Y-56438293D01*
X64930529Y-56437473D01*
X64934359Y-56383925D01*
X64930763Y-56367396D01*
X64930500Y-56364951D01*
X64930500Y-42805048D01*
X64930763Y-42802603D01*
X64934359Y-42786074D01*
X64930529Y-42732525D01*
X64930500Y-42731705D01*
X64930500Y-42714201D01*
X64928004Y-42696847D01*
X64927921Y-42696075D01*
X64924091Y-42642517D01*
X64918177Y-42626663D01*
X64917572Y-42624291D01*
X64915165Y-42607543D01*
X64892863Y-42558710D01*
X64892553Y-42557961D01*
X64873796Y-42507669D01*
X64863656Y-42494124D01*
X64862402Y-42492010D01*
X64855377Y-42476627D01*
X64846308Y-42466161D01*
X64820232Y-42436067D01*
X64819717Y-42435428D01*
X64815962Y-42430412D01*
X64809221Y-42421407D01*
X64803109Y-42415295D01*
X64796832Y-42409017D01*
X64796273Y-42408417D01*
X64778552Y-42387966D01*
X64761128Y-42367857D01*
X64746895Y-42358710D01*
X64744984Y-42357170D01*
X62522828Y-40135014D01*
X62521286Y-40133099D01*
X62512143Y-40118872D01*
X62471581Y-40083725D01*
X62470981Y-40083166D01*
X62458594Y-40070780D01*
X62444570Y-40060281D01*
X62443931Y-40059766D01*
X62403371Y-40024621D01*
X62387986Y-40017594D01*
X62385873Y-40016340D01*
X62372333Y-40006205D01*
X62372331Y-40006204D01*
X62345673Y-39996261D01*
X62322037Y-39987445D01*
X62321279Y-39987131D01*
X62272456Y-39964834D01*
X62255711Y-39962426D01*
X62253330Y-39961818D01*
X62237485Y-39955909D01*
X62183941Y-39952078D01*
X62183126Y-39951990D01*
X62165799Y-39949500D01*
X62148294Y-39949500D01*
X62147474Y-39949471D01*
X62093925Y-39945640D01*
X62077397Y-39949237D01*
X62074952Y-39949500D01*
X60281999Y-39949500D01*
X60273867Y-39946132D01*
X60270499Y-39938000D01*
X60270499Y-39555476D01*
X60270499Y-39555475D01*
X60270499Y-39555136D01*
X60267585Y-39530009D01*
X60222206Y-39427235D01*
X60142765Y-39347794D01*
X60142764Y-39347793D01*
X60039990Y-39302414D01*
X60015206Y-39299539D01*
X60015196Y-39299538D01*
X60014865Y-39299500D01*
X60014524Y-39299500D01*
X58225476Y-39299500D01*
X58225458Y-39299500D01*
X58225136Y-39299501D01*
X58224805Y-39299539D01*
X58224794Y-39299540D01*
X58200009Y-39302414D01*
X58097235Y-39347793D01*
X58017793Y-39427235D01*
X57972414Y-39530009D01*
X57969539Y-39554793D01*
X57969538Y-39554804D01*
X57969500Y-39555135D01*
X57969500Y-39555474D01*
X57969500Y-39555475D01*
X57969500Y-41344523D01*
X57969500Y-41344540D01*
X57969501Y-41344864D01*
X57969539Y-41345195D01*
X57969540Y-41345205D01*
X57972414Y-41369990D01*
X58017793Y-41472764D01*
X58017794Y-41472765D01*
X58097235Y-41552206D01*
X58200009Y-41597585D01*
X58225135Y-41600500D01*
X60014864Y-41600499D01*
X60039991Y-41597585D01*
X60142765Y-41552206D01*
X60222206Y-41472765D01*
X60267585Y-41369991D01*
X60270500Y-41344865D01*
X60270500Y-40962000D01*
X60273868Y-40953868D01*
X60282000Y-40950500D01*
X61917922Y-40950500D01*
X61926054Y-40953868D01*
X63926132Y-42953945D01*
X63929500Y-42962077D01*
X63929500Y-56207922D01*
X63926132Y-56216054D01*
X59666054Y-60476132D01*
X59657922Y-60479500D01*
X59072078Y-60479500D01*
X59063946Y-60476132D01*
X58523867Y-59936053D01*
X58520499Y-59927921D01*
X58520499Y-58161999D01*
X58523867Y-58153867D01*
X58531999Y-58150499D01*
X59064524Y-58150499D01*
X59064864Y-58150499D01*
X59089991Y-58147585D01*
X59192765Y-58102206D01*
X59272206Y-58022765D01*
X59317585Y-57919991D01*
X59320500Y-57894865D01*
X59320499Y-56305136D01*
X59317585Y-56280009D01*
X59272206Y-56177235D01*
X59192765Y-56097794D01*
X59192764Y-56097793D01*
X59089990Y-56052414D01*
X59065206Y-56049539D01*
X59065196Y-56049538D01*
X59064865Y-56049500D01*
X59064524Y-56049500D01*
X56975476Y-56049500D01*
X56975458Y-56049500D01*
X56975136Y-56049501D01*
X56974805Y-56049539D01*
X56974794Y-56049540D01*
X56950009Y-56052414D01*
X56847235Y-56097793D01*
X56767793Y-56177235D01*
X56722414Y-56280009D01*
X56719539Y-56304793D01*
X56719538Y-56304804D01*
X56719500Y-56305135D01*
X56719500Y-56305474D01*
X56719500Y-56305475D01*
X56719500Y-57894523D01*
X56719500Y-57894540D01*
X56719501Y-57894864D01*
X56719539Y-57895195D01*
X56719540Y-57895205D01*
X56722414Y-57919990D01*
X56767793Y-58022764D01*
X56767794Y-58022765D01*
X56847235Y-58102206D01*
X56950009Y-58147585D01*
X56975135Y-58150500D01*
X57508000Y-58150499D01*
X57516132Y-58153867D01*
X57519500Y-58161999D01*
X57519500Y-60084951D01*
X57519237Y-60087396D01*
X57515640Y-60103925D01*
X57519471Y-60157473D01*
X57519500Y-60158293D01*
X57519500Y-60175799D01*
X57521990Y-60193126D01*
X57522078Y-60193941D01*
X57525909Y-60247485D01*
X57531818Y-60263330D01*
X57532426Y-60265711D01*
X57534834Y-60282456D01*
X57557131Y-60331279D01*
X57557445Y-60332037D01*
X57576205Y-60382333D01*
X57586340Y-60395873D01*
X57587594Y-60397986D01*
X57594621Y-60413371D01*
X57629766Y-60453931D01*
X57630281Y-60454570D01*
X57640780Y-60468594D01*
X57653166Y-60480981D01*
X57653725Y-60481581D01*
X57688872Y-60522143D01*
X57703099Y-60531286D01*
X57705014Y-60532828D01*
X58467170Y-61294984D01*
X58468710Y-61296895D01*
X58477857Y-61311128D01*
X58518417Y-61346273D01*
X58519017Y-61346832D01*
X58531406Y-61359221D01*
X58545418Y-61369709D01*
X58546058Y-61370224D01*
X58567075Y-61388435D01*
X58586627Y-61405377D01*
X58602014Y-61412404D01*
X58604127Y-61413657D01*
X58617669Y-61423795D01*
X58667963Y-61442554D01*
X58668703Y-61442860D01*
X58717543Y-61465165D01*
X58734292Y-61467572D01*
X58736662Y-61468176D01*
X58752517Y-61474091D01*
X58806069Y-61477920D01*
X58806841Y-61478003D01*
X58824201Y-61480500D01*
X58841714Y-61480500D01*
X58842534Y-61480529D01*
X58896073Y-61484358D01*
X58896073Y-61484357D01*
X58896074Y-61484358D01*
X58904317Y-61482564D01*
X58912599Y-61480762D01*
X58915043Y-61480500D01*
X59794201Y-61480500D01*
X59814952Y-61480500D01*
X59817397Y-61480763D01*
X59833925Y-61484359D01*
X59833926Y-61484358D01*
X59833927Y-61484359D01*
X59887473Y-61480529D01*
X59888294Y-61480500D01*
X61489480Y-61480500D01*
X61497612Y-61483868D01*
X61499622Y-61486579D01*
X61542315Y-61566450D01*
X61673590Y-61726410D01*
X61833550Y-61857685D01*
X62016046Y-61955232D01*
X62214066Y-62015300D01*
X62420000Y-62035583D01*
X62625934Y-62015300D01*
X62823954Y-61955232D01*
X63006450Y-61857685D01*
X63166410Y-61726410D01*
X63297685Y-61566450D01*
X63395232Y-61383954D01*
X63455300Y-61185934D01*
X63475583Y-60980000D01*
X63455300Y-60774066D01*
X63395232Y-60576046D01*
X63297685Y-60393550D01*
X63166410Y-60233590D01*
X63006450Y-60102315D01*
X63006449Y-60102314D01*
X62823954Y-60004768D01*
X62625934Y-59944700D01*
X62420000Y-59924417D01*
X62214065Y-59944700D01*
X62016045Y-60004768D01*
X61833550Y-60102314D01*
X61673590Y-60233590D01*
X61542314Y-60393550D01*
X61499622Y-60473421D01*
X61492818Y-60479005D01*
X61489480Y-60479500D01*
X61106078Y-60479500D01*
X61097946Y-60476132D01*
X61094578Y-60468000D01*
X61097946Y-60459868D01*
X63909868Y-57647946D01*
X63918000Y-57644578D01*
X63926132Y-57647946D01*
X63929500Y-57656078D01*
X63929499Y-62547451D01*
X63929236Y-62549895D01*
X63925640Y-62566424D01*
X63929471Y-62619973D01*
X63929500Y-62620793D01*
X63929500Y-62638299D01*
X63931990Y-62655626D01*
X63932078Y-62656441D01*
X63935909Y-62709985D01*
X63941818Y-62725830D01*
X63942426Y-62728211D01*
X63944834Y-62744956D01*
X63967131Y-62793779D01*
X63967445Y-62794537D01*
X63976261Y-62818173D01*
X63984038Y-62839025D01*
X63986205Y-62844833D01*
X63996340Y-62858373D01*
X63997594Y-62860486D01*
X64004621Y-62875871D01*
X64039766Y-62916431D01*
X64040281Y-62917070D01*
X64050780Y-62931094D01*
X64063166Y-62943481D01*
X64063725Y-62944081D01*
X64098872Y-62984643D01*
X64113099Y-62993786D01*
X64115014Y-62995328D01*
X64503632Y-63383945D01*
X64507000Y-63392077D01*
X64506999Y-65081415D01*
X64503631Y-65089547D01*
X64495499Y-65092915D01*
X64487367Y-65089547D01*
X64486085Y-65088018D01*
X64390047Y-64950861D01*
X64229139Y-64789953D01*
X64203713Y-64772150D01*
X64042737Y-64659434D01*
X64042736Y-64659433D01*
X64042734Y-64659432D01*
X63870578Y-64579154D01*
X63836492Y-64563259D01*
X63616692Y-64504364D01*
X63389999Y-64484531D01*
X63163307Y-64504364D01*
X62943507Y-64563259D01*
X62846695Y-64608404D01*
X62758512Y-64649525D01*
X62737262Y-64659434D01*
X62550864Y-64789950D01*
X62389950Y-64950864D01*
X62259434Y-65137262D01*
X62191540Y-65282860D01*
X62185050Y-65288806D01*
X62181117Y-65289500D01*
X58098883Y-65289500D01*
X58090751Y-65286132D01*
X58088460Y-65282860D01*
X58051881Y-65204417D01*
X58020568Y-65137266D01*
X57890047Y-64950861D01*
X57729139Y-64789953D01*
X57703713Y-64772150D01*
X57667209Y-64746589D01*
X57542734Y-64659432D01*
X57542732Y-64659431D01*
X57391176Y-64588757D01*
X57385229Y-64582268D01*
X57384565Y-64579158D01*
X57384091Y-64572517D01*
X57378177Y-64556663D01*
X57377572Y-64554291D01*
X57375165Y-64537543D01*
X57352863Y-64488710D01*
X57352553Y-64487961D01*
X57351274Y-64484531D01*
X57333796Y-64437669D01*
X57323656Y-64424124D01*
X57322402Y-64422010D01*
X57315377Y-64406627D01*
X57280232Y-64366067D01*
X57279717Y-64365428D01*
X57275962Y-64360412D01*
X57269221Y-64351407D01*
X57269219Y-64351405D01*
X57256832Y-64339017D01*
X57256273Y-64338417D01*
X57247287Y-64328047D01*
X57221128Y-64297857D01*
X57206895Y-64288710D01*
X57204984Y-64287170D01*
X49643868Y-56726054D01*
X49640500Y-56717922D01*
X49640500Y-51452077D01*
X49643867Y-51443946D01*
X50074986Y-51012826D01*
X50076891Y-51011291D01*
X50091128Y-51002143D01*
X50126293Y-50961558D01*
X50126825Y-50960987D01*
X50139220Y-50948594D01*
X50149728Y-50934553D01*
X50150216Y-50933949D01*
X50185377Y-50893373D01*
X50192406Y-50877979D01*
X50193654Y-50875875D01*
X50203795Y-50862331D01*
X50222557Y-50812024D01*
X50222851Y-50811314D01*
X50245165Y-50762457D01*
X50247572Y-50745706D01*
X50248176Y-50743339D01*
X50254091Y-50727483D01*
X50257920Y-50673926D01*
X50258002Y-50673163D01*
X50260500Y-50655799D01*
X50260500Y-50638284D01*
X50260529Y-50637464D01*
X50264358Y-50583925D01*
X50260763Y-50567401D01*
X50260500Y-50564956D01*
X50260500Y-48958377D01*
X50263868Y-48950245D01*
X50272000Y-48946877D01*
X50278892Y-48949171D01*
X50337910Y-48993352D01*
X50472625Y-49043598D01*
X50531872Y-49049967D01*
X50532472Y-49050000D01*
X50779999Y-49050000D01*
X50779999Y-48050000D01*
X51280000Y-48050000D01*
X51280000Y-49049999D01*
X51280001Y-49050000D01*
X51527528Y-49050000D01*
X51528127Y-49049967D01*
X51587374Y-49043598D01*
X51722089Y-48993352D01*
X51837188Y-48907188D01*
X51923352Y-48792089D01*
X51973598Y-48657374D01*
X51979967Y-48598127D01*
X51980000Y-48597527D01*
X51980000Y-48050001D01*
X51979999Y-48050000D01*
X51280000Y-48050000D01*
X50779999Y-48050000D01*
X50779999Y-47549999D01*
X51280000Y-47549999D01*
X51280001Y-47550000D01*
X51979999Y-47550000D01*
X51980000Y-47549999D01*
X51980000Y-47002472D01*
X51979967Y-47001872D01*
X51973598Y-46942625D01*
X51923352Y-46807910D01*
X51837188Y-46692811D01*
X51722089Y-46606647D01*
X51587374Y-46556401D01*
X51528127Y-46550032D01*
X51527528Y-46550000D01*
X51280001Y-46550000D01*
X51280000Y-46550001D01*
X51280000Y-47549999D01*
X50779999Y-47549999D01*
X50779999Y-46550000D01*
X50532472Y-46550000D01*
X50531872Y-46550032D01*
X50472625Y-46556401D01*
X50337910Y-46606647D01*
X50222811Y-46692811D01*
X50183822Y-46744892D01*
X50176252Y-46749383D01*
X50174616Y-46749500D01*
X49265476Y-46749500D01*
X49265458Y-46749500D01*
X49265136Y-46749501D01*
X49264805Y-46749539D01*
X49264794Y-46749540D01*
X49240009Y-46752414D01*
X49137233Y-46797794D01*
X49133131Y-46801896D01*
X49124999Y-46805264D01*
X49116869Y-46801896D01*
X49112766Y-46797794D01*
X49009990Y-46752414D01*
X48985206Y-46749539D01*
X48985196Y-46749538D01*
X48984865Y-46749500D01*
X48984524Y-46749500D01*
X47995476Y-46749500D01*
X47995458Y-46749500D01*
X47995136Y-46749501D01*
X47994805Y-46749539D01*
X47994794Y-46749540D01*
X47970009Y-46752414D01*
X47867233Y-46797794D01*
X47863131Y-46801896D01*
X47854999Y-46805264D01*
X47846869Y-46801896D01*
X47842766Y-46797794D01*
X47739990Y-46752414D01*
X47715206Y-46749539D01*
X47715196Y-46749538D01*
X47714865Y-46749500D01*
X47714524Y-46749500D01*
X46725476Y-46749500D01*
X46725458Y-46749500D01*
X46725136Y-46749501D01*
X46724805Y-46749539D01*
X46724794Y-46749540D01*
X46700009Y-46752414D01*
X46597233Y-46797794D01*
X46593131Y-46801896D01*
X46584999Y-46805264D01*
X46576869Y-46801896D01*
X46572766Y-46797794D01*
X46469990Y-46752414D01*
X46445206Y-46749539D01*
X46445196Y-46749538D01*
X46444865Y-46749500D01*
X46444524Y-46749500D01*
X45455476Y-46749500D01*
X45455458Y-46749500D01*
X45455136Y-46749501D01*
X45454805Y-46749539D01*
X45454794Y-46749540D01*
X45430009Y-46752414D01*
X45327233Y-46797794D01*
X45323131Y-46801896D01*
X45314999Y-46805264D01*
X45306869Y-46801896D01*
X45302766Y-46797794D01*
X45199990Y-46752414D01*
X45175206Y-46749539D01*
X45175196Y-46749538D01*
X45174865Y-46749500D01*
X45174524Y-46749500D01*
X44185476Y-46749500D01*
X44185458Y-46749500D01*
X44185136Y-46749501D01*
X44184805Y-46749539D01*
X44184794Y-46749540D01*
X44160009Y-46752414D01*
X44057233Y-46797794D01*
X44053131Y-46801896D01*
X44044999Y-46805264D01*
X44036869Y-46801896D01*
X44032766Y-46797794D01*
X43929990Y-46752414D01*
X43905206Y-46749539D01*
X43905196Y-46749538D01*
X43904865Y-46749500D01*
X43904524Y-46749500D01*
X42915476Y-46749500D01*
X42915458Y-46749500D01*
X42915136Y-46749501D01*
X42914805Y-46749539D01*
X42914794Y-46749540D01*
X42890009Y-46752414D01*
X42787233Y-46797794D01*
X42783131Y-46801896D01*
X42774999Y-46805264D01*
X42766869Y-46801896D01*
X42762766Y-46797794D01*
X42659990Y-46752414D01*
X42635206Y-46749539D01*
X42635196Y-46749538D01*
X42634865Y-46749500D01*
X42634524Y-46749500D01*
X41645476Y-46749500D01*
X41645458Y-46749500D01*
X41645136Y-46749501D01*
X41644805Y-46749539D01*
X41644794Y-46749540D01*
X41620009Y-46752414D01*
X41517233Y-46797794D01*
X41513131Y-46801896D01*
X41504999Y-46805264D01*
X41496869Y-46801896D01*
X41492766Y-46797794D01*
X41389990Y-46752414D01*
X41365206Y-46749539D01*
X41365196Y-46749538D01*
X41364865Y-46749500D01*
X41364524Y-46749500D01*
X40375476Y-46749500D01*
X40375458Y-46749500D01*
X40375136Y-46749501D01*
X40374805Y-46749539D01*
X40374794Y-46749540D01*
X40350009Y-46752414D01*
X40247233Y-46797794D01*
X40243131Y-46801896D01*
X40234999Y-46805264D01*
X40226869Y-46801896D01*
X40222766Y-46797794D01*
X40119990Y-46752414D01*
X40095206Y-46749539D01*
X40095196Y-46749538D01*
X40094865Y-46749500D01*
X40094524Y-46749500D01*
X39105476Y-46749500D01*
X39105458Y-46749500D01*
X39105136Y-46749501D01*
X39104805Y-46749539D01*
X39104794Y-46749540D01*
X39080009Y-46752414D01*
X38977235Y-46797793D01*
X38897793Y-46877235D01*
X38852414Y-46980009D01*
X38849539Y-47004793D01*
X38849538Y-47004804D01*
X38849500Y-47005135D01*
X38849500Y-47005474D01*
X38849500Y-47005475D01*
X38849500Y-48594523D01*
X38849500Y-48594540D01*
X38610500Y-48594540D01*
X38610500Y-43083925D01*
X50195640Y-43083925D01*
X50199471Y-43137473D01*
X50199500Y-43138293D01*
X50199500Y-43155799D01*
X50201990Y-43173126D01*
X50202078Y-43173941D01*
X50205909Y-43227485D01*
X50211818Y-43243330D01*
X50212426Y-43245711D01*
X50214834Y-43262456D01*
X50237131Y-43311279D01*
X50237445Y-43312037D01*
X50256205Y-43362333D01*
X50266340Y-43375873D01*
X50267594Y-43377986D01*
X50274621Y-43393371D01*
X50309766Y-43433931D01*
X50310281Y-43434570D01*
X50320780Y-43448594D01*
X50333166Y-43460981D01*
X50333725Y-43461581D01*
X50368872Y-43502143D01*
X50383099Y-43511286D01*
X50385014Y-43512828D01*
X52096132Y-45223946D01*
X52099500Y-45232078D01*
X52099500Y-46844951D01*
X52099237Y-46847396D01*
X52095640Y-46863925D01*
X52099471Y-46917473D01*
X52099500Y-46918293D01*
X52099500Y-46935799D01*
X52101990Y-46953126D01*
X52102078Y-46953941D01*
X52105909Y-47007485D01*
X52111818Y-47023330D01*
X52112426Y-47025711D01*
X52114834Y-47042456D01*
X52137131Y-47091279D01*
X52137445Y-47092037D01*
X52156205Y-47142333D01*
X52166340Y-47155873D01*
X52167594Y-47157986D01*
X52174621Y-47173371D01*
X52209766Y-47213931D01*
X52210281Y-47214570D01*
X52220780Y-47228594D01*
X52233166Y-47240981D01*
X52233725Y-47241581D01*
X52268872Y-47282143D01*
X52283099Y-47291286D01*
X52285014Y-47292828D01*
X54436132Y-49443946D01*
X54439500Y-49452078D01*
X54439500Y-51311705D01*
X54439471Y-51312525D01*
X54435640Y-51366074D01*
X54439237Y-51382603D01*
X54439500Y-51385048D01*
X54439500Y-54288000D01*
X54436132Y-54296132D01*
X54428000Y-54299500D01*
X53031999Y-54299500D01*
X53023867Y-54296132D01*
X53020499Y-54288000D01*
X53020499Y-52855476D01*
X53020499Y-52855475D01*
X53020499Y-52855136D01*
X53017585Y-52830009D01*
X52972206Y-52727235D01*
X52892765Y-52647794D01*
X52892764Y-52647793D01*
X52789990Y-52602414D01*
X52765206Y-52599539D01*
X52765196Y-52599538D01*
X52764865Y-52599500D01*
X52764525Y-52599500D01*
X52232000Y-52599500D01*
X52223868Y-52596132D01*
X52220500Y-52588000D01*
X52220500Y-51995043D01*
X52220763Y-51992598D01*
X52224358Y-51976074D01*
X52220529Y-51922534D01*
X52220500Y-51921714D01*
X52220500Y-51904201D01*
X52218003Y-51886841D01*
X52217920Y-51886069D01*
X52214091Y-51832517D01*
X52208177Y-51816663D01*
X52207572Y-51814291D01*
X52205165Y-51797543D01*
X52182863Y-51748710D01*
X52182553Y-51747961D01*
X52163796Y-51697669D01*
X52153656Y-51684124D01*
X52152402Y-51682010D01*
X52145377Y-51666627D01*
X52110226Y-51626060D01*
X52109711Y-51625421D01*
X52105910Y-51620344D01*
X52099220Y-51611407D01*
X52099218Y-51611405D01*
X52086839Y-51599025D01*
X52086280Y-51598425D01*
X52051128Y-51557857D01*
X52036893Y-51548709D01*
X52034982Y-51547169D01*
X51912622Y-51424808D01*
X51909338Y-51418062D01*
X51907640Y-51404081D01*
X51895140Y-51301128D01*
X51834818Y-51142070D01*
X51817127Y-51116441D01*
X51738183Y-51002071D01*
X51610851Y-50889265D01*
X51460225Y-50810209D01*
X51327715Y-50777549D01*
X51295056Y-50769500D01*
X51124944Y-50769500D01*
X51097676Y-50776220D01*
X50959774Y-50810209D01*
X50809148Y-50889265D01*
X50681816Y-51002071D01*
X50585182Y-51142068D01*
X50524859Y-51301130D01*
X50504355Y-51469999D01*
X50524859Y-51638869D01*
X50585182Y-51797931D01*
X50681816Y-51937928D01*
X50809148Y-52050734D01*
X50959774Y-52129790D01*
X51042359Y-52150144D01*
X51124944Y-52170500D01*
X51208000Y-52170500D01*
X51216132Y-52173868D01*
X51219500Y-52182000D01*
X51219500Y-52588000D01*
X51216132Y-52596132D01*
X51208000Y-52599500D01*
X50675476Y-52599500D01*
X50675458Y-52599500D01*
X50675136Y-52599501D01*
X50674805Y-52599539D01*
X50674794Y-52599540D01*
X50650009Y-52602414D01*
X50547235Y-52647793D01*
X50467793Y-52727235D01*
X50422414Y-52830009D01*
X50419539Y-52854793D01*
X50419538Y-52854804D01*
X50419500Y-52855135D01*
X50419500Y-52855474D01*
X50419500Y-52855475D01*
X50419500Y-56744523D01*
X50419500Y-56744540D01*
X50419501Y-56744864D01*
X50419539Y-56745195D01*
X50419540Y-56745205D01*
X50422414Y-56769990D01*
X50467793Y-56872764D01*
X50467794Y-56872765D01*
X50547235Y-56952206D01*
X50650009Y-56997585D01*
X50675135Y-57000500D01*
X52764864Y-57000499D01*
X52789991Y-56997585D01*
X52892765Y-56952206D01*
X52972206Y-56872765D01*
X53017585Y-56769991D01*
X53020500Y-56744865D01*
X53020500Y-55312000D01*
X53023868Y-55303868D01*
X53032000Y-55300500D01*
X55174201Y-55300500D01*
X55191706Y-55300500D01*
X55192526Y-55300529D01*
X55246073Y-55304359D01*
X55246073Y-55304358D01*
X55246074Y-55304359D01*
X55262603Y-55300763D01*
X55265048Y-55300500D01*
X56708001Y-55300500D01*
X56716133Y-55303868D01*
X56719501Y-55312000D01*
X56719501Y-55594864D01*
X56719539Y-55595195D01*
X56719540Y-55595205D01*
X56722414Y-55619990D01*
X56767793Y-55722764D01*
X56767794Y-55722765D01*
X56847235Y-55802206D01*
X56950009Y-55847585D01*
X56975135Y-55850500D01*
X59064864Y-55850499D01*
X59089991Y-55847585D01*
X59192765Y-55802206D01*
X59272206Y-55722765D01*
X59317585Y-55619991D01*
X59320115Y-55598175D01*
X59324398Y-55590486D01*
X59331539Y-55588000D01*
X60423000Y-55588000D01*
X60431132Y-55591368D01*
X60434500Y-55599500D01*
X60434500Y-55668102D01*
X60445123Y-55756564D01*
X60500639Y-55897342D01*
X60592078Y-56017922D01*
X60712658Y-56109361D01*
X60853436Y-56164877D01*
X60941898Y-56175500D01*
X60942234Y-56175500D01*
X61877766Y-56175500D01*
X61878102Y-56175500D01*
X61966564Y-56164877D01*
X62107342Y-56109361D01*
X62227922Y-56017922D01*
X62319361Y-55897342D01*
X62374877Y-55756564D01*
X62385500Y-55668102D01*
X62385500Y-54506898D01*
X62374877Y-54418436D01*
X62319361Y-54277658D01*
X62227922Y-54157078D01*
X62107342Y-54065639D01*
X61966564Y-54010123D01*
X61878102Y-53999500D01*
X60941898Y-53999500D01*
X60941565Y-53999539D01*
X60941564Y-53999540D01*
X60853435Y-54010123D01*
X60735939Y-54056458D01*
X60712658Y-54065639D01*
X60592078Y-54157078D01*
X60500639Y-54277658D01*
X60445123Y-54418436D01*
X60434500Y-54506898D01*
X60434500Y-54507233D01*
X60434500Y-54575500D01*
X60431132Y-54583632D01*
X60423000Y-54587000D01*
X59331999Y-54587000D01*
X59323867Y-54583632D01*
X59320499Y-54575500D01*
X59320499Y-54005476D01*
X59320499Y-54005475D01*
X59320499Y-54005136D01*
X59317585Y-53980009D01*
X59272206Y-53877235D01*
X59192765Y-53797794D01*
X59192764Y-53797793D01*
X59120570Y-53765916D01*
X59114492Y-53759550D01*
X59114695Y-53750751D01*
X59121061Y-53744673D01*
X59123988Y-53743962D01*
X59127374Y-53743598D01*
X59262089Y-53693352D01*
X59377188Y-53607188D01*
X59463352Y-53492089D01*
X59513598Y-53357374D01*
X59519967Y-53298127D01*
X59520000Y-53297527D01*
X59520000Y-52799681D01*
X60235001Y-52799681D01*
X60235031Y-52800277D01*
X60245494Y-52902696D01*
X60300641Y-53069120D01*
X60392682Y-53218342D01*
X60516657Y-53342317D01*
X60665879Y-53434358D01*
X60832303Y-53489506D01*
X60934721Y-53499969D01*
X60935317Y-53499999D01*
X61159997Y-53499999D01*
X61159998Y-53499998D01*
X61659999Y-53499998D01*
X61660000Y-53499999D01*
X61884681Y-53499999D01*
X61885277Y-53499968D01*
X61987696Y-53489505D01*
X62154120Y-53434358D01*
X62303342Y-53342317D01*
X62427317Y-53218342D01*
X62519358Y-53069120D01*
X62574506Y-52902696D01*
X62584969Y-52800278D01*
X62585000Y-52799682D01*
X62584999Y-52462500D01*
X61660001Y-52462500D01*
X61659999Y-52462501D01*
X61659999Y-53499998D01*
X61159998Y-53499998D01*
X61159999Y-53499997D01*
X61159999Y-52462500D01*
X60235002Y-52462500D01*
X60235001Y-52462501D01*
X60235001Y-52799681D01*
X59520000Y-52799681D01*
X59520000Y-52750000D01*
X56520000Y-52750000D01*
X56520000Y-53297527D01*
X56520032Y-53298127D01*
X56526401Y-53357374D01*
X56576647Y-53492089D01*
X56662811Y-53607188D01*
X56777910Y-53693352D01*
X56912625Y-53743598D01*
X56916012Y-53743962D01*
X56923737Y-53748179D01*
X56926218Y-53756624D01*
X56922001Y-53764349D01*
X56919429Y-53765916D01*
X56847235Y-53797793D01*
X56767793Y-53877235D01*
X56722414Y-53980009D01*
X56719539Y-54004793D01*
X56719538Y-54004804D01*
X56719500Y-54005135D01*
X56719500Y-54005474D01*
X56719500Y-54005475D01*
X56719500Y-54288000D01*
X56716132Y-54296132D01*
X56708000Y-54299500D01*
X55452000Y-54299500D01*
X55443868Y-54296132D01*
X55440500Y-54288000D01*
X55440500Y-52249999D01*
X56520000Y-52249999D01*
X56520001Y-52250000D01*
X57769999Y-52250000D01*
X57770000Y-52249999D01*
X58269999Y-52249999D01*
X58270001Y-52250000D01*
X59519999Y-52250000D01*
X59520000Y-52249999D01*
X59520000Y-51962499D01*
X60235000Y-51962499D01*
X60235001Y-51962500D01*
X61159999Y-51962500D01*
X61159999Y-50925001D01*
X61159998Y-50925000D01*
X61659999Y-50925000D01*
X61659999Y-51962498D01*
X61660001Y-51962500D01*
X62584998Y-51962500D01*
X62584999Y-51962498D01*
X62584999Y-51625318D01*
X62584968Y-51624722D01*
X62574505Y-51522303D01*
X62519358Y-51355879D01*
X62427317Y-51206657D01*
X62303342Y-51082682D01*
X62154120Y-50990641D01*
X61987696Y-50935493D01*
X61885278Y-50925030D01*
X61884682Y-50925000D01*
X61659999Y-50925000D01*
X61159998Y-50925000D01*
X60935318Y-50925000D01*
X60934722Y-50925031D01*
X60832303Y-50935494D01*
X60665879Y-50990641D01*
X60516657Y-51082682D01*
X60392682Y-51206657D01*
X60300641Y-51355879D01*
X60245493Y-51522303D01*
X60235030Y-51624721D01*
X60235000Y-51625317D01*
X60235000Y-51962499D01*
X59520000Y-51962499D01*
X59520000Y-51702472D01*
X59519967Y-51701872D01*
X59513598Y-51642625D01*
X59463352Y-51507910D01*
X59377188Y-51392811D01*
X59262089Y-51306647D01*
X59127374Y-51256401D01*
X59068127Y-51250032D01*
X59067528Y-51250000D01*
X58270001Y-51250000D01*
X58269999Y-51250001D01*
X58269999Y-52249999D01*
X57770000Y-52249999D01*
X57770000Y-51250001D01*
X57769999Y-51250000D01*
X56972472Y-51250000D01*
X56971872Y-51250032D01*
X56912625Y-51256401D01*
X56777910Y-51306647D01*
X56662811Y-51392811D01*
X56576647Y-51507910D01*
X56526401Y-51642625D01*
X56520032Y-51701872D01*
X56520000Y-51702472D01*
X56520000Y-52249999D01*
X55440500Y-52249999D01*
X55440500Y-51542077D01*
X55443868Y-51533945D01*
X56052384Y-50925429D01*
X56660997Y-50316815D01*
X56669128Y-50313448D01*
X56670489Y-50313529D01*
X56686898Y-50315500D01*
X56687234Y-50315500D01*
X57272766Y-50315500D01*
X57273102Y-50315500D01*
X57361564Y-50304877D01*
X57502342Y-50249361D01*
X57622922Y-50157922D01*
X57714361Y-50037342D01*
X57769877Y-49896564D01*
X57779710Y-49814681D01*
X57880001Y-49814681D01*
X57880031Y-49815277D01*
X57890494Y-49917696D01*
X57945641Y-50084120D01*
X58037682Y-50233342D01*
X58161657Y-50357317D01*
X58310879Y-50449358D01*
X58477303Y-50504506D01*
X58579721Y-50514969D01*
X58580317Y-50514999D01*
X58630000Y-50514999D01*
X58630000Y-50514997D01*
X59130000Y-50514997D01*
X59130001Y-50514999D01*
X59179681Y-50514999D01*
X59180277Y-50514968D01*
X59282696Y-50504505D01*
X59449120Y-50449358D01*
X59598342Y-50357317D01*
X59722317Y-50233342D01*
X59814358Y-50084120D01*
X59869506Y-49917696D01*
X59879969Y-49815278D01*
X59880000Y-49814682D01*
X59880000Y-49540001D01*
X59879999Y-49540000D01*
X59130001Y-49540000D01*
X59130000Y-49540001D01*
X59130000Y-50514997D01*
X58630000Y-50514997D01*
X58630000Y-49540001D01*
X58629999Y-49540000D01*
X57880002Y-49540000D01*
X57880001Y-49540001D01*
X57880001Y-49814681D01*
X57779710Y-49814681D01*
X57780500Y-49808102D01*
X57780500Y-49039999D01*
X57880000Y-49039999D01*
X57880001Y-49040000D01*
X58629999Y-49040000D01*
X58630000Y-49039999D01*
X58629999Y-48065000D01*
X59130000Y-48065000D01*
X59130000Y-49039999D01*
X59130001Y-49040000D01*
X59879998Y-49040000D01*
X59879999Y-49039999D01*
X59879999Y-48765318D01*
X59879968Y-48764722D01*
X59869505Y-48662303D01*
X59814358Y-48495879D01*
X59722317Y-48346657D01*
X59598342Y-48222682D01*
X59449120Y-48130641D01*
X59282696Y-48075493D01*
X59180278Y-48065030D01*
X59179682Y-48065000D01*
X59130000Y-48065000D01*
X58629999Y-48065000D01*
X58580318Y-48065000D01*
X58579722Y-48065031D01*
X58477303Y-48075494D01*
X58310879Y-48130641D01*
X58161657Y-48222682D01*
X58037682Y-48346657D01*
X57945641Y-48495879D01*
X57890493Y-48662303D01*
X57880030Y-48764721D01*
X57880000Y-48765317D01*
X57880000Y-49039999D01*
X57780500Y-49039999D01*
X57780500Y-48771898D01*
X57769877Y-48683436D01*
X57714361Y-48542658D01*
X57622922Y-48422078D01*
X57502342Y-48330639D01*
X57361564Y-48275123D01*
X57273102Y-48264500D01*
X56686898Y-48264500D01*
X56686565Y-48264539D01*
X56686564Y-48264540D01*
X56598435Y-48275123D01*
X56457658Y-48330639D01*
X56337078Y-48422078D01*
X56245639Y-48542658D01*
X56198457Y-48662303D01*
X56190123Y-48683436D01*
X56179500Y-48771898D01*
X56179500Y-48772233D01*
X56179500Y-49377921D01*
X56176132Y-49386053D01*
X55460132Y-50102054D01*
X55452000Y-50105422D01*
X55443868Y-50102054D01*
X55440500Y-50093922D01*
X55440500Y-49295048D01*
X55440763Y-49292603D01*
X55444359Y-49276074D01*
X55440529Y-49222525D01*
X55440500Y-49221705D01*
X55440500Y-49204201D01*
X55438004Y-49186847D01*
X55437921Y-49186075D01*
X55434091Y-49132517D01*
X55428177Y-49116663D01*
X55427572Y-49114291D01*
X55425165Y-49097543D01*
X55402863Y-49048710D01*
X55402553Y-49047961D01*
X55399584Y-49040000D01*
X55383796Y-48997669D01*
X55373656Y-48984124D01*
X55372402Y-48982010D01*
X55365377Y-48966627D01*
X55330232Y-48926067D01*
X55329717Y-48925428D01*
X55325962Y-48920412D01*
X55319221Y-48911407D01*
X55315002Y-48907188D01*
X55306832Y-48899017D01*
X55306273Y-48898417D01*
X55271128Y-48857857D01*
X55256895Y-48848710D01*
X55254984Y-48847170D01*
X53477945Y-47070131D01*
X53474577Y-47061999D01*
X53477945Y-47053867D01*
X53486077Y-47050499D01*
X55014524Y-47050499D01*
X55014864Y-47050499D01*
X55039991Y-47047585D01*
X55142765Y-47002206D01*
X55222206Y-46922765D01*
X55267585Y-46819991D01*
X55270500Y-46794865D01*
X55270499Y-45805136D01*
X55267585Y-45780009D01*
X55222206Y-45677235D01*
X55222204Y-45677233D01*
X55218102Y-45673130D01*
X55214734Y-45664998D01*
X55218102Y-45656868D01*
X55222206Y-45652765D01*
X55254335Y-45580000D01*
X61165224Y-45580000D01*
X61184287Y-45797889D01*
X61240895Y-46009154D01*
X61333335Y-46207391D01*
X61376874Y-46269571D01*
X61936922Y-45709521D01*
X61960507Y-45789844D01*
X62038239Y-45910798D01*
X62146900Y-46004952D01*
X62277685Y-46064680D01*
X62287465Y-46066086D01*
X61730427Y-46623124D01*
X61792608Y-46666664D01*
X61990845Y-46759104D01*
X62202110Y-46815712D01*
X62420000Y-46834775D01*
X62637889Y-46815712D01*
X62849154Y-46759104D01*
X63047391Y-46666664D01*
X63109572Y-46623125D01*
X62552532Y-46066086D01*
X62562315Y-46064680D01*
X62693100Y-46004952D01*
X62801761Y-45910798D01*
X62879493Y-45789844D01*
X62903077Y-45709523D01*
X63463125Y-46269572D01*
X63506664Y-46207391D01*
X63599104Y-46009154D01*
X63655712Y-45797889D01*
X63674775Y-45579999D01*
X63655712Y-45362110D01*
X63599104Y-45150845D01*
X63506664Y-44952609D01*
X63463123Y-44890427D01*
X62903076Y-45450474D01*
X62879493Y-45370156D01*
X62801761Y-45249202D01*
X62693100Y-45155048D01*
X62562315Y-45095320D01*
X62552530Y-45093913D01*
X63109571Y-44536874D01*
X63047391Y-44493335D01*
X62849154Y-44400895D01*
X62637889Y-44344287D01*
X62420000Y-44325224D01*
X62202110Y-44344287D01*
X61990845Y-44400895D01*
X61792609Y-44493335D01*
X61730428Y-44536875D01*
X62287467Y-45093913D01*
X62277685Y-45095320D01*
X62146900Y-45155048D01*
X62038239Y-45249202D01*
X61960507Y-45370156D01*
X61936922Y-45450476D01*
X61376875Y-44890428D01*
X61333335Y-44952609D01*
X61240895Y-45150845D01*
X61184287Y-45362110D01*
X61165224Y-45580000D01*
X55254335Y-45580000D01*
X55267585Y-45549991D01*
X55270500Y-45524865D01*
X55270499Y-44535136D01*
X55267585Y-44510009D01*
X55222206Y-44407235D01*
X55218103Y-44403132D01*
X55214735Y-44395000D01*
X55218103Y-44386868D01*
X55219367Y-44385604D01*
X55222206Y-44382765D01*
X55267585Y-44279991D01*
X55270500Y-44254865D01*
X55270499Y-43265136D01*
X55267585Y-43240009D01*
X55222206Y-43137235D01*
X55218103Y-43133132D01*
X55214735Y-43125000D01*
X55218103Y-43116868D01*
X55222206Y-43112765D01*
X55267585Y-43009991D01*
X55270500Y-42984865D01*
X55270499Y-41995136D01*
X55267585Y-41970009D01*
X55222206Y-41867235D01*
X55218103Y-41863132D01*
X55214735Y-41855000D01*
X55218103Y-41846868D01*
X55222206Y-41842765D01*
X55267585Y-41739991D01*
X55270500Y-41714865D01*
X55270499Y-40725136D01*
X55267585Y-40700009D01*
X55222206Y-40597235D01*
X55218103Y-40593132D01*
X55214735Y-40585000D01*
X55218103Y-40576868D01*
X55222206Y-40572765D01*
X55267585Y-40469991D01*
X55270500Y-40444865D01*
X55270500Y-40412000D01*
X55273868Y-40403868D01*
X55282000Y-40400500D01*
X55984050Y-40400500D01*
X55985338Y-40400572D01*
X56027035Y-40405270D01*
X56027035Y-40405269D01*
X56027037Y-40405270D01*
X56045025Y-40401865D01*
X56085291Y-40394246D01*
X56085627Y-40394188D01*
X56144287Y-40385348D01*
X56150660Y-40382277D01*
X56153511Y-40381339D01*
X56160472Y-40380023D01*
X56212899Y-40352313D01*
X56213263Y-40352130D01*
X56266642Y-40326425D01*
X56271833Y-40321607D01*
X56274272Y-40319877D01*
X56280538Y-40316566D01*
X56322480Y-40274622D01*
X56322735Y-40274377D01*
X56366194Y-40234055D01*
X56369734Y-40227921D01*
X56371556Y-40225546D01*
X58106791Y-38490310D01*
X58114922Y-38486943D01*
X58123054Y-38490311D01*
X58125216Y-38493317D01*
X58137634Y-38518255D01*
X58266124Y-38688403D01*
X58266127Y-38688405D01*
X58266128Y-38688407D01*
X58423698Y-38832052D01*
X58542193Y-38905421D01*
X58604981Y-38944298D01*
X58691119Y-38977668D01*
X58803802Y-39021321D01*
X58938850Y-39046566D01*
X59013389Y-39060500D01*
X59013390Y-39060500D01*
X59226611Y-39060500D01*
X59283464Y-39049872D01*
X59436198Y-39021321D01*
X59635019Y-38944298D01*
X59816302Y-38832052D01*
X59973872Y-38688407D01*
X60102366Y-38518255D01*
X60177744Y-38366873D01*
X60184383Y-38361096D01*
X60188038Y-38360500D01*
X60473000Y-38360500D01*
X60481132Y-38363868D01*
X60484500Y-38372000D01*
X60484500Y-38373102D01*
X60495123Y-38461564D01*
X60550639Y-38602342D01*
X60642078Y-38722922D01*
X60762658Y-38814361D01*
X60903436Y-38869877D01*
X60991898Y-38880500D01*
X60992234Y-38880500D01*
X61602766Y-38880500D01*
X61603102Y-38880500D01*
X61691564Y-38869877D01*
X61832342Y-38814361D01*
X61952922Y-38722922D01*
X62044361Y-38602342D01*
X62099877Y-38461564D01*
X62110500Y-38373102D01*
X62110500Y-37386898D01*
X62099877Y-37298436D01*
X62044361Y-37157658D01*
X61952922Y-37037078D01*
X61832342Y-36945639D01*
X61691564Y-36890123D01*
X61603102Y-36879500D01*
X60991898Y-36879500D01*
X60991565Y-36879539D01*
X60991564Y-36879540D01*
X60903435Y-36890123D01*
X60797000Y-36932096D01*
X60762658Y-36945639D01*
X60642078Y-37037078D01*
X60550639Y-37157658D01*
X60495123Y-37298436D01*
X60484500Y-37386898D01*
X60484500Y-37387233D01*
X60484500Y-37448000D01*
X60481132Y-37456132D01*
X60473000Y-37459500D01*
X60188038Y-37459500D01*
X60179906Y-37456132D01*
X60177744Y-37453126D01*
X60175192Y-37448000D01*
X60102366Y-37301745D01*
X60070242Y-37259206D01*
X59973875Y-37131596D01*
X59973872Y-37131593D01*
X59816302Y-36987948D01*
X59699256Y-36915476D01*
X59635018Y-36875701D01*
X59436200Y-36798679D01*
X59226611Y-36759500D01*
X59226610Y-36759500D01*
X59013390Y-36759500D01*
X59013389Y-36759500D01*
X58803799Y-36798679D01*
X58604981Y-36875701D01*
X58423702Y-36987945D01*
X58423700Y-36987946D01*
X58423698Y-36987948D01*
X58344913Y-37059770D01*
X58266124Y-37131596D01*
X58137634Y-37301744D01*
X58063529Y-37450566D01*
X58056890Y-37456344D01*
X58051948Y-37456868D01*
X58032965Y-37454730D01*
X57974721Y-37465749D01*
X57974297Y-37465821D01*
X57915712Y-37474652D01*
X57909335Y-37477722D01*
X57906488Y-37478658D01*
X57899527Y-37479976D01*
X57847118Y-37507674D01*
X57846735Y-37507868D01*
X57793357Y-37533575D01*
X57788169Y-37538388D01*
X57785723Y-37540123D01*
X57779465Y-37543431D01*
X57737556Y-37585339D01*
X57737246Y-37585637D01*
X57693805Y-37625945D01*
X57690264Y-37632077D01*
X57688438Y-37634457D01*
X55826765Y-39496132D01*
X55818633Y-39499500D01*
X55281999Y-39499500D01*
X55273867Y-39496132D01*
X55270499Y-39488000D01*
X55270499Y-39455476D01*
X55270499Y-39455475D01*
X55270499Y-39455136D01*
X55267585Y-39430009D01*
X55222206Y-39327235D01*
X55218103Y-39323132D01*
X55214735Y-39315000D01*
X55218103Y-39306868D01*
X55222206Y-39302765D01*
X55267585Y-39199991D01*
X55270500Y-39174865D01*
X55270500Y-39142000D01*
X55273868Y-39133868D01*
X55282000Y-39130500D01*
X55784050Y-39130500D01*
X55785338Y-39130572D01*
X55827035Y-39135270D01*
X55827035Y-39135269D01*
X55827037Y-39135270D01*
X55845025Y-39131865D01*
X55885291Y-39124246D01*
X55885627Y-39124188D01*
X55944287Y-39115348D01*
X55950660Y-39112277D01*
X55953511Y-39111339D01*
X55960472Y-39110023D01*
X56012899Y-39082313D01*
X56013263Y-39082130D01*
X56022788Y-39077543D01*
X56066642Y-39056425D01*
X56071833Y-39051607D01*
X56074272Y-39049877D01*
X56080538Y-39046566D01*
X56122480Y-39004622D01*
X56122735Y-39004377D01*
X56166194Y-38964055D01*
X56169734Y-38957921D01*
X56171556Y-38955546D01*
X58684607Y-36442494D01*
X58692738Y-36439127D01*
X58696892Y-36439904D01*
X58749436Y-36460259D01*
X58803802Y-36481321D01*
X58965202Y-36511492D01*
X59013389Y-36520500D01*
X59013390Y-36520500D01*
X59226611Y-36520500D01*
X59274797Y-36511492D01*
X59436198Y-36481321D01*
X59635019Y-36404298D01*
X59816302Y-36292052D01*
X59973872Y-36148407D01*
X60102366Y-35978255D01*
X60177744Y-35826873D01*
X60184383Y-35821096D01*
X60188038Y-35820500D01*
X60523000Y-35820500D01*
X60531132Y-35823868D01*
X60534500Y-35832000D01*
X60534500Y-35883102D01*
X60545123Y-35971564D01*
X60600639Y-36112342D01*
X60692078Y-36232922D01*
X60812658Y-36324361D01*
X60953436Y-36379877D01*
X61041898Y-36390500D01*
X61042234Y-36390500D01*
X61652766Y-36390500D01*
X61653102Y-36390500D01*
X61741564Y-36379877D01*
X61882342Y-36324361D01*
X62002922Y-36232922D01*
X62094361Y-36112342D01*
X62149877Y-35971564D01*
X62160500Y-35883102D01*
X62160500Y-34896898D01*
X62149877Y-34808436D01*
X62094361Y-34667658D01*
X62002922Y-34547078D01*
X61882342Y-34455639D01*
X61741564Y-34400123D01*
X61653102Y-34389500D01*
X61041898Y-34389500D01*
X61041565Y-34389539D01*
X61041564Y-34389540D01*
X60953435Y-34400123D01*
X60812658Y-34455639D01*
X60692078Y-34547078D01*
X60600639Y-34667658D01*
X60545123Y-34808435D01*
X60544620Y-34812622D01*
X60534500Y-34896898D01*
X60534500Y-34897233D01*
X60534500Y-34908000D01*
X60531132Y-34916132D01*
X60523000Y-34919500D01*
X60188038Y-34919500D01*
X60179906Y-34916132D01*
X60177744Y-34913126D01*
X60169830Y-34897233D01*
X60102366Y-34761745D01*
X60031314Y-34667658D01*
X59973875Y-34591596D01*
X59936852Y-34557845D01*
X59816302Y-34447948D01*
X59721906Y-34389500D01*
X59635018Y-34335701D01*
X59436200Y-34258679D01*
X59226611Y-34219500D01*
X59226610Y-34219500D01*
X59013390Y-34219500D01*
X59013389Y-34219500D01*
X58803799Y-34258679D01*
X58604981Y-34335701D01*
X58423702Y-34447945D01*
X58423700Y-34447946D01*
X58423698Y-34447948D01*
X58404290Y-34465641D01*
X58266124Y-34591596D01*
X58137634Y-34761744D01*
X58115177Y-34806844D01*
X58108538Y-34812622D01*
X58099757Y-34812012D01*
X58095095Y-34807755D01*
X58017317Y-34681657D01*
X57893342Y-34557682D01*
X57744120Y-34465641D01*
X57577696Y-34410493D01*
X57475278Y-34400030D01*
X57474682Y-34400000D01*
X57200001Y-34400000D01*
X57200000Y-34400001D01*
X57200000Y-36399998D01*
X57200001Y-36399999D01*
X57425132Y-36399999D01*
X57433264Y-36403367D01*
X57436632Y-36411499D01*
X57433264Y-36419631D01*
X55626765Y-38226132D01*
X55618633Y-38229500D01*
X55281999Y-38229500D01*
X55273867Y-38226132D01*
X55270499Y-38218000D01*
X55270499Y-38185476D01*
X55270499Y-38185475D01*
X55270499Y-38185136D01*
X55267585Y-38160009D01*
X55222206Y-38057235D01*
X55218103Y-38053132D01*
X55214735Y-38045000D01*
X55218103Y-38036868D01*
X55222206Y-38032765D01*
X55267585Y-37929991D01*
X55270500Y-37904865D01*
X55270499Y-36915136D01*
X55267585Y-36890009D01*
X55222206Y-36787235D01*
X55222204Y-36787233D01*
X55218102Y-36783130D01*
X55214734Y-36774998D01*
X55218102Y-36766868D01*
X55222206Y-36762765D01*
X55267585Y-36659991D01*
X55270500Y-36634865D01*
X55270499Y-35699681D01*
X55725001Y-35699681D01*
X55725031Y-35700277D01*
X55735494Y-35802696D01*
X55790641Y-35969120D01*
X55882682Y-36118342D01*
X56006657Y-36242317D01*
X56155879Y-36334358D01*
X56322303Y-36389506D01*
X56424721Y-36399969D01*
X56425317Y-36399999D01*
X56699998Y-36399999D01*
X56700000Y-36399997D01*
X56700000Y-35650001D01*
X56699999Y-35650000D01*
X55725002Y-35650000D01*
X55725001Y-35650001D01*
X55725001Y-35699681D01*
X55270499Y-35699681D01*
X55270499Y-35645136D01*
X55267585Y-35620009D01*
X55222206Y-35517235D01*
X55218103Y-35513132D01*
X55214735Y-35505000D01*
X55218103Y-35496868D01*
X55222206Y-35492765D01*
X55267585Y-35389991D01*
X55270500Y-35364865D01*
X55270500Y-35149999D01*
X55725000Y-35149999D01*
X55725001Y-35150000D01*
X56699999Y-35150000D01*
X56700000Y-35149998D01*
X56700000Y-34400001D01*
X56699999Y-34400000D01*
X56425318Y-34400000D01*
X56424722Y-34400031D01*
X56322303Y-34410494D01*
X56155879Y-34465641D01*
X56006657Y-34557682D01*
X55882682Y-34681657D01*
X55790641Y-34830879D01*
X55735493Y-34997303D01*
X55725030Y-35099721D01*
X55725000Y-35100317D01*
X55725000Y-35149999D01*
X55270500Y-35149999D01*
X55270499Y-34375136D01*
X55267585Y-34350009D01*
X55222206Y-34247235D01*
X55218103Y-34243132D01*
X55214735Y-34235000D01*
X55218103Y-34226868D01*
X55218666Y-34226305D01*
X55222206Y-34222765D01*
X55267585Y-34119991D01*
X55270500Y-34094865D01*
X55270499Y-33110486D01*
X55273867Y-33102355D01*
X55281999Y-33098987D01*
X55290131Y-33102355D01*
X55291461Y-33103952D01*
X55297190Y-33112251D01*
X55314481Y-33137302D01*
X55321817Y-33147929D01*
X55388758Y-33207233D01*
X55449148Y-33260734D01*
X55599774Y-33339790D01*
X55682359Y-33360144D01*
X55764944Y-33380500D01*
X55913000Y-33380500D01*
X55921132Y-33383868D01*
X55924500Y-33392000D01*
X55924500Y-33793102D01*
X55935123Y-33881564D01*
X55990639Y-34022342D01*
X56082078Y-34142922D01*
X56202658Y-34234361D01*
X56343436Y-34289877D01*
X56431898Y-34300500D01*
X56432234Y-34300500D01*
X57467766Y-34300500D01*
X57468102Y-34300500D01*
X57556564Y-34289877D01*
X57697342Y-34234361D01*
X57817922Y-34142922D01*
X57909361Y-34022342D01*
X57964877Y-33881564D01*
X57975500Y-33793102D01*
X57975500Y-33206898D01*
X57964877Y-33118436D01*
X57909361Y-32977658D01*
X57817922Y-32857078D01*
X57697342Y-32765639D01*
X57569538Y-32715239D01*
X57563210Y-32709124D01*
X57563060Y-32700323D01*
X57569176Y-32693994D01*
X57569484Y-32693866D01*
X57682342Y-32649361D01*
X57802922Y-32557922D01*
X57894361Y-32437342D01*
X57949877Y-32296564D01*
X57960500Y-32208102D01*
X57960500Y-31813576D01*
X57963868Y-31805444D01*
X57972000Y-31802076D01*
X57980130Y-31805443D01*
X58132517Y-31957830D01*
X58241907Y-32067220D01*
X58245275Y-32075352D01*
X58242952Y-32082282D01*
X58137634Y-32221744D01*
X58042595Y-32412609D01*
X57984243Y-32617689D01*
X57964571Y-32830000D01*
X57984243Y-33042310D01*
X58042595Y-33247390D01*
X58137634Y-33438255D01*
X58266124Y-33608403D01*
X58266127Y-33608405D01*
X58266128Y-33608407D01*
X58423698Y-33752052D01*
X58604981Y-33864298D01*
X58803802Y-33941321D01*
X58950815Y-33968802D01*
X59013389Y-33980500D01*
X59013390Y-33980500D01*
X59226611Y-33980500D01*
X59274797Y-33971492D01*
X59436198Y-33941321D01*
X59635019Y-33864298D01*
X59816302Y-33752052D01*
X59973872Y-33608407D01*
X60102366Y-33438255D01*
X60177744Y-33286873D01*
X60184383Y-33281096D01*
X60188038Y-33280500D01*
X61228632Y-33280500D01*
X61236764Y-33283868D01*
X62502610Y-34549713D01*
X62505978Y-34557845D01*
X62503641Y-34564794D01*
X62425639Y-34667658D01*
X62370123Y-34808435D01*
X62369620Y-34812622D01*
X62359500Y-34896898D01*
X62359500Y-35883102D01*
X62370123Y-35971564D01*
X62425639Y-36112342D01*
X62517078Y-36232922D01*
X62637658Y-36324361D01*
X62714720Y-36354750D01*
X62721048Y-36360865D01*
X62722000Y-36365447D01*
X62722000Y-36884834D01*
X62718632Y-36892966D01*
X62714719Y-36895532D01*
X62622000Y-36932096D01*
X62587658Y-36945639D01*
X62467078Y-37037078D01*
X62375639Y-37157658D01*
X62320123Y-37298436D01*
X62309500Y-37386898D01*
X62309500Y-38373102D01*
X62320123Y-38461564D01*
X62375639Y-38602342D01*
X62467078Y-38722922D01*
X62587658Y-38814361D01*
X62728436Y-38869877D01*
X62816898Y-38880500D01*
X62817234Y-38880500D01*
X63427766Y-38880500D01*
X63428102Y-38880500D01*
X63516564Y-38869877D01*
X63657342Y-38814361D01*
X63777922Y-38722922D01*
X63869361Y-38602342D01*
X63924877Y-38461564D01*
X63935500Y-38373102D01*
X63935500Y-37386898D01*
X63924877Y-37298436D01*
X63869361Y-37157658D01*
X63777922Y-37037078D01*
X63657342Y-36945639D01*
X63642224Y-36939677D01*
X63630281Y-36934967D01*
X63623952Y-36928850D01*
X63623000Y-36924269D01*
X63623000Y-36365447D01*
X63626368Y-36357315D01*
X63630278Y-36354750D01*
X63707342Y-36324361D01*
X63827922Y-36232922D01*
X63919361Y-36112342D01*
X63974877Y-35971564D01*
X63985500Y-35883102D01*
X63985500Y-34896898D01*
X63974877Y-34808436D01*
X63919361Y-34667658D01*
X63827922Y-34547078D01*
X63707342Y-34455639D01*
X63638204Y-34428374D01*
X63594647Y-34411197D01*
X63588699Y-34405873D01*
X63574828Y-34379629D01*
X63574634Y-34379245D01*
X63553665Y-34335701D01*
X63548925Y-34325858D01*
X63544110Y-34320669D01*
X63542371Y-34318218D01*
X63539066Y-34311963D01*
X63497159Y-34270056D01*
X63496861Y-34269746D01*
X63456554Y-34226305D01*
X63450424Y-34222766D01*
X63448042Y-34220939D01*
X61756895Y-32529792D01*
X61756036Y-32528830D01*
X61729879Y-32496030D01*
X61680906Y-32462640D01*
X61680555Y-32462391D01*
X61669233Y-32454035D01*
X61632882Y-32427207D01*
X61632447Y-32427054D01*
X61626203Y-32424869D01*
X61623524Y-32423517D01*
X61622818Y-32423035D01*
X61617673Y-32419528D01*
X61561033Y-32402057D01*
X61560625Y-32401923D01*
X61504698Y-32382353D01*
X61497622Y-32382088D01*
X61494665Y-32381585D01*
X61487903Y-32379500D01*
X61487902Y-32379500D01*
X61428642Y-32379500D01*
X61428212Y-32379492D01*
X61368990Y-32377275D01*
X61363655Y-32378705D01*
X61362151Y-32379108D01*
X61359177Y-32379500D01*
X60188038Y-32379500D01*
X60179906Y-32376132D01*
X60177744Y-32373126D01*
X60139621Y-32296564D01*
X60102366Y-32221745D01*
X60049241Y-32151397D01*
X59973875Y-32051596D01*
X59973872Y-32051593D01*
X59816302Y-31907948D01*
X59700222Y-31836074D01*
X59635018Y-31795701D01*
X59436199Y-31718679D01*
X59283246Y-31690086D01*
X59277227Y-31686914D01*
X59243618Y-31653305D01*
X59240250Y-31645173D01*
X59243618Y-31637041D01*
X59250748Y-31633717D01*
X59355321Y-31624569D01*
X59583487Y-31563432D01*
X59797582Y-31463597D01*
X59991074Y-31328112D01*
X60158112Y-31161074D01*
X60293597Y-30967582D01*
X60393432Y-30753487D01*
X60450636Y-30540000D01*
X59553686Y-30540000D01*
X59579493Y-30499844D01*
X59620000Y-30361889D01*
X59620000Y-30218111D01*
X59579493Y-30080156D01*
X59553686Y-30040000D01*
X60450636Y-30040000D01*
X60393432Y-29826512D01*
X60293597Y-29612418D01*
X60158112Y-29418925D01*
X59991074Y-29251887D01*
X59797582Y-29116402D01*
X59583487Y-29016567D01*
X59355321Y-28955430D01*
X59120000Y-28934842D01*
X58884678Y-28955430D01*
X58656512Y-29016567D01*
X58442418Y-29116402D01*
X58248925Y-29251887D01*
X58081887Y-29418925D01*
X57946400Y-29612421D01*
X57944416Y-29616676D01*
X57937926Y-29622622D01*
X57929133Y-29622237D01*
X57923297Y-29616035D01*
X57894361Y-29542658D01*
X57802922Y-29422078D01*
X57682342Y-29330639D01*
X57541564Y-29275123D01*
X57453102Y-29264500D01*
X56466898Y-29264500D01*
X56466565Y-29264539D01*
X56466564Y-29264540D01*
X56378435Y-29275123D01*
X56237658Y-29330639D01*
X56117078Y-29422078D01*
X56025638Y-29542658D01*
X56012937Y-29574865D01*
X56006820Y-29581194D01*
X56003060Y-29582117D01*
X55985014Y-29583409D01*
X55969170Y-29589318D01*
X55966789Y-29589926D01*
X55950043Y-29592334D01*
X55901219Y-29614631D01*
X55900461Y-29614945D01*
X55850168Y-29633704D01*
X55836625Y-29643841D01*
X55834513Y-29645094D01*
X55819127Y-29652122D01*
X55778567Y-29687266D01*
X55777929Y-29687780D01*
X55763906Y-29698279D01*
X55751524Y-29710660D01*
X55750924Y-29711219D01*
X55710357Y-29746372D01*
X55701211Y-29760601D01*
X55699669Y-29762515D01*
X55425553Y-30036632D01*
X55417421Y-30040000D01*
X52970001Y-30040000D01*
X52970000Y-30040001D01*
X52970000Y-30287527D01*
X52970032Y-30288127D01*
X52976401Y-30347374D01*
X53026647Y-30482089D01*
X53070829Y-30541108D01*
X53073006Y-30549637D01*
X53068515Y-30557206D01*
X53061623Y-30559500D01*
X51495048Y-30559500D01*
X51492603Y-30559237D01*
X51476074Y-30555640D01*
X51422526Y-30559471D01*
X51421706Y-30559500D01*
X51404201Y-30559500D01*
X51386872Y-30561990D01*
X51386057Y-30562078D01*
X51332515Y-30565909D01*
X51316670Y-30571818D01*
X51314289Y-30572426D01*
X51297543Y-30574834D01*
X51248719Y-30597131D01*
X51247961Y-30597445D01*
X51197668Y-30616204D01*
X51184125Y-30626341D01*
X51182013Y-30627594D01*
X51166627Y-30634622D01*
X51126067Y-30669766D01*
X51125429Y-30670280D01*
X51111406Y-30680779D01*
X51099024Y-30693160D01*
X51098424Y-30693719D01*
X51057857Y-30728872D01*
X51048711Y-30743101D01*
X51047169Y-30745015D01*
X50385015Y-31407169D01*
X50383101Y-31408711D01*
X50368872Y-31417857D01*
X50333719Y-31458424D01*
X50333160Y-31459024D01*
X50320779Y-31471406D01*
X50310280Y-31485429D01*
X50309766Y-31486067D01*
X50274622Y-31526627D01*
X50267594Y-31542013D01*
X50266341Y-31544125D01*
X50256204Y-31557668D01*
X50237445Y-31607961D01*
X50237131Y-31608719D01*
X50214834Y-31657543D01*
X50212426Y-31674289D01*
X50211818Y-31676670D01*
X50205909Y-31692515D01*
X50202078Y-31746057D01*
X50201990Y-31746872D01*
X50199500Y-31764200D01*
X50199500Y-31781705D01*
X50199471Y-31782525D01*
X50195640Y-31836074D01*
X50199237Y-31852603D01*
X50199500Y-31855048D01*
X50199500Y-43064951D01*
X50199237Y-43067396D01*
X50195640Y-43083925D01*
X38610500Y-43083925D01*
X38610500Y-39427527D01*
X43250000Y-39427527D01*
X43250032Y-39428127D01*
X43256401Y-39487374D01*
X43306647Y-39622089D01*
X43392811Y-39737188D01*
X43507910Y-39823352D01*
X43642625Y-39873598D01*
X43701872Y-39879967D01*
X43702472Y-39880000D01*
X45749999Y-39880000D01*
X45750000Y-39879999D01*
X46250000Y-39879999D01*
X46250001Y-39880000D01*
X48297528Y-39880000D01*
X48298127Y-39879967D01*
X48357374Y-39873598D01*
X48492089Y-39823352D01*
X48607188Y-39737188D01*
X48693352Y-39622089D01*
X48743598Y-39487374D01*
X48749967Y-39428127D01*
X48750000Y-39427527D01*
X48750000Y-37380001D01*
X48749999Y-37380000D01*
X46250001Y-37380000D01*
X46250000Y-37380001D01*
X46250000Y-39879999D01*
X45750000Y-39879999D01*
X45750000Y-39879998D01*
X45750000Y-37380001D01*
X45749999Y-37380000D01*
X43250001Y-37380000D01*
X43250000Y-37380001D01*
X43250000Y-39427527D01*
X38610500Y-39427527D01*
X38610500Y-39275048D01*
X38610763Y-39272603D01*
X38614359Y-39256074D01*
X38610529Y-39202525D01*
X38610500Y-39201705D01*
X38610500Y-39184201D01*
X38608004Y-39166847D01*
X38607921Y-39166075D01*
X38604091Y-39112517D01*
X38598177Y-39096663D01*
X38597572Y-39094291D01*
X38595165Y-39077543D01*
X38572863Y-39028710D01*
X38572553Y-39027961D01*
X38553796Y-38977669D01*
X38543656Y-38964124D01*
X38542402Y-38962010D01*
X38535377Y-38946627D01*
X38500226Y-38906060D01*
X38499711Y-38905421D01*
X38495910Y-38900344D01*
X38489220Y-38891407D01*
X38489218Y-38891405D01*
X38476839Y-38879025D01*
X38476280Y-38878425D01*
X38468872Y-38869876D01*
X38441128Y-38837857D01*
X38426893Y-38828709D01*
X38424982Y-38827169D01*
X37962828Y-38365014D01*
X37961286Y-38363099D01*
X37959616Y-38360500D01*
X37952143Y-38348872D01*
X37911581Y-38313725D01*
X37910981Y-38313166D01*
X37898594Y-38300780D01*
X37884570Y-38290281D01*
X37883931Y-38289766D01*
X37843371Y-38254621D01*
X37827986Y-38247594D01*
X37825873Y-38246340D01*
X37812333Y-38236205D01*
X37812331Y-38236204D01*
X37785327Y-38226132D01*
X37762037Y-38217445D01*
X37761279Y-38217131D01*
X37712456Y-38194834D01*
X37695711Y-38192426D01*
X37693330Y-38191818D01*
X37677485Y-38185909D01*
X37623941Y-38182078D01*
X37623126Y-38181990D01*
X37605799Y-38179500D01*
X37588294Y-38179500D01*
X37587474Y-38179471D01*
X37533925Y-38175640D01*
X37517397Y-38179237D01*
X37514952Y-38179500D01*
X37480088Y-38179500D01*
X37471956Y-38176132D01*
X37468665Y-38169326D01*
X37467585Y-38160009D01*
X37422206Y-38057235D01*
X37418103Y-38053132D01*
X37414735Y-38045000D01*
X37418103Y-38036868D01*
X37422206Y-38032765D01*
X37467585Y-37929991D01*
X37470500Y-37904865D01*
X37470499Y-36915136D01*
X37467585Y-36890009D01*
X37463165Y-36879999D01*
X43250000Y-36879999D01*
X43250001Y-36880000D01*
X45749999Y-36880000D01*
X45750000Y-36879999D01*
X45750000Y-34380001D01*
X45749999Y-34380000D01*
X46250000Y-34380000D01*
X46250000Y-36879999D01*
X46250001Y-36880000D01*
X48749999Y-36880000D01*
X48750000Y-36879998D01*
X48750000Y-34832472D01*
X48749967Y-34831872D01*
X48743598Y-34772625D01*
X48693352Y-34637910D01*
X48607188Y-34522811D01*
X48492089Y-34436647D01*
X48357374Y-34386401D01*
X48298127Y-34380032D01*
X48297528Y-34380000D01*
X46250000Y-34380000D01*
X45749999Y-34380000D01*
X43702472Y-34380000D01*
X43701872Y-34380032D01*
X43642625Y-34386401D01*
X43507910Y-34436647D01*
X43392811Y-34522811D01*
X43306647Y-34637910D01*
X43256401Y-34772625D01*
X43250032Y-34831872D01*
X43250000Y-34832472D01*
X43250000Y-36879999D01*
X37463165Y-36879999D01*
X37422206Y-36787235D01*
X37418103Y-36783132D01*
X37414735Y-36775000D01*
X37418103Y-36766868D01*
X37418104Y-36766867D01*
X37422206Y-36762765D01*
X37467585Y-36659991D01*
X37470500Y-36634865D01*
X37470499Y-35645136D01*
X37467585Y-35620009D01*
X37422206Y-35517235D01*
X37418103Y-35513132D01*
X37414735Y-35505000D01*
X37418103Y-35496868D01*
X37422206Y-35492765D01*
X37467585Y-35389991D01*
X37470500Y-35364865D01*
X37470499Y-34375136D01*
X37467585Y-34350009D01*
X37422206Y-34247235D01*
X37418103Y-34243132D01*
X37414735Y-34235000D01*
X37418103Y-34226868D01*
X37418666Y-34226305D01*
X37422206Y-34222765D01*
X37467585Y-34119991D01*
X37470500Y-34094865D01*
X37470499Y-33105136D01*
X37467585Y-33080009D01*
X37422206Y-32977235D01*
X37418103Y-32973132D01*
X37414735Y-32965000D01*
X37418103Y-32956868D01*
X37422206Y-32952765D01*
X37467585Y-32849991D01*
X37470500Y-32824865D01*
X37470499Y-31835136D01*
X37467585Y-31810009D01*
X37422206Y-31707235D01*
X37418103Y-31703132D01*
X37414735Y-31695000D01*
X37418103Y-31686868D01*
X37422206Y-31682765D01*
X37467585Y-31579991D01*
X37470500Y-31554865D01*
X37470499Y-30645382D01*
X37473867Y-30637251D01*
X37475107Y-30636177D01*
X37527188Y-30597188D01*
X37613352Y-30482089D01*
X37663598Y-30347374D01*
X37669967Y-30288127D01*
X37670000Y-30287527D01*
X37670000Y-30040001D01*
X37669999Y-30040000D01*
X35170001Y-30040000D01*
X35170000Y-30040001D01*
X35170000Y-30287527D01*
X35170032Y-30288127D01*
X35176401Y-30347374D01*
X35226647Y-30482089D01*
X35270829Y-30541108D01*
X35273006Y-30549637D01*
X35268515Y-30557206D01*
X35261623Y-30559500D01*
X31310143Y-30559500D01*
X31302011Y-30556132D01*
X31300723Y-30554596D01*
X31288144Y-30536632D01*
X31198495Y-30408599D01*
X31031401Y-30241505D01*
X30837830Y-30105965D01*
X30623663Y-30006097D01*
X30623659Y-30006095D01*
X30395408Y-29944936D01*
X30160000Y-29924340D01*
X29924591Y-29944936D01*
X29696340Y-30006095D01*
X29482167Y-30105967D01*
X29288602Y-30241502D01*
X29121502Y-30408602D01*
X28985967Y-30602167D01*
X28886095Y-30816340D01*
X28824936Y-31044591D01*
X28804340Y-31280000D01*
X28824936Y-31515408D01*
X28886095Y-31743659D01*
X28886097Y-31743663D01*
X28985965Y-31957830D01*
X28985966Y-31957832D01*
X28985967Y-31957833D01*
X29051618Y-32051593D01*
X29121505Y-32151401D01*
X29288599Y-32318495D01*
X29482170Y-32454035D01*
X29696337Y-32553903D01*
X29696339Y-32553903D01*
X29696340Y-32553904D01*
X29924591Y-32615063D01*
X30160000Y-32635659D01*
X30395408Y-32615063D01*
X30623663Y-32553903D01*
X30837830Y-32454035D01*
X31031401Y-32318495D01*
X31198495Y-32151401D01*
X31334035Y-31957830D01*
X31433903Y-31743663D01*
X31480697Y-31569023D01*
X31486055Y-31562041D01*
X31491805Y-31560500D01*
X35359912Y-31560500D01*
X35368044Y-31563868D01*
X35371334Y-31570673D01*
X35372182Y-31577983D01*
X35372415Y-31579993D01*
X35417794Y-31682766D01*
X35421896Y-31686869D01*
X35425264Y-31695001D01*
X35421896Y-31703131D01*
X35417794Y-31707233D01*
X35372414Y-31810009D01*
X35369539Y-31834793D01*
X35369538Y-31834804D01*
X35369500Y-31835135D01*
X35369500Y-31835474D01*
X35369500Y-31835475D01*
X35369500Y-32824523D01*
X35369500Y-32824540D01*
X35369501Y-32824864D01*
X35369539Y-32825195D01*
X35369540Y-32825205D01*
X35372414Y-32849990D01*
X35417794Y-32952766D01*
X35421896Y-32956869D01*
X35425264Y-32965001D01*
X35421896Y-32973131D01*
X35417794Y-32977233D01*
X35372414Y-33080009D01*
X35369748Y-33102990D01*
X35365465Y-33110680D01*
X35359963Y-33113048D01*
X35347543Y-33114834D01*
X35298719Y-33137131D01*
X35297961Y-33137445D01*
X35247668Y-33156204D01*
X35234125Y-33166341D01*
X35232013Y-33167594D01*
X35216627Y-33174622D01*
X35176067Y-33209766D01*
X35175429Y-33210280D01*
X35161406Y-33220779D01*
X35149024Y-33233160D01*
X35148424Y-33233719D01*
X35107857Y-33268872D01*
X35098711Y-33283101D01*
X35097169Y-33285015D01*
X31672889Y-36709294D01*
X31664757Y-36712662D01*
X31656625Y-36709294D01*
X31653257Y-36701162D01*
X31653575Y-36698477D01*
X31695650Y-36523227D01*
X31714793Y-36280000D01*
X31695650Y-36036772D01*
X31638697Y-35799546D01*
X31545328Y-35574135D01*
X31421495Y-35372056D01*
X30800139Y-35993412D01*
X30740320Y-35879434D01*
X30627595Y-35752194D01*
X30487695Y-35655629D01*
X30446456Y-35639988D01*
X31067942Y-35018503D01*
X30865864Y-34894671D01*
X30640453Y-34801302D01*
X30403227Y-34744349D01*
X30160000Y-34725206D01*
X29916772Y-34744349D01*
X29679546Y-34801302D01*
X29454135Y-34894671D01*
X29252056Y-35018503D01*
X29873542Y-35639989D01*
X29832305Y-35655629D01*
X29692405Y-35752194D01*
X29579680Y-35879434D01*
X29519859Y-35993413D01*
X28898503Y-35372056D01*
X28774671Y-35574135D01*
X28681302Y-35799546D01*
X28624349Y-36036772D01*
X28605206Y-36280000D01*
X28624349Y-36523227D01*
X28681302Y-36760453D01*
X28774671Y-36985864D01*
X28898503Y-37187942D01*
X29519859Y-36566585D01*
X29579680Y-36680566D01*
X29692405Y-36807806D01*
X29832305Y-36904371D01*
X29873542Y-36920010D01*
X29252056Y-37541495D01*
X29454135Y-37665328D01*
X29679546Y-37758697D01*
X29916772Y-37815650D01*
X30160000Y-37834793D01*
X30403227Y-37815650D01*
X30578477Y-37773575D01*
X30587171Y-37774952D01*
X30592344Y-37782072D01*
X30590967Y-37790766D01*
X30589294Y-37792889D01*
X27881052Y-40501132D01*
X27872920Y-40504500D01*
X27160476Y-40504500D01*
X27160458Y-40504500D01*
X27160136Y-40504501D01*
X27159805Y-40504539D01*
X27159794Y-40504540D01*
X27135009Y-40507414D01*
X27032235Y-40552793D01*
X26952793Y-40632235D01*
X26907414Y-40735009D01*
X26904539Y-40759793D01*
X26904538Y-40759804D01*
X26904500Y-40760135D01*
X26904500Y-40760474D01*
X26904500Y-40760475D01*
X26904500Y-42199523D01*
X26904500Y-42199540D01*
X26904501Y-42199864D01*
X26904539Y-42200195D01*
X26904540Y-42200205D01*
X26907414Y-42224990D01*
X26952793Y-42327764D01*
X26952794Y-42327765D01*
X27032235Y-42407206D01*
X27135009Y-42452585D01*
X27160135Y-42455500D01*
X28599864Y-42455499D01*
X28624991Y-42452585D01*
X28727765Y-42407206D01*
X28807206Y-42327765D01*
X28852585Y-42224991D01*
X28855500Y-42199865D01*
X28855499Y-40947076D01*
X28858866Y-40938946D01*
X30159868Y-39637944D01*
X30167999Y-39634577D01*
X30176131Y-39637945D01*
X30179499Y-39646076D01*
X30179500Y-39661704D01*
X30179471Y-39662525D01*
X30175640Y-39716074D01*
X30179237Y-39732603D01*
X30179500Y-39735048D01*
X30179500Y-41882516D01*
X30176132Y-41890648D01*
X29090648Y-42976132D01*
X29082516Y-42979500D01*
X28725478Y-42979500D01*
X28717346Y-42976132D01*
X28715336Y-42973421D01*
X28704925Y-42953945D01*
X28695023Y-42935419D01*
X28573120Y-42786880D01*
X28424581Y-42664977D01*
X28255114Y-42574395D01*
X28071231Y-42518615D01*
X27880000Y-42499780D01*
X27879999Y-42499780D01*
X27688768Y-42518615D01*
X27504885Y-42574395D01*
X27335422Y-42664975D01*
X27335420Y-42664976D01*
X27335419Y-42664977D01*
X27254111Y-42731705D01*
X27186880Y-42786880D01*
X27064975Y-42935422D01*
X26974395Y-43104885D01*
X26925888Y-43264794D01*
X26918615Y-43288769D01*
X26899780Y-43480000D01*
X26918615Y-43671231D01*
X26974395Y-43855114D01*
X27064977Y-44024581D01*
X27186880Y-44173120D01*
X27335419Y-44295023D01*
X27504886Y-44385605D01*
X27688769Y-44441385D01*
X27880000Y-44460220D01*
X28071231Y-44441385D01*
X28255114Y-44385605D01*
X28424581Y-44295023D01*
X28573120Y-44173120D01*
X28695023Y-44024581D01*
X28715335Y-43986579D01*
X28722140Y-43980995D01*
X28725478Y-43980500D01*
X29239546Y-43980500D01*
X29241991Y-43980763D01*
X29258519Y-43984359D01*
X29258520Y-43984358D01*
X29258521Y-43984359D01*
X29302341Y-43981224D01*
X29312068Y-43980529D01*
X29312888Y-43980500D01*
X29330392Y-43980500D01*
X29330393Y-43980500D01*
X29347748Y-43978004D01*
X29348514Y-43977921D01*
X29402077Y-43974091D01*
X29417934Y-43968176D01*
X29420298Y-43967573D01*
X29437051Y-43965165D01*
X29485901Y-43942854D01*
X29486611Y-43942560D01*
X29536925Y-43923796D01*
X29550472Y-43913653D01*
X29552576Y-43912405D01*
X29567967Y-43905377D01*
X29608526Y-43870231D01*
X29609163Y-43869719D01*
X29617666Y-43863353D01*
X29623187Y-43859221D01*
X29635581Y-43846825D01*
X29636152Y-43846293D01*
X29676737Y-43811128D01*
X29685885Y-43796891D01*
X29687420Y-43794986D01*
X30931780Y-42550626D01*
X30935128Y-42548302D01*
X30953373Y-42539971D01*
X30980083Y-42516825D01*
X30981385Y-42515850D01*
X31011128Y-42496737D01*
X31034278Y-42470019D01*
X31035425Y-42468872D01*
X31062143Y-42445722D01*
X31081256Y-42415979D01*
X31082231Y-42414677D01*
X31105377Y-42387967D01*
X31120060Y-42355814D01*
X31120840Y-42354385D01*
X31139953Y-42324647D01*
X31149908Y-42290737D01*
X31150481Y-42289203D01*
X31165165Y-42257050D01*
X31169775Y-42224990D01*
X31170195Y-42222063D01*
X31170544Y-42220461D01*
X31180500Y-42186555D01*
X31180500Y-42040349D01*
X31180499Y-42040343D01*
X31180499Y-41344523D01*
X31180499Y-39892074D01*
X31183866Y-39883946D01*
X35349869Y-35717943D01*
X35358000Y-35714576D01*
X35366132Y-35717944D01*
X35369500Y-35726076D01*
X35369500Y-36634523D01*
X35369500Y-36634540D01*
X35369501Y-36634864D01*
X35369539Y-36635195D01*
X35369540Y-36635205D01*
X35372414Y-36659990D01*
X35417794Y-36762766D01*
X35421896Y-36766869D01*
X35425264Y-36775001D01*
X35421896Y-36783131D01*
X35417794Y-36787233D01*
X35372414Y-36890009D01*
X35369539Y-36914793D01*
X35369538Y-36914804D01*
X35369500Y-36915135D01*
X35369500Y-36915474D01*
X35369500Y-36915475D01*
X35369500Y-37904523D01*
X35369500Y-37904540D01*
X35369501Y-37904864D01*
X35369539Y-37905195D01*
X35369540Y-37905205D01*
X35372414Y-37929990D01*
X35417794Y-38032766D01*
X35421896Y-38036869D01*
X35425264Y-38045001D01*
X35421896Y-38053131D01*
X35417794Y-38057233D01*
X35372414Y-38160009D01*
X35369539Y-38184793D01*
X35369538Y-38184804D01*
X35369500Y-38185135D01*
X35369500Y-38185474D01*
X35369500Y-38185475D01*
X35369500Y-39174523D01*
X35369500Y-39174540D01*
X35369501Y-39174864D01*
X35369539Y-39175195D01*
X35369540Y-39175205D01*
X35372414Y-39199990D01*
X35417794Y-39302766D01*
X35421896Y-39306869D01*
X35425264Y-39315001D01*
X35421896Y-39323131D01*
X35417794Y-39327233D01*
X35372414Y-39430009D01*
X35369539Y-39454793D01*
X35369538Y-39454804D01*
X35369500Y-39455135D01*
X35369500Y-39455474D01*
X35369500Y-39455475D01*
X35369500Y-40444523D01*
X35369500Y-40444540D01*
X35369501Y-40444864D01*
X35369539Y-40445195D01*
X35369540Y-40445205D01*
X35372414Y-40469990D01*
X35417794Y-40572766D01*
X35421896Y-40576869D01*
X35425264Y-40585001D01*
X35421896Y-40593131D01*
X35417794Y-40597233D01*
X35372414Y-40700009D01*
X35369539Y-40724793D01*
X35369538Y-40724804D01*
X35369500Y-40725135D01*
X35369500Y-40725474D01*
X35369500Y-40725475D01*
X35369500Y-41714523D01*
X35369500Y-41714540D01*
X35369501Y-41714864D01*
X35369539Y-41715195D01*
X35369540Y-41715205D01*
X35372414Y-41739990D01*
X35417794Y-41842766D01*
X35421896Y-41846869D01*
X35425264Y-41855001D01*
X35421896Y-41863131D01*
X35417794Y-41867233D01*
X35372414Y-41970009D01*
X35369539Y-41994793D01*
X35369538Y-41994804D01*
X35369500Y-41995135D01*
X35369500Y-41995474D01*
X35369500Y-41995475D01*
X35369500Y-42984523D01*
X35369500Y-42984540D01*
X35369501Y-42984864D01*
X35369539Y-42985195D01*
X35369540Y-42985205D01*
X35372414Y-43009990D01*
X35417794Y-43112766D01*
X35421896Y-43116869D01*
X35425264Y-43125001D01*
X35421896Y-43133131D01*
X35417794Y-43137233D01*
X35372414Y-43240009D01*
X35369539Y-43264793D01*
X35369538Y-43264804D01*
X35369500Y-43265135D01*
X35369500Y-43265474D01*
X35369500Y-43265475D01*
X35369500Y-44254523D01*
X35369500Y-44254540D01*
X35369501Y-44254864D01*
X35369539Y-44255195D01*
X35369540Y-44255205D01*
X35372414Y-44279990D01*
X35417794Y-44382766D01*
X35421896Y-44386869D01*
X35425264Y-44395001D01*
X35421896Y-44403131D01*
X35417794Y-44407233D01*
X35372414Y-44510009D01*
X35369539Y-44534793D01*
X35369538Y-44534804D01*
X35369500Y-44535135D01*
X35369500Y-44535474D01*
X35369500Y-44535475D01*
X35369500Y-45524523D01*
X35369500Y-45524540D01*
X35369501Y-45524864D01*
X35369539Y-45525195D01*
X35369540Y-45525205D01*
X35372414Y-45549990D01*
X35417794Y-45652766D01*
X35421896Y-45656869D01*
X35425264Y-45665001D01*
X35421896Y-45673131D01*
X35417794Y-45677233D01*
X35372414Y-45780010D01*
X35371334Y-45789325D01*
X35367052Y-45797014D01*
X35359911Y-45799500D01*
X34662078Y-45799500D01*
X34653946Y-45796132D01*
X34022828Y-45165014D01*
X34021286Y-45163099D01*
X34016112Y-45155048D01*
X34012143Y-45148872D01*
X33971581Y-45113725D01*
X33970981Y-45113166D01*
X33958594Y-45100780D01*
X33944570Y-45090281D01*
X33943931Y-45089766D01*
X33903371Y-45054621D01*
X33887986Y-45047594D01*
X33885873Y-45046340D01*
X33872333Y-45036205D01*
X33872331Y-45036204D01*
X33845673Y-45026261D01*
X33822037Y-45017445D01*
X33821279Y-45017131D01*
X33772456Y-44994834D01*
X33755711Y-44992426D01*
X33753330Y-44991818D01*
X33737485Y-44985909D01*
X33683941Y-44982078D01*
X33683126Y-44981990D01*
X33665799Y-44979500D01*
X33648294Y-44979500D01*
X33647474Y-44979471D01*
X33593925Y-44975640D01*
X33577397Y-44979237D01*
X33574952Y-44979500D01*
X28725478Y-44979500D01*
X28717346Y-44976132D01*
X28715336Y-44973421D01*
X28704211Y-44952609D01*
X28695023Y-44935419D01*
X28573120Y-44786880D01*
X28424581Y-44664977D01*
X28255114Y-44574395D01*
X28071231Y-44518615D01*
X27880000Y-44499780D01*
X27688768Y-44518615D01*
X27504885Y-44574395D01*
X27335422Y-44664975D01*
X27335420Y-44664976D01*
X27335419Y-44664977D01*
X27186880Y-44786880D01*
X27101901Y-44890428D01*
X27064975Y-44935422D01*
X26974395Y-45104885D01*
X26918615Y-45288768D01*
X26912352Y-45352356D01*
X26899780Y-45480000D01*
X26283814Y-45480000D01*
X26270009Y-28941499D01*
X26273370Y-28933366D01*
X26281499Y-28929991D01*
X26281500Y-28929991D01*
X35357979Y-28923125D01*
X35366114Y-28926487D01*
X35369488Y-28934616D01*
X35366126Y-28942751D01*
X35364880Y-28943831D01*
X35312811Y-28982811D01*
X35226647Y-29097910D01*
X35176401Y-29232625D01*
X35170032Y-29291872D01*
X35170000Y-29292472D01*
X35170000Y-29539999D01*
X35170001Y-29540000D01*
X37669999Y-29540000D01*
X37670000Y-29539999D01*
X37670000Y-29292472D01*
X37669967Y-29291872D01*
X37663598Y-29232625D01*
X37613352Y-29097910D01*
X37527188Y-28982811D01*
X37472974Y-28942225D01*
X37468483Y-28934655D01*
X37470660Y-28926127D01*
X37478230Y-28921636D01*
X37479849Y-28921519D01*
X53175986Y-28909646D01*
X53184120Y-28913008D01*
X53187494Y-28921137D01*
X53184132Y-28929272D01*
X53182886Y-28930352D01*
X53112811Y-28982811D01*
X53026647Y-29097910D01*
X52976401Y-29232625D01*
X52970032Y-29291872D01*
X52970000Y-29292472D01*
X52970000Y-29539999D01*
X52970001Y-29540000D01*
X55469999Y-29540000D01*
X55470000Y-29539999D01*
X55470000Y-29292472D01*
X55469967Y-29291872D01*
X55463598Y-29232625D01*
X55413352Y-29097910D01*
X55327188Y-28982811D01*
X55255005Y-28928774D01*
X55250514Y-28921204D01*
X55252691Y-28912676D01*
X55260261Y-28908185D01*
X55261877Y-28908068D01*
X65155013Y-28900585D01*
X65267831Y-28900500D01*
X65915500Y-28900500D01*
X65923632Y-28903868D01*
G37*
%TD.AperFunction*%
%TD*%
%TA.AperFunction,NonConductor*%
G36*
X31874163Y-49242923D02*
G01*
X31920249Y-49295438D01*
X31930626Y-49364533D01*
X31902001Y-49428270D01*
X31892122Y-49438555D01*
X31733195Y-49586018D01*
X31569613Y-49791143D01*
X31438431Y-50018358D01*
X31342580Y-50262581D01*
X31284197Y-50518372D01*
X31264591Y-50780000D01*
X31284197Y-51041627D01*
X31342580Y-51297418D01*
X31438428Y-51541637D01*
X31443946Y-51551195D01*
X31450286Y-51562175D01*
X31466759Y-51630074D01*
X31443907Y-51696101D01*
X31430580Y-51711856D01*
X30575513Y-52566923D01*
X30514190Y-52600408D01*
X30444498Y-52595424D01*
X30388565Y-52553552D01*
X30364148Y-52488088D01*
X30363849Y-52477200D01*
X30364112Y-52461218D01*
X30415295Y-49353577D01*
X30436081Y-49286875D01*
X30489631Y-49241996D01*
X30538495Y-49231625D01*
X31807003Y-49223659D01*
X31874163Y-49242923D01*
G37*
%TD.AperFunction*%
%TA.AperFunction,NonConductor*%
G36*
X35733179Y-49218690D02*
G01*
X35779265Y-49271205D01*
X35790790Y-49322185D01*
X35796736Y-49917258D01*
X35804641Y-50708528D01*
X35807941Y-51038814D01*
X35810188Y-51263683D01*
X35812249Y-51469995D01*
X35859521Y-56201478D01*
X35840507Y-56268711D01*
X35788163Y-56314991D01*
X35719107Y-56325625D01*
X35655265Y-56297237D01*
X35644298Y-56286700D01*
X35636695Y-56278441D01*
X35633301Y-56274598D01*
X35616567Y-56254839D01*
X35616557Y-56254828D01*
X35614902Y-56252874D01*
X35594771Y-56232743D01*
X35591222Y-56229045D01*
X35529743Y-56162261D01*
X35511211Y-56147837D01*
X35499693Y-56137665D01*
X34744212Y-55382184D01*
X34711002Y-55322094D01*
X34697420Y-55262584D01*
X34601568Y-55018357D01*
X34470386Y-54791143D01*
X34306805Y-54586019D01*
X34306801Y-54586015D01*
X34114485Y-54407571D01*
X34097170Y-54395766D01*
X33897704Y-54259772D01*
X33661323Y-54145937D01*
X33618661Y-54132777D01*
X33536394Y-54107401D01*
X33478135Y-54068830D01*
X33449977Y-54004886D01*
X33460861Y-53935869D01*
X33485260Y-53901232D01*
X34009701Y-53376791D01*
X34021203Y-53366633D01*
X34039744Y-53352204D01*
X34101235Y-53285405D01*
X34104714Y-53281779D01*
X34124902Y-53261592D01*
X34143315Y-53239849D01*
X34146701Y-53236017D01*
X34208160Y-53169255D01*
X34208164Y-53169251D01*
X34221006Y-53149592D01*
X34230188Y-53137279D01*
X34245366Y-53119360D01*
X34291848Y-53041350D01*
X34294505Y-53037093D01*
X34344173Y-52961073D01*
X34353607Y-52939565D01*
X34360631Y-52925918D01*
X34372656Y-52905739D01*
X34405667Y-52821135D01*
X34407587Y-52816500D01*
X34444063Y-52733347D01*
X34449827Y-52710583D01*
X34454515Y-52695950D01*
X34455428Y-52693609D01*
X34463049Y-52674080D01*
X34481680Y-52585220D01*
X34482818Y-52580304D01*
X34505108Y-52492287D01*
X34507047Y-52468879D01*
X34509264Y-52453673D01*
X34514081Y-52430703D01*
X34517831Y-52340015D01*
X34518149Y-52334893D01*
X34520500Y-52306533D01*
X34520500Y-52278062D01*
X34520606Y-52272937D01*
X34524357Y-52182246D01*
X34521452Y-52158939D01*
X34520500Y-52143601D01*
X34520500Y-51715281D01*
X34537112Y-51653283D01*
X34601568Y-51541643D01*
X34697420Y-51297416D01*
X34755802Y-51041630D01*
X34775408Y-50780000D01*
X34755802Y-50518370D01*
X34697420Y-50262584D01*
X34601568Y-50018357D01*
X34470386Y-49791143D01*
X34306805Y-49586019D01*
X34306804Y-49586018D01*
X34131579Y-49423433D01*
X34095825Y-49363405D01*
X34098200Y-49293576D01*
X34137951Y-49236116D01*
X34202457Y-49209268D01*
X34215127Y-49208537D01*
X35666019Y-49199426D01*
X35733179Y-49218690D01*
G37*
%TD.AperFunction*%
%TA.AperFunction,NonConductor*%
G36*
X36215703Y-60227289D02*
G01*
X36221240Y-60232390D01*
X36887317Y-60884395D01*
X36986629Y-60981609D01*
X37387892Y-61374395D01*
X39186332Y-63134840D01*
X39220470Y-63195802D01*
X39216230Y-63265543D01*
X39174958Y-63321920D01*
X39109758Y-63347035D01*
X39067498Y-63343227D01*
X38971272Y-63317443D01*
X38971269Y-63317442D01*
X38967782Y-63316508D01*
X38964205Y-63315984D01*
X38625521Y-63266374D01*
X38625512Y-63266373D01*
X38621954Y-63265852D01*
X38618356Y-63265747D01*
X38618353Y-63265747D01*
X38276178Y-63255790D01*
X38276168Y-63255790D01*
X38272584Y-63255686D01*
X38269011Y-63255998D01*
X38268996Y-63255999D01*
X37927997Y-63285833D01*
X37927982Y-63285835D01*
X37924395Y-63286149D01*
X37920861Y-63286878D01*
X37920852Y-63286880D01*
X37585626Y-63356098D01*
X37585617Y-63356100D01*
X37582098Y-63356827D01*
X37578689Y-63357956D01*
X37578680Y-63357959D01*
X37253744Y-63465631D01*
X37253727Y-63465637D01*
X37250319Y-63466767D01*
X37247058Y-63468287D01*
X37247047Y-63468292D01*
X36936818Y-63612954D01*
X36936801Y-63612962D01*
X36933548Y-63614480D01*
X36930488Y-63616366D01*
X36930472Y-63616376D01*
X36639141Y-63796072D01*
X36639129Y-63796079D01*
X36636067Y-63797969D01*
X36633244Y-63800200D01*
X36633237Y-63800206D01*
X36364726Y-64012517D01*
X36364718Y-64012523D01*
X36361899Y-64014753D01*
X36359354Y-64017296D01*
X36359355Y-64017297D01*
X36222180Y-64154472D01*
X36160857Y-64187956D01*
X36091165Y-64182972D01*
X36035232Y-64141100D01*
X36010815Y-64075636D01*
X36010500Y-64066817D01*
X36010500Y-60321001D01*
X36030185Y-60253963D01*
X36082989Y-60208208D01*
X36152147Y-60198264D01*
X36215703Y-60227289D01*
G37*
%TD.AperFunction*%
%TA.AperFunction,NonConductor*%
G36*
X32198296Y-57327196D02*
G01*
X32378677Y-57414063D01*
X32571053Y-57473402D01*
X32622184Y-57504212D01*
X32973181Y-57855208D01*
X33006666Y-57916531D01*
X33009500Y-57942889D01*
X33009500Y-63981880D01*
X32989815Y-64048919D01*
X32937011Y-64094674D01*
X32867853Y-64104618D01*
X32804297Y-64075593D01*
X32803864Y-64075202D01*
X32802558Y-64073817D01*
X32729503Y-64012517D01*
X32537570Y-63851466D01*
X32537569Y-63851465D01*
X32534811Y-63849151D01*
X32358844Y-63733415D01*
X32245812Y-63659072D01*
X32245804Y-63659067D01*
X32242793Y-63657087D01*
X32088849Y-63579773D01*
X32037775Y-63532095D01*
X32020500Y-63468963D01*
X32020500Y-57438918D01*
X32040185Y-57371879D01*
X32092989Y-57326124D01*
X32162147Y-57316180D01*
X32198296Y-57327196D01*
G37*
%TD.AperFunction*%
%TA.AperFunction,NonConductor*%
G36*
X38715703Y-70859497D02*
G01*
X38722181Y-70865529D01*
X40931862Y-73075210D01*
X40939170Y-73083185D01*
X40963817Y-73112558D01*
X41008320Y-73154544D01*
X41057879Y-73201301D01*
X41060466Y-73203814D01*
X41090060Y-73233408D01*
X41091394Y-73234595D01*
X41091397Y-73234598D01*
X41121311Y-73261220D01*
X41123968Y-73263655D01*
X41168115Y-73305305D01*
X41203370Y-73365628D01*
X41200415Y-73435435D01*
X41160189Y-73492563D01*
X41095462Y-73518874D01*
X41083022Y-73519500D01*
X38634500Y-73519500D01*
X38567461Y-73499815D01*
X38521706Y-73447011D01*
X38510500Y-73395500D01*
X38510500Y-70953210D01*
X38530185Y-70886171D01*
X38582989Y-70840416D01*
X38652147Y-70830472D01*
X38715703Y-70859497D01*
G37*
%TD.AperFunction*%
%TA.AperFunction,NonConductor*%
G36*
X33945703Y-69271477D02*
G01*
X33952181Y-69277509D01*
X35473181Y-70798509D01*
X35506666Y-70859832D01*
X35509500Y-70886190D01*
X35509500Y-73790947D01*
X35489815Y-73857986D01*
X35450597Y-73896485D01*
X35289141Y-73996072D01*
X35289129Y-73996079D01*
X35286067Y-73997969D01*
X35283244Y-74000200D01*
X35283237Y-74000206D01*
X35014726Y-74212517D01*
X35014718Y-74212523D01*
X35011899Y-74214753D01*
X35009355Y-74217296D01*
X35009346Y-74217305D01*
X34767305Y-74459346D01*
X34767296Y-74459355D01*
X34764753Y-74461899D01*
X34762523Y-74464718D01*
X34762517Y-74464726D01*
X34550206Y-74733237D01*
X34550200Y-74733244D01*
X34547969Y-74736067D01*
X34546077Y-74739135D01*
X34491387Y-74827799D01*
X34439438Y-74874523D01*
X34370475Y-74885744D01*
X34306394Y-74857900D01*
X34284274Y-74833825D01*
X34119693Y-74598779D01*
X34119692Y-74598778D01*
X34117628Y-74595830D01*
X33943408Y-74400060D01*
X33776818Y-74233471D01*
X33743334Y-74172148D01*
X33740500Y-74145790D01*
X33740500Y-69365190D01*
X33760185Y-69298151D01*
X33812989Y-69252396D01*
X33882147Y-69242452D01*
X33945703Y-69271477D01*
G37*
%TD.AperFunction*%
%TA.AperFunction,NonConductor*%
G36*
X26473769Y-53400307D02*
G01*
X29370952Y-53473549D01*
X29437470Y-53494921D01*
X29481876Y-53548865D01*
X29490069Y-53618252D01*
X29459447Y-53681054D01*
X29459046Y-53681492D01*
X29438777Y-53703510D01*
X29435233Y-53707204D01*
X29415098Y-53727340D01*
X29413437Y-53729300D01*
X29413437Y-53729301D01*
X29396689Y-53749075D01*
X29393299Y-53752913D01*
X29331835Y-53819681D01*
X29318995Y-53839334D01*
X29309813Y-53851649D01*
X29294636Y-53869568D01*
X29248174Y-53947540D01*
X29245462Y-53951883D01*
X29195826Y-54027858D01*
X29186396Y-54049357D01*
X29179368Y-54063011D01*
X29167343Y-54083192D01*
X29134346Y-54167754D01*
X29132386Y-54172486D01*
X29095936Y-54255586D01*
X29090169Y-54278356D01*
X29085484Y-54292981D01*
X29076951Y-54314851D01*
X29058324Y-54403677D01*
X29057170Y-54408666D01*
X29034891Y-54496646D01*
X29032952Y-54520044D01*
X29030738Y-54535243D01*
X29025919Y-54558228D01*
X29022168Y-54648906D01*
X29021851Y-54654017D01*
X29019710Y-54679856D01*
X29019709Y-54679872D01*
X29019500Y-54682399D01*
X29019500Y-54684952D01*
X29019500Y-54710868D01*
X29019394Y-54715993D01*
X29015642Y-54806685D01*
X29018548Y-54829992D01*
X29019500Y-54845330D01*
X29019499Y-63733415D01*
X28999814Y-63800454D01*
X28963643Y-63837012D01*
X28948214Y-63847160D01*
X28948197Y-63847171D01*
X28945189Y-63849151D01*
X28942432Y-63851463D01*
X28942423Y-63851471D01*
X28680204Y-64071498D01*
X28680196Y-64071506D01*
X28677442Y-64073817D01*
X28674967Y-64076439D01*
X28674962Y-64076445D01*
X28440062Y-64325424D01*
X28440056Y-64325430D01*
X28437588Y-64328047D01*
X28435448Y-64330921D01*
X28435435Y-64330937D01*
X28231029Y-64605503D01*
X28231023Y-64605511D01*
X28228870Y-64608404D01*
X28227071Y-64611518D01*
X28227061Y-64611535D01*
X28055915Y-64907970D01*
X28055909Y-64907980D01*
X28054111Y-64911096D01*
X28052690Y-64914389D01*
X28052682Y-64914406D01*
X27917099Y-65228725D01*
X27915674Y-65232029D01*
X27914645Y-65235464D01*
X27914642Y-65235474D01*
X27816465Y-65563408D01*
X27816462Y-65563418D01*
X27815431Y-65566864D01*
X27814806Y-65570407D01*
X27814803Y-65570421D01*
X27755366Y-65907507D01*
X27755364Y-65907520D01*
X27754738Y-65911073D01*
X27754528Y-65914678D01*
X27754527Y-65914687D01*
X27739604Y-66170904D01*
X27739500Y-66172695D01*
X27739500Y-66174485D01*
X27739500Y-75303577D01*
X27739028Y-75314384D01*
X27735999Y-75348996D01*
X27735998Y-75349011D01*
X27735686Y-75352584D01*
X27735790Y-75356168D01*
X27735790Y-75356178D01*
X27739448Y-75481869D01*
X27739500Y-75485476D01*
X27739500Y-75527305D01*
X27739603Y-75529078D01*
X27739604Y-75529104D01*
X27741930Y-75569051D01*
X27742087Y-75572649D01*
X27745745Y-75698334D01*
X27745747Y-75698362D01*
X27745852Y-75701954D01*
X27746373Y-75705511D01*
X27746374Y-75705522D01*
X27751410Y-75739899D01*
X27752509Y-75750659D01*
X27754738Y-75788927D01*
X27755366Y-75792492D01*
X27755367Y-75792495D01*
X27777185Y-75916238D01*
X27777760Y-75919797D01*
X27795986Y-76044221D01*
X27796508Y-76047782D01*
X27797437Y-76051249D01*
X27797438Y-76051254D01*
X27806431Y-76084818D01*
X27808770Y-76095371D01*
X27814802Y-76129575D01*
X27814806Y-76129592D01*
X27815431Y-76133136D01*
X27816464Y-76136589D01*
X27816465Y-76136590D01*
X27852514Y-76257006D01*
X27853497Y-76260474D01*
X27886031Y-76381890D01*
X27886040Y-76381919D01*
X27886971Y-76385391D01*
X27888302Y-76388743D01*
X27888305Y-76388750D01*
X27901124Y-76421017D01*
X27904675Y-76431233D01*
X27915674Y-76467971D01*
X27917097Y-76471272D01*
X27917103Y-76471286D01*
X27966897Y-76586722D01*
X27968277Y-76590053D01*
X27975131Y-76607305D01*
X28016015Y-76710215D01*
X28034211Y-76743962D01*
X28038922Y-76753693D01*
X28054111Y-76788904D01*
X28055913Y-76792025D01*
X28118762Y-76900884D01*
X28120519Y-76904032D01*
X28180189Y-77014696D01*
X28181896Y-77017861D01*
X28197418Y-77040029D01*
X28203885Y-77049265D01*
X28209695Y-77058385D01*
X28228870Y-77091596D01*
X28231026Y-77094492D01*
X28231028Y-77094495D01*
X28306102Y-77195336D01*
X28308214Y-77198261D01*
X28382372Y-77304170D01*
X28384768Y-77306862D01*
X28407854Y-77332805D01*
X28414683Y-77341188D01*
X28435438Y-77369066D01*
X28435443Y-77369073D01*
X28437588Y-77371953D01*
X28440058Y-77374571D01*
X28440063Y-77374577D01*
X28526343Y-77466030D01*
X28528777Y-77468686D01*
X28555399Y-77498600D01*
X28556592Y-77499940D01*
X28557862Y-77501210D01*
X28586184Y-77529532D01*
X28588697Y-77532119D01*
X28603653Y-77547971D01*
X28677442Y-77626183D01*
X28680213Y-77628508D01*
X28706813Y-77650828D01*
X28714789Y-77658137D01*
X29700060Y-78643408D01*
X29895830Y-78817628D01*
X29898778Y-78819692D01*
X29898779Y-78819693D01*
X29939983Y-78848544D01*
X30182139Y-79018104D01*
X30489785Y-79183985D01*
X30814609Y-79313030D01*
X31152218Y-79403492D01*
X31498046Y-79454148D01*
X31847416Y-79464314D01*
X32195605Y-79433851D01*
X32537902Y-79363173D01*
X32869681Y-79253233D01*
X33186452Y-79105520D01*
X33483933Y-78922031D01*
X33758101Y-78705247D01*
X34005247Y-78458101D01*
X34222031Y-78183933D01*
X34231573Y-78168464D01*
X34270693Y-78105039D01*
X34278611Y-78092201D01*
X34330559Y-78045477D01*
X34399521Y-78034254D01*
X34463603Y-78062097D01*
X34485725Y-78086174D01*
X34647750Y-78317570D01*
X34652372Y-78324170D01*
X34826592Y-78519940D01*
X34827879Y-78521227D01*
X34851862Y-78545210D01*
X34859170Y-78553185D01*
X34883817Y-78582558D01*
X34977879Y-78671301D01*
X34980466Y-78673814D01*
X35010060Y-78703408D01*
X35011394Y-78704595D01*
X35011397Y-78704598D01*
X35041311Y-78731220D01*
X35043968Y-78733655D01*
X35135423Y-78819938D01*
X35135438Y-78819950D01*
X35138047Y-78822412D01*
X35140938Y-78824564D01*
X35168803Y-78845309D01*
X35177187Y-78852138D01*
X35205830Y-78877628D01*
X35278530Y-78928533D01*
X35311737Y-78951784D01*
X35314662Y-78953896D01*
X35415502Y-79028970D01*
X35418404Y-79031130D01*
X35451614Y-79050303D01*
X35460723Y-79056106D01*
X35492139Y-79078104D01*
X35605987Y-79139490D01*
X35609066Y-79141208D01*
X35721096Y-79205889D01*
X35748052Y-79217516D01*
X35756301Y-79221075D01*
X35766034Y-79225786D01*
X35799785Y-79243985D01*
X35919956Y-79291726D01*
X35923278Y-79293101D01*
X36042029Y-79344326D01*
X36078778Y-79355327D01*
X36088947Y-79358862D01*
X36124609Y-79373030D01*
X36128101Y-79373965D01*
X36128102Y-79373966D01*
X36249524Y-79406501D01*
X36252986Y-79407482D01*
X36376864Y-79444569D01*
X36414624Y-79451226D01*
X36425163Y-79453562D01*
X36462218Y-79463492D01*
X36590217Y-79482240D01*
X36593724Y-79482806D01*
X36721073Y-79505262D01*
X36759344Y-79507490D01*
X36770103Y-79508589D01*
X36808046Y-79514148D01*
X36937350Y-79517910D01*
X36940927Y-79518067D01*
X36982695Y-79520500D01*
X37024522Y-79520500D01*
X37028129Y-79520552D01*
X37157416Y-79524314D01*
X37195615Y-79520971D01*
X37206422Y-79520500D01*
X46625515Y-79520500D01*
X46627305Y-79520500D01*
X46888927Y-79505262D01*
X47233136Y-79444569D01*
X47567971Y-79344326D01*
X47888904Y-79205889D01*
X48191596Y-79031130D01*
X48471953Y-78822412D01*
X48726183Y-78582558D01*
X48950849Y-78314811D01*
X49059096Y-78150229D01*
X49112377Y-78105039D01*
X49181637Y-78095828D01*
X49244882Y-78125523D01*
X49270079Y-78156370D01*
X49277061Y-78168464D01*
X49278870Y-78171596D01*
X49281029Y-78174496D01*
X49485435Y-78449062D01*
X49485441Y-78449069D01*
X49487588Y-78451953D01*
X49727442Y-78706183D01*
X49730200Y-78708497D01*
X49730204Y-78708501D01*
X49901387Y-78852140D01*
X49995189Y-78930849D01*
X50124709Y-79016036D01*
X50180923Y-79053009D01*
X50287207Y-79122913D01*
X50482664Y-79221075D01*
X50548955Y-79254368D01*
X50599549Y-79279777D01*
X50927989Y-79399319D01*
X51070603Y-79433119D01*
X51264579Y-79479092D01*
X51264581Y-79479092D01*
X51268086Y-79479923D01*
X51615241Y-79520500D01*
X51618839Y-79520500D01*
X51961161Y-79520500D01*
X51964759Y-79520500D01*
X52311914Y-79479923D01*
X52652011Y-79399319D01*
X52980451Y-79279777D01*
X53292793Y-79122913D01*
X53584811Y-78930849D01*
X53852558Y-78706183D01*
X54092412Y-78451953D01*
X54301130Y-78171596D01*
X54475889Y-77868904D01*
X54614326Y-77547971D01*
X54714569Y-77213136D01*
X54775262Y-76868927D01*
X54790500Y-76607305D01*
X54790500Y-73336410D01*
X54790972Y-73325602D01*
X54793999Y-73291002D01*
X54794313Y-73287416D01*
X54790552Y-73158150D01*
X54790500Y-73154544D01*
X54790500Y-73114485D01*
X54790500Y-73112695D01*
X54788066Y-73070922D01*
X54787909Y-73067323D01*
X54786400Y-73015447D01*
X54784148Y-72938046D01*
X54778589Y-72900103D01*
X54777490Y-72889341D01*
X54775262Y-72851073D01*
X54752806Y-72723724D01*
X54752236Y-72720189D01*
X54733492Y-72592218D01*
X54723566Y-72555173D01*
X54721229Y-72544635D01*
X54714569Y-72506864D01*
X54677476Y-72382966D01*
X54676496Y-72379507D01*
X54666850Y-72343511D01*
X54668511Y-72273661D01*
X54707672Y-72215798D01*
X54771900Y-72188292D01*
X54840803Y-72199877D01*
X54869469Y-72219151D01*
X55609115Y-72883291D01*
X55610719Y-72884659D01*
X55635358Y-72905299D01*
X55635377Y-72905310D01*
X55635381Y-72905313D01*
X55760169Y-72976935D01*
X55767565Y-72979874D01*
X55767628Y-72979896D01*
X55769525Y-72980596D01*
X55799735Y-72991418D01*
X55799759Y-72991422D01*
X55941619Y-73015447D01*
X65806096Y-73261782D01*
X65872623Y-73283134D01*
X65917045Y-73337063D01*
X65927000Y-73385743D01*
X65927000Y-79975500D01*
X65907315Y-80042539D01*
X65854511Y-80088294D01*
X65803000Y-80099500D01*
X63339281Y-80099500D01*
X26433378Y-79950498D01*
X26366419Y-79930543D01*
X26320878Y-79877555D01*
X26309879Y-79826620D01*
X26285104Y-54496646D01*
X26284151Y-53522808D01*
X26303770Y-53455751D01*
X26356529Y-53409944D01*
X26411285Y-53398728D01*
X26473769Y-53400307D01*
G37*
%TD.AperFunction*%
%TA.AperFunction,NonConductor*%
G36*
X53168044Y-31563868D02*
G01*
X53171334Y-31570673D01*
X53172224Y-31578349D01*
X53172415Y-31579993D01*
X53217794Y-31682766D01*
X53221896Y-31686869D01*
X53225264Y-31695001D01*
X53221896Y-31703131D01*
X53217794Y-31707233D01*
X53172414Y-31810009D01*
X53169539Y-31834793D01*
X53169538Y-31834804D01*
X53169500Y-31835135D01*
X53169500Y-31835474D01*
X53169500Y-31835475D01*
X53169500Y-32824523D01*
X53169500Y-32824540D01*
X53169501Y-32824864D01*
X53169539Y-32825195D01*
X53169540Y-32825205D01*
X53172414Y-32849990D01*
X53217794Y-32952766D01*
X53221896Y-32956869D01*
X53225264Y-32965001D01*
X53221896Y-32973131D01*
X53217794Y-32977233D01*
X53172414Y-33080009D01*
X53169539Y-33104793D01*
X53169538Y-33104804D01*
X53169500Y-33105135D01*
X53169500Y-33105474D01*
X53169500Y-33105475D01*
X53169500Y-34094523D01*
X53169500Y-34094540D01*
X53169501Y-34094864D01*
X53169539Y-34095195D01*
X53169540Y-34095205D01*
X53172414Y-34119990D01*
X53217794Y-34222766D01*
X53221896Y-34226869D01*
X53225264Y-34235001D01*
X53221896Y-34243131D01*
X53217794Y-34247233D01*
X53172414Y-34350009D01*
X53169539Y-34374793D01*
X53169538Y-34374804D01*
X53169500Y-34375135D01*
X53169500Y-34375474D01*
X53169500Y-34375475D01*
X53169500Y-35364523D01*
X53169500Y-35364540D01*
X53169501Y-35364864D01*
X53169539Y-35365195D01*
X53169540Y-35365205D01*
X53172414Y-35389990D01*
X53217794Y-35492766D01*
X53221896Y-35496869D01*
X53225264Y-35505001D01*
X53221896Y-35513131D01*
X53217794Y-35517233D01*
X53172414Y-35620009D01*
X53169539Y-35644793D01*
X53169538Y-35644804D01*
X53169500Y-35645135D01*
X53169500Y-35645474D01*
X53169500Y-35645475D01*
X53169500Y-36634523D01*
X53169500Y-36634540D01*
X53169501Y-36634864D01*
X53169539Y-36635195D01*
X53169540Y-36635205D01*
X53172414Y-36659990D01*
X53217794Y-36762766D01*
X53221896Y-36766869D01*
X53225264Y-36775001D01*
X53221896Y-36783131D01*
X53217794Y-36787233D01*
X53172414Y-36890009D01*
X53169539Y-36914793D01*
X53169538Y-36914804D01*
X53169500Y-36915135D01*
X53169500Y-36915474D01*
X53169500Y-36915475D01*
X53169500Y-37904523D01*
X53169500Y-37904540D01*
X53169501Y-37904864D01*
X53169539Y-37905195D01*
X53169540Y-37905205D01*
X53172414Y-37929990D01*
X53217794Y-38032766D01*
X53221896Y-38036869D01*
X53225264Y-38045001D01*
X53221896Y-38053131D01*
X53217794Y-38057233D01*
X53172414Y-38160009D01*
X53169539Y-38184793D01*
X53169538Y-38184804D01*
X53169500Y-38185135D01*
X53169500Y-38185474D01*
X53169500Y-38185475D01*
X53169500Y-39174523D01*
X53169500Y-39174540D01*
X53169501Y-39174864D01*
X53169539Y-39175195D01*
X53169540Y-39175205D01*
X53172414Y-39199990D01*
X53217793Y-39302764D01*
X53221897Y-39306868D01*
X53225265Y-39315000D01*
X53221897Y-39323131D01*
X53217794Y-39327234D01*
X53172414Y-39430009D01*
X53169539Y-39454793D01*
X53169538Y-39454804D01*
X53169500Y-39455135D01*
X53169500Y-39455474D01*
X53169500Y-39455475D01*
X53169500Y-40444523D01*
X53169500Y-40444540D01*
X53169501Y-40444864D01*
X53169539Y-40445195D01*
X53169540Y-40445205D01*
X53172414Y-40469990D01*
X53217794Y-40572766D01*
X53221896Y-40576869D01*
X53225264Y-40585001D01*
X53221896Y-40593131D01*
X53217794Y-40597233D01*
X53172414Y-40700009D01*
X53169539Y-40724793D01*
X53169538Y-40724804D01*
X53169500Y-40725135D01*
X53169500Y-40725474D01*
X53169500Y-40725475D01*
X53169500Y-41714523D01*
X53169500Y-41714540D01*
X53169501Y-41714864D01*
X53169539Y-41715195D01*
X53169540Y-41715205D01*
X53172414Y-41739990D01*
X53217794Y-41842766D01*
X53221896Y-41846869D01*
X53225264Y-41855001D01*
X53221896Y-41863131D01*
X53217794Y-41867233D01*
X53172414Y-41970009D01*
X53169539Y-41994793D01*
X53169538Y-41994804D01*
X53169500Y-41995135D01*
X53169500Y-41995474D01*
X53169500Y-41995475D01*
X53169500Y-42984523D01*
X53169500Y-42984540D01*
X53169501Y-42984864D01*
X53169539Y-42985195D01*
X53169540Y-42985205D01*
X53172414Y-43009990D01*
X53217794Y-43112766D01*
X53221896Y-43116869D01*
X53225264Y-43125001D01*
X53221896Y-43133131D01*
X53217794Y-43137233D01*
X53172414Y-43240009D01*
X53169539Y-43264793D01*
X53169538Y-43264804D01*
X53169500Y-43265135D01*
X53169500Y-43265474D01*
X53169500Y-43265475D01*
X53169500Y-44254523D01*
X53169500Y-44254540D01*
X53169501Y-44254864D01*
X53169539Y-44255195D01*
X53169540Y-44255205D01*
X53172414Y-44279990D01*
X53217794Y-44382766D01*
X53221896Y-44386869D01*
X53225264Y-44395001D01*
X53221896Y-44403131D01*
X53217794Y-44407233D01*
X53172414Y-44510009D01*
X53169539Y-44534793D01*
X53169538Y-44534804D01*
X53169500Y-44535135D01*
X53169500Y-44535474D01*
X53169500Y-44535475D01*
X53169500Y-45035437D01*
X53166132Y-45043569D01*
X53158000Y-45046937D01*
X53150767Y-45044378D01*
X53104767Y-45007167D01*
X53100564Y-44999434D01*
X53100500Y-44998226D01*
X53100500Y-44984201D01*
X53098004Y-44966847D01*
X53097921Y-44966075D01*
X53094091Y-44912517D01*
X53088177Y-44896663D01*
X53087572Y-44894291D01*
X53085165Y-44877543D01*
X53062863Y-44828710D01*
X53062553Y-44827961D01*
X53043796Y-44777669D01*
X53033656Y-44764124D01*
X53032402Y-44762010D01*
X53025377Y-44746627D01*
X52990232Y-44706067D01*
X52989717Y-44705428D01*
X52985962Y-44700412D01*
X52979221Y-44691407D01*
X52979219Y-44691405D01*
X52966832Y-44679017D01*
X52966273Y-44678417D01*
X52931128Y-44637857D01*
X52916895Y-44628710D01*
X52914984Y-44627170D01*
X51203868Y-42916054D01*
X51200500Y-42907922D01*
X51200500Y-32012077D01*
X51203868Y-32003945D01*
X51643946Y-31563868D01*
X51652078Y-31560500D01*
X53159912Y-31560500D01*
X53168044Y-31563868D01*
G37*
%TD.AperFunction*%
M02*
